<?xml version="1.0" encoding="UTF-8"?>
<svg width="1216px" height="714px" viewBox="0 0 1216 714" version="1.1" xmlns="http://www.w3.org/2000/svg" xmlns:xlink="http://www.w3.org/1999/xlink">
    <!-- Generator: Sketch 53.2 (72643) - https://sketchapp.com -->
    <title>Artboard Copy 46</title>
    <desc>Created with Sketch.</desc>
    <defs>
        <filter x="-4.8%" y="-8.2%" width="109.6%" height="116.3%" filterUnits="objectBoundingBox" id="filter-1">
            <feOffset dx="0" dy="2" in="SourceAlpha" result="shadowOffsetOuter1"></feOffset>
            <feGaussianBlur stdDeviation="2" in="shadowOffsetOuter1" result="shadowBlurOuter1"></feGaussianBlur>
            <feColorMatrix values="0 0 0 0 0   0 0 0 0 0   0 0 0 0 0  0 0 0 0.5 0" type="matrix" in="shadowBlurOuter1" result="shadowMatrixOuter1"></feColorMatrix>
            <feMerge>
                <feMergeNode in="shadowMatrixOuter1"></feMergeNode>
                <feMergeNode in="SourceGraphic"></feMergeNode>
            </feMerge>
        </filter>
        <filter x="-3.5%" y="-11.7%" width="107.0%" height="123.3%" filterUnits="objectBoundingBox" id="filter-2">
            <feOffset dx="0" dy="2" in="SourceAlpha" result="shadowOffsetOuter1"></feOffset>
            <feGaussianBlur stdDeviation="2" in="shadowOffsetOuter1" result="shadowBlurOuter1"></feGaussianBlur>
            <feColorMatrix values="0 0 0 0 0   0 0 0 0 0   0 0 0 0 0  0 0 0 0.5 0" type="matrix" in="shadowBlurOuter1" result="shadowMatrixOuter1"></feColorMatrix>
            <feMerge>
                <feMergeNode in="shadowMatrixOuter1"></feMergeNode>
                <feMergeNode in="SourceGraphic"></feMergeNode>
            </feMerge>
        </filter>
        <filter x="-4.1%" y="-15.4%" width="108.2%" height="130.8%" filterUnits="objectBoundingBox" id="filter-3">
            <feOffset dx="0" dy="2" in="SourceAlpha" result="shadowOffsetOuter1"></feOffset>
            <feGaussianBlur stdDeviation="2" in="shadowOffsetOuter1" result="shadowBlurOuter1"></feGaussianBlur>
            <feColorMatrix values="0 0 0 0 0   0 0 0 0 0   0 0 0 0 0  0 0 0 0.5 0" type="matrix" in="shadowBlurOuter1" result="shadowMatrixOuter1"></feColorMatrix>
            <feMerge>
                <feMergeNode in="shadowMatrixOuter1"></feMergeNode>
                <feMergeNode in="SourceGraphic"></feMergeNode>
            </feMerge>
        </filter>
        <filter x="-2.4%" y="-13.3%" width="104.7%" height="126.7%" filterUnits="objectBoundingBox" id="filter-4">
            <feOffset dx="0" dy="2" in="SourceAlpha" result="shadowOffsetOuter1"></feOffset>
            <feGaussianBlur stdDeviation="2" in="shadowOffsetOuter1" result="shadowBlurOuter1"></feGaussianBlur>
            <feColorMatrix values="0 0 0 0 0   0 0 0 0 0   0 0 0 0 0  0 0 0 0.5 0" type="matrix" in="shadowBlurOuter1" result="shadowMatrixOuter1"></feColorMatrix>
            <feMerge>
                <feMergeNode in="shadowMatrixOuter1"></feMergeNode>
                <feMergeNode in="SourceGraphic"></feMergeNode>
            </feMerge>
        </filter>
        <polygon id="path-5" points="0 0 89.9092364 0 89.9092364 86.4907173 0 86.4907173"></polygon>
        <polygon id="path-7" points="0.12232445 0.48008874 49.7615342 0.48008874 49.7615342 52.8509564 0.12232445 52.8509564"></polygon>
        <polygon id="path-9" points="0.28430559 0.277461951 52.8213861 0.277461951 52.8213861 52.3427742 0.28430559 52.3427742"></polygon>
        <polygon id="path-11" points="0 88.4237156 507.733549 88.4237156 507.733549 0 0 0"></polygon>
    </defs>
    <g id="Artboard-Copy-46" stroke="none" stroke-width="1" fill="none" fill-rule="evenodd">
        <rect fill="#E3E3E3" opacity="0.475387893" x="0" y="0" width="1216" height="714"></rect>
        <rect id="Rectangle-Copy" stroke="#979797" fill="#000000" opacity="0.836193266" style="mix-blend-mode: multiply;" x="-160.5" y="-39.5" width="1553.3136" height="770.940983"></rect>
        <g id="BestBuy---white" filter="url(#filter-1)" transform="translate(208.000000, 171.000000)" fill-rule="nonzero">
            <polygon id="Fill-1" fill="#FFED00" points="200.068555 106.385483 187.441089 118.331532 187.441089 135.054089 200.057533 146.913286 250.765782 146.913286 250.765782 106.385483"></polygon>
            <g id="Group-20">
                <path d="M34.8113951,48.9313535 C33.6240992,50.0447612 32.1321174,50.6013215 30.3345834,50.6013215 L20.6235719,50.6013215 L20.6235719,39.2140802 L30.3345834,39.2140802 C32.1321174,39.2140802 33.6240992,39.7626035 34.8113951,40.8593633 C35.9986907,41.9555488 36.5919058,43.296575 36.5919058,44.8827287 C36.5919058,46.4685957 35.9986907,47.8179457 34.8113951,48.9313535 Z M20.6235719,16.7134288 L28.2216874,16.7134288 C29.742811,16.7134288 30.9855042,17.1591937 31.9489016,18.0504365 C32.912299,18.9416793 33.3938533,20.0427444 33.3938533,21.3544931 C33.3938533,22.6659547 32.912299,23.7673069 31.9489016,24.6588368 C30.9855042,25.5497926 29.742811,25.9952704 28.2216874,25.9952704 L20.6235719,25.9952704 L20.6235719,16.7134288 Z M45.2624826,31.7488813 L46.240595,31.3949675 C46.8632399,31.1004698 47.611395,30.5912703 48.4859256,29.8688039 C49.3604561,29.1466245 50.2346983,28.3136499 51.1089403,27.3698796 C51.9837595,26.4261095 52.7397047,25.1657401 53.3770646,23.5881973 C54.0141361,22.0103673 54.3326718,20.3521679 54.3326718,18.6118764 C54.3326718,14.0411356 52.2581502,10.1044544 48.107953,6.80212002 C43.9580443,3.4997856 38.2968221,1.84818784 31.1237093,1.84818784 L0.000115411491,1.84818784 L0.000115411491,65.2765455 L32.9466339,65.2765455 C41.3924469,65.2765455 58.8865206,63.7119192 58.8865206,47.141692 C58.8865206,34.4691094 45.5588016,31.8668526 45.2624826,31.7488813 Z" id="Fill-2" fill="#FFFFFF"></path>
                <path d="M51.2018465,119.144351 C50.0145509,120.257758 48.5225688,120.814319 46.7247462,120.814319 L37.0737487,120.814319 L37.0737487,109.42679 L46.7247462,109.42679 C48.5225688,109.42679 50.0145509,109.975027 51.2018465,111.071786 C52.3891421,112.168259 52.9826459,113.509285 52.9826459,115.095439 C52.9826459,116.681306 52.3891421,118.030943 51.2018465,119.144351 Z M37.0737487,86.9235555 L44.6135815,86.9235555 C46.1355705,86.9235555 47.378841,87.3693206 48.3428154,88.2614245 C49.3067899,89.1529543 49.7886328,90.2548806 49.7886328,91.5672032 C49.7886328,92.8795259 49.3067899,93.9814521 48.3428154,94.873269 C47.378841,95.7650859 46.1355705,96.2108509 44.6135815,96.2108509 L37.0737487,96.2108509 L37.0737487,86.9235555 Z M61.6526456,101.961878 L62.630758,101.607678 C63.253403,101.31318 64.001558,100.80398 64.8760886,100.081514 C65.7506192,99.3593346 66.6248611,98.52636 67.4991033,97.5828767 C68.3739223,96.6391067 69.1298675,95.3784501 69.7672276,93.8011944 C70.4042989,92.2230776 70.7228347,90.5648779 70.7228347,88.8248736 C70.7228347,84.2538457 68.6483132,80.3171645 64.4984045,77.0151171 C60.3482071,73.7124956 54.686985,72.060898 47.5138723,72.060898 L16.4505809,72.060898 L16.4505809,135.489256 L49.3365083,135.489256 C57.7826097,135.489256 75.276395,133.924629 75.276395,117.354402 C75.276395,104.681819 61.9489647,102.079563 61.6526456,101.961878 Z" id="Fill-4" fill="#FFFFFF"></path>
                <polygon id="Fill-6" fill="#FFFFFF" points="111.682719 49.8841077 80.863523 49.8841077 80.863523 39.9317531 106.028999 39.9317531 106.028999 25.4235834 80.863523 25.4235834 80.863523 17.285288 111.758891 17.285288 111.758891 1.84798691 60.2397781 1.84798691 60.2397781 65.2766316 111.682719 65.2766316"></polygon>
                <polygon id="Fill-8" fill="#FFFFFF" points="164.406901 1.84798691 164.406901 17.285001 181.258133 17.285001 181.258133 65.2769186 201.755214 65.2769186 201.755214 17.285001 218.606446 17.285001 218.606446 1.84798691"></polygon>
                <path d="M141.10131,48.8665984 C139.974606,49.8399331 138.411645,50.32617 136.41041,50.32617 C134.410041,50.32617 132.327152,49.780804 130.163763,48.689785 C128.000086,47.598766 126.554558,46.7210139 125.828331,46.0582508 C125.416889,45.6819483 125.061133,45.3507103 124.749522,45.0553515 L112.586305,56.5485086 L113.356965,57.3148912 C114.097907,58.081561 115.239326,58.9957665 116.780647,60.057221 C118.322256,61.1189624 120.107672,62.1804168 122.138337,63.2418712 C124.168713,64.3036126 126.70315,65.2100682 129.741357,65.9626731 C132.779276,66.7141301 135.914141,67.0901456 139.144797,67.0901456 C147.207732,67.0901456 153.625188,65.0111531 158.397165,60.8534553 C163.16943,56.6954703 165.555563,51.6826961 165.555563,45.8145582 C165.555563,42.4238171 164.866556,39.445258 163.488254,36.8797417 C162.109953,34.3145123 160.390321,32.3830557 158.330515,31.0853719 C156.27042,29.7876878 154.039804,28.623475 151.638668,27.5910112 C149.449312,26.6498244 147.403066,25.9382652 145.497046,25.4508804 C145.312964,25.4038067 145.128883,25.3561589 144.947398,25.3133908 C142.887303,24.8268669 141.175751,24.207733 139.811876,23.455702 C138.448577,22.7036711 137.766495,21.8411316 137.766495,20.867797 C137.766495,19.6886584 138.241125,18.7153237 139.189519,17.9483669 C140.138201,17.1816972 141.486496,16.7985059 143.235557,16.7985059 C147.399027,16.7985059 149.94587,18.6576297 151.258387,20.0069799 L163.464307,8.47363797 L163.243293,8.21760301 C162.709804,7.53933998 161.791128,6.76520735 160.48669,5.89549214 C159.182829,5.02548993 157.663725,4.14831184 155.929667,3.26367084 C154.19561,2.37902984 151.942489,1.61953598 149.171459,0.985763326 C146.399852,0.351703638 143.502158,0.0345302763 140.478954,0.0345302763 C132.831211,0.0345302763 126.673431,2.04750474 122.005036,6.07259257 C117.336642,10.0976804 115.001867,14.8231329 115.001867,20.2486631 C115.001867,23.1385287 115.521219,25.7333226 116.558191,28.0333317 C117.59574,30.3336279 118.914605,32.1620391 120.515363,33.517991 C122.115832,34.8745171 123.901824,36.0685816 125.873341,37.1010454 C127.528342,37.9676032 129.194595,38.68519 130.870659,39.2713149 C131.190637,39.3832584 131.510615,39.4986465 131.831171,39.6002567 C133.831829,40.2340293 135.640039,40.8235986 137.255511,41.3692516 C138.870695,41.9146176 140.197638,42.4972982 141.234611,43.116432 C142.27216,43.7358529 142.790935,44.4726709 142.790935,45.3280345 C142.790935,46.714125 142.227726,47.8935507 141.10131,48.8665984" id="Fill-10" fill="#FFFFFF"></path>
                <path d="M111.758371,109.75289 C111.758371,113.939866 108.362677,117.342662 104.153908,117.373662 C99.9012834,117.404662 96.4369189,113.983782 96.4369189,109.75289 L96.4369189,72.0833154 L75.7993245,72.0833154 L75.7993245,108.79563 C75.7993245,123.935563 88.1365245,136.20888 103.355261,136.20888 L104.647581,136.20888 C119.866317,136.20888 132.203517,123.935563 132.203517,108.79563 L132.203517,72.0833154 L111.758371,72.0833154 L111.758371,109.75289 Z" id="Fill-12" fill="#FFFFFF"></path>
                <polygon id="Fill-14" fill="#FFFFFF" points="167.452408 93.655352 153.937723 72.0832579 133.275315 72.0832579 157.14068 112.865151 157.14068 135.511615 177.764136 135.511615 177.764136 112.865151 201.629502 72.0832579 180.967094 72.0832579"></polygon>
                <path d="M199.484608,126.840498 C199.484608,128.211375 198.367425,129.322774 196.989123,129.322774 C195.61111,129.322774 194.493927,128.211375 194.493927,126.840498 C194.493927,125.46962 195.61111,124.358221 196.989123,124.358221 C198.367425,124.358221 199.484608,125.46962 199.484608,126.840498" id="Fill-16" fill="#0F2027"></path>
            </g>
        </g>
        <g id="Amazon_logo" filter="url(#filter-2)" transform="translate(673.000000, 194.653855)">
            <path d="M211.148237,80.2103315 C191.369759,94.788637 162.702058,102.566689 138.019715,102.566689 C103.411071,102.566689 72.2544174,89.7662341 48.683204,68.4765861 C46.8312898,66.8024416 48.4905983,64.5208864 50.7129083,65.8246283 C76.1508446,80.6251637 107.603823,89.5291851 140.093866,89.5291851 C162.005741,89.5291851 186.110304,84.9956821 208.274056,75.5879487 C211.622321,74.1656653 214.422421,77.7806173 211.148237,80.2103315" id="path8" fill="#FF9900"></path>
            <path d="M219.370753,70.8025947 C216.852135,67.5728506 202.659041,69.2766126 196.28845,70.0321959 C194.347632,70.2692448 194.051338,68.5802916 195.799536,67.365426 C207.103644,59.4095901 225.652458,61.7059711 227.815495,64.3727274 C229.97853,67.0543095 227.252514,85.64757 216.629909,94.5219501 C215.000221,95.8849577 213.444611,95.1590157 214.170567,93.351538 C216.555834,87.3957685 221.904179,74.0471544 219.370753,70.8025947" id="path10" fill="#FF9900"></path>
            <path d="M196.73291,11.2004707 L196.73291,3.4668642 C196.73291,2.2964528 197.62183,1.51124045 198.688536,1.51124045 L233.311979,1.51124045 C234.423136,1.51124045 235.312056,2.31127006 235.312056,3.4668642 L235.312056,10.0893222 C235.29725,11.2004707 234.363874,12.652374 232.704548,14.9487513 L214.763176,40.5644787 C221.430085,40.4015212 228.467373,41.3941364 234.512033,44.8016672 C235.87504,45.5720626 236.245426,46.6980281 236.349131,47.8091882 L236.349131,56.0613352 C236.349131,57.1872972 235.104641,58.5058513 233.800893,57.8243526 C223.148659,52.2389653 209.000008,51.6315376 197.221813,57.8836182 C196.021773,58.535496 194.762471,57.2317473 194.762471,56.105775 L194.762471,48.2684637 C194.762471,47.0091616 194.777276,44.860926 196.036578,42.9497496 L216.822508,13.1412824 L198.732979,13.1412824 C197.62183,13.1412824 196.73291,12.3560765 196.73291,11.2004707" id="path12" fill="#FFFFFF"></path>
            <path d="M70.4321241,59.4540368 L59.8984185,59.4540368 C58.8909809,59.3799692 58.090951,58.624386 58.0168698,57.6613781 L58.0168698,3.60021273 C58.0168698,2.51869264 58.9206086,1.65939603 60.0465707,1.65939603 L69.8691397,1.65939603 C70.8914098,1.70381208 71.7062417,2.48905268 71.7803263,3.4668642 L71.7803263,10.533791 L71.9729252,10.533791 C74.535976,3.70391007 79.3509576,0.518611634 85.8400804,0.518611634 C92.4329053,0.518611634 96.5515727,3.70391007 99.5146402,10.533791 C102.062879,3.70391007 107.855674,0.518611634 114.063308,0.518611634 C118.478279,0.518611634 123.30808,2.34089845 126.256335,6.42993303 C129.589785,10.9782421 128.908276,17.5858832 128.908276,23.3786891 L128.893471,57.4984205 C128.893471,58.5799359 127.989732,59.4540368 126.86377,59.4540368 L116.34487,59.4540368 C115.292989,59.3799692 114.448516,58.535496 114.448516,57.4984205 L114.448516,28.8455468 C114.448516,26.5639865 114.655916,20.8748947 114.152204,18.7118487 C113.366993,15.0821001 111.011357,14.0598314 107.959386,14.0598314 C105.411147,14.0598314 102.744391,15.7635968 101.662869,18.4896259 C100.581347,21.2156488 100.685056,25.7787639 100.685056,28.8455468 L100.685056,57.4984205 C100.685056,58.5799359 99.7813202,59.4540368 98.6553514,59.4540368 L88.1364682,59.4540368 C87.0697616,59.3799692 86.2401005,58.535496 86.2401005,57.4984205 L86.2252951,28.8455468 C86.2252951,22.815706 87.2179103,13.941311 79.7361758,13.941311 C72.1655274,13.941311 72.4618352,22.5934665 72.4618352,28.8455468 L72.4618352,57.4984205 C72.4618352,58.5799359 71.5580963,59.4540368 70.4321343,59.4540368" id="path14" fill="#FFFFFF"></path>
            <path d="M265.120524,0.518611634 C280.75071,0.518611634 289.210262,13.941311 289.210262,31.008587 C289.210262,47.498058 279.861773,60.5800023 265.120524,60.5800023 C249.771827,60.5800023 241.415971,47.1573036 241.415971,30.4307871 C241.415971,13.6005565 249.875532,0.518611634 265.120524,0.518611634 M265.209411,11.5560479 C257.446177,11.5560479 256.957264,22.1341917 256.957264,28.7270267 C256.957264,35.3346682 256.853558,49.438869 265.120524,49.438869 C273.283774,49.438869 273.668979,38.0606969 273.668979,31.1271016 C273.668979,26.5639865 273.476377,21.1119402 272.098543,16.785854 C270.913316,13.0227681 268.557686,11.5560479 265.209411,11.5560479" id="path16" fill="#FFFFFF"></path>
            <path d="M309.477653,59.4540368 L298.988394,59.4540368 C297.9365,59.3799692 297.092026,58.535496 297.092026,57.4984205 L297.077221,3.42241854 C297.166114,2.4297901 298.040226,1.65939603 299.106925,1.65939603 L308.870242,1.65939603 C309.788783,1.70381208 310.544366,2.32608698 310.751791,3.17056157 L310.751791,11.4375163 L310.94438,11.4375163 C313.892642,4.04466451 318.026108,0.518611634 325.300442,0.518611634 C330.026537,0.518611634 334.634111,2.22237841 337.597178,6.88920786 C340.352828,11.2152877 340.352828,18.4896259 340.352828,23.7194319 L340.352828,57.7502816 C340.23431,58.6984535 339.360199,59.4540368 338.323137,59.4540368 L327.759794,59.4540368 C326.796789,59.3799692 325.996759,58.6688326 325.893064,57.7502816 L325.893064,28.386273 C325.893064,22.4749519 326.574566,13.8227851 319.300229,13.8227851 C316.737181,13.8227851 314.381538,15.5413739 313.211126,18.1488656 C311.729598,21.452695 311.536995,24.7417007 311.536995,28.386273 L311.536995,57.4984205 C311.52219,58.5799359 310.603632,59.4540368 309.47767,59.4540368" id="path18" fill="#FFFFFF"></path>
            <path d="M169.131926,33.6309014 C169.131926,37.7347478 169.235631,41.1570908 167.161483,44.8016672 C165.487353,47.7647449 162.820593,49.587028 159.872344,49.587028 C155.827755,49.587028 153.457299,46.5054292 153.457299,41.9571208 C153.457299,32.9790274 161.502025,31.3493418 169.131926,31.3493418 L169.131926,33.6309014 M179.754528,59.3058846 C179.058214,59.9281279 178.050759,59.9725712 177.265552,59.5577491 C173.769124,56.6539439 173.132069,55.3057519 171.220892,52.5352833 C165.442906,58.4317837 161.339051,60.1948045 153.857306,60.1948045 C144.982916,60.1948045 138.09379,54.7279417 138.09379,43.7794175 C138.09379,35.2309593 142.716183,29.4085302 149.323823,26.5639865 C155.04254,24.0453698 163.027997,23.6009177 169.131926,22.9045976 L169.131926,21.5415863 C169.131926,19.0377859 169.324528,16.074717 167.842992,13.9116884 C166.568875,11.9708709 164.109519,11.1708424 161.93167,11.1708424 C157.916708,11.1708424 154.346219,13.230174 153.472108,17.4969916 C153.294325,18.4451799 152.598011,19.3785461 151.635003,19.4229917 L141.427239,18.3266489 C140.567944,18.1340599 139.604953,17.4377287 139.856814,16.1191739 C142.197638,3.73355004 153.398041,7.38838191e-05 163.413202,7.38838191e-05 C168.539313,7.38838191e-05 175.235844,1.36308826 179.280433,5.24470468 C184.406535,10.0300593 183.917635,16.4154715 183.917635,23.3638721 L183.917635,39.7792677 C183.917635,44.7127841 185.962152,46.8758114 187.888144,49.5425847 C188.554844,50.4907566 188.702996,51.6315376 187.843656,52.3426742 C185.695434,54.1353398 181.873071,57.4687894 179.769296,59.3355192 L179.75449,59.3058404" id="path28" fill="#FFFFFF"></path>
            <path d="M31.0381402,33.6309014 C31.0381402,37.7347478 31.1418372,41.1570908 29.0676995,44.8016672 C27.3935567,47.7647449 24.7416132,49.587028 21.7785444,49.587028 C17.7339554,49.587028 15.3783208,46.5054292 15.3783208,41.9571208 C15.3783208,32.9790274 23.4230476,31.3493418 31.0381402,31.3493418 L31.0381402,33.6309014 M41.6607347,59.3058846 C40.9644171,59.9281279 39.9569625,59.9725712 39.1717515,59.5577491 C35.675341,56.6539439 35.0530875,55.3057519 33.1270948,52.5352833 C27.3491107,58.4317837 23.2600873,60.1948045 15.7635151,60.1948045 C6.90393731,60.1948045 -7.28746798e-07,54.7279417 -7.28746798e-07,43.7794175 C-7.28746798e-07,35.2309593 4.63719973,29.4085302 11.2300236,26.5639865 C16.9487438,24.0453698 24.9342131,23.6009177 31.0381402,22.9045976 L31.0381402,21.5415863 C31.0381402,19.0377859 31.2307404,16.074717 29.7640202,13.9116884 C28.4750768,11.9708709 26.015739,11.1708424 23.852693,11.1708424 C19.8377443,11.1708424 16.2524241,13.230174 15.3783208,17.4969916 C15.2005327,18.4451799 14.5042123,19.3785461 13.5560353,19.4229917 L3.33345106,18.3266489 C2.47415952,18.1340599 1.5259766,17.4377287 1.76302234,16.1191739 C4.11866267,3.73355004 15.3042409,7.38838191e-05 25.319419,7.38838191e-05 C30.4455175,7.38838191e-05 37.1420506,1.36308826 41.1866403,5.24470468 C46.3127521,10.0300593 45.8238386,16.4154715 45.8238386,23.3638721 L45.8238386,39.7792677 C45.8238386,44.7127841 47.8683653,46.8758114 49.7943607,49.5425847 C50.4758628,50.4907566 50.624015,51.6315376 49.764716,52.3426742 C47.616494,54.1353398 43.7941411,57.4687894 41.6903522,59.3355192 L41.6607415,59.3058404" id="path30" fill="#FFFFFF"></path>
        </g>
        <g id="Sears_logo_2010-present" filter="url(#filter-3)" transform="translate(177.000000, 441.653855)" fill="#FFFFFF" fill-rule="nonzero">
            <path d="M239.616,51.031 C240.479,64.687 250.684,72.594 264.054,72.594 C273.685,72.594 287.485,69.719 287.485,56.926 C287.485,44.42 274.835,42.551 262.185,39.963 C249.392,37.376 236.742,34.069 236.742,18.976 C236.741,4.313 250.972,0 263.479,0 C279.147,0 290.792,6.756 290.792,23.575 L285.329,23.575 C285.185,10.206 275.841,4.744 263.479,4.744 C253.416,4.744 242.204,8.481 242.204,18.975 C242.204,30.763 254.854,32.631 266.786,35.219 C281.448,37.95 292.948,41.4 292.948,56.926 C292.948,72.882 276.991,77.338 264.054,77.338 C247.235,77.338 234.584,68.282 234.153,51.032 L239.616,51.032 L239.616,51.031 Z" id="Path"></path>
            <path d="M208.136,18.113 L208.567,18.113 C211.442,8.481 223.517,0.719 236.886,1.294 L236.886,6.756 C231.136,6.038 223.085,7.475 216.473,13.944 C211.011,19.551 208.71,24.151 208.136,35.219 L208.136,75.613 L202.673,75.613 L202.673,1.725 L208.136,1.725 L208.136,18.113 Z" id="Path"></path>
            <path d="M190.888,75.27 L185.426,75.27 L185.426,60.95 L185.138,60.95 C181.688,69.719 171.769,77.337 157.682,77.337 C143.738,77.337 132.956,72.019 132.956,56.493 C132.956,39.243 147.907,35.65 160.125,34.643 C184.563,32.919 185.569,31.337 185.569,19.262 C185.569,15.956 181.832,4.744 165.013,4.744 C151.788,4.744 143.019,11.643 142.301,24.437 L136.838,24.437 C137.556,8.194 147.619,0 165.013,0 C177.951,0 190.888,4.025 190.888,19.262 L190.888,75.27 Z M185.425,33.638 C181.112,38.525 169.324,37.951 158.688,39.388 C145.75,40.826 138.419,45.426 138.419,56.494 C138.419,65.407 144.888,72.595 157.825,72.595 C182.694,72.595 185.425,51.32 185.425,47.439 L185.425,33.638 Z" id="Shape"></path>
            <path d="M69.565,39.387 C69.278,56.781 78.478,72.594 96.734,72.594 C110.678,72.594 120.596,64.257 123.184,50.6 L128.646,50.6 C125.771,67.85 114.271,77.337 96.734,77.337 C75.171,77.337 63.815,60.375 64.103,39.962 C63.815,19.694 74.452,0 96.734,0 C119.878,0 130.228,18.256 129.221,39.387 L69.565,39.387 Z M123.759,34.644 C123.472,19.12 113.696,4.745 96.734,4.745 C80.347,4.745 70.715,19.982 69.565,34.644 L123.759,34.644 Z" id="Shape"></path>
            <path d="M6.462,51.031 C7.325,64.688 17.532,72.594 30.9,72.594 C40.531,72.594 54.332,69.719 54.332,56.926 C54.332,44.42 41.682,42.551 29.032,39.963 C16.238,37.375 3.588,34.069 3.588,18.975 C3.588,4.313 17.818,0 30.325,0 C45.994,0 57.638,6.756 57.638,23.575 L52.176,23.575 C52.031,10.206 42.688,4.744 30.326,4.744 C20.263,4.744 9.051,8.481 9.051,18.975 C9.051,30.763 21.701,32.631 33.632,35.219 C48.294,37.95 59.794,41.4 59.794,56.925 C59.794,72.881 43.837,77.337 30.899,77.337 C14.08,77.337 1.43,68.281 0.999,51.031 L6.462,51.031 Z" id="Path"></path>
        </g>
        <g id="Group-28" transform="translate(592.000000, 425.653855)">
            <g id="Group-27" filter="url(#filter-4)">
                <path d="M56.3276346,50.200481 C56.3276346,45.5236795 56.4109765,41.1400992 56.2910455,36.7626171 C56.2341291,34.6811025 55.0287208,33.2109312 52.8384552,33.0950657 C50.8819534,32.9913965 49.4163557,34.2003621 49.3360629,36.048621 C49.1322818,40.7330452 49.2684747,45.4322067 49.2684747,50.200481 L56.3276346,50.200481 Z M39.9123309,50.1771046 C39.9123309,45.4337313 40.0485237,40.8067317 39.8442344,36.1944693 C39.7639416,34.3878814 38.3908331,33.1062457 36.4216268,33.0803284 C34.4488632,33.0544111 33.0178219,34.3101295 32.9334637,36.1090947 C32.7144371,40.7828471 32.8597773,45.4733695 32.8597773,50.1771046 L39.9123309,50.1771046 Z M228.817911,86.7865556 L237.612005,86.7865556 L237.612005,8.21141245 L228.817911,8.21141245 L228.817911,86.7865556 Z M251.87719,86.8444884 L260.842542,86.8444884 L260.842542,8.22462519 L251.87719,8.22462519 L251.87719,86.8444884 Z M342.093264,22.3012742 L365.753723,22.3012742 L365.753723,13.3003497 L308.579152,13.3003497 L308.579152,22.4496634 L332.218266,22.4496634 L332.218266,86.7997683 L342.093264,86.7997683 L342.093264,22.3012742 Z M163.438229,86.8683729 L163.438229,13.3222016 L153.686719,13.3222016 L153.686719,43.6860924 L115.178191,43.6860924 L115.178191,13.3796262 L105.439386,13.3796262 L105.439386,86.8139974 L115.270172,86.8139974 L115.270172,53.3623911 L153.738046,53.3623911 L153.738046,86.8683729 L163.438229,86.8683729 Z" id="Fill-1" fill="#FFFFFF"></path>
                <g id="Group-5">
                    <mask id="mask-6" fill="white">
                        <use xlink:href="#path-5"></use>
                    </mask>
                    <g id="Clip-4"></g>
                    <path d="M46.3039426,0 C58.5882327,10.4965049 70.8720146,20.9925015 83.1557965,31.4895146 C84.3784831,32.5343373 85.5879569,33.5954219 86.8223316,34.6265238 C88.8393071,36.3121644 90.6748614,38.0623441 89.5832859,41.0748486 C88.4952677,44.0792222 86.0046663,44.3195924 83.3489058,44.2555615 C82.4412922,44.2337096 81.5321541,44.2520042 80.3115003,44.2520042 C80.3115003,45.4569044 80.3115003,46.3579115 80.3115003,47.2589187 C80.3115003,58.9430455 80.313533,70.6276806 80.310484,82.3123156 C80.3094676,86.0342425 79.8917418,86.4799184 76.2943194,86.4834757 C66.3883224,86.4931311 56.4818172,86.4931311 46.5753119,86.4834757 C43.0002496,86.4799184 42.5408528,85.9951125 42.5291646,82.3128237 C42.519001,79.1194063 42.5271319,75.9254808 42.5271319,72.7971107 C31.3877765,70.7389725 28.5516112,67.0998792 29.7646423,56.510377 L60.0670431,56.510377 C62.1795568,65.426435 58.315847,70.5529778 47.6557074,72.7777998 L47.6557074,81.3737029 L75.2383167,81.3737029 L75.2383167,39.3683725 L83.0643237,39.3683725 C83.1705338,39.1671324 83.2767439,38.9664004 83.3824458,38.7651602 C70.6204644,27.8168813 57.8579747,16.8691106 44.9816523,5.82326067 C32.1210835,16.8492915 19.4073794,27.7487849 6.19311573,39.0776923 L14.5989587,39.0776923 C14.652826,40.2038242 14.7249879,41.0072604 14.7249879,41.8112047 C14.728037,55.442686 14.722447,69.0746755 14.716857,82.706665 C14.716857,83.2148473 14.9099663,83.9171552 14.652826,84.1936063 C13.8773399,85.0270253 12.9697263,86.1745008 12.0239991,86.2654655 C11.3435431,86.3305128 10.2824585,85.0163534 9.83373354,84.1001008 C9.46479321,83.3464665 9.740228,82.2742019 9.740228,81.3427038 C9.74073618,69.9970264 9.74327709,58.6508407 9.74530982,47.3051633 C9.74530982,46.3995825 9.74530982,45.4940017 9.74530982,44.2520042 C8.5561633,44.2520042 7.65159886,44.2555615 6.74754259,44.251496 C2.68614986,44.2316769 1.11434209,43.4394207 0.235186756,40.7150556 C-0.71613046,37.7670902 1.4034978,36.2059543 3.25988765,34.6097537 C11.0269455,27.9312223 18.8077243,21.2684445 26.5951095,14.6132895 C32.3086028,9.73118236 38.0398824,4.87041891 43.7630312,0 L46.3039426,0 Z" id="Fill-3" fill="#FFFFFF" mask="url(#mask-6)"></path>
                </g>
                <path d="M507.733447,86.8991688 L498.594297,86.8991688 C498.547036,85.8380842 498.466235,84.8588169 498.46471,83.8795497 C498.454547,75.8345161 498.464202,67.7894826 498.453022,59.7439408 C498.451498,58.5603843 498.432187,57.3707296 498.318862,56.1937794 C497.703962,49.8089774 494.576608,45.9920203 489.337757,45.1768959 C482.712076,44.1452859 477.040762,46.8965847 474.802727,52.7137472 C473.793986,55.3364759 473.283771,58.286474 473.204494,61.1063775 C472.991058,68.721997 473.1303,76.3477802 473.129791,83.969498 C473.129791,84.8816851 473.129791,85.7938723 473.129791,86.8641042 L464.145637,86.8641042 L464.145637,8.29251834 L473.028663,8.29251834 L473.028663,44.6173872 C475.79165,40.8832639 479.194439,38.3794498 483.466219,37.2192697 C492.95449,34.6427856 505.254534,37.4301654 507.361457,51.1831022 C507.39703,51.413817 507.605893,51.6181062 507.733447,51.8345919 L507.733447,86.8991688 Z" id="Fill-6" fill="#FFFFFF"></path>
                <path d="M392.776671,58.2395688 C392.923536,49.1039761 386.735908,43.2852891 377.697378,43.7040312 C369.743818,44.0724634 362.668904,51.1626225 363.363589,58.2395688 L392.776671,58.2395688 Z M375.098026,88.4235631 C374.130447,88.1679474 373.168966,87.8853981 372.194272,87.6612897 C362.026053,85.3211104 355.397832,78.0032856 353.521623,67.030614 C351.090987,52.8157394 359.541042,39.8743696 373.19031,36.9070933 C388.414942,33.5978104 401.173367,42.9498888 402.525131,58.4357272 C402.721798,60.6920565 402.778206,62.960074 402.923038,65.6600464 L382.953508,65.6600464 L363.27669,65.6600464 C363.034795,71.2226095 366.290211,76.122503 371.878691,78.5770234 C380.377532,82.3101304 387.546967,80.2636804 393.473897,72.9422984 C395.862862,74.7681973 398.113093,76.4878861 400.450223,78.2741468 C396.248064,83.6664689 390.893347,86.7130216 384.398778,87.8701526 C383.660389,88.0017718 382.940803,88.2365521 382.212578,88.4235631 L375.098026,88.4235631 Z" id="Fill-8" fill="#FFFFFF"></path>
                <g id="Group-12" transform="translate(170.749244, 35.572759)">
                    <mask id="mask-8" fill="white">
                        <use xlink:href="#path-7"></use>
                    </mask>
                    <g id="Clip-11"></g>
                    <path d="M39.8335626,22.6494298 C39.6318142,17.391776 38.1967075,12.8933466 33.5773306,10.2441924 C27.9766538,7.03298857 22.1981132,7.25455605 16.7996929,10.7808328 C12.6574992,13.4863953 10.2842879,17.3943169 10.0439177,22.6494298 L39.8335626,22.6494298 Z M21.9109902,52.8512105 C20.9500175,52.5844148 19.9961594,52.2876364 19.0270558,52.0559053 C6.77478116,49.1323327 -0.556256317,38.6104187 0.171968881,24.9819865 C1.20154617,5.72645195 22.6016099,-5.85908752 38.6820216,4.16379146 C46.3906385,8.96865485 49.0997582,16.4836543 49.7095769,25.0577056 C49.8168034,26.5664988 49.7248224,28.0900293 49.7248224,29.9621728 L10.5500673,29.9621728 C9.52557181,34.2654602 12.450669,39.3940357 17.2529915,42.2205456 C24.9961648,46.7779242 31.6442053,45.4774857 40.6131142,37.5325641 C42.7779707,39.1750092 44.9799245,40.8454043 47.3638075,42.654025 C43.2958084,48.0829363 37.9309282,51.0563107 31.4759969,52.2764564 C30.6522335,52.4319602 29.8421909,52.6575931 29.025542,52.8512105 L21.9109902,52.8512105 Z" id="Fill-10" fill="#FFFFFF" mask="url(#mask-8)"></path>
                </g>
                <g id="Group-15" transform="translate(269.336605, 36.080941)">
                    <mask id="mask-10" fill="white">
                        <use xlink:href="#path-9"></use>
                    </mask>
                    <g id="Clip-14"></g>
                    <path d="M42.9027803,26.3875678 C42.9414021,16.7483665 37.2609407,9.81676025 28.6762175,9.02755318 C18.933347,8.13162783 11.9783644,13.3775934 10.3476075,22.8526519 C8.90081252,31.2574786 12.654755,39.1932529 19.5075929,42.212872 C31.1886707,47.3612666 42.8504375,39.4727532 42.9027803,26.3875678 M23.4358419,52.3429774 C22.0525698,51.9882662 20.6642158,51.6518496 19.2865336,51.2773192 C6.28316563,47.738846 -1.55808685,35.2162185 0.65707968,21.5344271 C2.7004806,8.91270399 14.9364934,-0.585222706 27.9622214,0.339669032 C41.6546846,1.3123299 52.0038166,11.4459926 52.7732046,24.634339 C53.5608871,38.1372502 44.6224691,49.294392 30.966595,51.8703679 C30.4767073,51.9628571 30.0112123,52.1823918 29.5340292,52.3429774 C27.5013001,52.3429774 25.468571,52.3429774 23.4358419,52.3429774" id="Fill-13" fill="#FFFFFF" mask="url(#mask-10)"></path>
                </g>
                <path d="M433.538835,88.4237156 C431.585382,87.9114679 429.599406,87.4988238 427.684067,86.8702024 C418.16378,83.7443732 411.67226,75.5077549 411.284517,65.5036787 C411.135619,61.6679189 411.357187,57.6441316 412.372027,53.9714984 C414.853989,44.9893767 420.998421,39.2616543 430.071507,37.2721207 C439.595859,35.1839997 448.37979,36.8533785 455.850578,44.1747605 C453.505825,46.3187815 451.282527,48.3515106 448.962167,50.4731716 C448.36302,49.997513 447.836035,49.6057044 447.337508,49.1803559 C437.67798,40.9345903 424.595843,45.1235368 421.530488,57.4464487 C419.3885,66.0586137 422.700323,74.4730958 429.623799,78.0105526 C436.033502,81.284771 442.52553,80.0996899 449.00333,74.4065239 C451.006584,76.6140677 453.016445,78.8287261 455.154368,81.1846591 C452.052932,84.878636 447.573813,86.8071878 442.586004,87.828126 C441.766306,87.9958261 440.958296,88.2234918 440.145205,88.4237156 L433.538835,88.4237156 Z" id="Fill-16" fill="#FFFFFF"></path>
                <polygon id="Fill-18" fill="#FFFFFF" points="163.43833 86.8681696 153.737639 86.8681696 153.737639 53.362696 115.270274 53.362696 115.270274 86.8137941 105.438979 86.8137941 105.438979 13.3799311 115.178293 13.3799311 115.178293 43.6858891 153.686821 43.6858891 153.686821 13.3219983 163.43833 13.3219983"></polygon>
                <polygon id="Fill-20" fill="#FFFFFF" points="342.093213 22.3014266 342.093213 86.7999208 332.218216 86.7999208 332.218216 22.4498158 308.579101 22.4498158 308.579101 13.3005022 365.753672 13.3005022 365.753672 22.3014266"></polygon>
                <mask id="mask-12" fill="white">
                    <use xlink:href="#path-11"></use>
                </mask>
                <g id="Clip-23"></g>
                <polygon id="Fill-22" fill="#FFFFFF" mask="url(#mask-12)" points="251.876987 86.8442851 260.842338 86.8442851 260.842338 8.22442191 251.876987 8.22442191"></polygon>
                <polygon id="Fill-24" fill="#FFFFFF" mask="url(#mask-12)" points="228.817708 86.7863523 237.611802 86.7863523 237.611802 8.21120918 228.817708 8.21120918"></polygon>
                <path d="M39.91228,50.1771046 L32.8597264,50.1771046 C32.8597264,45.4733695 32.7143863,40.7828471 32.9334129,36.1090947 C33.0177711,34.3101295 34.4488124,33.0544111 36.421576,33.0803284 C38.3907823,33.1062457 39.7638908,34.3878814 39.8441836,36.1944693 C40.0484729,40.8067317 39.91228,45.4337313 39.91228,50.1771046" id="Fill-25" fill="#FFFFFF" mask="url(#mask-12)"></path>
                <path d="M56.3276346,50.200481 L49.2684747,50.200481 C49.2684747,45.4322067 49.1322818,40.7330452 49.3360629,36.048621 C49.4163557,34.2003621 50.8819534,32.9913965 52.8384552,33.0950657 C55.0287208,33.2109312 56.2341291,34.6811025 56.2910455,36.7626171 C56.4109765,41.1400992 56.3276346,45.5236795 56.3276346,50.200481" id="Fill-26" fill="#FFFFFF" mask="url(#mask-12)"></path>
            </g>
        </g>
    </g>
</svg>