<?xml version="1.0" encoding="iso-8859-1"?>
<!-- Generator: Adobe Illustrator 17.0.0, SVG Export Plug-In . SVG Version: 6.00 Build 0)  -->
<!DOCTYPE svg PUBLIC "-//W3C//DTD SVG 1.1//EN" "http://www.w3.org/Graphics/SVG/1.1/DTD/svg11.dtd">
<svg version="1.1" id="Layer_1" xmlns="http://www.w3.org/2000/svg" xmlns:xlink="http://www.w3.org/1999/xlink" x="0px" y="0px"
	 width="85.112px" height="84.9px" viewBox="0 0 85.112 84.9" style="enable-background:new 0 0 85.112 84.9;" xml:space="preserve"
	>
<g>
	<g>
		<g>
			<path style="fill:none;stroke:#FFFFFF;stroke-width:2.662;stroke-linejoin:round;" d="M-165.53,42.572
				c0.03,3.18,0.062,3.399,0.092,6.578c0.048,3.088,1.606,5.416,8.148,8.409c3.899,1.785,7.627,3.104,11.2,3.832l-0.27-11.324"/>
			<path style="fill:none;stroke:#FFFFFF;stroke-width:2.662;stroke-linejoin:round;" d="M-131.466,55.427
				c-0.968,0.614-2.131,1.248-3.525,1.919c-3.863,1.86-7.566,3.249-11.123,4.046l-0.269-11.324"/>
		</g>
		<path style="fill:none;stroke:#FFFFFF;stroke-width:2.662;" d="M-146.21,50.573l-36.23-13.464l35.963-14.157l36.232,13.468
			L-146.21,50.573z"/>
		<path style="fill:none;stroke:#FFFFFF;stroke-width:2.662;" d="M-142.539,34.719l18.171,7.211l0.086,12.045"/>
		<path style="fill:none;stroke:#FFFFFF;stroke-width:2.662;" d="M-142.4,33.072c0.01,1.098-1.752,2.002-3.934,2.024
			c-2.184,0.019-3.961-0.853-3.972-1.95c-0.01-1.094,1.749-1.998,3.934-2.018C-144.19,31.107-142.41,31.977-142.4,33.072z"/>
		<path style="fill:none;stroke:#FFFFFF;stroke-width:2.662;" d="M-120.923,63.846v-6.413c0-2.025-1.405-3.666-3.138-3.666
			c-1.732,0-3.138,1.642-3.138,3.666v6.413H-120.923z"/>
	</g>
</g>
<g>
	<g>
		<g>
			<g>
				<g>
					<path style="fill:#FFFFFF;" d="M225.509,70.357h-16.304c-0.447,0-0.819-0.343-0.856-0.788l-1.12-13.595
						c-0.01-0.114,0.004-0.228,0.039-0.336l1.89-5.811c0.147-0.451,0.632-0.697,1.082-0.551c0.451,0.147,0.697,0.631,0.551,1.082
						l-1.836,5.647l1.041,12.635h15.513c0.474,0,0.859,0.384,0.859,0.859C226.368,69.973,225.983,70.357,225.509,70.357z"/>
				</g>
			</g>
		</g>
		<g>
			<g>
				<g>
					<path style="fill:#FFFFFF;" d="M211.415,45.386c-0.056,0-0.113-0.006-0.17-0.017c-0.465-0.094-0.766-0.547-0.672-1.011
						l2.2-10.921c0.589-2.364,3.049-6.763,8.206-6.763H254.7c5.2,0,6.889,5.952,6.958,6.205c0.005,0.018,0.009,0.035,0.013,0.053
						l1.104,5.337c0.096,0.464-0.202,0.918-0.667,1.015c-0.465,0.092-0.919-0.203-1.015-0.667l-1.097-5.305
						c-0.104-0.348-1.541-4.922-5.297-4.922h-33.722c-5.119,0-6.518,5.369-6.531,5.423l-2.191,10.882
						C212.174,45.104,211.815,45.386,211.415,45.386z"/>
				</g>
			</g>
		</g>
		<g>
			<g>
				<g>
					<path style="fill:#FFFFFF;" d="M265.277,70.357h-33.99c-0.474,0-0.858-0.384-0.858-0.858s0.384-0.859,0.858-0.859h33.221
						l1.387-12.63l-2.063-5.621c-0.164-0.445,0.065-0.938,0.51-1.102c0.444-0.163,0.938,0.065,1.102,0.51l2.133,5.81
						c0.046,0.124,0.062,0.258,0.048,0.39l-1.493,13.595C266.082,70.028,265.715,70.357,265.277,70.357z"/>
				</g>
			</g>
		</g>
		<g>
			<g>
				<g>
					<path style="fill:#FFFFFF;" d="M257.192,48.712c-0.003,0-0.006,0-0.009,0h-39.885c-0.26,0-0.506-0.118-0.669-0.321
						c-0.163-0.203-0.225-0.469-0.169-0.723l3.192-14.428c0.087-0.393,0.436-0.673,0.838-0.673h33.534
						c0.403,0,0.752,0.281,0.838,0.675l3.134,14.311c0.035,0.094,0.054,0.195,0.054,0.301
						C258.05,48.327,257.666,48.712,257.192,48.712z M218.367,46.995h37.749l-2.784-12.711H221.18L218.367,46.995z"/>
				</g>
			</g>
		</g>
		<g>
			<g>
				<g>
					<g>
						<path style="fill:#FFFFFF;" d="M216.541,81.276h-0.746c-2.943,0-5.338-2.394-5.338-5.337v-5.85
							c0-0.474,0.384-0.859,0.858-0.859s0.858,0.385,0.858,0.859v5.85c0,1.996,1.625,3.621,3.621,3.621h0.746
							c1.997,0,3.621-1.624,3.621-3.621v-5.85c0-0.474,0.384-0.859,0.858-0.859s0.858,0.385,0.858,0.859v5.85
							C221.88,78.882,219.485,81.276,216.541,81.276z"/>
					</g>
				</g>
			</g>
			<g>
				<g>
					<g>
						<path style="fill:#FFFFFF;" d="M258.538,81.276h-0.746c-2.943,0-5.338-2.394-5.338-5.337v-2.172
							c0-0.474,0.384-0.859,0.858-0.859s0.858,0.385,0.858,0.859v2.172c0,1.996,1.625,3.621,3.621,3.621h0.746
							c1.996,0,3.62-1.624,3.62-3.621v-5.85c0-0.474,0.384-0.859,0.859-0.859c0.474,0,0.858,0.385,0.858,0.859v5.85
							C263.875,78.882,261.481,81.276,258.538,81.276z"/>
					</g>
				</g>
			</g>
		</g>
		<g>
			<g>
				<g>
					<g>
						<path style="fill:#FFFFFF;" d="M222.199,60.868h-5.6c-2.294,0-3.72-1.712-3.72-4.467c0-2.755,1.425-4.467,3.72-4.467h5.6
							c2.295,0,3.72,1.712,3.72,4.467S224.494,60.868,222.199,60.868z M216.599,53.651c-1.743,0-2.003,1.723-2.003,2.75
							s0.26,2.75,2.003,2.75h5.6c1.743,0,2.004-1.723,2.004-2.75s-0.26-2.75-2.004-2.75H216.599z"/>
					</g>
				</g>
			</g>
			<g>
				<g>
					<g>
						<path style="fill:#FFFFFF;" d="M258.256,60.868h-5.6c-2.294,0-3.719-1.712-3.719-4.467c0-2.755,1.425-4.467,3.719-4.467h5.6
							c2.294,0,3.72,1.712,3.72,4.467C261.975,59.156,260.55,60.868,258.256,60.868z M252.656,53.651
							c-1.743,0-2.003,1.723-2.003,2.75s0.26,2.75,2.003,2.75h5.6c1.743,0,2.003-1.723,2.003-2.75s-0.26-2.75-2.003-2.75H252.656z"
							/>
					</g>
				</g>
			</g>
			<g>
				<g>
					<g>
						<path style="fill:#FFFFFF;" d="M245.219,54.896h-16.301c-0.474,0-0.858-0.384-0.858-0.859c0-0.474,0.384-0.858,0.858-0.858
							h16.301c0.474,0,0.858,0.384,0.858,0.858C246.078,54.511,245.693,54.896,245.219,54.896z"/>
					</g>
				</g>
			</g>
			<g>
				<g>
					<g>
						<path style="fill:#FFFFFF;" d="M245.219,59.375h-16.301c-0.474,0-0.858-0.384-0.858-0.859c0-0.474,0.384-0.858,0.858-0.858
							h16.301c0.474,0,0.858,0.384,0.858,0.858C246.078,58.99,245.693,59.375,245.219,59.375z"/>
					</g>
				</g>
			</g>
		</g>
		<g>
			<g>
				<g>
					<g>
						<path style="fill:#FFFFFF;" d="M225.509,64.982h-18.536c-0.474,0-0.858-0.385-0.858-0.859s0.384-0.859,0.858-0.859h18.536
							c0.474,0,0.859,0.385,0.859,0.859C226.368,64.597,225.983,64.982,225.509,64.982z"/>
					</g>
				</g>
			</g>
			<g>
				<g>
					<g>
						<path style="fill:#FFFFFF;" d="M267.882,64.982h-18.536c-0.474,0-0.858-0.385-0.858-0.859s0.384-0.859,0.858-0.859h18.536
							c0.474,0,0.859,0.385,0.859,0.859C268.74,64.597,268.356,64.982,267.882,64.982z"/>
					</g>
				</g>
			</g>
		</g>
	</g>
	<g>
		<g>
			<g>
				<path style="fill:#FFFFFF;" d="M264.637,50.952c-0.405,0-0.765-0.287-0.843-0.699c-0.088-0.466,0.219-0.915,0.684-1.003
					l5.939-1.121c0.053-0.01,0.106-0.014,0.159-0.014c0.542,0,1.288-1.503,1.288-2.594c0-0.813-0.662-1.475-1.475-1.475h-4.479
					c-0.767,0-1.821,0.821-2.13,1.109c-0.346,0.323-0.889,0.304-1.213-0.041s-0.306-0.887,0.039-1.211
					c0.171-0.161,1.721-1.573,3.303-1.573h4.479c1.76,0,3.192,1.432,3.192,3.191c0,1.524-0.974,4.228-2.915,4.309l-5.871,1.107
					C264.743,50.947,264.689,50.952,264.637,50.952z"/>
			</g>
		</g>
	</g>
	<g>
		<g>
			<g>
				<path style="fill:#FFFFFF;" d="M209.976,50.952c-0.053,0-0.107-0.005-0.161-0.015l-5.858-1.107
					c-1.938-0.082-2.911-2.785-2.911-4.309c0-1.76,1.429-3.191,3.186-3.191h4.472c1.58,0,3.126,1.412,3.298,1.573
					c0.345,0.325,0.362,0.868,0.037,1.214s-0.868,0.362-1.213,0.037c-0.458-0.427-1.439-1.107-2.121-1.107h-4.472
					c-0.81,0-1.47,0.661-1.47,1.475c0,1.091,0.744,2.594,1.284,2.594c0.054,0,0.107,0.005,0.16,0.015l5.928,1.12
					c0.466,0.088,0.772,0.537,0.684,1.003C210.74,50.664,210.38,50.952,209.976,50.952z"/>
			</g>
		</g>
	</g>
</g>
<g>
	<g>
		<g>
			<g>
				<g>
					<path style="fill:#FFFFFF;stroke:#FFFFFF;stroke-miterlimit:10;" d="M32.78,57.916H19.276c-0.37,0-0.678-0.284-0.709-0.653
						l-0.928-11.26c-0.008-0.094,0.003-0.189,0.032-0.278l1.565-4.813c0.122-0.374,0.523-0.577,0.896-0.456
						c0.374,0.122,0.577,0.523,0.456,0.896l-1.521,4.677l0.862,10.465H32.78c0.393,0,0.711,0.318,0.711,0.711
						C33.491,57.597,33.172,57.916,32.78,57.916z"/>
				</g>
			</g>
		</g>
		<g>
			<g>
				<g>
					<path style="fill:#FFFFFF;stroke:#FFFFFF;stroke-miterlimit:10;" d="M21.106,37.233c-0.046,0-0.094-0.005-0.141-0.014
						c-0.385-0.078-0.634-0.453-0.557-0.837l1.822-9.046c0.488-1.958,2.525-5.602,6.797-5.602h27.931
						c4.307,0,5.706,4.93,5.763,5.139c0.004,0.015,0.007,0.029,0.011,0.044l0.914,4.42c0.08,0.384-0.167,0.76-0.552,0.841
						c-0.385,0.076-0.761-0.168-0.841-0.552l-0.909-4.394c-0.086-0.288-1.276-4.077-4.387-4.077H29.027
						c-4.24,0-5.399,4.447-5.409,4.492l-1.815,9.013C21.734,37,21.438,37.233,21.106,37.233z"/>
				</g>
			</g>
		</g>
		<g>
			<g>
				<g>
					<path style="fill:#FFFFFF;stroke:#FFFFFF;stroke-miterlimit:10;" d="M65.719,57.916H37.566c-0.393,0-0.711-0.318-0.711-0.711
						c0-0.393,0.318-0.711,0.711-0.711h27.516l1.149-10.461l-1.709-4.656c-0.135-0.369,0.054-0.777,0.422-0.913
						c0.368-0.135,0.777,0.054,0.913,0.422l1.767,4.812c0.038,0.103,0.051,0.214,0.04,0.323l-1.238,11.261
						C66.385,57.643,66.081,57.916,65.719,57.916z"/>
				</g>
			</g>
		</g>
		<g>
			<g>
				<g>
					<path style="fill:#FFFFFF;stroke:#FFFFFF;stroke-miterlimit:10;" d="M59.022,39.987c-0.002,0-0.005,0-0.007,0H25.979
						c-0.215,0-0.419-0.098-0.554-0.266c-0.135-0.168-0.186-0.388-0.14-0.599l2.644-11.95c0.072-0.326,0.361-0.557,0.694-0.557
						h27.775c0.334,0,0.623,0.233,0.694,0.559l2.596,11.853c0.029,0.078,0.045,0.162,0.045,0.249
						C59.733,39.669,59.414,39.987,59.022,39.987z M26.864,38.566h31.266l-2.305-10.529H29.193L26.864,38.566z"/>
				</g>
			</g>
		</g>
		<g>
			<g>
				<g>
					<g>
						<path style="fill:#FFFFFF;stroke:#FFFFFF;stroke-miterlimit:10;" d="M25.352,66.96h-0.618c-2.438,0-4.421-1.983-4.421-4.42
							v-4.845c0-0.393,0.318-0.711,0.711-0.711c0.393,0,0.711,0.319,0.711,0.711v4.845c0,1.653,1.346,2.999,2.999,2.999h0.618
							c1.654,0,2.999-1.345,2.999-2.999v-4.845c0-0.393,0.318-0.711,0.711-0.711s0.711,0.319,0.711,0.711v4.845
							C29.773,64.977,27.79,66.96,25.352,66.96z"/>
					</g>
				</g>
			</g>
			<g>
				<g>
					<g>
						<path style="fill:#FFFFFF;stroke:#FFFFFF;stroke-miterlimit:10;" d="M60.137,66.96h-0.618c-2.438,0-4.421-1.983-4.421-4.42
							v-1.799c0-0.393,0.318-0.711,0.711-0.711c0.393,0,0.711,0.319,0.711,0.711v1.799c0,1.653,1.346,2.999,2.999,2.999h0.618
							c1.653,0,2.998-1.345,2.998-2.999v-4.845c0-0.393,0.318-0.711,0.711-0.711c0.393,0,0.711,0.319,0.711,0.711v4.845
							C64.557,64.977,62.575,66.96,60.137,66.96z"/>
					</g>
				</g>
			</g>
		</g>
		<g>
			<g>
				<g>
					<g>
						<path style="fill:#FFFFFF;stroke:#FFFFFF;stroke-miterlimit:10;" d="M30.037,50.057h-4.638c-1.9,0-3.081-1.418-3.081-3.7
							s1.18-3.7,3.081-3.7h4.638c1.901,0,3.081,1.418,3.081,3.7C33.119,48.639,31.938,50.057,30.037,50.057z M25.4,44.079
							c-1.444,0-1.659,1.427-1.659,2.278c0,0.851,0.215,2.278,1.659,2.278h4.638c1.444,0,1.66-1.427,1.66-2.278
							c0-0.851-0.215-2.278-1.66-2.278H25.4z"/>
					</g>
				</g>
			</g>
			<g>
				<g>
					<g>
						<path style="fill:#FFFFFF;stroke:#FFFFFF;stroke-miterlimit:10;" d="M59.903,50.057h-4.638c-1.9,0-3.08-1.418-3.08-3.7
							s1.18-3.7,3.08-3.7h4.638c1.9,0,3.081,1.418,3.081,3.7S61.803,50.057,59.903,50.057z M55.264,44.079
							c-1.444,0-1.659,1.427-1.659,2.278c0,0.851,0.215,2.278,1.659,2.278h4.638c1.444,0,1.659-1.427,1.659-2.278
							c0-0.851-0.215-2.278-1.659-2.278H55.264z"/>
					</g>
				</g>
			</g>
			<g>
				<g>
					<g>
						<path style="fill:#FFFFFF;stroke:#FFFFFF;stroke-miterlimit:10;" d="M49.105,45.109H35.603c-0.393,0-0.711-0.318-0.711-0.711
							c0-0.393,0.318-0.711,0.711-0.711h13.502c0.393,0,0.711,0.318,0.711,0.711C49.816,44.791,49.498,45.109,49.105,45.109z"/>
					</g>
				</g>
			</g>
			<g>
				<g>
					<g>
						<path style="fill:#FFFFFF;stroke:#FFFFFF;stroke-miterlimit:10;" d="M49.105,48.819H35.603c-0.393,0-0.711-0.318-0.711-0.711
							c0-0.393,0.318-0.711,0.711-0.711h13.502c0.393,0,0.711,0.318,0.711,0.711C49.816,48.501,49.498,48.819,49.105,48.819z"/>
					</g>
				</g>
			</g>
		</g>
		<g>
			<g>
				<g>
					<g>
						<path style="fill:#FFFFFF;stroke:#FFFFFF;stroke-miterlimit:10;" d="M32.78,53.463H17.426c-0.393,0-0.711-0.319-0.711-0.711
							c0-0.393,0.318-0.711,0.711-0.711h15.353c0.393,0,0.711,0.319,0.711,0.711C33.491,53.145,33.172,53.463,32.78,53.463z"/>
					</g>
				</g>
			</g>
			<g>
				<g>
					<g>
						<path style="fill:#FFFFFF;stroke:#FFFFFF;stroke-miterlimit:10;" d="M67.875,53.463H52.523c-0.393,0-0.711-0.319-0.711-0.711
							c0-0.393,0.318-0.711,0.711-0.711h15.353c0.393,0,0.711,0.319,0.711,0.711C68.587,53.145,68.268,53.463,67.875,53.463z"/>
					</g>
				</g>
			</g>
		</g>
	</g>
	<g>
		<g>
			<g>
				<path style="fill:#FFFFFF;stroke:#FFFFFF;stroke-miterlimit:10;" d="M65.188,41.843c-0.335,0-0.634-0.238-0.698-0.579
					c-0.073-0.386,0.181-0.758,0.567-0.831l4.919-0.928c0.044-0.008,0.088-0.012,0.132-0.012c0.449,0,1.067-1.245,1.067-2.149
					c0-0.673-0.548-1.222-1.222-1.222h-3.71c-0.635,0-1.508,0.68-1.764,0.919c-0.287,0.268-0.736,0.252-1.005-0.034
					c-0.268-0.287-0.253-0.735,0.032-1.003c0.142-0.133,1.425-1.303,2.736-1.303h3.71c1.458,0,2.644,1.186,2.644,2.643
					c0,1.262-0.807,3.502-2.414,3.569l-4.863,0.917C65.276,41.839,65.232,41.843,65.188,41.843z"/>
			</g>
		</g>
	</g>
	<g>
		<g>
			<g>
				<path style="fill:#FFFFFF;stroke:#FFFFFF;stroke-miterlimit:10;" d="M19.913,41.843c-0.044,0-0.089-0.004-0.133-0.012
					l-4.852-0.917c-1.605-0.068-2.411-2.307-2.411-3.569c0-1.458,1.184-2.643,2.639-2.643h3.704c1.309,0,2.589,1.17,2.732,1.303
					c0.286,0.269,0.3,0.719,0.031,1.006c-0.269,0.287-0.719,0.3-1.005,0.031c-0.379-0.354-1.193-0.917-1.757-0.917h-3.704
					c-0.671,0-1.218,0.547-1.218,1.222c0,0.904,0.616,2.149,1.064,2.149c0.045,0,0.089,0.004,0.133,0.012l4.91,0.928
					c0.386,0.073,0.639,0.445,0.567,0.831C20.547,41.605,20.249,41.843,19.913,41.843z"/>
			</g>
		</g>
	</g>
</g>
</svg>
