<?xml version="1.0" encoding="iso-8859-1"?>
<!-- Generator: Adobe Illustrator 17.0.0, SVG Export Plug-In . SVG Version: 6.00 Build 0)  -->
<!DOCTYPE svg PUBLIC "-//W3C//DTD SVG 1.1//EN" "http://www.w3.org/Graphics/SVG/1.1/DTD/svg11.dtd">
<svg version="1.1" id="Layer_1" xmlns="http://www.w3.org/2000/svg" xmlns:xlink="http://www.w3.org/1999/xlink" x="0px" y="0px"
	 width="85.112px" height="84.9px" viewBox="0 0 85.112 84.9" style="enable-background:new 0 0 85.112 84.9;" xml:space="preserve"
	>
<g>
	<g>
		<g>
			<path style="fill:none;stroke:#FFFFFF;stroke-width:2.662;stroke-linejoin:round;" d="M23.368,42.572
				c0.03,3.18,0.062,3.399,0.092,6.578c0.048,3.088,1.606,5.416,8.148,8.409c3.899,1.785,7.627,3.104,11.2,3.832l-0.27-11.324"/>
			<path style="fill:none;stroke:#FFFFFF;stroke-width:2.662;stroke-linejoin:round;" d="M57.432,55.427
				c-0.968,0.614-2.131,1.248-3.525,1.919c-3.863,1.86-7.566,3.249-11.123,4.046l-0.269-11.324"/>
		</g>
		<path style="fill:none;stroke:#FFFFFF;stroke-width:2.662;" d="M42.689,50.573L6.458,37.109l35.963-14.157l36.232,13.468
			L42.689,50.573z"/>
		<path style="fill:none;stroke:#FFFFFF;stroke-width:2.662;" d="M46.359,34.719l18.171,7.211l0.086,12.045"/>
		<path style="fill:none;stroke:#FFFFFF;stroke-width:2.662;" d="M46.498,33.072c0.01,1.098-1.752,2.002-3.934,2.024
			c-2.184,0.019-3.961-0.853-3.972-1.95c-0.01-1.094,1.749-1.998,3.934-2.018C44.708,31.107,46.488,31.977,46.498,33.072z"/>
		<path style="fill:none;stroke:#FFFFFF;stroke-width:2.662;" d="M67.975,63.846v-6.413c0-2.025-1.405-3.666-3.138-3.666
			c-1.732,0-3.138,1.642-3.138,3.666v6.413H67.975z"/>
	</g>
</g>
</svg>
