<?xml version="1.0" encoding="iso-8859-1"?>
<!-- Generator: Adobe Illustrator 17.0.0, SVG Export Plug-In . SVG Version: 6.00 Build 0)  -->
<!DOCTYPE svg PUBLIC "-//W3C//DTD SVG 1.1//EN" "http://www.w3.org/Graphics/SVG/1.1/DTD/svg11.dtd">
<svg version="1.1" id="Layer_1" xmlns="http://www.w3.org/2000/svg" xmlns:xlink="http://www.w3.org/1999/xlink" x="0px" y="0px"
	 width="512px" height="512px" viewBox="-49 141 512 512" style="enable-background:new -49 141 512 512;" xml:space="preserve">
<g transform="translate(1 1)">
	<path style="fill:#FFFFFF;" d="M322.311,287.918c-5.036,0-8.393-3.357-8.393-8.393v-50.361c0-5.036,3.357-8.393,8.393-8.393
		c5.036,0,8.393,3.357,8.393,8.393v50.361C330.705,284.561,327.348,287.918,322.311,287.918z"/>
	<path style="fill:#FFFFFF;" d="M322.311,234.889c-2.518,0-5.875-1.679-7.554-4.197c-1.679-4.197-0.839-9.233,3.357-11.751
		l58.754-33.574c4.197-1.679,9.233-0.839,11.751,3.357c2.518,4.197,0.839,9.233-3.357,11.751l-58.754,33.574
		C324.829,234.889,323.99,234.889,322.311,234.889z"/>
	<path style="fill:#FFFFFF;" d="M255.835,643.803H4.032c-14.269,0-25.18-10.911-25.18-25.18v-33.574
		c0-5.036,3.357-8.393,8.393-8.393h285.377c5.036,0,8.393,3.357,8.393,8.393v33.574
		C281.015,632.892,270.104,643.803,255.835,643.803z M-4.362,593.443v25.18c0,5.036,3.357,8.393,8.393,8.393h251.803
		c5.036,0,8.393-3.357,8.393-8.393v-25.18H-4.362z"/>
	<path style="fill:#FFFFFF;" d="M281.344,593.443H-19.98c-14.269,0-26.02-11.751-26.02-26.02v-15.948
		c0-14.269,11.751-26.02,26.02-26.02h301.325c14.269,0,26.02,11.751,26.02,26.02v15.948
		C306.525,581.692,294.774,593.443,281.344,593.443z M-29.213,552.315v15.948c0,4.197,4.197,8.393,9.233,8.393h301.325
		c5.036,0,9.233-4.197,9.233-9.233v-15.948c0-5.036-4.197-9.233-9.233-9.233H-19.98C-19.98,542.243-29.213,541.403-29.213,552.315z"
		/>
	<path style="fill:#FFFFFF;" d="M270.943,517.902c-8.393,0-15.948-3.357-21.823-8.393c-5.036-4.197-7.554-10.072-9.233-16.787
		h-26.859c-3.357,14.269-16.787,25.18-32.734,25.18s-28.538-10.911-32.734-25.18h-36.092c-3.357,14.269-16.787,25.18-32.734,25.18
		s-28.538-10.911-32.734-25.18h-26.02c-1.679,6.715-5.036,12.59-9.233,16.787c-6.715,5.875-15.108,8.393-23.502,8.393
		c-10.072-0.839-20.144-5.875-26.02-13.429c-5.875-7.554-8.393-16.787-6.715-26.02c3.357-15.948,17.626-26.859,34.413-26.859
		h283.698c17.626,0,33.574,15.948,33.574,33.574c0,17.626-14.269,32.734-32.734,33.574
		C272.622,517.902,271.783,517.902,270.943,517.902z M-11.076,467.541c-8.393,0-16.787,5.875-17.626,13.429
		c-0.839,5.875,0.839,10.072,3.357,12.59c3.357,4.197,8.393,6.715,13.43,6.715c4.197,0,8.393-0.839,10.911-4.197
		c3.357-1.679,5.036-6.715,5.036-11.751c0-5.036,3.357-8.393,8.393-8.393h41.967c5.036,0,8.393,3.357,8.393,8.393
		c0,9.233,7.554,16.787,16.787,16.787s16.787-7.554,16.787-16.787c0-5.036,3.357-8.393,8.393-8.393h50.361
		c5.036,0,8.393,3.357,8.393,8.393c0,9.233,7.554,16.787,16.787,16.787s16.787-7.554,16.787-16.787c0-5.036,3.357-8.393,8.393-8.393
		h41.967c5.036,0,8.393,3.357,8.393,8.393c0,5.036,1.679,10.072,5.036,12.59c3.357,3.357,6.715,4.197,11.751,4.197
		c9.233-0.839,17.626-8.393,17.626-16.787c0-8.393-8.393-16.787-16.787-16.787H-11.076z"/>
	<path style="fill:#FFFFFF;" d="M271.951,542.243H-13.426c-5.036,0-8.393-3.357-8.393-8.393v-25.18c0-2.518,0.839-4.197,2.518-5.875
		c1.679-1.679,4.197-1.679,6.715-1.679c4.197,0,8.393-0.839,10.911-4.197c3.357-2.518,5.036-7.554,5.036-12.59
		c0-5.036,3.357-8.393,8.393-8.393h41.967c5.036,0,8.393,3.357,8.393,8.393c0,9.233,7.554,16.787,16.787,16.787
		s16.787-7.554,16.787-16.787c0-5.036,3.357-8.393,8.393-8.393h50.361c5.036,0,8.393,3.357,8.393,8.393
		c0,9.233,7.554,16.787,16.787,16.787s16.787-7.554,16.787-16.787c0-5.036,3.357-8.393,8.393-8.393h41.967
		c5.036,0,8.393,3.357,8.393,8.393c0,5.036,1.679,10.072,5.036,12.59c3.357,3.357,6.715,4.197,11.751,4.197
		c2.518,0,4.197,0.839,5.875,2.518c1.679,1.679,2.518,4.197,2.518,5.875v25.18C280.344,538.885,276.987,542.243,271.951,542.243z
		 M-5.033,525.456h268.59v-9.233c-5.875-0.839-10.911-4.197-15.108-7.554c-5.036-4.197-7.554-10.072-9.233-16.787h-26.859
		c-3.357,14.269-16.787,25.18-32.734,25.18s-28.538-10.911-32.734-25.18h-36.092c-3.357,14.269-16.787,25.18-32.734,25.18
		s-28.538-10.911-32.734-25.18h-26.02c-1.679,6.715-5.036,12.59-9.233,16.787c-4.197,4.197-9.233,6.715-15.108,7.554V525.456z"/>
	<path style="fill:#FFFFFF;" d="M290.204,467.967h-310.09c-8.976,0-16.321-7.554-16.321-16.787v-8.393
		c0-55.397,68.546-92.328,171.365-92.328s171.365,36.931,171.365,92.328v8.393C306.525,460.413,299.18,467.967,290.204,467.967z
		 M135.159,367.246c-91.395,0-155.045,31.056-155.045,75.541v8.393h310.09v-8.393C290.204,398.302,226.554,367.246,135.159,367.246z
		"/>
	<path style="fill:#FFFFFF;" d="M407.085,643.803H255.164c-5.036,0-8.393-3.357-8.393-8.393c0-5.036,3.357-8.393,8.393-8.393
		c5.036,0,8.393-3.357,8.393-8.393v-33.574c0-5.036,3.357-8.393,8.393-8.393h8.393c5.036,0,9.233-4.197,9.233-9.233v-15.948
		c0-5.036-4.197-9.233-9.233-9.233h-8.393c-5.036,0-8.393-3.357-8.393-8.393v-25.18c0-4.197,3.357-8.393,7.554-8.393
		c9.233-0.839,17.626-8.393,17.626-16.787s-8.393-16.787-16.787-16.787c-5.036,0-8.393-3.357-8.393-8.393v-2.574
		c0-5.036,3.357-4.197,8.393-4.197h16.787v-12.59c0-30.216-31.056-55.397-83.095-67.148c-3.357-0.839-6.715-4.197-6.715-7.554
		l-2.518-81.361c0-2.518,0.839-4.197,2.518-5.875c1.679-1.679,4.197-2.518,5.875-2.518H439.82c2.518,0,4.197,0.839,5.875,2.518
		c1.679,1.679,2.518,4.197,2.518,5.875l-15.948,336.577C431.426,632.892,420.515,643.803,407.085,643.803z M278.666,627.016h128.42
		c4.197,0,8.393-3.357,8.393-8.393l15.948-327.344h-217.39l1.679,66.252c57.075,15.108,89.81,44.485,89.81,82.256v8.393
		c0,9.233-7.554,16.787-16.787,16.787h-8.393v-13.374c14.269,4.197,25.18,17.626,25.18,32.734c0,15.108-10.911,28.538-25.18,31.895
		v10.072c14.269,0,25.18,11.751,25.18,26.02v15.948c0,14.269-10.911,25.18-25.18,26.02v25.18
		C280.344,621.98,279.505,624.498,278.666,627.016z"/>
</g>
</svg>
