<?xml version="1.0" encoding="utf-8"?>
<!-- Generator: Adobe Illustrator 17.0.0, SVG Export Plug-In . SVG Version: 6.00 Build 0)  -->
<!DOCTYPE svg PUBLIC "-//W3C//DTD SVG 1.1//EN" "http://www.w3.org/Graphics/SVG/1.1/DTD/svg11.dtd">
<svg version="1.1" id="Layer_1" xmlns="http://www.w3.org/2000/svg" xmlns:xlink="http://www.w3.org/1999/xlink" x="0px" y="0px"
	 width="85.112px" height="84.9px" viewBox="0 0 85.112 84.9" enable-background="new 0 0 85.112 84.9" xml:space="preserve">
<g>
	<path fill="#FFFFFF" stroke="#FFFFFF" stroke-width="0.5" stroke-miterlimit="10" d="M37.27,47.635l-0.089,0.089
		c-0.522,0.522-0.522,1.369,0,1.892c0.261,0.261,0.603,0.392,0.945,0.392s0.685-0.131,0.945-0.392l0.089-0.089
		c0.522-0.522,0.522-1.369,0-1.892C38.639,47.113,37.793,47.113,37.27,47.635L37.27,47.635z"/>
	<path fill="#FFFFFF" stroke="#FFFFFF" stroke-width="0.5" stroke-miterlimit="10" d="M45.384,30.593
		c-0.522-0.522-1.369-0.522-1.891,0L28.165,45.921c-0.522,0.522-0.522,1.369,0,1.891c0.261,0.261,0.603,0.392,0.945,0.392
		s0.684-0.131,0.946-0.392l15.328-15.327C45.906,31.963,45.906,31.116,45.384,30.593L45.384,30.593z"/>
	<path fill="#FFFFFF" stroke="#FFFFFF" stroke-width="0.5" stroke-miterlimit="10" d="M33.322,18.344
		c-5.557,0.939-10.416,3.986-13.682,8.581c-3.265,4.594-4.547,10.184-3.607,15.742c0.939,5.557,3.986,10.417,8.581,13.682
		c3.611,2.567,7.838,3.907,12.18,3.907c1.182,0,2.373-0.099,3.562-0.3c3.039-0.513,5.859-1.65,8.384-3.375
		c0.61-0.417,0.766-1.249,0.349-1.859s-1.249-0.766-1.859-0.349c-2.203,1.506-4.666,2.497-7.32,2.946
		c-4.853,0.821-9.735-0.298-13.747-3.15s-6.673-7.095-7.493-11.947c-0.82-4.854,0.298-9.735,3.15-13.747s7.094-6.673,11.947-7.493
		c5.653-0.956,11.32,0.724,15.548,4.607c0.543,0.499,1.39,0.464,1.889-0.08s0.464-1.39-0.08-1.89
		C46.284,19.172,39.795,17.25,33.322,18.344L33.322,18.344z"/>
	<path fill="#FFFFFF" stroke="#FFFFFF" stroke-width="0.5" stroke-miterlimit="10" d="M32.731,34.319
		c0.522-0.522,0.522-1.369,0-1.892c-0.522-0.522-1.369-0.522-1.892,0l-4.477,4.478c-0.522,0.522-0.522,1.369,0,1.891
		c0.261,0.261,0.604,0.392,0.946,0.392s0.684-0.131,0.945-0.392L32.731,34.319z"/>
	<path fill="#FFFFFF" stroke="#FFFFFF" stroke-width="0.5" stroke-miterlimit="10" d="M54.306,16.317
		c-5.062-3.9-11.125-5.962-17.532-5.962c-7.68,0-14.9,2.991-20.33,8.421c-5.431,5.43-8.421,12.651-8.421,20.33
		s2.991,14.9,8.421,20.33c5.114,5.115,11.815,8.065,18.993,8.391v4.042h-10.03c-0.739,0-1.337,0.599-1.337,1.337
		c0,0.739,0.599,1.337,1.337,1.337h22.734c0.739,0,1.337-0.599,1.337-1.337c0-0.739-0.599-1.337-1.337-1.337H38.112v-4.043
		c4.181-0.195,8.3-1.305,11.987-3.236c0.655-0.343,0.907-1.151,0.564-1.805s-1.151-0.906-1.805-0.564
		c-3.7,1.938-7.878,2.963-12.084,2.963c-14.379,0-26.077-11.698-26.077-26.077S22.395,13.03,36.774,13.03
		c5.811,0,11.309,1.87,15.9,5.406c0.585,0.45,1.424,0.342,1.875-0.243C55,17.608,54.891,16.768,54.306,16.317L54.306,16.317z"/>
	<path fill="#FFFFFF" stroke="#FFFFFF" stroke-width="0.5" stroke-miterlimit="10" d="M70.875,38.797v-3.034
		c0-0.988-0.539-1.852-1.337-2.316v-14.13c0-0.908-0.312-1.798-0.879-2.506l-3.95-4.937c-0.772-0.965-1.924-1.519-3.16-1.519
		c-2.232,0-4.047,1.815-4.047,4.047v19.046c-0.799,0.463-1.337,1.328-1.337,2.316v3.034c-0.799,0.463-1.337,1.328-1.337,2.316v29.42
		c0,2.212,1.8,4.012,4.012,4.012h9.361c2.212,0,4.012-1.8,4.012-4.012v-29.42C72.213,40.125,71.674,39.26,70.875,38.797
		L70.875,38.797z M60.177,14.402c0-0.757,0.616-1.373,1.373-1.373c0.419,0,0.81,0.188,1.071,0.515l3.949,4.936
		c0.189,0.236,0.293,0.534,0.293,0.836v13.772h-6.686V14.402z M58.84,35.764h9.361v2.675H58.84V35.764z M69.538,70.533
		c0,0.737-0.6,1.337-1.337,1.337H58.84c-0.737,0-1.337-0.6-1.337-1.337v-29.42h12.036L69.538,70.533L69.538,70.533z"/>
	<path fill="#FFFFFF" stroke="#FFFFFF" stroke-width="0.5" stroke-miterlimit="10" d="M36.088,30.962l0.28-0.28
		c0.522-0.522,0.522-1.369,0-1.892c-0.522-0.522-1.369-0.522-1.891,0l-0.281,0.281c-0.522,0.522-0.522,1.369,0,1.891
		c0.261,0.261,0.604,0.392,0.946,0.392C35.484,31.353,35.826,31.223,36.088,30.962L36.088,30.962z"/>
	<path fill="#FFFFFF" stroke="#FFFFFF" stroke-width="0.5" stroke-miterlimit="10" d="M41.974,46.161
		c0.342,0,0.684-0.131,0.945-0.392l4.268-4.268c0.522-0.522,0.522-1.369,0-1.892c-0.522-0.522-1.369-0.522-1.892,0l-4.269,4.268
		c-0.522,0.522-0.522,1.369,0,1.891C41.289,46.03,41.631,46.161,41.974,46.161L41.974,46.161z"/>
</g>
</svg>
