<?xml version="1.0" encoding="utf-8"?>
<!-- Generator: Adobe Illustrator 17.0.0, SVG Export Plug-In . SVG Version: 6.00 Build 0)  -->
<!DOCTYPE svg PUBLIC "-//W3C//DTD SVG 1.1//EN" "http://www.w3.org/Graphics/SVG/1.1/DTD/svg11.dtd">
<svg version="1.1" id="Layer_1" xmlns="http://www.w3.org/2000/svg" xmlns:xlink="http://www.w3.org/1999/xlink" x="0px" y="0px"
	 width="85.112px" height="84.9px" viewBox="0 0 85.112 84.9" enable-background="new 0 0 85.112 84.9" xml:space="preserve">
<g>
	<path fill="#FFFFFF" stroke="#FFFFFF" stroke-width="0.5" stroke-miterlimit="10" d="M249.48,47.635l-0.089,0.089
		c-0.522,0.522-0.522,1.369,0,1.892c0.261,0.261,0.603,0.392,0.945,0.392c0.342,0,0.685-0.131,0.945-0.392l0.089-0.089
		c0.522-0.522,0.522-1.369,0-1.892C250.849,47.113,250.003,47.113,249.48,47.635L249.48,47.635z"/>
	<path fill="#FFFFFF" stroke="#FFFFFF" stroke-width="0.5" stroke-miterlimit="10" d="M257.594,30.593
		c-0.522-0.522-1.369-0.522-1.891,0l-15.328,15.328c-0.522,0.522-0.522,1.369,0,1.891c0.261,0.261,0.603,0.392,0.945,0.392
		c0.342,0,0.684-0.131,0.946-0.392l15.328-15.327C258.116,31.963,258.116,31.116,257.594,30.593L257.594,30.593z"/>
	<path fill="#FFFFFF" stroke="#FFFFFF" stroke-width="0.5" stroke-miterlimit="10" d="M245.532,18.344
		c-5.557,0.939-10.416,3.986-13.682,8.581c-3.265,4.594-4.547,10.184-3.607,15.742c0.939,5.557,3.986,10.417,8.581,13.682
		c3.611,2.567,7.838,3.907,12.18,3.907c1.182,0,2.373-0.099,3.562-0.3c3.039-0.513,5.859-1.65,8.384-3.375
		c0.61-0.417,0.766-1.249,0.349-1.859c-0.417-0.61-1.249-0.766-1.859-0.349c-2.203,1.506-4.666,2.497-7.32,2.946
		c-4.853,0.821-9.735-0.298-13.747-3.15c-4.012-2.852-6.673-7.095-7.493-11.947c-0.82-4.854,0.298-9.735,3.15-13.747
		s7.094-6.673,11.947-7.493c5.653-0.956,11.32,0.724,15.548,4.607c0.543,0.499,1.39,0.464,1.889-0.08s0.464-1.39-0.08-1.89
		C258.494,19.172,252.005,17.25,245.532,18.344L245.532,18.344z"/>
	<path fill="#FFFFFF" stroke="#FFFFFF" stroke-width="0.5" stroke-miterlimit="10" d="M244.941,34.319
		c0.522-0.522,0.522-1.369,0-1.892c-0.522-0.522-1.369-0.522-1.892,0l-4.477,4.478c-0.522,0.522-0.522,1.369,0,1.891
		c0.261,0.261,0.604,0.392,0.946,0.392c0.342,0,0.684-0.131,0.945-0.392L244.941,34.319z"/>
	<path fill="#FFFFFF" stroke="#FFFFFF" stroke-width="0.5" stroke-miterlimit="10" d="M266.516,16.317
		c-5.062-3.9-11.125-5.962-17.532-5.962c-7.68,0-14.9,2.991-20.33,8.421c-5.431,5.43-8.421,12.651-8.421,20.33
		s2.991,14.9,8.421,20.33c5.114,5.115,11.815,8.065,18.993,8.391v4.042h-10.03c-0.739,0-1.337,0.599-1.337,1.337
		c0,0.739,0.599,1.337,1.337,1.337h22.734c0.739,0,1.337-0.599,1.337-1.337c0-0.739-0.599-1.337-1.337-1.337h-10.029v-4.043
		c4.181-0.195,8.3-1.305,11.987-3.236c0.655-0.343,0.907-1.151,0.564-1.805c-0.343-0.654-1.151-0.906-1.805-0.564
		c-3.7,1.938-7.878,2.963-12.084,2.963c-14.379,0-26.077-11.698-26.077-26.077s11.698-26.077,26.077-26.077
		c5.811,0,11.309,1.87,15.9,5.406c0.585,0.45,1.424,0.342,1.875-0.243C267.21,17.608,267.101,16.768,266.516,16.317L266.516,16.317z
		"/>
	<path fill="#FFFFFF" stroke="#FFFFFF" stroke-width="0.5" stroke-miterlimit="10" d="M283.085,38.797v-3.034
		c0-0.988-0.539-1.852-1.337-2.316v-14.13c0-0.908-0.312-1.798-0.879-2.506l-3.95-4.937c-0.772-0.965-1.924-1.519-3.16-1.519
		c-2.232,0-4.047,1.815-4.047,4.047v19.046c-0.799,0.463-1.337,1.328-1.337,2.316v3.034c-0.799,0.463-1.337,1.328-1.337,2.316v29.42
		c0,2.212,1.8,4.012,4.012,4.012h9.361c2.212,0,4.012-1.8,4.012-4.012v-29.42C284.423,40.125,283.884,39.26,283.085,38.797
		L283.085,38.797z M272.387,14.402c0-0.757,0.616-1.373,1.373-1.373c0.419,0,0.81,0.188,1.071,0.515l3.949,4.936
		c0.189,0.236,0.293,0.534,0.293,0.836v13.772h-6.686V14.402z M271.05,35.764h9.361v2.675h-9.361V35.764z M281.748,70.533
		c0,0.737-0.6,1.337-1.337,1.337h-9.361c-0.737,0-1.337-0.6-1.337-1.337v-29.42h12.036L281.748,70.533L281.748,70.533z"/>
	<path fill="#FFFFFF" stroke="#FFFFFF" stroke-width="0.5" stroke-miterlimit="10" d="M248.298,30.962l0.28-0.28
		c0.522-0.522,0.522-1.369,0-1.892c-0.522-0.522-1.369-0.522-1.891,0l-0.281,0.281c-0.522,0.522-0.522,1.369,0,1.891
		c0.261,0.261,0.604,0.392,0.946,0.392C247.694,31.353,248.036,31.223,248.298,30.962L248.298,30.962z"/>
	<path fill="#FFFFFF" stroke="#FFFFFF" stroke-width="0.5" stroke-miterlimit="10" d="M254.184,46.161
		c0.342,0,0.684-0.131,0.945-0.392l4.268-4.268c0.522-0.522,0.522-1.369,0-1.892c-0.522-0.522-1.369-0.522-1.892,0l-4.269,4.268
		c-0.522,0.522-0.522,1.369,0,1.891C253.499,46.03,253.841,46.161,254.184,46.161L254.184,46.161z"/>
</g>
<g>
	<path fill="#FFFFFF" stroke="#FFFFFF" stroke-width="0.5" stroke-miterlimit="10" d="M37.27-64.365l-0.089,0.089
		c-0.522,0.522-0.522,1.369,0,1.892c0.261,0.261,0.603,0.392,0.945,0.392s0.685-0.131,0.945-0.392l0.089-0.089
		c0.522-0.522,0.522-1.369,0-1.892C38.639-64.887,37.793-64.887,37.27-64.365L37.27-64.365z"/>
	<path fill="#FFFFFF" stroke="#FFFFFF" stroke-width="0.5" stroke-miterlimit="10" d="M45.384-81.407
		c-0.522-0.522-1.369-0.522-1.891,0L28.165-66.079c-0.522,0.522-0.522,1.369,0,1.891c0.261,0.261,0.603,0.392,0.945,0.392
		s0.684-0.131,0.946-0.392l15.328-15.327C45.906-80.037,45.906-80.884,45.384-81.407L45.384-81.407z"/>
	<path fill="#FFFFFF" stroke="#FFFFFF" stroke-width="0.5" stroke-miterlimit="10" d="M33.322-93.656
		c-5.557,0.939-10.416,3.986-13.682,8.581c-3.265,4.594-4.547,10.184-3.607,15.742c0.939,5.557,3.986,10.417,8.581,13.682
		c3.611,2.567,7.838,3.907,12.18,3.907c1.182,0,2.373-0.099,3.562-0.3c3.039-0.513,5.859-1.65,8.384-3.375
		c0.61-0.417,0.766-1.249,0.349-1.859s-1.249-0.766-1.859-0.349c-2.203,1.506-4.666,2.497-7.32,2.946
		c-4.853,0.821-9.735-0.298-13.747-3.15s-6.673-7.095-7.493-11.947c-0.82-4.854,0.298-9.735,3.15-13.747
		c2.852-4.012,7.094-6.673,11.947-7.493c5.653-0.956,11.32,0.724,15.548,4.607c0.543,0.499,1.39,0.464,1.889-0.08
		s0.464-1.39-0.08-1.89C46.284-92.828,39.795-94.75,33.322-93.656L33.322-93.656z"/>
	<path fill="#FFFFFF" stroke="#FFFFFF" stroke-width="0.5" stroke-miterlimit="10" d="M32.731-77.681
		c0.522-0.522,0.522-1.369,0-1.892c-0.522-0.522-1.369-0.522-1.892,0l-4.477,4.478c-0.522,0.522-0.522,1.369,0,1.891
		c0.261,0.261,0.604,0.392,0.946,0.392s0.684-0.131,0.945-0.392L32.731-77.681z"/>
	<path fill="#FFFFFF" stroke="#FFFFFF" stroke-width="0.5" stroke-miterlimit="10" d="M54.306-95.683
		c-5.062-3.9-11.125-5.962-17.532-5.962c-7.68,0-14.9,2.991-20.33,8.421c-5.431,5.43-8.421,12.651-8.421,20.33
		s2.991,14.9,8.421,20.33c5.114,5.115,11.815,8.065,18.993,8.391v4.042h-10.03c-0.739,0-1.337,0.599-1.337,1.337
		c0,0.739,0.599,1.337,1.337,1.337h22.734c0.739,0,1.337-0.599,1.337-1.337c0-0.739-0.599-1.337-1.337-1.337H38.112v-4.043
		c4.181-0.195,8.3-1.305,11.987-3.236c0.655-0.343,0.907-1.151,0.564-1.805s-1.151-0.906-1.805-0.564
		c-3.7,1.938-7.878,2.963-12.084,2.963c-14.379,0-26.077-11.698-26.077-26.077S22.395-98.97,36.774-98.97
		c5.811,0,11.309,1.87,15.9,5.406c0.585,0.45,1.424,0.342,1.875-0.243S54.891-95.232,54.306-95.683L54.306-95.683z"/>
	<path fill="#FFFFFF" stroke="#FFFFFF" stroke-width="0.5" stroke-miterlimit="10" d="M70.875-73.203v-3.034
		c0-0.988-0.539-1.852-1.337-2.316v-14.13c0-0.908-0.312-1.798-0.879-2.506l-3.95-4.937c-0.772-0.965-1.924-1.519-3.16-1.519
		c-2.232,0-4.047,1.815-4.047,4.047v19.046c-0.799,0.463-1.337,1.328-1.337,2.316v3.034c-0.799,0.463-1.337,1.328-1.337,2.316v29.42
		c0,2.212,1.8,4.012,4.012,4.012h9.361c2.212,0,4.012-1.8,4.012-4.012v-29.42C72.213-71.875,71.674-72.74,70.875-73.203
		L70.875-73.203z M60.177-97.598c0-0.757,0.616-1.373,1.373-1.373c0.419,0,0.81,0.188,1.071,0.515l3.949,4.936
		c0.189,0.236,0.293,0.534,0.293,0.836v13.772h-6.686V-97.598z M58.84-76.236h9.361v2.675H58.84V-76.236z M69.538-41.467
		c0,0.737-0.6,1.337-1.337,1.337H58.84c-0.737,0-1.337-0.6-1.337-1.337v-29.42h12.036L69.538-41.467L69.538-41.467z"/>
	<path fill="#FFFFFF" stroke="#FFFFFF" stroke-width="0.5" stroke-miterlimit="10" d="M36.088-81.038l0.28-0.28
		c0.522-0.522,0.522-1.369,0-1.892c-0.522-0.522-1.369-0.522-1.891,0l-0.281,0.281c-0.522,0.522-0.522,1.369,0,1.891
		c0.261,0.261,0.604,0.392,0.946,0.392C35.484-80.647,35.826-80.777,36.088-81.038L36.088-81.038z"/>
	<path fill="#FFFFFF" stroke="#FFFFFF" stroke-width="0.5" stroke-miterlimit="10" d="M41.974-65.839
		c0.342,0,0.684-0.131,0.945-0.392l4.268-4.268c0.522-0.522,0.522-1.369,0-1.892c-0.522-0.522-1.369-0.522-1.892,0l-4.269,4.268
		c-0.522,0.522-0.522,1.369,0,1.891C41.289-65.97,41.631-65.839,41.974-65.839L41.974-65.839z"/>
</g>
<path fill="#FFFFFF" stroke="#FFFFFF" stroke-width="0.5" stroke-miterlimit="10" d="M56.864,37.544l1.476-1.476
	c5.281-5.281,5.282-13.825,0.004-19.104c-2.557-2.556-5.955-3.918-9.57-3.918c-0.002,0-0.004,0-0.005,0
	c-3.617,0-7.017,1.365-9.576,3.924L12.4,43.74c-2.562,2.562-3.973,5.953-3.973,9.569c0,3.614,1.409,7.019,3.967,9.577
	c2.557,2.557,5.956,3.974,9.571,3.974c0.002,0,0.003,0,0.005,0c3.613,0,7.009-1.419,9.563-3.973l4.359-4.365
	c1.738,7.889,8.781,13.809,17.185,13.809c9.704,0,17.6-7.897,17.6-17.601C70.676,46.326,64.754,39.282,56.864,37.544z
	 M67.969,54.729c0,3.619-1.299,6.94-3.454,9.524L43.553,43.291c2.584-2.155,5.904-3.454,9.524-3.454
	C61.288,39.837,67.969,46.517,67.969,54.729z M41.107,18.884c2.047-2.047,4.768-3.131,7.662-3.131c0.001,0,0.003,0,0.004,0
	c2.892,0,5.611,1.08,7.656,3.125c4.223,4.223,4.221,11.073-0.004,15.297L53.44,37.15c-0.121-0.003-0.242-0.015-0.364-0.015
	c-5.398,0-10.233,2.442-13.464,6.279L28.074,31.897L41.107,18.884z M29.619,60.972c-2.043,2.043-4.759,3.18-7.649,3.18
	c-0.001,0-0.002,0-0.004,0c-2.892,0-5.611-1.141-7.657-3.187c-2.047-2.046-3.174-4.772-3.174-7.662c0-2.893,1.129-5.618,3.18-7.669
	l11.845-11.846L38.011,45.64c-1.608,2.655-2.534,5.765-2.534,9.089c0,0.122,0.007,0.248,0.009,0.37L29.619,60.972z M38.185,54.729
	c0-3.619,1.299-6.94,3.454-9.524L62.6,66.167c-2.584,2.155-5.904,3.454-9.524,3.454C44.865,69.621,38.185,62.94,38.185,54.729z"/>
</svg>
