<?xml version="1.0" encoding="utf-8"?>
<!-- Generator: Adobe Illustrator 17.0.0, SVG Export Plug-In . SVG Version: 6.00 Build 0)  -->
<!DOCTYPE svg PUBLIC "-//W3C//DTD SVG 1.1//EN" "http://www.w3.org/Graphics/SVG/1.1/DTD/svg11.dtd">
<svg version="1.1" id="Layer_1" xmlns="http://www.w3.org/2000/svg" xmlns:xlink="http://www.w3.org/1999/xlink" x="0px" y="0px"
	 width="85.112px" height="84.9px" viewBox="0 0 85.112 84.9" enable-background="new 0 0 85.112 84.9" xml:space="preserve">
<path fill="#FFFFFF" stroke="#FFFFFF" stroke-width="0.5" stroke-miterlimit="10" d="M56.864,37.544l1.476-1.476
	c5.281-5.281,5.282-13.825,0.004-19.104c-2.557-2.556-5.955-3.918-9.57-3.918c-0.002,0-0.004,0-0.005,0
	c-3.617,0-7.017,1.365-9.576,3.924L12.4,43.74c-2.562,2.562-3.973,5.953-3.973,9.569c0,3.614,1.409,7.019,3.967,9.577
	c2.557,2.557,5.956,3.974,9.571,3.974c0.002,0,0.003,0,0.005,0c3.613,0,7.009-1.419,9.563-3.973l4.359-4.365
	c1.738,7.889,8.781,13.809,17.185,13.809c9.704,0,17.6-7.897,17.6-17.601C70.676,46.326,64.754,39.282,56.864,37.544z
	 M67.969,54.729c0,3.619-1.299,6.94-3.454,9.524L43.553,43.291c2.584-2.155,5.904-3.454,9.524-3.454
	C61.288,39.837,67.969,46.517,67.969,54.729z M41.107,18.884c2.047-2.047,4.768-3.131,7.662-3.131c0.001,0,0.003,0,0.004,0
	c2.892,0,5.611,1.08,7.656,3.125c4.223,4.223,4.221,11.073-0.004,15.297L53.44,37.15c-0.121-0.003-0.242-0.015-0.364-0.015
	c-5.398,0-10.233,2.442-13.464,6.279L28.074,31.897L41.107,18.884z M29.619,60.972c-2.043,2.043-4.759,3.18-7.649,3.18
	c-0.001,0-0.002,0-0.004,0c-2.892,0-5.611-1.141-7.657-3.187c-2.047-2.046-3.174-4.772-3.174-7.662c0-2.893,1.129-5.618,3.18-7.669
	l11.845-11.846L38.011,45.64c-1.608,2.655-2.534,5.765-2.534,9.089c0,0.122,0.007,0.248,0.009,0.37L29.619,60.972z M38.185,54.729
	c0-3.619,1.299-6.94,3.454-9.524L62.6,66.167c-2.584,2.155-5.904,3.454-9.524,3.454C44.865,69.621,38.185,62.94,38.185,54.729z"/>
</svg>
