<?xml version="1.0" encoding="utf-8"?>
<!-- Generator: Adobe Illustrator 17.0.0, SVG Export Plug-In . SVG Version: 6.00 Build 0)  -->
<!DOCTYPE svg PUBLIC "-//W3C//DTD SVG 1.1//EN" "http://www.w3.org/Graphics/SVG/1.1/DTD/svg11.dtd">
<svg version="1.1" id="Layer_1" xmlns="http://www.w3.org/2000/svg" xmlns:xlink="http://www.w3.org/1999/xlink" x="0px" y="0px"
	 width="85.112px" height="84.9px" viewBox="0 0 85.112 84.9" enable-background="new 0 0 85.112 84.9" xml:space="preserve">
<path fill="#FFFFFF" stroke="#FFFFFF" stroke-width="0.25" stroke-miterlimit="10" d="M33.654,60.218
	c-2.964,0-5.376,2.412-5.376,5.376c0,2.964,2.412,5.376,5.376,5.376s5.376-2.412,5.376-5.376
	C39.03,62.63,36.618,60.218,33.654,60.218z M33.654,67.968c-1.309,0-2.374-1.065-2.374-2.374c0-1.309,1.065-2.374,2.374-2.374
	c1.309,0,2.374,1.065,2.374,2.374C36.028,66.903,34.963,67.968,33.654,67.968z"/>
<path fill="#FFFFFF" stroke="#FFFFFF" stroke-width="0.25" stroke-miterlimit="10" d="M52.511,60.218
	c-2.964,0-5.376,2.412-5.376,5.376c0,2.964,2.412,5.376,5.376,5.376s5.376-2.412,5.376-5.376
	C57.887,62.63,55.475,60.218,52.511,60.218z M52.511,67.968c-1.309,0-2.374-1.065-2.374-2.374c0-1.309,1.065-2.374,2.374-2.374
	c1.309,0,2.374,1.065,2.374,2.374C54.885,66.903,53.82,67.968,52.511,67.968z"/>
<path fill="#FFFFFF" stroke="#FFFFFF" stroke-width="0.25" stroke-miterlimit="10" d="M32.327,34.916h21.508
	c0.829,0,1.501-0.672,1.501-1.501s-0.672-1.501-1.501-1.501H32.327c-0.829,0-1.501,0.672-1.501,1.501
	C30.826,34.244,31.498,34.916,32.327,34.916z"/>
<path fill="#FFFFFF" stroke="#FFFFFF" stroke-width="0.25" stroke-miterlimit="10" d="M52.664,39.708H33.497
	c-0.829,0-1.501,0.672-1.501,1.501c0,0.829,0.672,1.501,1.501,1.501h19.166c0.829,0,1.501-0.672,1.501-1.501
	C54.164,40.38,53.493,39.708,52.664,39.708z"/>
<path fill="#FFFFFF" stroke="#FFFFFF" stroke-width="0.25" stroke-miterlimit="10" d="M68.474,25.227
	c-0.572-0.703-1.421-1.105-2.327-1.105H19.398l-0.944-4.583c-0.197-0.956-0.849-1.759-1.745-2.148l-6.588-2.859
	c-0.76-0.33-1.644,0.019-1.974,0.779c-0.33,0.76,0.019,1.644,0.779,1.974l6.588,2.86l7.262,35.251
	c0.286,1.388,1.522,2.396,2.94,2.396h35.956c0.829,0,1.501-0.672,1.501-1.501c0-0.829-0.672-1.501-1.501-1.501H25.716l-0.883-4.288
	H61.95c1.417,0,2.654-1.008,2.94-2.396l4.198-20.377C69.27,26.842,69.047,25.93,68.474,25.227z M61.95,47.5H24.214l-4.198-20.377
	l46.131,0L61.95,47.5z"/>
</svg>
