<?xml version="1.0" encoding="UTF-8"?>
<svg width="105px" height="48px" viewBox="0 0 105 48" version="1.1" xmlns="http://www.w3.org/2000/svg" xmlns:xlink="http://www.w3.org/1999/xlink">
    <!-- Generator: Sketch 53.2 (72643) - https://sketchapp.com -->
    <title>Group 8</title>
    <desc>Created with Sketch.</desc>
    <g id="Page-1" stroke="none" stroke-width="1" fill="none" fill-rule="evenodd">
        <g id="02-About" transform="translate(-583.000000, -2878.000000)">
            <g id="Group-8" transform="translate(583.000000, 2878.000000)">
                <rect id="Rectangle-Copy-31" fill="#FFFFFF" x="0" y="0" width="105" height="48"></rect>
                <g id="abbott-seeklogo.com-02-copy-3" transform="translate(19.769922, 31.286857)" fill="#4B4B4B" fill-rule="nonzero">
                    <path d="M9.45017592,0.263038959 L12.6513967,9.84013116 C13.0346969,11.0077452 13.3018754,11.27886 13.9725277,11.27886 L14.6249745,11.27886 L14.6249745,12.9636094 L7.63306734,12.9636094 L7.63306734,11.27886 L8.20432731,11.27886 C8.78001565,11.27886 9.26221614,11.2016095 9.26221614,10.9910158 C9.26221614,10.7981356 9.24007428,10.588034 9.165284,10.302158 L8.76328624,8.92099798 L4.85352594,8.92099798 L4.62521877,9.68710631 C4.41265692,10.3577586 4.3373746,10.6441267 4.3373746,10.9127812 C4.3373746,11.2222752 5.00704283,11.2798441 5.52663846,11.2798441 L6.07870882,11.2798441 L6.07870882,12.9641015 L0.448772066,12.9641015 L0.448772066,11.27886 L1.09875865,11.27886 C1.76891892,11.27886 2.03609736,11.0077452 2.42234979,9.84013116 L5.62111039,0.263038959 L9.45017592,0.263038959 L9.45017592,0.263038959 Z M5.40461221,7.23723259 L8.18661382,7.23723259 L6.80692997,3.11540248 L6.77101095,3.11540248 L5.40461221,7.23723259 Z" id="path2386_1_"></path>
                    <path d="M15.7340356,2.61893279 C15.7340356,2.08113163 15.6002003,1.79525562 15.0441937,1.79525562 L14.1634397,1.79525562 L14.1634397,0.262546918 L18.9155747,0.262546918 L18.9155747,5.03190341 C19.621654,4.22643177 20.5235658,3.71028043 21.384146,3.71028043 C24.2576673,3.71028043 25.3268731,5.95349679 25.3268731,8.47963692 C25.3268731,11.0072532 24.2571753,13.2465332 21.384146,13.2465332 C20.1791368,13.2465332 19.1059947,12.8282981 18.4323902,11.7733615 L17.8798278,12.9636094 L15.7320674,12.9636094 L15.7320674,2.61893279 M18.9160668,8.48012896 C18.9160668,10.434025 19.3544756,11.6036072 20.4276177,11.6036072 C21.5022359,11.6036072 21.9411368,10.434025 21.9411368,8.48012896 C21.9411368,6.52623289 21.502728,5.36009496 20.4276177,5.36009496 C19.3544756,5.36009496 18.9160668,6.52574085 18.9160668,8.48012896" id="path2388_1_"></path>
                    <path d="M26.48071,2.61893279 C26.48071,2.08113163 26.3453986,1.79525562 25.7928362,1.79525562 L24.9120823,1.79525562 L24.9120823,0.262546918 L29.6642173,0.262546918 L29.6642173,5.03190341 C30.3717727,4.22643177 31.2722083,3.71028043 32.1347568,3.71028043 C35.0063099,3.71028043 36.079452,5.95349679 36.079452,8.47963692 C36.079452,11.0072532 35.0063099,13.2465332 32.1347568,13.2465332 C30.9243351,13.2465332 29.8551294,12.8282981 29.1810327,11.7733615 L28.6265022,12.9636094 L26.480218,12.9636094 L26.480218,2.61893279 M29.6627412,8.48012896 C29.6627412,10.434025 30.1045943,11.6036072 31.1742921,11.6036072 C32.2489104,11.6036072 32.6892873,10.434025 32.6892873,8.48012896 C32.6892873,6.52623289 32.2489104,5.36009496 31.1742921,5.36009496 C30.1045943,5.36009496 29.6627412,6.52574085 29.6627412,8.48012896" id="path2390_1_"></path>
                    <path d="M46.8851714,8.48012896 C46.8851714,11.5445623 44.7959639,13.2470252 41.9421243,13.2470252 C39.0863165,13.2470252 36.9976011,11.5445623 36.9976011,8.48012896 C36.9976011,5.41471155 39.0868085,3.71077247 41.9421243,3.71077247 C44.796456,3.71028043 46.8851714,5.41471155 46.8851714,8.48012896 M40.389734,8.48012896 C40.389734,10.7390906 40.7907476,11.7167767 41.9421243,11.7167767 C43.0900567,11.7167767 43.4930385,10.7390906 43.4930385,8.48012896 C43.4930385,6.21969115 43.0900567,5.24348117 41.9421243,5.24348117 C40.7907476,5.24348117 40.389734,6.2191991 40.389734,8.48012896" id="path2392_1_"></path>
                    <path d="M60.5447304,8.63462993 L60.5447304,10.1299435 C60.5447304,11.0072532 60.3543104,11.5278329 59.623137,11.5278329 C59.18276,11.5278329 58.9741345,11.2006254 58.9741345,10.7981356 L58.9741345,5.5283731 L61.3290443,5.5283731 L61.3290443,3.99861664 L58.9741345,3.99861664 L58.9741345,0.43525342 L57.0758391,0.43525342 C56.9223222,2.02503892 56.4253605,3.99861664 54.5108277,3.99861664 L51.5216767,3.99861664 L51.5216767,0.43525342 L49.6248574,0.43525342 C49.4698644,2.02503892 48.9724107,3.99861664 47.0578779,3.99861664 L47.0578779,5.5283731 L48.3430898,5.5283731 L48.3430898,10.338569 C48.3430898,12.2924651 49.4339454,13.2465332 51.405555,13.2465332 C53.7068322,13.2465332 54.6230131,12.2152146 54.6230131,10.338569 L54.6230131,8.63364585 L53.0952248,8.63364585 L53.0952248,10.1289594 C53.0952248,11.0062691 52.9008685,11.5268488 52.1736315,11.5268488 C51.7317784,11.5268488 51.5211847,11.1996413 51.5211847,10.7971515 L51.5211847,5.52788105 L55.7955476,5.52788105 L55.7955476,10.3375849 C55.7955476,12.291481 56.8849271,13.2455491 58.8580128,13.2455491 C61.15929,13.2455491 62.0774391,12.2142305 62.0774391,10.3375849 L62.0774391,8.63266177 L60.5442384,8.63266177" id="path2394_1_"></path>
                </g>
                <path d="M36.9667796,3.47327269 L36.9667796,7.36570536 L61.0406485,7.36570536 L61.0406485,7.36831773 C61.7364099,7.36831773 62.2963281,7.93084827 62.2963281,8.62312657 L62.2963281,21.7006554 L62.2911033,21.7093633 C62.2850078,22.4025124 61.7233481,22.9580766 61.0328113,22.9580766 L42.1157627,22.9580766 C41.4226136,22.9580766 40.8574707,22.3972877 40.8574707,21.7006554 L40.8574707,16.415829 C40.8574707,15.7226799 41.4217428,15.1610202 42.1157627,15.1610202 L58.3934459,15.1610202 L58.3934459,11.2703291 L40.847892,11.2703291 C38.7031355,11.2703291 36.9667796,13.0049434 36.9667796,15.1479583 L36.9667796,22.9685261 C36.9667796,25.1106703 38.7040063,26.8505093 40.847892,26.8505093 L62.305036,26.8505093 C64.4515341,26.8505093 66.1861484,25.1097995 66.1861484,22.9685261 L66.1861484,7.35438509 C66.1861484,5.21137014 64.4506633,3.47327269 62.3041652,3.47327269 L36.9667796,3.47327269 Z" id="path2384_1_-copy" fill="#00ADE0" fill-rule="nonzero"></path>
            </g>
        </g>
    </g>
</svg>