<?xml version="1.0" encoding="UTF-8"?>
<svg width="105px" height="49px" viewBox="0 0 105 49" version="1.1" xmlns="http://www.w3.org/2000/svg" xmlns:xlink="http://www.w3.org/1999/xlink">
    <!-- Generator: Sketch 53.2 (72643) - https://sketchapp.com -->
    <title>Group 9</title>
    <desc>Created with Sketch.</desc>
    <g id="Page-1" stroke="none" stroke-width="1" fill="none" fill-rule="evenodd">
        <g id="02-About" transform="translate(-774.000000, -2877.000000)">
            <g id="Group-9" transform="translate(774.000000, 2877.500000)">
                <rect id="Rectangle-Copy-41" fill="#FFFFFF" x="0" y="0" width="105" height="48"></rect>
                <path d="M5.19297814,36.0240603 C2.89502563,36.0240603 1.46695676,37.8790114 1.46695676,39.9212514 C1.46695676,42.2736608 3.16972325,43.9369664 5.23247326,43.9369664 C6.75255932,43.9369664 7.69454388,42.8310004 7.69454388,42.8310004 L7.69454388,43.6736086 L10.1083379,43.6736086 L10.1083379,36.3005732 L7.69454388,36.3005732 L7.69454388,37.2134414 C7.69454388,37.2134414 6.87396615,36.0240603 5.19297814,36.0240603 Z M5.90395017,38.0604489 C6.99568477,38.0604489 7.76476551,39.1433081 7.76476551,39.9607594 C7.76476551,41.0803076 6.89230637,41.8435155 5.90395017,41.8435155 C4.96329821,41.8435155 3.99046756,41.2074163 3.99046756,39.9739572 C3.99046756,38.9973209 4.79586143,38.0604489 5.90395017,38.0604489 Z" id="path17862-8-copy" fill="#4B4B4B" fill-rule="nonzero"></path>
                <path d="M11.8374915,43.6718574 L11.8374915,36.2987793 L14.2670878,36.2987793 L14.2670878,37.2658482 C14.2670878,37.2658482 15.0746399,36.017739 16.8592703,36.017739 C18.8759024,36.017739 19.5616337,37.2960878 19.5616337,38.8969494 L19.5616337,43.6718574 L17.1320399,43.6718574 L17.1320399,39.7395576 C17.1320399,38.4965738 16.6522572,37.9848927 15.8527985,37.9848927 C14.937365,37.9848927 14.2670878,38.77629 14.2670878,40.020427 L14.2670878,43.6718574 L11.8374915,43.6718574 Z" id="path17866-0-copy" fill="#4B4B4B" fill-rule="nonzero"></path>
                <polygon id="path17869-1-copy" fill="#4B4B4B" fill-rule="nonzero" points="21.1485946 43.6718574 21.1485946 36.2987793 23.6062745 36.2987793 23.6062745 43.6718574"></polygon>
                <circle id="path17871-9-copy" fill="#4B4B4B" fill-rule="nonzero" cx="22.39732" cy="33.5640612" r="1.4287561"></circle>
                <path d="M33.0437671,40.1608617 L33.0437671,43.6718574 L30.6141733,43.6718574 L30.6141733,39.7395576 C30.6141733,38.4965738 30.1343906,37.9848927 29.3349319,37.9848927 C28.4194988,37.9848927 27.7492216,38.77629 27.7492216,40.020427 L27.7492216,43.6718574 L25.3196287,43.6718574 L25.3196287,36.2987793 L27.7492216,36.2987793 L27.7492216,37.2658482 C27.7492216,37.2658482 28.5567733,36.017739 30.3413998,36.017739 C31.5783792,36.017739 32.3146094,36.4986681 32.6989956,37.2400079 C32.6989956,37.2400079 33.4926016,36.010051 35.5323524,36.010051 C37.4455173,36.010051 38.3804455,37.1740189 38.3804455,38.756472 L38.3804455,43.6718574 L35.9508517,43.6718574 L35.9508517,39.7395576 C35.9508517,38.7806039 35.5733497,37.9619994 34.6707488,37.9619994 C33.7482504,37.9619994 33.0437671,38.793759 33.0437671,40.1608617 Z" id="path17873-9-copy" fill="#4B4B4B" fill-rule="nonzero"></path>
                <path d="M43.0621122,36.0240603 C40.7641653,36.0240603 39.3360925,37.8790114 39.3360925,39.9212514 C39.3360925,42.2736608 41.0388616,43.9369664 43.101612,43.9369664 C44.6216913,43.9369664 45.5636814,42.8310004 45.5636814,42.8310004 L45.5636814,43.6736086 L47.9774737,43.6736086 L47.9774737,36.3005732 L45.5636814,36.3005732 L45.5636814,37.2134414 C45.5636814,37.2134414 44.7431049,36.0240603 43.0621122,36.0240603 Z M43.7730834,38.0604489 C44.8648214,38.0604489 45.6339009,39.1433081 45.6339009,39.9607594 C45.6339009,41.0803076 44.7614426,41.8435155 43.7730834,41.8435155 C42.8324357,41.8435155 41.8596042,41.2074163 41.8596042,39.9739572 C41.8596042,38.9973209 42.6649968,38.0604489 43.7730834,38.0604489 L43.7730834,38.0604489 Z" id="path17877-9-copy" fill="#4B4B4B" fill-rule="nonzero"></path>
                <polygon id="path17879-8-copy" fill="#4B4B4B" fill-rule="nonzero" points="49.7021481 43.6718574 49.7021481 33.349437 52.1598286 33.349437 52.1598286 43.6718574"></polygon>
                <path d="M73.8639425,36.0240603 C71.565996,36.0240603 70.1379233,37.8790114 70.1379233,39.9212514 C70.1379233,42.2736608 71.8406923,43.9369664 73.9034389,43.9369664 C75.423522,43.9369664 76.3655083,42.8310004 76.3655083,42.8310004 L76.3655083,43.6736086 L78.779304,43.6736086 L78.779304,36.3005732 L76.3655083,36.3005732 L76.3655083,37.2134414 C76.3655083,37.2134414 75.5449356,36.0240603 73.8639425,36.0240603 L73.8639425,36.0240603 Z M74.5749141,38.0604489 C75.6666483,38.0604489 76.4357277,39.1433081 76.4357277,39.9607594 C76.4357277,41.0803076 75.5632733,41.8435155 74.5749141,41.8435155 C73.6342626,41.8435155 72.6614349,41.2074163 72.6614349,39.9739572 C72.6614349,38.9973209 73.4668271,38.0604489 74.5749141,38.0604489 Z" id="path17881-5-copy" fill="#4B4B4B" fill-rule="nonzero"></path>
                <polygon id="path17883-9-copy" fill="#4B4B4B" fill-rule="nonzero" points="66.6477395 43.6718574 66.6477395 33.349437 69.1054202 33.349437 69.1054202 43.6718574"></polygon>
                <path d="M61.94785,36.0240603 C64.2457965,36.0240603 65.6738693,37.8790114 65.6738693,39.9212514 C65.6738693,42.2736608 63.9711002,43.9369664 61.9083498,43.9369664 C60.3882667,43.9369664 59.4462808,42.8310004 59.4462808,42.8310004 L59.4462808,46.6210289 L57.0324886,46.6210289 L57.0324886,36.3005732 L59.4462808,36.3005732 L59.4462808,37.2134414 C59.4462808,37.2134414 60.2668569,36.0240603 61.94785,36.0240603 L61.94785,36.0240603 Z M61.2368784,38.0604489 C60.1451404,38.0604489 59.3760614,39.1433081 59.3760614,39.9607594 C59.3760614,41.0803076 60.2485192,41.8435155 61.2368784,41.8435155 C62.1775265,41.8435155 63.1503576,41.2074163 63.1503576,39.9739572 C63.1503576,38.9973209 62.3449654,38.0604489 61.2368784,38.0604489 Z" id="path17885-4-copy" fill="#4B4B4B" fill-rule="nonzero"></path>
                <path d="M80.5121158,43.6718574 L80.5121158,36.2987793 L82.9417096,36.2987793 L82.9417096,37.2658482 C82.9417096,37.2658482 83.7492574,36.017739 85.533892,36.017739 C87.5505245,36.017739 88.2362559,37.2960878 88.2362559,38.8969494 L88.2362559,43.6718574 L85.8066621,43.6718574 L85.8066621,39.7395576 C85.8066621,38.4965738 85.3268755,37.9848927 84.5274202,37.9848927 C83.6119833,37.9848927 82.9417096,38.77629 82.9417096,40.020427 L82.9417096,43.6718574 L80.5121158,43.6718574 Z" id="path17887-5-copy" fill="#4B4B4B" fill-rule="nonzero"></path>
                <path d="M93.1647849,36.0240603 C90.8656791,36.0240603 89.2105511,37.5106693 89.2105511,39.9783564 C89.2105511,42.3918003 90.8829559,43.9281679 93.6124247,43.9281679 C94.9591628,43.9281679 96.2895467,43.3268784 96.2895467,43.3268784 L95.7497316,41.5802431 C95.7497316,41.5802431 94.8420741,42.0454117 93.8099217,42.0454117 C92.5131644,42.0454117 91.9093465,41.316202 91.7472272,40.6542198 L97.0839082,40.6542198 C97.1593577,38.1350228 96.117527,36.0240603 93.1647849,36.0240603 L93.1647849,36.0240603 Z M93.2701066,37.7971339 C94.1222309,37.7971339 94.7370086,38.3944512 94.8471738,39.17957 L91.7077278,39.17957 C91.7954568,38.3358513 92.5726057,37.7971339 93.2701066,37.7971339 Z" id="path17889-4-copy" fill="#4B4B4B" fill-rule="nonzero"></path>
                <path d="M101.156627,34.5433028 L101.156627,36.2987793 L102.841891,36.2987793 L102.841891,38.1946905 L101.156627,38.1946905 L101.156627,41.1439474 C101.156627,41.7467744 101.402226,42.0412687 102.11954,42.0412687 C102.441067,42.0412687 102.85599,41.9332092 102.85599,41.9332092 L103.065015,43.6882159 C103.065015,43.6882159 102.524806,43.9074956 101.532431,43.9074956 C99.6810123,43.9074956 98.698956,42.994969 98.698956,41.2843394 L98.698956,38.1946905 L97.6035337,38.1946905 L97.6035337,36.2987793 L98.698956,36.2987793 L98.698956,34.5433028 L101.156627,34.5433028 Z" id="path17893-0-copy" fill="#4B4B4B" fill-rule="nonzero"></path>
                <path d="M53.9758887,9.76538729 C53.9758887,9.76538729 55.3371249,10.8795037 55.9846234,11.7741119 C52.649973,9.59851621 49.1071919,8.68467708 44.7993012,8.68467708 C37.7078859,8.68467708 31.2511428,11.9702614 28.0634528,17.4084346 L28.4749028,18.1817692 C28.4749028,18.1817692 29.8619652,16.5141464 33.0667916,14.8785219 C29.5662697,18.3317132 28.1001052,21.0864139 25.9478235,27.4380423 L29.3619801,30.8381805 C33.8291118,25.8400477 40.4014557,22.5376323 47.8208648,22.5376323 C54.841323,22.5376323 61.3058221,25.6796403 65.3473442,29.856697 L69.0250976,26.1678702 C66.9633823,22.6394829 64.2862016,19.3852889 62.1582162,17.1259537 C64.3599141,18.3832625 67.8750417,19.102424 71.2327342,19.102424 C77.1068428,19.102424 81.4231441,15.9396171 81.4231441,11.6332874 C81.4231441,6.32841907 76.8748833,3.10001571 69.4563773,1.87246535 L68.2567253,3.88509373 C71.9901045,4.55088212 77.7981508,6.72382193 77.7981508,10.6055984 C77.7981508,12.7349565 76.1509,14.521005 73.777577,14.521005 C70.8443613,14.521005 68.4084077,11.2499799 66.9281867,8.36149436 L64.6627306,8.30693728 C62.0626415,5.08947732 57.8592192,1.94967722 53.9758887,1 L53.9758887,9.76538729 Z" id="path17895-7-copy" fill="#008CFF" fill-rule="nonzero"></path>
            </g>
        </g>
    </g>
</svg>