<?xml version="1.0" encoding="UTF-8"?>
<svg width="106px" height="48px" viewBox="0 0 106 48" version="1.1" xmlns="http://www.w3.org/2000/svg" xmlns:xlink="http://www.w3.org/1999/xlink">
    <!-- Generator: Sketch 53.2 (72643) - https://sketchapp.com -->
    <title>Group 10</title>
    <desc>Created with Sketch.</desc>
    <g id="Page-1" stroke="none" stroke-width="1" fill="none" fill-rule="evenodd">
        <g id="02-About" transform="translate(-972.000000, -2875.000000)">
            <g id="Group-10" transform="translate(972.879044, 2875.000000)">
                <rect id="Rectangle-Copy-81" fill="#FFFFFF" x="0" y="0" width="105" height="48"></rect>
                <g id="Group-2-Copy" transform="translate(1.620956, 5.500000)" fill="#4B4B4B" fill-rule="nonzero">
                    <path d="M18.2976092,20.5215375 C18.3649039,20.490519 18.4289431,20.4528776 18.4887793,20.4091703 C18.5536202,20.3608698 18.6155087,20.3087275 18.6741122,20.2530237 C18.7380417,20.1887228 18.7961546,20.1188897 18.8477705,20.0443419 C19.1240993,19.7520848 19.4164101,19.4753638 19.7233588,19.2154516 C21.1257593,18.0480006 23.3716432,16.1888349 23.5409236,16.0385255 C23.5469898,16.0326703 23.5545714,16.0286267 23.5628133,16.026851 C23.7172499,15.9826776 23.8646468,15.9168403 24.0006075,15.831303 C24.1508684,15.6940775 24.2926814,15.5478786 24.4252678,15.3935088 C24.4529947,15.3730785 25.7386502,14.5660779 26.4683071,14.3500995 C26.4974933,14.3500995 27.146888,14.2041681 28.0064238,13.9458696 C28.3756302,13.8320431 29.2410032,13.3417137 29.8364033,12.9331058 C29.8426323,12.9305928 29.8481458,12.926583 29.8524557,12.9214313 L29.8524557,12.9126754 C29.8531639,12.9083261 29.8531639,12.9038909 29.8524557,12.8995416 C29.8524557,12.8820298 29.7970018,12.8791112 29.7911645,12.8893264 C29.6364773,12.971048 27.542362,14.0772078 26.700338,13.9765152 C26.6171571,13.9663 26.3573992,13.8729039 26.5850522,13.6598441 C26.6536399,13.5956343 27.0491139,13.2629107 27.4475066,12.9301872 C27.4700734,12.9128591 27.4743202,12.8805179 27.4569921,12.8579512 C27.4396641,12.8353844 27.4073229,12.8311375 27.3847561,12.8484656 L24.0881663,15.1425069 C23.9211128,15.1781888 23.7585963,15.2325241 23.6036741,15.3044907 C23.4679997,15.4204059 23.3478324,15.5533258 23.2461422,15.6999647 L23.235927,15.7116392 L18.5369367,19.7393453 C18.5208842,19.7510198 18.5033725,19.7641536 18.4844014,19.7758281 C18.3807946,19.8475209 18.2635774,19.8971892 18.1400033,19.9217595 L17.2147984,19.9582423 C17.17599,19.9612954 17.1460908,19.9937393 17.1462107,20.0326673 C17.1465867,20.0515074 17.1545377,20.0694014 17.1682678,20.0823077 C17.181998,20.095214 17.2003491,20.102044 17.2191763,20.1012551 L17.9123504,20.0735281 C17.9451644,20.0892169 17.9669672,20.1213826 17.9693866,20.1576737 C17.971806,20.1939648 17.954466,20.22874 17.9240249,20.2486458 L16.7565739,20.4850546 C16.7177595,20.493122 16.6924881,20.5307051 16.6996606,20.5696948 C16.7069744,20.6057299 16.7404248,20.6303444 16.7770043,20.6266081 L17.8466813,20.4091703 C17.8660503,20.4065467 17.8856847,20.4065467 17.9050538,20.4091703 C17.9415367,20.4252227 17.9546705,20.454409 17.8948386,20.505485 L16.5230837,21.0322973 C16.4865621,21.0465584 16.4683352,21.0875688 16.4822229,21.124234 C16.4937793,21.153861 16.5235131,21.1722959 16.5551886,21.1694728 C16.5619292,21.1708487 16.5688783,21.1708487 16.575619,21.1694728 L17.3607298,20.8703135 C17.6715636,20.7710801 18.0232582,20.6426605 18.2976092,20.5215375 Z" id="Path"></path>
                    <path d="M47.5364201,9.06154636 C46.9804215,9.01776695 46.6768843,9.01484832 45.9136632,9.0017145 C44.5287744,8.97836548 44.0530381,9.09511058 42.9950356,8.98274342 C42.8943429,8.97252822 42.5090841,8.8222189 42.1077728,8.715689 C41.9454009,8.67096314 41.778434,8.64501228 41.6101468,8.63834537 C41.3049238,8.64060252 41.0002036,8.66351748 40.6980757,8.70693312 C40.2989648,8.76849488 39.9055766,8.86269329 39.5218688,8.98858068 C39.0432139,9.14618656 38.7075717,9.28044343 38.4784595,9.44242726 C38.3299111,9.55472029 38.196925,9.68623413 38.0829854,9.83352335 C37.9808534,9.9991652 37.9249231,10.1891267 37.9210016,10.3836846 C37.460212,9.89208492 36.9620719,9.43687949 36.4310422,9.02214489 C36.0735103,8.74195665 35.8006187,8.63980468 35.0519907,8.56683899 C34.6141966,8.52451889 34.1107333,6.86527913 34.2187225,5.80581733 C34.2873103,5.14182956 35.7918628,4.07507119 36.0311902,3.57744519 C36.2865702,3.04625497 35.848776,2.5938677 35.848776,2.5938677 C35.7970227,2.51947505 35.7351338,2.45267435 35.6649025,2.39540103 C35.6042107,2.34580145 35.539813,2.30091817 35.4722731,2.26114416 C35.3492676,2.18922677 35.2209633,2.12678213 35.0884735,2.074352 C34.8376466,1.97721429 34.5813405,1.89486501 34.3208745,1.82772797 C33.8101147,1.69493042 33.2993549,1.59423776 32.7871357,1.50376031 C31.7656161,1.3228054 30.7440964,1.17833334 29.7225768,1.01926814 C28.7010571,0.860202935 27.691212,0.699678419 26.700338,0.46035096 C26.4537139,0.399059781 26.2070899,0.333390661 25.9706811,0.256047031 C25.849558,0.216645559 25.7298943,0.175784773 25.6131492,0.130546046 L25.4321943,0.0590396707 L25.3869556,0.0400685916 L25.3665252,0.0313127089 C25.3553553,0.0253161479 25.3436247,0.0204284199 25.3315016,0.0167195712 C25.2940241,0.00171879974 25.2532977,-0.00330915555 25.2132972,0.0021264334 C25.1716372,0.010969779 25.1344312,0.0342235396 25.1082266,0.0677955534 C25.0883524,0.0946551388 25.0762372,0.126457457 25.0732031,0.159732321 C25.0710554,0.192666811 25.0745095,0.225727011 25.0834183,0.257506344 C25.0834183,0.280855365 25.0980114,0.301285758 25.105308,0.320256837 C25.1126046,0.339227916 25.1403315,0.390303898 25.1578433,0.420949488 C25.1945104,0.480990128 25.2344589,0.538964166 25.277507,0.594607827 C25.3598969,0.700971331 25.4491025,0.801876011 25.5445614,0.896685779 C25.630661,0.982785292 25.7211384,1.06596618 25.8145345,1.14476912 L25.7678365,1.14476912 L25.300856,1.09223383 L24.3654359,0.985703919 C24.3324954,0.981597254 24.2992834,0.990865175 24.2732288,1.01143456 C24.2471742,1.03200394 24.2304515,1.0621583 24.2268011,1.09515245 C24.2167952,1.18940462 24.2282705,1.28469894 24.2603653,1.37388138 C24.2930752,1.45973683 24.342701,1.53814549 24.4062967,1.60445296 C24.5213764,1.7178603 24.6558017,1.80978346 24.80323,1.87588532 L23.6532908,1.80583826 C23.595509,1.80269231 23.5430668,1.83946215 23.5263305,1.8948564 C23.5070368,1.96265053 23.502067,2.03371869 23.5117374,2.10353827 C23.5221793,2.16864738 23.5428659,2.23169219 23.5730285,2.29033044 C23.6269563,2.39571513 23.6974085,2.49178631 23.7817104,2.57489662 C23.8346061,2.6263817 23.8901345,2.67509082 23.9480722,2.720828 L23.2154967,2.720828 C23.1892168,2.81915652 23.2023043,2.92385663 23.2519795,3.01269076 C23.2757329,3.05782017 23.3040977,3.10036737 23.3366197,3.13965106 C23.3971626,3.20909542 23.4646414,3.27217334 23.538005,3.32790253 C23.6112184,3.38133442 23.6877423,3.43007577 23.7671173,3.47383391 L23.4037481,3.52490989 C23.3408038,3.53449621 23.2950117,3.58969757 23.2972182,3.6533295 C23.2991386,3.70100559 23.3110717,3.74774374 23.3322418,3.790505 C23.3524852,3.82880463 23.3791381,3.86335465 23.4110447,3.89265696 C23.4632774,3.94086118 23.5222731,3.98117489 23.5861624,4.01232069 C23.6430756,4.04150697 23.6999888,4.06485599 23.7510648,4.08820501 C23.7896863,4.10478095 23.8272174,4.1237902 23.863432,4.14511825 C23.8298678,4.1932756 23.7992222,4.24289227 23.7700359,4.29104963 C23.6676647,4.46026625 23.576976,4.63628031 23.4986035,4.8178619 C23.4766455,4.89860365 23.4766455,4.98374418 23.4986035,5.06448593 C23.5100401,5.10096812 23.5251995,5.13617699 23.5438423,5.16955652 L23.5336271,5.15496338 C23.6051334,5.30089476 24.4515354,6.9148958 26.3311316,7.4023066 C26.3518763,7.40554606 26.3696262,7.41894598 26.3784248,7.4380096 C26.3872234,7.45707322 26.3859046,7.47927408 26.374911,7.49716199 C25.900634,8.24578996 25.2993967,9.61462629 26.0903448,10.9688695 C26.1428801,11.0359979 26.2654624,11.1950631 26.3179977,11.2607322 L26.3282129,11.2738661 C26.4112563,11.3685802 26.4525145,11.4928259 26.4426223,11.618401 C26.4327302,11.7439762 26.3725268,11.8602293 26.2756776,11.9407724 C26.1004891,12.0908634 25.9401944,12.2575112 25.7970227,12.4383984 C25.7547026,12.4909337 25.7153012,12.5449284 25.6758997,12.598923 C25.5137904,12.7667109 25.3348071,12.9173307 25.1417908,13.0483916 C25.0348668,13.1192023 24.921513,13.179788 24.80323,13.2293465 C24.6830408,13.2806372 24.5578376,13.3192742 24.4296457,13.3446323 C24.4049284,13.3490911 24.3881651,13.3723018 24.3917036,13.3971676 C24.3931611,13.4099797 24.399696,13.4216721 24.4098449,13.4296267 C24.4199938,13.4375812 24.4329088,13.4411333 24.4456982,13.4394877 C24.5826294,13.4235683 24.7175829,13.3937416 24.8484688,13.3504696 C24.9844496,13.3067706 25.1159078,13.2500823 25.2410242,13.1811892 C25.2935595,13.1520029 25.3460948,13.119898 25.3971708,13.0877931 C25.3869089,13.0932562 25.3771432,13.0996039 25.3679845,13.1067642 C25.1568156,13.310912 24.9272111,13.4950841 24.682107,13.6569254 C24.559202,13.7325896 24.4279665,13.7938002 24.2910109,13.8393397 C24.1506928,13.8849351 24.0073213,13.9205342 23.8619727,13.9458696 C23.8360619,13.9510071 23.8183433,13.9750538 23.8211119,14.0013235 C23.8241764,14.0289971 23.8488405,14.0491179 23.8765658,14.0465622 C24.0291796,14.0336024 24.1807843,14.0106911 24.3304124,13.9779745 C24.4817557,13.9419001 24.6285971,13.8890372 24.7682065,13.8203686 C24.9384213,13.732475 25.1018327,13.6319892 25.2570766,13.51975 C25.2476372,13.5855688 25.2476372,13.6523978 25.2570766,13.7182166 L25.3037747,13.8553921 C25.3378252,13.9315222 25.3841693,14.0015314 25.4409502,14.0626147 C25.4409502,14.0626147 25.2716698,13.4657553 25.6423355,13.041095 C25.7663771,12.8951637 25.8641512,12.7492323 25.998408,12.5828705 C26.1296284,12.4149379 26.2761916,12.2595808 26.4362022,12.1188087 C26.5303099,12.0375437 26.6468129,11.9866691 26.770385,11.9728774 C27.4794874,11.8995796 28.1807344,11.7638228 28.8659596,11.5671881 C29.5576743,11.3541283 30.4712048,10.5996631 30.4712048,10.5748548 C30.4712048,10.5748548 29.6131283,11.1979817 28.9389253,11.4227161 C28.2520757,11.6734819 27.4975209,11.6662216 26.8156237,11.4022857 C26.7090938,11.3001337 26.6069419,11.1921445 26.5106272,11.0797773 C26.4143125,10.9674102 26.3457247,10.8798513 26.2698404,10.7733214 C26.0028408,10.2308962 25.9154404,9.61755971 26.0202977,9.02214489 C26.1318644,8.52058115 26.3167521,8.03820132 26.5689997,7.59055808 C26.5928356,7.54063985 26.6191356,7.49193608 26.6478027,7.4446267 C26.675425,7.39485064 26.6777982,7.33492257 26.6541984,7.28311813 C26.6305986,7.23131369 26.583824,7.19377513 26.5281389,7.18195022 C26.1720664,7.10314727 25.7780516,7.03601884 24.9316497,6.43332225 L24.8119859,6.34722274 C24.6572987,6.18523891 24.4442389,5.9619639 24.2662026,5.73431095 C24.1080957,5.55164242 23.9650985,5.35642444 23.8386236,5.15058544 C23.784299,5.01935558 23.7775877,4.87325728 23.8196526,4.73759964 C23.8648913,4.6383663 23.9188859,4.53475503 23.9743398,4.44573689 C24.0035261,4.39757953 24.0341717,4.34942218 24.0648173,4.29980551 C24.0775074,4.2817613 24.0887314,4.26272932 24.0983815,4.24289227 C24.1130445,4.21041419 24.1195567,4.17484741 24.1173526,4.13928099 C24.1146398,4.10232307 24.1014815,4.06689672 24.0794104,4.03712903 C24.0640555,4.01581447 24.0458933,3.9966705 24.0254158,3.98021579 C23.9697255,3.93893676 23.9088955,3.90508778 23.8444609,3.87952314 C23.789007,3.85471481 23.737931,3.8328251 23.6897736,3.80801677 C23.6646065,3.79542042 23.6402386,3.781287 23.6168079,3.76569667 L23.9247232,3.72191725 L24.1742658,3.68251578 L24.20783,3.67521921 L24.2705805,3.67521921 C24.2810945,3.66791158 24.2904426,3.6590555 24.2983075,3.64895156 C24.3085324,3.63579822 24.3164296,3.62099111 24.3216565,3.60517215 C24.3263823,3.58501505 24.3263823,3.56403808 24.3216565,3.54388097 C24.3150115,3.51488445 24.2985058,3.48909428 24.2749585,3.47091528 L24.2516094,3.45632214 L24.2180452,3.45632214 L24.2195045,3.45632214 L24.1946962,3.44902558 C24.1590218,3.4388269 24.1239439,3.42664705 24.0896256,3.41254273 C23.9464463,3.35275322 23.8115658,3.27476778 23.6883143,3.18051184 C23.6246237,3.13199962 23.5663955,3.07670732 23.514656,3.01560938 L24.3785697,3.01560938 C24.4602913,3.01560938 24.5361756,2.93680644 24.4909369,2.81276477 L24.4413202,2.78649712 C24.3542392,2.73987191 24.2699432,2.68822231 24.1888589,2.63180986 C24.1079863,2.5764257 24.0318415,2.51443603 23.961206,2.44647701 C23.8944672,2.38503871 23.8382661,2.31306186 23.7948442,2.2334172 C23.7754719,2.19753771 23.762625,2.1585031 23.7569021,2.11813141 L25.4292757,2.21882406 L25.5825036,2.21882406 C25.5983743,2.21787678 25.6138318,2.21338913 25.6277423,2.20569024 C25.6813918,2.17870058 25.7087917,2.1178119 25.6934114,2.05975886 C25.687693,2.03307972 25.6726973,2.00929351 25.6510913,1.99263043 L25.626283,1.97657797 L25.5970967,1.96344415 L25.5416428,1.89923434 C25.4686771,1.87004807 25.3957114,1.84523973 25.3271237,1.81897209 C25.1811923,1.7678961 25.0498541,1.71682012 24.9228938,1.65552894 C24.799665,1.60070914 24.6870407,1.5246384 24.5901702,1.43079462 C24.5401357,1.37996641 24.5039615,1.31716403 24.4850996,1.2483804 L25.2716698,1.3330206 L25.7401095,1.38409658 L25.9735997,1.4074456 L26.0903448,1.41912011 L26.2377355,1.41912011 C26.2653402,1.41183582 26.290202,1.39661432 26.3092419,1.3753407 C26.3215346,1.35961701 26.330924,1.3418266 26.3369688,1.3228054 C26.3492842,1.28626684 26.3362478,1.24597262 26.3048639,1.22357207 L26.2888115,1.21189755 C26.0877002,1.061237 25.8993019,0.894314184 25.7255164,0.712812243 C25.6415742,0.626847444 25.5631038,0.535704802 25.4905668,0.439920567 L25.4453281,0.37571076 L25.4993227,0.399059781 C25.6219051,0.450135763 25.7459467,0.49537449 25.8699884,0.544991159 C26.1180718,0.631090672 26.3676144,0.705515674 26.6186164,0.774103422 C27.6255429,1.04407647 28.6441439,1.23086863 29.6612856,1.41620148 C30.6784273,1.60153433 31.695569,1.77081473 32.6995769,1.97365935 C33.2015808,2.07727063 33.7021255,2.18817847 34.1851583,2.32681328 C34.4232491,2.39416708 34.6571478,2.47554431 34.8856289,2.57051868 C34.9917421,2.61596905 35.0946208,2.66862735 35.1935441,2.72812457 C35.29539,2.78821968 35.3845994,2.86751693 35.4562206,2.96161477 C35.6517687,3.22429125 35.4226564,3.51177607 35.3292603,3.67959715 C35.1920848,3.92768049 34.1267858,5.03384034 33.988151,5.60443203 C33.8247078,6.27425705 34.3077407,7.8050772 34.4259451,8.32605222 C34.4850675,8.60983002 34.3747193,8.9021957 34.1428382,9.0761395 C33.7050441,9.42053755 33.0264632,9.94005326 32.7433563,10.1180895 C33.5416009,9.86854688 33.764876,9.30087382 34.9483794,8.95063852 C35.2782024,8.90636331 35.6138132,8.95698333 35.9159045,9.09656989 C36.5411905,9.43166975 37.0968865,9.88286321 37.5532545,10.4260047 C38.360255,11.3409945 38.8403693,11.4475244 39.2445992,11.4635768 C39.8151909,11.4898445 40.6499184,11.231546 40.6645115,11.2213308 C40.3390845,11.2665695 40.0136575,11.3234827 39.6823933,11.3366165 C38.8068051,11.3701808 37.8991119,10.9323866 38.2332947,9.99258855 C38.341284,9.6905106 38.6521178,9.51831158 38.9308467,9.37092088 C39.2254711,9.22675887 39.5321181,9.10859232 39.8472958,9.01776695 C40.2121039,8.92149417 40.583184,8.85078903 40.9578336,8.80616645 C41.2549375,8.76617118 41.5562797,8.76961228 41.8523929,8.81638165 C42.1055451,8.88260836 42.3537491,8.96648082 42.5951836,9.06738362 C42.5762125,9.06738362 42.1384184,9.01922626 41.9997836,9.02506352 C41.9371076,9.02108365 41.8754708,9.04252002 41.8287903,9.08453251 C41.7821097,9.126545 41.7543216,9.18559101 41.7517003,9.24833853 C41.7385664,9.50079981 41.9778939,9.48766599 42.0231326,9.48766599 C42.1442557,9.4789101 42.3047802,9.47307285 42.3981763,9.47307285 C42.5736973,9.45376858 42.7444807,9.53802176 42.8359704,9.68905129 C42.8753719,9.74742384 42.8753719,9.8918959 42.7673826,9.90794836 C42.2814312,9.98237336 41.8217473,10.0538797 41.4233547,10.1239268 L39.9800933,10.3355273 C39.9800933,10.3355273 42.0099988,10.2669395 42.2449483,10.9046597 C42.4930317,11.5774033 42.3835831,11.8444577 41.8815792,12.2472283 C41.6116061,12.4632068 40.7301806,12.7813372 39.3803154,12.7842558 C38.0917413,12.7842558 37.7079418,12.6645921 36.1844182,12.6631328 C35.8268863,12.6631328 33.9618833,13.0936303 31.9524082,13.5503955 C32.1429846,13.4198648 32.3221492,13.2734087 32.4879764,13.1126014 C32.5065134,13.0956763 32.5078201,13.0669286 32.490895,13.0483916 C32.4739699,13.0298546 32.4452222,13.0285479 32.4266852,13.045473 C32.2671785,13.1866781 32.0963518,13.3145541 31.9159254,13.4278132 C31.7369162,13.5426125 31.5525563,13.6496289 31.3628455,13.7488622 C30.9860486,13.9452326 30.5959408,14.1149295 30.1953945,14.2567034 C29.9925498,14.3267505 29.7911645,14.4026348 29.5854013,14.4551701 L29.4394699,14.5004088 C29.3883939,14.5135426 29.3416959,14.5281358 29.2935385,14.5368917 C29.1940872,14.5571183 29.0929417,14.567868 28.9914606,14.5689966 C28.788616,14.5689966 28.5726375,14.5514848 28.3493625,14.5514848 L28.1771635,14.5514848 L28.2895307,14.4566294 C28.4157699,14.3591626 28.5478401,14.2694913 28.6850047,14.1881157 C28.8309361,14.1063941 28.9666523,14.0319691 29.1125836,13.9633813 C29.258515,13.8947936 29.4044464,13.8335024 29.5620523,13.7809671 C29.5836879,13.7733812 29.5962278,13.7508094 29.5912385,13.7284318 C29.5848153,13.7049416 29.5609496,13.6907512 29.5372439,13.6963269 C29.3762653,13.7367721 29.2174763,13.7854804 29.0615076,13.8422583 C28.9053611,13.8977122 28.7521331,13.961922 28.6003645,14.0319691 C28.4492416,14.1040537 28.3029978,14.1859502 28.1625704,14.2771338 C28.0337246,14.3601687 27.9117261,14.4533755 27.7977419,14.5558627 C27.5540365,14.6288284 27.119161,14.733899 26.946962,14.7937309 C26.181328,15.0774543 25.4476397,15.4408745 24.7579913,15.878001 C24.5836752,15.9070107 24.4132748,15.9559763 24.2501501,16.0239324 C24.1446302,16.1257765 24.0470578,16.2355454 23.9582874,16.352278 C22.9644947,17.3343962 19.5730495,20.1858953 19.580346,20.1902732 L19.2228142,20.4938105 L19.1731975,20.528834 C19.0748997,20.5960066 18.964311,20.6431184 18.8477705,20.6674688 L17.9648857,20.7024924 C17.940903,20.7024924 17.9187421,20.715287 17.9067507,20.7360566 C17.8947594,20.7568262 17.8947594,20.7824154 17.9067507,20.803185 C17.9187421,20.8239546 17.940903,20.8367492 17.9648857,20.8367492 L18.6201176,20.8119409 C18.6510244,20.827026 18.6715424,20.8574464 18.6739499,20.8917537 C18.6763575,20.926061 18.6602891,20.9590489 18.6317921,20.9783027 L17.5300102,21.203037 C17.4935901,21.2110594 17.470254,21.2467118 17.4774749,21.2832993 C17.484053,21.3168992 17.514864,21.3401646 17.5489813,21.3372939 L18.5705009,21.1300713 C18.5888971,21.1275141 18.6075586,21.1275141 18.6259548,21.1300713 C18.6609784,21.1446644 18.6726529,21.1738507 18.6157396,21.2205488 L17.3169504,21.7210934 C17.2847069,21.7325614 17.266252,21.766449 17.2741111,21.7997565 C17.2819701,21.833064 17.313627,21.8551275 17.347596,21.8509723 L17.3651077,21.8509723 L18.0947646,21.5678654 C18.3866274,21.4686321 18.7251882,21.3475091 18.984946,21.2322233 C19.048832,21.203155 19.1094839,21.1674487 19.1659009,21.1256934 C19.1761161,21.1256934 19.3424779,20.979762 19.3395593,20.979762 C19.400198,20.9189276 19.4549246,20.852474 19.5030024,20.7812953 C19.6935858,20.5575034 19.9030373,20.350493 20.129048,20.1625463 L20.3596196,19.9378119 C21.7693167,18.7601457 24.0414683,16.8323922 24.086707,16.7944501 C24.1319457,16.7565079 24.5317977,16.6689491 24.6704325,16.5492854 C24.7841668,16.4157741 24.8875895,16.2738118 24.979807,16.124625 C24.979807,16.124625 26.2683811,15.3949682 26.9586365,15.1789897 C27.2986566,15.0724598 27.7641777,14.9396623 28.2807748,14.7981088 C28.5069684,14.784975 28.7404586,14.8097833 28.988542,14.7981088 C29.103058,14.793821 29.2169086,14.7786735 29.3285621,14.7528701 C29.384016,14.7411956 29.4394699,14.7251431 29.4920052,14.7090907 L29.6466925,14.6565554 C29.8524557,14.5879676 30.0567596,14.510624 30.2581449,14.4318211 C30.5383332,14.3194539 30.8141435,14.1954122 31.0826572,14.0582367 C31.718918,13.8962529 32.3099401,13.7546995 32.4339818,13.7240539 C33.3621053,13.4978602 35.1862476,13.1403284 35.8604505,12.994397 C37.2657697,12.7025342 37.6291388,13.0994676 39.6181835,13.022124 C40.02971,13.0060715 41.4540002,12.8864078 42.0990169,12.3858631 C42.5368111,12.0531396 42.7936503,11.8590509 42.5470263,10.8579616 C42.4653047,10.5281567 41.6407924,10.2873699 41.4875645,10.2640209 C41.4729713,10.2640209 45.9428494,9.59127727 47.540798,9.34173461 C47.6028004,9.32262301 47.6447391,9.26487115 47.6437255,9.19999804 C47.6427118,9.13512493 47.5989893,9.07871154 47.5364201,9.06154636 L47.5364201,9.06154636 Z M43.6692386,9.76639492 C43.3627827,9.81309296 43.3160846,9.82330816 43.085513,9.85833169 C43.1076676,9.79502838 43.1029211,9.72541264 43.0723792,9.66570227 L47.066521,9.31254833 C46.275573,9.41907824 44.6104959,9.62484148 43.6692386,9.76639492 Z M43.0183846,9.5635503 C43.0073398,9.54987522 42.9951334,9.53718057 42.9819018,9.52560815 C42.913314,9.47307285 44.108492,9.16661696 44.5010474,9.15348313 C44.8556607,9.14180862 45.256972,9.1286748 45.8056739,9.13888999 L45.9165818,9.13888999 C46.5003073,9.14910519 46.9132931,9.18558804 47.3277382,9.21915225 C47.3449529,9.22340043 47.3603189,9.23313223 47.3715176,9.24687921 L43.0183846,9.5635503 Z" id="Shape"></path>
                    <path d="M47.3410924,33.6364866 C47.2283364,33.6518963 47.1137693,33.6477837 47.0024084,33.6243287 C46.5490929,33.5270656 46.2625142,33.1032764 46.2625142,32.1758033 L46.2833563,14.4218156 C46.2838589,14.3249507 46.2386779,14.2335144 46.1614318,14.1750671 C46.0841856,14.1166198 45.9839102,14.0979984 45.8908302,14.1248158 L42.8965165,14.9932362 C42.764295,15.0313267 42.673488,15.1526392 42.6742009,15.290236 L42.6742009,15.3388676 C42.6742009,15.5316569 43.250832,15.6254463 43.3810951,15.6532358 C43.8344106,15.7504988 44.1209893,16.174288 44.1209893,17.1000242 L44.1209893,23.3526515 C44.1203201,23.4652571 44.0581382,23.5684854 43.9589092,23.6217214 C43.8596802,23.6749575 43.7392858,23.6696806 43.6450949,23.6079671 C43.0424111,23.2171779 42.0437276,22.7760203 40.5361497,22.7760203 C37.4914676,22.7760203 34.2296803,25.5549658 34.2296803,29.2770159 C34.2296803,32.0802771 36.1975211,35.1614329 40.1054131,35.1614329 C41.788412,35.1614329 42.8617797,34.5500649 43.7632001,33.8622759 C43.8559477,33.7897827 43.9819486,33.7766177 44.0876781,33.8283735 C44.1934076,33.8801292 44.2602988,33.9877168 44.2599366,34.1054336 L44.2599366,34.7584858 C44.2600537,34.8541955 44.3044931,34.9444543 44.3802791,35.0029081 C44.4560652,35.061362 44.5546513,35.0814188 44.6472521,35.0572224 L47.4817765,34.2825914 C47.6164213,34.2469832 47.7099749,34.1248637 47.7093027,33.9855916 L47.7093027,33.9352232 C47.7073011,33.8439334 47.6652683,33.7581393 47.5943591,33.7006092 C47.5234499,33.6430791 47.4308348,33.6196306 47.3410924,33.6364866 L47.3410924,33.6364866 Z M44.1383577,30.498015 C44.1383577,31.6999089 44.1383577,32.2852243 44.015042,32.5318557 C43.7996738,33.1171711 42.1687801,34.4111176 40.6299391,34.4111176 C38.5075195,34.4111176 36.5084156,32.3477506 36.5084156,28.8966477 C36.5084156,25.6609131 38.0715724,23.380441 40.7845179,23.380441 C43.2160952,23.380441 44.1383577,24.7369137 44.1383577,27.6947538 L44.1383577,30.498015 Z M20.9550053,34.1089073 C19.1539012,33.893539 18.7231647,33.3690131 17.2624815,29.6973314 C15.7670615,25.9440182 11.645538,15.0783414 11.470117,14.6111312 C11.3329066,14.2429209 11.2148014,13.9302896 10.7753807,13.9302896 C10.3359599,13.9302896 10.1431706,14.2324999 9.9573286,14.6910259 C8.66859265,17.8624974 5.26785814,26.4563862 5.26785814,26.4563862 C2.78764932,32.7923819 2.22838655,33.7893286 0.297019453,34.0984862 C0.125062672,34.1236764 -0.00181561777,34.2720721 1.96567399e-05,34.4458544 L1.96567399e-05,34.4562755 C1.96567399e-05,34.6481216 0.155541689,34.8036436 0.347387839,34.8036436 L6.04422603,34.8036436 C6.19595242,34.8106974 6.33544755,34.720723 6.39159421,34.5795912 C6.42932637,34.4785057 6.41794292,34.3656259 6.36078767,34.2741095 C6.30363242,34.182593 6.20719561,34.1228321 6.09980494,34.112381 C4.92396364,34.0012231 4.243122,33.5809076 4.243122,32.5648557 C4.243122,31.9291719 4.41680609,31.4619617 4.84406896,30.3260678 L6.23354169,26.7412281 C6.28463799,26.6044575 6.415806,26.5142361 6.56180462,26.5154388 L13.4483788,26.5154388 C13.5954558,26.5137659 13.7276433,26.6049057 13.7783786,26.742965 L15.2599039,30.6595412 C15.5933774,31.5279617 15.7931141,32.365119 15.7931141,32.933066 C15.7931141,33.5618024 15.3797459,33.893539 13.8322207,34.0984862 C13.6561222,34.1188689 13.5236242,34.2685842 13.5247998,34.4458544 C13.5247998,34.6377006 13.6803219,34.7932226 13.872168,34.7932226 L20.9359,34.7932226 C21.1277461,34.8042537 21.2922107,34.6576742 21.3032418,34.4658281 C21.314273,34.273982 21.1676935,34.1095174 20.9758473,34.0984862 L20.9550053,34.1089073 Z M12.8387477,25.5983868 L7.11585687,25.5983868 C6.99771089,25.6009178 6.88638211,25.5432113 6.82034593,25.4452108 C6.75430974,25.3472103 6.7426253,25.2223599 6.78933078,25.1138082 C7.3972251,23.6253355 9.18269756,19.1460228 9.88264444,17.2980241 C9.91330491,17.2146679 9.99269647,17.1592781 10.0815127,17.1592781 C10.170329,17.1592781 10.2497205,17.2146679 10.280381,17.2980241 C10.8848016,18.9341282 12.6303268,23.663546 13.1635369,25.1277029 C13.2040752,25.2344574 13.189556,25.3543172 13.124701,25.448305 C13.059846,25.5422927 12.9529399,25.5984021 12.8387477,25.5983868 L12.8387477,25.5983868 Z M33.4533125,33.4141709 C33.2619767,33.4401031 33.068017,33.4401031 32.8766813,33.4141709 C32.421629,33.3186447 32.1350502,32.8931186 32.1350502,31.9673824 L32.1350502,23.0591254 C32.1352014,22.9827728 32.1037344,22.9097649 32.0481247,22.8574457 C31.9925149,22.8051265 31.9177257,22.7781655 31.8415241,22.7829677 L28.4703159,22.9931254 C28.3310408,23.0013029 28.21974,23.1120752 28.2108997,23.2513098 C28.2020594,23.3905443 28.2984566,23.5145038 28.4355791,23.5402303 C29.8997359,23.816388 30.17242,24.2558088 30.17242,27.0747016 L30.17242,30.5813834 C30.17242,32.3408032 28.8854209,33.8813811 27.1381589,34.079381 C27.0228775,34.0931236 26.9068883,34.100083 26.7907907,34.1002231 C25.2519497,34.1002231 24.0830557,33.1136974 24.0830557,30.956541 L24.0830557,23.0591254 C24.0827272,22.9826149 24.0508681,22.9096247 23.9949889,22.8573611 C23.9391096,22.8050976 23.8641544,22.778185 23.7877928,22.7829677 L20.4079004,22.9931254 C20.2622045,23.0023066 20.1488221,23.1232986 20.1491111,23.2692832 C20.1489019,23.4005432 20.2411155,23.5138134 20.3696899,23.5402303 C21.6844784,23.8181249 21.9328467,24.3096509 21.9328467,27.965701 L21.9328467,31.0155936 C21.9328467,33.17275 22.453899,35.1440645 25.6878967,35.1440645 C27.8276847,35.1440645 29.0156839,34.3468545 29.9084202,33.5583287 C29.9903361,33.4874926 30.1060953,33.471074 30.2044781,33.5163376 C30.3028609,33.5616011 30.3657071,33.6601919 30.3652093,33.7684865 L30.3652093,34.548328 C30.3655446,34.6339443 30.4055714,34.714563 30.4735722,34.7665836 C30.541573,34.8186042 30.6298562,34.8361427 30.7125775,34.8140647 L33.5714176,34.0533284 C33.6925152,34.0210094 33.776662,33.9111906 33.7763649,33.7858549 L33.7763649,33.6799076 C33.7750927,33.5993786 33.7385092,33.5234738 33.6763097,33.4723097 C33.6141103,33.4211456 33.5325749,33.3998881 33.4533125,33.4141709 L33.4533125,33.4141709 Z M61.4095038,33.4141709 C61.2846259,33.4401078 61.1557503,33.4401078 61.0308724,33.4141709 C60.5758201,33.3169078 60.2892414,32.8931186 60.2892414,31.9673824 L60.2892414,23.0591254 C60.2898766,22.9829316 60.2588037,22.909904 60.2034628,22.8575277 C60.1481218,22.8051514 60.0734956,22.7781425 59.9974521,22.7829677 L56.4265072,22.9931254 C56.2874391,23.0019535 56.1767357,23.1130063 56.1683458,23.2521015 C56.159956,23.3911967 56.2565085,23.5147506 56.3935072,23.5402303 C57.8576641,23.816388 58.1303481,24.2558088 58.1303481,27.0747016 L58.1303481,30.5813834 C58.1303481,32.3408032 56.843349,33.8813811 55.0978239,34.079381 C54.9825323,34.09301 54.8665498,34.099969 54.7504557,34.1002231 C53.2116147,34.1002231 52.0427207,33.1136974 52.0427207,30.956541 L52.0427207,23.0591254 C52.0423652,22.9829352 52.0107429,22.9102326 51.955251,22.8580241 C51.899759,22.8058157 51.825265,22.7786811 51.7491946,22.7829677 L48.3640917,22.9931254 C48.2187889,23.0031376 48.1058681,23.123637 48.1053024,23.2692832 C48.1050932,23.4005432 48.1973068,23.5138134 48.3258812,23.5402303 C49.6406697,23.8181249 49.889038,24.3096509 49.889038,27.965701 L49.889038,31.0155936 C49.889038,33.17275 50.4100903,35.1440645 53.6423512,35.1440645 C55.7821392,35.1440645 56.9701384,34.3468545 57.8628746,33.5583287 C57.9451666,33.48794 58.0608522,33.4717653 58.159294,33.5168845 C58.2577359,33.5620037 58.3210023,33.660198 58.3214006,33.7684865 L58.3214006,34.548328 C58.3217359,34.6339443 58.3617627,34.714563 58.4297635,34.7665836 C58.4977643,34.8186042 58.5860475,34.8361427 58.6687688,34.8140647 L61.5276089,34.0533284 C61.6487065,34.0210094 61.7328533,33.9111906 61.7325562,33.7858549 L61.7325562,33.6799076 C61.731284,33.5993786 61.6947005,33.5234738 61.632501,33.4723097 C61.5703016,33.4211456 61.4887662,33.3998881 61.4095038,33.4141709 L61.4095038,33.4141709 Z M69.3885509,22.7655993 C67.412026,22.7655993 66.3681846,23.7278092 65.5275536,24.5128612 C65.5084426,24.5295952 65.4814241,24.5338763 65.4580762,24.5238701 C65.4347282,24.5138638 65.4191949,24.4913461 65.4181326,24.4659665 L65.4181326,14.482605 C65.4143985,14.3679272 65.3581516,14.2613323 65.2655936,14.1935241 C65.1730355,14.125716 65.0544427,14.1042233 64.943975,14.1352368 L62.0799244,14.9567626 C61.9203594,15.0025283 61.8104861,15.1485534 61.810714,15.3145518 C61.810714,15.509078 62.3873452,15.6028674 62.5176083,15.6306568 C62.9709237,15.7261831 63.2575025,16.1517091 63.2575025,17.0774453 L63.2575025,34.9095909 C63.2509508,34.9767972 63.2748221,35.0434082 63.3225694,35.0911555 C63.3703166,35.1389028 63.4369277,35.162774 63.5041339,35.1562224 C63.688239,35.1562224 64.4889227,34.6629595 65.1662907,34.6629595 C65.8731849,34.6629595 67.1132893,35.1562224 68.6833935,35.1562224 C72.466233,35.1562224 74.9811786,32.4450137 74.9811786,28.7785425 C74.988126,24.5562823 72.0337596,22.7655993 69.3885509,22.7655993 L69.3885509,22.7655993 Z M68.8119197,34.5344333 C67.1202367,34.5344333 65.4181326,33.5479077 65.4181326,31.0833304 L65.4181326,25.8293867 C65.4185892,25.515535 65.5517028,25.2165026 65.784606,25.0061241 C66.6373949,24.231493 67.7871836,23.8129144 68.5878673,23.8129144 C70.9881814,23.8129144 72.5270224,25.8467551 72.5270224,29.4194368 C72.5270224,32.8097503 71.1809707,34.5344333 68.8119197,34.5344333 L68.8119197,34.5344333 Z M81.9163844,22.7655993 C78.7466497,22.7655993 75.9347043,25.0443346 75.9347043,28.9574371 C75.9347043,32.8705397 78.7466497,35.1510118 81.9163844,35.1510118 C85.0861191,35.1510118 87.9067487,32.8705397 87.9067487,28.9574371 C87.9067487,25.0443346 85.0861191,22.7655993 81.9163844,22.7655993 Z M81.9163844,34.5344333 C78.9324917,34.5344333 78.2690185,31.8857509 78.2690185,28.9574371 C78.2690185,26.0291234 78.9377022,23.380441 81.9163844,23.380441 C84.8950666,23.380441 85.5637503,26.0308602 85.5637503,28.9574371 C85.5637503,31.8840141 84.9002771,34.5344333 81.9163844,34.5344333 Z" id="Shape"></path>
                    <path d="M101.37595,34.3173282 C100.076793,34.2791177 99.9361089,33.7962759 99.9361089,31.5470669 L99.9361089,27.0781753 C99.9361089,23.4742304 97.5357947,22.7968624 95.720796,22.7968624 C93.9596393,22.7968624 92.7681664,23.4915988 91.9466407,24.0334932 C91.8609847,24.0694984 91.7630015,24.0603125 91.6855303,24.009014 C91.6080592,23.9577155 91.5613517,23.8710927 91.561062,23.7781775 L91.561062,22.8072835 C91.5600395,22.721921 91.519839,22.6417653 91.4520354,22.5898955 C91.3842318,22.5380258 91.29635,22.5201985 91.2136938,22.5415468 L88.4625378,23.2675463 C88.294403,23.3039414 88.168451,23.4438881 88.1499064,23.6149145 C88.1545088,23.7930216 88.2983034,23.9360514 88.4764325,23.9397037 C88.6027492,23.9242202 88.730484,23.9242202 88.8568007,23.9397037 C89.3101162,24.03523 89.5966949,24.460756 89.5966949,25.3864922 L89.5966949,31.633909 C89.5966949,33.7997496 89.3726424,34.2721703 87.8841698,34.3034335 C87.836561,34.3033739 87.7910149,34.3228599 87.7581813,34.3573353 C87.7253476,34.3918106 87.7081052,34.4382525 87.7104857,34.4858018 L87.7104857,34.6299596 C87.7079628,34.6790567 87.726365,34.7269231 87.7611277,34.7616858 C87.7958904,34.7964485 87.8437569,34.8148507 87.892854,34.8123279 L93.4507449,34.8123279 C93.4998719,34.813257 93.547332,34.7945096 93.5825622,34.7602581 C93.6177923,34.7260066 93.637869,34.6790933 93.6383237,34.6299596 L93.6383237,34.5014333 C93.6407042,34.4538841 93.6234618,34.4074422 93.5906281,34.3729669 C93.5577945,34.3384915 93.5122484,34.3190055 93.4646396,34.319065 C92.1081669,34.2825914 91.7677461,33.7980128 91.7677461,31.5488038 L91.7677461,26.8020176 C91.7511371,25.4441935 92.6675323,24.252018 93.9839551,23.9188617 C94.1847919,23.8707901 94.3905505,23.846309 94.5970599,23.8459143 C96.7194795,23.8459143 97.7963209,25.1085977 97.7963209,27.6044381 L97.7963209,31.6425932 C97.7858998,33.8032233 97.4385316,34.2825914 96.156743,34.319065 C96.0587546,34.3237309 95.9820136,34.4050763 95.983059,34.5031702 L95.983059,34.6299596 C95.9840012,34.7312452 96.0658785,34.8131224 96.1671641,34.8140647 L101.388108,34.8140647 C101.435717,34.8141242 101.481263,34.7946382 101.514096,34.7601629 C101.54693,34.7256875 101.564172,34.6792456 101.561792,34.6316964 L101.561792,34.5031702 C101.562746,34.4535956 101.543472,34.4057699 101.508411,34.3707089 C101.47335,34.3356479 101.425525,34.3163746 101.37595,34.3173282 L101.37595,34.3173282 Z" id="Path"></path>
                </g>
            </g>
        </g>
    </g>
</svg>