<?xml version="1.0" encoding="UTF-8"?>
<svg width="105px" height="48px" viewBox="0 0 105 48" version="1.1" xmlns="http://www.w3.org/2000/svg" xmlns:xlink="http://www.w3.org/1999/xlink">
    <!-- Generator: Sketch 53.2 (72643) - https://sketchapp.com -->
    <title>Group 11</title>
    <desc>Created with Sketch.</desc>
    <g id="Page-1" stroke="none" stroke-width="1" fill="none" fill-rule="evenodd">
        <g id="02-About" transform="translate(-1157.000000, -2875.000000)">
            <g id="Group-11" transform="translate(1157.000000, 2875.000000)">
                <rect id="Rectangle-Copy-37" fill="#FFFFFF" x="0" y="0" width="105" height="48"></rect>
                <g id="Best_Buy_logo_2018-Copy" transform="translate(23.751530, 8.332180)" fill-rule="nonzero">
                    <path d="M0.346735135,0.440129384 L0.346735135,15.7762517 L8.37649724,15.7762517 C11.5369595,15.7762517 14.4575957,14.6670105 14.4575957,11.4087121 C14.4575957,9.20599625 12.8707654,8.20048206 11.125425,7.67414953 C12.1888057,7.24761146 13.3950989,6.35153755 13.3950989,4.47309554 C13.3950989,2.06886461 11.0095822,0.440129384 7.79777579,0.440129384 L0.346735135,0.440129384 L0.346735135,0.440129384 Z M5.26586868,4.01192677 L7.07437368,4.01192677 C7.81058705,4.01192677 8.3719758,4.58860546 8.3719758,5.1738913 C8.3719758,5.71767809 7.78864052,6.29968532 7.07437368,6.29968532 L5.26586868,6.29968532 L5.26586868,4.01192677 Z M5.26586868,9.48265452 L7.65309513,9.48265452 C8.48647179,9.48265452 9.18580311,10.1155992 9.18580311,10.839033 C9.18580311,11.6072471 8.53173787,12.245146 7.50841507,12.245146 L5.26586868,12.245146 L5.26586868,9.48265452 L5.26586868,9.48265452 Z" id="path2998" fill="#4B4B4B"></path>
                    <path d="M4.32544587,17.4490727 L4.32544587,32.7851954 L12.3552086,32.7851954 C15.5156709,32.7851954 18.4363065,31.6759536 18.4363065,28.4176552 C18.4363065,26.21494 16.8494767,25.2094258 15.1041358,24.6830926 C16.1675164,24.2565546 17.3738096,23.3604807 17.3738096,21.4820389 C17.3738096,19.077808 14.9882935,17.4490727 11.7764865,17.4490727 L4.32544587,17.4490727 L4.32544587,17.4490727 Z M9.24458003,21.0208701 L11.053085,21.0208701 C11.7892984,21.0208701 12.3506871,21.5975487 12.3506871,22.1828344 C12.3506871,22.7266218 11.7673519,23.308629 11.053085,23.308629 L9.24458003,23.308629 L9.24458003,21.0208701 Z M9.24458003,26.4915976 L11.6318065,26.4915976 C12.4651831,26.4915976 13.1645145,27.1245423 13.1645145,27.8479767 C13.1645145,28.6161902 12.5104492,29.2540892 11.4871258,29.2540892 L9.24458003,29.2540892 L9.24458003,26.4915976 L9.24458003,26.4915976 Z" id="path3005" fill="#4B4B4B"></path>
                    <polygon id="path3007" fill="#4B4B4B" points="14.8437113 15.7743973 14.8437113 0.438274553 27.2138855 0.438274553 27.2138855 4.14209281 19.7483767 4.14209281 19.7483767 6.15315025 25.8104857 6.15315025 25.8104857 9.62548017 19.7483767 9.62548017 19.7483767 12.0850466 27.2138855 12.0850466 27.2138855 15.7743973"></polygon>
                    <path d="M33.9149376,16.2133734 C37.3968957,16.2133734 40.1820309,14.2272309 40.1820309,11.008659 C40.1820309,5.81429314 33.4246343,6.61361767 33.4246343,4.99632913 C33.4246343,4.37161236 34.0816286,4.04009458 34.7553945,4.04009458 C35.9165633,4.04009458 36.7555201,4.80508229 36.7555201,4.80508229 L39.6627021,2.03695249 C38.4999056,0.930354325 36.6634648,0 34.1896223,0 C30.4742729,0 28.0436105,2.20512174 28.0436105,4.86514593 C28.0436105,10.1255708 34.7035994,9.36208963 34.7035994,11.0126438 C34.7035994,11.5912321 34.1469527,12.1733147 33.1373529,12.1733147 C31.9910851,12.1733147 31.0830545,11.4813445 30.3763633,10.8942445 L27.4521483,13.6821349 C28.6296456,14.8290713 30.5200411,16.2133734 33.9149376,16.2133734 L33.9149376,16.2133734 Z" id="path3009" fill="#4B4B4B"></path>
                    <polygon id="path3011" fill="#4B4B4B" points="43.9678762 15.7743973 43.9678762 4.12762475 39.9168248 4.12762475 39.9168248 0.438274553 52.9380623 0.438274553 52.9380623 4.12762475 48.8870098 4.12762475 48.8870098 15.7743973"></polygon>
                    <path d="M18.605402,17.4382216 L23.5100674,17.4382216 L23.5100674,26.6254272 C23.5100674,27.5583582 24.4385511,28.418071 25.406584,28.418071 C26.3197578,28.418071 27.2428218,27.6417171 27.2428218,26.5763703 L27.2428218,17.4382216 L32.1330191,17.4382216 L32.1330191,26.5138669 C32.1330191,30.1151269 29.1430715,32.9877881 25.2769865,32.9877881 C21.3888937,32.9877881 18.605402,29.8614648 18.605402,26.3176385 L18.605402,17.4382216 Z" id="path3013" fill="#4B4B4B"></path>
                    <polygon id="path3015" fill="#4B4B4B" points="38.1806599 32.7743443 38.1806599 27.2943034 32.4159821 17.4382216 37.3783723 17.4382216 40.640227 22.7190565 43.9133503 17.4382216 48.8870098 17.4382216 43.0997934 27.3506503 43.0997934 32.7743443"></polygon>
                    <polygon id="path3017" fill="#FFED31" points="49.6862885 23.6941303 47.0180399 26.362379 47.0180399 29.964514 49.6862885 32.632762 60.9729783 32.632762 60.9729783 23.6941303"></polygon>
                    <path d="M48.8846911,28.0855579 C48.8846911,28.4171254 48.6159028,28.6859137 48.2843353,28.6859137 C47.9527678,28.6859137 47.6839795,28.4171254 47.6839795,28.0855579 C47.6839795,27.7539904 47.9527678,27.485202 48.2843353,27.485202 C48.6159028,27.485202 48.8846911,27.7539904 48.8846911,28.0855579 Z" id="path3024" fill="#4B4B4B"></path>
                </g>
            </g>
        </g>
    </g>
</svg>