<?xml version="1.0" encoding="UTF-8"?>
<svg width="105px" height="48px" viewBox="0 0 105 48" version="1.1" xmlns="http://www.w3.org/2000/svg" xmlns:xlink="http://www.w3.org/1999/xlink">
    <!-- Generator: Sketch 53.2 (72643) - https://sketchapp.com -->
    <title>Group 14</title>
    <desc>Created with Sketch.</desc>
    <g id="Page-1" stroke="none" stroke-width="1" fill="none" fill-rule="evenodd">
        <g id="02-About" transform="translate(-1340.000000, -2875.000000)">
            <g id="Group-14" transform="translate(1340.000000, 2875.000000)">
                <rect id="Rectangle-Copy-38" fill="#FFFFFF" x="0" y="0" width="105" height="48"></rect>
                <g id="BP_Helios_logo-Copy" transform="translate(13.000000, 1.500000)" fill-rule="nonzero">
                    <g id="Layer_1">
                        <path d="M44.8682446,26.780334 C43.4195074,25.225072 41.8216354,23.9041645 40.1385436,22.8389165 C41.8003305,21.7736686 43.3982024,20.4314561 44.8469397,18.8761941 C42.9507983,17.9174709 40.990742,17.2144072 39.0519907,16.7883081 C40.2450684,15.2117411 41.2890114,13.4008195 42.1412098,11.4620682 C40.0320188,11.2064087 37.9654378,11.2277136 35.9840765,11.4833731 C36.5806154,9.58723176 36.9427997,7.54195565 37.0493245,5.4114597 C34.9827434,5.90147377 33.0226872,6.60453743 31.2756805,7.52065069 C31.1691557,5.53928946 30.8282763,3.49401335 30.2104325,1.44873724 C28.4421209,2.62051001 26.8442489,3.96272246 25.5020365,5.4114597 C24.7350579,3.57923319 23.6911149,1.78961659 22.4128174,0.0852198378 C21.1345198,1.78961659 20.1118817,3.60053815 19.3449032,5.43276466 C18.0026907,3.96272246 16.4048188,2.62051001 14.6365071,1.4700422 L14.6365071,1.4700422 C14.0186633,3.49401335 13.677784,5.53928946 13.5712592,7.52065069 C11.8029475,6.60453743 9.86419623,5.90147377 7.79761516,5.4114597 C7.92544492,7.54195565 8.28762923,9.58723176 8.88416809,11.4833731 C6.90280687,11.2277136 4.8362258,11.2277136 2.70572985,11.4833731 C3.53662327,13.4434294 4.58056628,15.233046 5.79494897,16.809613 C3.85619766,17.2570172 1.89614139,17.9600808 3.55271368e-15,18.918804 C1.44873724,20.474066 3.0466092,21.7949735 4.729701,22.8602215 C3.06791416,23.9254695 1.4700422,25.2676819 0.0213049595,26.822944 C1.91744635,27.7816671 3.87750262,28.4847308 5.81625393,28.91083 C4.6231762,30.487397 3.57923319,32.2983185 2.72703481,34.2370699 C4.8362258,34.4927294 6.90280687,34.4714244 8.86286314,34.2370699 C8.26632427,36.1332112 7.90413996,38.1784874 7.79761516,40.2876783 C9.86419623,39.7976643 11.8242525,39.0946006 13.5712592,38.1784874 C13.656479,40.1598486 14.0186633,42.2051247 14.6365071,44.2504008 C16.4048188,43.078628 18.0026907,41.7577205 19.3449032,40.2876783 C20.1118817,42.1199049 21.1558247,43.9308264 22.4341223,45.6352232 C23.7124199,43.9308264 24.7350579,42.1199049 25.5020365,40.2876783 C26.8442489,41.7577205 28.4421209,43.099933 30.2317375,44.2504008 C30.8495813,42.2264296 31.1904606,40.1811535 31.2969854,38.1784874 C33.0652971,39.0946006 35.0253534,39.7976643 37.0919344,40.2876783 C36.9641047,38.1571824 36.6019204,36.1332112 36.0053815,34.2370699 C37.9654378,34.4927294 40.0533238,34.4927294 42.1625148,34.2370699 C41.3316214,32.2770136 40.2876783,30.487397 39.0732956,28.91083 C41.012047,28.4421209 42.9721032,27.7390572 44.8682446,26.780334 Z" id="Path" fill="#009900"></path>
                        <path d="M39.0732956,28.889525 C37.9654378,27.4407878 36.7084451,26.1624902 35.3449277,25.1185472 C36.9854096,24.6072282 38.5832816,23.8189447 40.1385436,22.8389165 C38.5832816,21.8588884 36.9854096,21.0919099 35.3449277,20.5805908 C36.7084451,19.5366478 37.9441328,18.2583503 39.0732956,16.7883081 C37.2836791,16.3835138 35.5153674,16.2130741 33.7896657,16.298294 C34.705779,14.8495567 35.4514525,13.2303798 35.9840765,11.4620682 C34.173155,11.6964227 32.4474533,12.1438269 30.8495813,12.8042806 C31.2117656,11.1211888 31.3609003,9.3528772 31.2543755,7.49934573 C29.6351986,8.35154411 28.1651564,9.3528772 26.9081638,10.52465 C26.6738092,8.82025322 26.2051001,7.0945515 25.4807315,5.4114597 C24.2237389,6.77497711 23.2011009,8.22371435 22.4128174,9.75767143 C21.6245339,8.24501931 20.5805908,6.77497711 19.3235982,5.43276466 C18.6205346,7.11585646 18.1518255,8.84155818 17.9387759,10.52465 C16.6817833,9.37418216 15.1904361,8.35154411 13.5499542,7.52065069 C13.4647344,9.3528772 13.6138691,11.1424938 13.9760534,12.8255856 C12.3994864,12.1651319 10.6737847,11.7390327 8.84155818,11.5046781 C9.39548712,13.2516848 10.1411607,14.8708617 11.057274,16.3195989 C9.3528772,16.2556841 7.56326061,16.4261237 5.75233905,16.830918 C6.86019695,18.2796552 8.11718955,19.5579528 9.48070696,20.6018958 C7.84022508,21.1132148 6.24235312,21.9014983 4.68709108,22.8815265 C6.24235312,23.8615546 7.84022508,24.6285331 9.48070696,25.1398522 C8.11718955,26.1837952 6.88150191,27.4620927 5.75233905,28.9321349 C7.54195565,29.3369292 9.31026728,29.5073689 11.014664,29.422149 C10.0985508,30.8708863 9.3528772,32.4900632 8.82025322,34.2583748 C10.6311748,34.0240203 12.3781814,33.5766161 13.9547484,32.9161624 C13.5925641,34.5779492 13.4434294,36.3675658 13.5286493,38.1997923 C15.1691311,37.3475939 16.6391733,36.3462608 17.8961659,35.195793 C18.1305205,36.9001898 18.5992296,38.6258915 19.3022933,40.3089833 C20.5379809,38.9454659 21.5819239,37.4967286 22.3702074,35.9840765 C23.1584909,37.4967286 24.2024339,38.9667709 25.4594266,40.3089833 C26.1624902,38.6258915 26.6311993,36.9001898 26.8655539,35.195793 C28.1225465,36.3462608 29.6138936,37.3688989 31.2543755,38.1997923 C31.3395954,36.3675658 31.1904606,34.5779492 30.8282763,32.9161624 C32.4048433,33.5766161 34.15185,34.0027153 35.9627716,34.2370699 C35.4088426,32.4900632 34.663169,30.8708863 33.7470558,29.422149 C35.4940625,29.4647589 37.2836791,29.2943193 39.0732956,28.889525 Z" id="Path" fill="#99CC00"></path>
                        <path d="M31.2756805,22.8602215 C32.7031128,22.3275975 34.0879351,21.560619 35.3662327,20.5805908 C33.8322756,20.0905768 32.2770136,19.8562222 30.7643615,19.8349173 C31.9361342,18.8548891 32.9587723,17.6618114 33.8109707,16.298294 C32.2130987,16.3622089 30.6578367,16.6604783 29.2304044,17.1931023 C29.9973829,15.8721948 30.5513119,14.4021526 30.8921912,12.8255856 C29.4008441,13.4434294 28.0586316,14.2530179 26.8868588,15.233046 C27.1425184,13.7203939 27.1638233,12.1438269 26.9507737,10.5459549 C25.757696,11.6325079 24.7563629,12.8681955 23.9893844,14.189103 C23.7124199,12.6764509 23.2011009,11.1851037 22.4554273,9.75767143 C21.7310586,11.1851037 21.1984347,12.6551459 20.9427751,14.1464931 C20.1757966,12.8255856 19.1744635,11.6112029 17.9813858,10.52465 C17.7683362,12.1225219 17.7896411,13.6990889 18.0453007,15.2117411 C16.8735279,14.2317129 15.5100105,13.4221245 14.0186633,12.8255856 C14.3595427,14.4021526 14.9134716,15.8721948 15.6804502,17.1931023 C14.2530179,16.6817833 12.6977558,16.3835138 11.0998839,16.3195989 C11.9733872,17.6831164 12.9960253,18.8548891 14.1464931,19.8562222 C12.612536,19.8562222 11.057274,20.1118817 9.52331688,20.6018958 C10.8016144,21.5819239 12.1651319,22.3489025 13.6138691,22.8602215 C12.1864368,23.3928455 10.8016144,24.159824 9.52331688,25.1398522 C11.057274,25.6085613 12.612536,25.8642208 14.1251881,25.8855257 C12.9534154,26.8655539 11.9307773,28.0586316 11.057274,29.422149 C12.6551459,29.3582341 14.210408,29.0599647 15.6378402,28.5486457 C14.8708617,29.8695532 14.3169328,31.3609003 13.9760534,32.9161624 C15.4674006,32.2983185 16.809613,31.4887301 17.9813858,30.5087019 C17.7257263,32.0213541 17.7044213,33.5766161 17.9174709,35.1744881 C19.1105486,34.0879351 20.1118817,32.8735524 20.8788603,31.552645 C21.1558247,33.0652971 21.6671438,34.5353393 22.4128174,35.9627716 C23.1584909,34.5353393 23.66981,33.0652971 23.9467744,31.552645 C24.713753,32.8735524 25.7150861,34.0879351 26.9081638,35.1744881 C27.1212134,33.5766161 27.0999084,32.0000491 26.8442489,30.5087019 C28.0160217,31.4887301 29.3795391,32.2983185 30.8708863,32.9161624 C30.5300069,31.3395954 29.976078,29.8695532 29.2090994,28.5486457 C30.6578367,29.0599647 32.1917937,29.3582341 33.8109707,29.422149 C32.9374673,28.0586316 31.9148293,26.8868588 30.7430565,25.8855257 C32.2770136,25.8855257 33.8322756,25.6298662 35.3662327,25.1398522 C34.0666302,24.1385191 32.7031128,23.3715405 31.2756805,22.8602215 Z" id="_x0032_" fill="#FFFF00"></path>
                        <path d="M26.9081638,23.6272 C28.399511,23.6272 29.8695532,23.3502356 31.2543755,22.8389165 C29.8482482,22.3275975 28.399511,22.050633 26.9081638,22.050633 C28.3142911,21.539314 29.5925887,20.7723355 30.7217515,19.8136123 C29.2304044,19.8136123 27.7603622,20.0479669 26.3542349,20.5592859 C27.5047027,19.6005627 28.4421209,18.4500949 29.1877945,17.1504924 C27.7816671,17.6618114 26.5033696,18.38618 25.3529018,19.3449032 C26.0985753,18.0453007 26.5885894,16.6391733 26.8442489,15.1904361 C25.6937811,16.1491593 24.7350579,17.2783221 23.9680794,18.5779246 C24.2237389,17.1078824 24.2024339,15.6165353 23.9467744,14.1464931 C23.2011009,15.4247906 22.6897818,16.809613 22.4341223,18.2583503 C22.1784628,16.7883081 21.6458388,15.3821807 20.9001652,14.1038832 C20.6445057,15.5739254 20.6232008,17.0652725 20.8788603,18.5353147 C20.1331867,17.2357122 19.1531586,16.1065494 18.0239957,15.1478262 C18.2796552,16.6178684 18.7696693,18.0239957 19.5153429,19.3022933 C18.3648751,18.3435701 17.0652725,17.6192015 15.6804502,17.1078824 C16.4261237,18.407485 17.363542,19.5366478 18.5140098,20.516676 C17.1078824,20.0053569 15.6378402,19.7710024 14.167798,19.7710024 C15.2969609,20.7297256 16.5752585,21.4753991 17.9813858,22.0080231 C16.4900386,22.0080231 15.0199964,22.2849876 13.6138691,22.7963066 C15.0199964,23.3076256 16.4687337,23.5845901 17.9600808,23.5845901 C16.5539535,24.0959091 15.2756559,24.8628877 14.1251881,25.8216109 C15.6165353,25.8216109 17.0865775,25.5872563 18.4927048,25.0759373 C17.342237,26.0346605 16.4048188,27.1851283 15.6591452,28.4847308 C17.0652725,27.9734118 18.3648751,27.2490431 19.4940379,26.29032 C18.7483643,27.5899225 18.2583503,28.9960498 18.0026907,30.466092 C19.1531586,29.5073689 20.1118817,28.378206 20.8575553,27.0999084 C20.6018958,28.5699506 20.6232008,30.0612978 20.8788603,31.510035 C21.6245339,30.2317375 22.1571578,28.8256101 22.4128174,27.3768729 C22.6684769,28.8469151 23.2011009,30.2317375 23.9467744,31.53134 C24.2024339,30.0612978 24.2237389,28.5912556 23.9680794,27.1212134 C24.713753,28.4208159 25.6937811,29.5499788 26.822944,30.487397 C26.5672844,29.0173548 26.0772704,27.6325324 25.3315968,26.3329299 C26.4820646,27.2916531 27.7816671,28.0160217 29.1877945,28.5273407 C28.4421209,27.2277382 27.5047027,26.0985753 26.3542349,25.1185472 C27.7603622,25.6298662 29.2304044,25.8642208 30.7217515,25.8642208 C29.5925887,24.9054976 28.3142911,24.159824 26.9081638,23.6272 Z" id="_x0031_" fill="#FFFFFF"></path>
                    </g>
                    <g id="Layer_2" transform="translate(50.412570, 15.940968)" fill="#009900">
                        <g id="Group">
                            <path d="M7.34048239,8.34145727 C7.34048239,9.90708463 6.7758299,12.0630305 4.56855198,12.0630305 C1.89928565,12.0630305 1.89928565,9.06010589 1.89928565,8.44412135 C1.89928565,7.82813682 1.89928565,4.64555005 4.64555005,4.64555005 C7.13515421,4.61988402 7.34048239,7.39181444 7.34048239,8.34145727 Z M1.9506177,0 L0.153996134,0 L0.153996134,11.498378 L0.102664089,13.2180015 L1.82228759,13.2180015 L1.87361963,11.7807043 C2.05328179,12.0630305 2.28427599,12.3966888 2.79759644,12.7560131 C3.61890915,13.3206656 4.46588789,13.3719976 4.92787629,13.3719976 C6.23684343,13.3719976 7.52014455,12.8073452 8.29012522,11.7293722 C8.77777965,11.1133877 9.21410203,10.0867468 9.21410203,8.23879318 C9.21410203,6.13417934 8.57245147,5.18453652 8.08479704,4.64555005 C7.21215228,3.64457517 6.00584923,3.41358097 5.0562064,3.41358097 C2.8745945,3.41358097 2.1816119,4.61988402 1.92495168,5.0562064 L1.92495168,0 L1.9506177,0 Z" id="Shape"></path>
                            <path d="M12.2940247,8.7264476 C12.2940247,7.87946886 12.2940247,4.85087823 15.1429532,4.85087823 C17.247567,4.85087823 17.7608875,6.64749979 17.7608875,8.36712329 C17.7608875,9.06010589 17.6582234,10.4204051 16.9909068,11.3700479 C16.3749223,12.2170266 15.4252794,12.2940247 14.963291,12.2940247 C12.4736869,12.2683587 12.2940247,9.88141861 12.2940247,8.7264476 Z M10.6000672,16.8882427 L12.3710228,16.8882427 L12.3710228,12.1656946 C12.8843432,13.0126733 13.9109841,13.6029918 15.2969493,13.6029918 C17.5812253,13.6029918 19.6601731,12.0373645 19.6601731,8.46978738 C19.6601731,4.92787629 17.7095554,3.51624506 15.6562736,3.51624506 C14.886293,3.51624506 13.2949996,3.74723926 12.3966888,5.26153458 L12.3710228,3.6702412 L10.5744012,3.6702412 C10.6000672,4.594218 10.6257333,4.8252122 10.6257333,5.23586856 L10.6000672,16.8882427 L10.6000672,16.8882427 Z" id="Shape"></path>
                        </g>
                    </g>
                </g>
            </g>
        </g>
    </g>
</svg>