<?xml version="1.0" encoding="UTF-8"?>
<svg width="106px" height="48px" viewBox="0 0 106 48" version="1.1" xmlns="http://www.w3.org/2000/svg" xmlns:xlink="http://www.w3.org/1999/xlink">
    <!-- Generator: Sketch 53.2 (72643) - https://sketchapp.com -->
    <title>Group 15</title>
    <desc>Created with Sketch.</desc>
    <g id="Page-1" stroke="none" stroke-width="1" fill="none" fill-rule="evenodd">
        <g id="02-About" transform="translate(-582.000000, -3010.000000)">
            <g id="Group-15" transform="translate(582.500000, 3010.000000)">
                <rect id="Rectangle-Copy-46" fill="#FFFFFF" x="0" y="0" width="105" height="48"></rect>
                <path d="M51.3846731,24.6894878 C45.934624,21.5474666 42.6956269,16.1362079 42.6956269,10.2206743 L42.6956269,1.91953192 L62.4011423,1.91953192 L62.4011423,4.57667327 L60.8689221,4.57667327 L60.8689221,3.33538096 L44.2278471,3.33538096 L44.2278471,10.2206743 C44.2278471,15.6513281 47.2147067,20.6164974 52.1992711,23.4869858 L52.5483846,23.6809378 L52.8974981,23.4869858 C57.4165779,20.8880301 60.2870664,16.5629022 60.7913414,11.7334993 L62.3235616,11.7334993 C61.8192866,17.0671772 58.6772654,21.8189993 53.692701,24.6894878 L52.5289894,25.3489243 L51.3846731,24.6894878 L51.3846731,24.6894878 Z M56.718351,13.7312041 L56.718351,13.5760425 L55.6904058,13.5760425 L55.6904058,13.7312041 C55.6904058,14.4682214 55.0697596,15.8840704 52.7229413,15.8840704 L52.7229413,15.8840704 C51.9665288,15.8840704 51.2489067,15.4767714 50.7252365,14.7591493 C50.2015663,14.0609223 49.9106384,13.1299531 49.9106384,12.1989839 C49.9106384,11.5589425 50.0851952,10.5891829 50.570075,9.77458483 C50.9385836,9.17333386 51.5980202,8.43631655 52.7035461,8.43631655 L52.7035461,8.43631655 C53.8090721,8.43631655 54.6818558,8.92119636 55.2831067,9.8521656 C55.7485913,10.5697877 55.8649625,11.2874098 55.8649625,11.306805 L55.8843577,11.4425714 L56.6601654,11.4425714 L56.6601654,7.8156704 L55.8843577,7.8156704 L55.8649625,7.95143674 C55.8649625,7.95143674 55.8067769,8.28115501 55.5546394,8.53329252 C54.7206462,7.79627521 53.692701,7.40837136 52.6453606,7.40837136 L52.6453606,7.40837136 C51.2876971,7.40837136 50.0270096,7.91264636 49.05725,8.80482521 C48.1068856,9.71639925 47.5638202,10.9189012 47.5638202,12.1989839 C47.5638202,14.83673 49.8330577,16.9895964 52.6453606,16.9895964 L52.6453606,16.9895964 C54.1775808,16.9702012 56.718351,16.2913695 56.718351,13.7312041 L56.718351,13.7312041 Z M61.6253346,5.13913385 C61.5671491,5.95373193 61.2374308,6.67135405 60.6167846,7.25320982 C59.9961385,7.83506559 59.239726,8.12599348 58.4445231,8.16478386 C58.6190798,8.18417905 58.8518221,8.20357425 59.0845644,8.26175982 C59.3173067,8.3199454 59.5500491,8.39752617 59.7633962,8.49450213 C59.9767433,8.59147809 60.1706952,8.72724444 60.3646471,8.86301079 C60.5392039,8.99877713 60.7137606,9.15393867 60.8689221,9.3284954 C61.0240837,9.50305213 61.15985,9.69700406 61.256826,9.89095598 C61.3731971,10.0849079 61.4507779,10.298255 61.5089635,10.5309973 C61.5671491,10.7443444 61.6059394,10.9770868 61.6253346,11.1516435 C61.7029154,9.63881848 63.0217885,8.22296944 64.8643318,8.16478386 C63.0217885,8.12599348 61.6835202,6.69074924 61.6253346,5.13913385 L61.6253346,5.13913385 Z" id="Shape-Copy-4" fill="#DE0016" fill-rule="nonzero"></path>
                <path d="M24.2782427,43.5360509 L24.2782427,41.2036411 L25.0211584,41.2036411 L25.0211584,43.5014966 C25.0211584,44.2616894 25.435809,44.6590629 26.0923392,44.6590629 C26.7488693,44.6590629 27.1635199,44.2789665 27.1635199,43.5360509 L27.1635199,41.2036411 L27.9064356,41.2036411 L27.9064356,43.5014966 C27.9064356,44.7108943 27.180797,45.3155931 26.075062,45.3155931 C24.9866042,45.3155931 24.2782427,44.7108943 24.2782427,43.5360509 L24.2782427,43.5360509 Z M30.6016646,45.2637618 L31.3445803,45.2637618 L31.3445803,42.3784846 L33.6942671,45.2637618 L34.3162431,45.2637618 L34.3162431,41.2036411 L33.5733274,41.2036411 L33.5733274,44.0025328 L31.292749,41.2036411 L30.6016646,41.2036411 L30.6016646,45.2637618 L30.6016646,45.2637618 Z M37.2187974,45.2637618 L37.9617131,45.2637618 L37.9617131,41.2036411 L37.2187974,41.2036411 L37.2187974,45.2637618 Z M42.2809904,45.2810389 L42.9547976,45.2810389 L44.7170627,41.2036411 L43.9050386,41.2036411 L42.6265325,44.3135208 L41.3480265,41.2036411 L40.5187252,41.2036411 L42.2809904,45.2810389 Z M47.2049664,45.2637618 L50.4012316,45.2637618 L50.4012316,44.6245087 L47.9651592,44.6245087 L47.9651592,43.5360509 L50.1075208,43.5360509 L50.1075208,42.8967978 L47.9651592,42.8967978 L47.9651592,41.8428942 L50.3839545,41.8428942 L50.3839545,41.2036411 L47.2222435,41.2036411 L47.2222435,45.2637618 L47.2049664,45.2637618 Z M53.0619064,45.2637618 L53.8048221,45.2637618 L53.8048221,43.8470388 L54.737786,43.8470388 L55.7916896,45.2637618 L56.6728222,45.2637618 L55.5152559,43.7260991 C56.1026776,43.5706051 56.5346053,43.1559545 56.5346053,42.4994243 L56.5346053,42.4821472 C56.5346053,42.136605 56.4136656,41.8256171 56.1890631,41.6010146 C55.9126294,41.341858 55.4979788,41.2036411 54.9623884,41.2036411 L53.0619064,41.2036411 L53.0619064,45.2637618 Z M53.8048221,43.2077858 L53.8048221,41.8428942 L54.89328,41.8428942 C55.4461475,41.8428942 55.7744125,42.0847737 55.7744125,42.5167014 L55.7744125,42.5339785 C55.7744125,42.9486292 55.4288704,43.2077858 54.89328,43.2077858 L53.8048221,43.2077858 Z M58.9534006,44.6763401 C59.4717139,45.1082678 60.0764127,45.3328702 60.7329428,45.3328702 C61.6313525,45.3328702 62.2533284,44.8836654 62.2533284,44.1234726 L62.2533284,44.1061955 C62.2533284,43.4323882 61.7868465,43.1214002 60.8884368,42.9140749 C60.0591356,42.7240267 59.8690874,42.5858099 59.8690874,42.2748219 L59.8690874,42.2575448 C59.8690874,41.9983882 60.128244,41.7737857 60.5601717,41.7737857 C60.9575453,41.7737857 61.3376417,41.9120026 61.7177381,42.1884364 L62.1151116,41.652846 C61.6831838,41.3245809 61.1821477,41.1518098 60.5601717,41.1518098 C59.7135934,41.1518098 59.1088946,41.6355689 59.1088946,42.3266532 L59.1088946,42.3439303 C59.1088946,43.086846 59.6272079,43.3460027 60.5256175,43.553328 C61.3203645,43.7260991 61.4931356,43.881593 61.4931356,44.1753039 L61.4931356,44.192581 C61.4931356,44.4862919 61.1994248,44.6936172 60.7329428,44.6936172 C60.2146296,44.6936172 59.7999789,44.503569 59.3853283,44.1753039 L58.9534006,44.6763401 L58.9534006,44.6763401 Z M64.9485574,45.2637618 L65.6914731,45.2637618 L65.6914731,41.2036411 L64.9485574,41.2036411 L64.9485574,45.2637618 Z M69.6479311,45.2637618 L70.3908468,45.2637618 L70.3908468,41.8774484 L71.7557384,41.8774484 L71.7557384,41.2209182 L68.2830395,41.2209182 L68.2830395,41.8774484 L69.6479311,41.8774484 L69.6479311,45.2637618 L69.6479311,45.2637618 Z M75.5567024,45.2637618 L76.3168952,45.2637618 L76.3168952,43.6397135 L78.0100519,41.2036411 L77.1461964,41.2036411 L75.9367988,43.0004605 L74.7446783,41.2036411 L73.8635457,41.2036411 L75.5567024,43.6569906 L75.5567024,45.2637618 Z M34.0398093,38.8298158 C34.2471346,38.8816471 34.5062913,38.9334784 34.8345563,38.9507555 L34.8345563,39.503623 L29.392267,39.503623 L29.392267,38.9507555 C29.8587489,38.9334784 30.187014,38.8816471 30.3943393,38.8125387 C30.6016646,38.7434302 30.7053273,38.5879362 30.6880502,38.3806109 C30.6880502,38.2596712 30.653496,38.0869001 30.5843875,37.8968519 C30.5152791,37.6895266 30.4288935,37.447647 30.3079538,37.1539362 L29.9796887,36.3419121 L25.902291,36.3419121 C25.4530861,37.3094302 25.2284837,37.9659603 25.2284837,38.3460567 C25.2284837,38.6224905 25.3321464,38.7952615 25.5567488,38.86437 C25.7813512,38.9334784 26.0923392,38.9680326 26.5242669,38.9680326 L26.5242669,39.5209001 L22.585086,39.5209001 L22.585086,38.9680326 C22.8096884,38.9334784 23.0170137,38.8989242 23.1897848,38.86437 C23.3625559,38.8125387 23.5007728,38.7607073 23.6389897,38.6743218 C23.7599294,38.5879362 23.8808692,38.4842736 23.9845319,38.3460567 C24.0881945,38.2078398 24.1745801,38.0523459 24.2609656,37.8622977 L28.0446525,28.8954781 L29.1158332,28.8954781 L32.5712551,36.8429482 C32.7785804,37.3094302 32.9513515,37.6722495 33.0895683,37.9314061 C33.2277852,38.1905627 33.3832792,38.397888 33.5387732,38.5361049 C33.6597129,38.6743218 33.832484,38.7779844 34.0398093,38.8298158 L34.0398093,38.8298158 Z M29.6687007,35.5298879 L28.0100983,31.4006589 L27.9582669,31.4006589 L26.230556,35.5298879 L29.6687007,35.5298879 Z M44.0778097,29.7593335 C44.8207254,30.2430926 45.2008218,30.9687311 45.2008218,31.9362493 C45.2008218,32.9210445 44.8034483,33.6639602 43.9914241,34.1822734 C43.1794,34.7005867 42.0045566,34.9597433 40.484171,34.9597433 L39.2574963,34.9597433 L39.2574963,37.3612615 C39.2574963,37.7068037 39.2747734,37.9832374 39.3266047,38.1905627 C39.378436,38.397888 39.4820987,38.5706591 39.6375927,38.6915989 C39.7930866,38.8125387 40.000412,38.8816471 40.2768457,38.9162013 C40.5532794,38.9507555 40.8988216,38.9680326 41.3653036,38.9680326 L41.3653036,39.5209001 L35.7847973,39.5209001 L35.7847973,38.9680326 C36.043954,38.9507555 36.2512793,38.9334784 36.4240504,38.8989242 C36.6313757,38.8470929 36.7868697,38.7779844 36.8905323,38.6743218 C36.994195,38.5706591 37.0633034,38.4151652 37.0978576,38.2078398 C37.1324119,38.0005145 37.149689,37.7413579 37.149689,37.4303699 L37.149689,31.1415022 C37.149689,30.8305143 37.1324119,30.5713576 37.0978576,30.3640323 C37.0633034,30.1739841 36.994195,30.0184901 36.9078094,29.8975504 C36.8041468,29.7766106 36.6659299,29.7075022 36.4931588,29.672948 C36.3203877,29.6383937 36.0785082,29.6038395 35.8020745,29.5865624 L35.8020745,29.0336949 L40.795159,29.0336949 C42.2118819,29.0164178 43.3176169,29.2582973 44.0778097,29.7593335 L44.0778097,29.7593335 Z M42.1254964,33.5948517 C42.5574241,33.2493095 42.7647494,32.6791649 42.7647494,31.9189721 C42.7647494,31.2451649 42.5747012,30.7095745 42.2118819,30.3467552 C41.8490626,29.9666588 41.278918,29.7938877 40.5014481,29.7938877 L39.3957131,29.7938877 C39.222942,29.7938877 39.1365565,29.8629962 39.1365565,30.0184901 L39.1365565,34.1304421 L40.0695204,34.1304421 C41.0024843,34.1304421 41.6935686,33.957671 42.1254964,33.5948517 L42.1254964,33.5948517 Z M55.5498101,37.5340326 C55.3943161,37.8450206 55.1869908,38.0869001 54.9451113,38.2596712 C54.7032318,38.4324423 54.3749667,38.5706591 53.9948703,38.6397676 C53.6147739,38.708876 53.148292,38.7434302 52.6127016,38.7434302 C52.1462196,38.7434302 51.7661232,38.7261531 51.4378582,38.6743218 C51.1268702,38.6224905 50.8677136,38.5361049 50.6776654,38.4151652 C50.4876172,38.2942254 50.3494003,38.1387314 50.2630147,37.9314061 C50.1766292,37.7240808 50.142075,37.4822013 50.142075,37.1884904 L50.142075,34.3895987 C50.7467738,34.3895987 51.2305328,34.4068758 51.5933521,34.4414301 C51.9561714,34.4759843 52.2326052,34.5450927 52.4572076,34.6660325 C52.6645329,34.7869722 52.8200269,34.9424662 52.9236895,35.1670686 C53.0273522,35.3916711 53.0964606,35.6681048 53.148292,36.0309241 L53.6838823,36.0309241 L53.6838823,32.0399119 L53.148292,32.0399119 C53.0964606,32.4200083 53.0273522,32.7137192 52.9409666,32.9210445 C52.8545811,33.1456469 52.7163642,33.3011409 52.5090389,33.4220806 C52.3017136,33.5430204 52.0080028,33.6121288 51.6451835,33.646683 C51.2650871,33.6812373 50.781328,33.6985144 50.1593521,33.6985144 L50.1593521,30.2430926 C50.1593521,30.0184901 50.1939063,29.8802733 50.2457376,29.8284419 C50.297569,29.7766106 50.4530629,29.7420564 50.7122196,29.7420564 L52.3362678,29.7420564 C52.837304,29.7420564 53.2692317,29.7766106 53.632051,29.8284419 C53.9775932,29.8802733 54.271304,29.9839359 54.4959065,30.1394299 C54.7205089,30.2949239 54.89328,30.4849721 55.0142197,30.7441287 C55.1351595,30.9860083 55.2388222,31.3142733 55.2906535,31.6943697 L55.9126294,31.6943697 L55.8089667,29.0336949 L46.7039303,29.0336949 L46.7039303,29.5865624 C46.9976411,29.6038395 47.2222435,29.6383937 47.3950146,29.672948 C47.5677857,29.7075022 47.7060026,29.7938877 47.8096653,29.8975504 C47.9133279,30.0184901 47.9651592,30.1739841 47.9997135,30.3640323 C48.0342677,30.5540805 48.0515448,30.8132372 48.0515448,31.1415022 L48.0515448,37.4303699 C48.0515448,37.7413579 48.0342677,38.0005145 47.9997135,38.2078398 C47.9651592,38.4151652 47.8960508,38.553382 47.7923881,38.6743218 C47.6887255,38.7779844 47.5332315,38.86437 47.3259062,38.8989242 C47.1185809,38.9507555 46.8594243,38.9680326 46.5484363,38.9853097 L46.5484363,39.5381772 L56.3100029,39.5381772 L56.5346053,36.4110205 L55.9644607,36.4110205 C55.843521,36.8602253 55.7053041,37.2403217 55.5498101,37.5340326 L55.5498101,37.5340326 Z M66.5553286,37.5858639 C66.3998346,37.8795748 66.1925093,38.1214543 65.9506298,38.2942254 C65.6914731,38.4669965 65.3804852,38.5879362 65.0003888,38.6570447 C64.6202924,38.7261531 64.1538104,38.7607073 63.6009429,38.7607073 C63.0999068,38.7607073 62.6852562,38.7434302 62.339714,38.6915989 C62.0114489,38.6397676 61.7350152,38.553382 61.5276899,38.4151652 C61.3203645,38.2769483 61.1821477,38.1041772 61.0957621,37.8622977 C61.0093766,37.6204181 60.9748224,37.3094302 60.9748224,36.9293338 L60.9748224,31.2278878 C60.9748224,30.8823456 60.9920995,30.6059119 61.0266537,30.3985865 C61.0612079,30.1912612 61.1303163,30.0184901 61.233979,29.9148275 C61.3376417,29.7938877 61.4931356,29.7075022 61.6831838,29.672948 C61.873232,29.6211166 62.1496658,29.6038395 62.4606537,29.5865624 L62.4606537,29.0336949 L57.4848463,29.0336949 L57.4848463,29.5865624 C57.7785572,29.6038395 58.0031596,29.6383937 58.1759307,29.672948 C58.3487018,29.7075022 58.4869187,29.7938877 58.5905813,29.8975504 C58.694244,30.0184901 58.7460753,30.1739841 58.7806295,30.3640323 C58.8151837,30.5540805 58.8324608,30.8132372 58.8324608,31.1415022 L58.8324608,37.4303699 C58.8324608,37.7413579 58.8151837,38.0005145 58.7806295,38.2078398 C58.7460753,38.4151652 58.6769669,38.553382 58.5733042,38.6743218 C58.4696415,38.7779844 58.3141476,38.86437 58.1068223,38.8989242 C57.8994969,38.9507555 57.6403403,38.9680326 57.3293523,38.9853097 L57.3293523,39.5381772 L67.2636901,39.5381772 L67.4882925,36.4455747 L66.9181479,36.4455747 C66.8317623,36.8947796 66.7108226,37.274876 66.5553286,37.5858639 L66.5553286,37.5858639 Z M77.5608471,37.5685868 C77.4053531,37.8622977 77.1980278,38.1041772 76.9561482,38.2769483 C76.6969916,38.4497194 76.3860036,38.5706591 76.0059072,38.6397676 C75.6258108,38.708876 75.1593289,38.7434302 74.6064614,38.7434302 C74.1054252,38.7434302 73.6907746,38.7261531 73.3452325,38.6743218 C73.0169674,38.6224905 72.7405336,38.5361049 72.5332083,38.397888 C72.325883,38.2596712 72.1876661,38.0869001 72.1012806,37.8450206 C72.0148951,37.603141 71.9803408,37.2921531 71.9803408,36.9120567 L71.9803408,31.2106107 C71.9803408,30.8650685 71.9976179,30.5886347 72.0321722,30.3813094 C72.0667264,30.1739841 72.1358348,30.001213 72.2394975,29.8975504 C72.3431601,29.7766106 72.4986541,29.6902251 72.6887023,29.6556709 C72.8787505,29.6038395 73.1551843,29.5865624 73.4661722,29.5692853 L73.4661722,29.0164178 L68.4903648,29.0164178 L68.4903648,29.5692853 C68.7840757,29.5865624 69.0086781,29.6211166 69.1814492,29.6556709 C69.3542203,29.6902251 69.4924371,29.7766106 69.5960998,29.8802733 C69.6997624,30.001213 69.7515938,30.156707 69.786148,30.3467552 C69.8207022,30.5368034 69.8379793,30.7959601 69.8379793,31.1242251 L69.8379793,37.4130928 C69.8379793,37.7240808 69.8207022,37.9832374 69.786148,38.1905627 C69.7515938,38.397888 69.6824853,38.5361049 69.5788227,38.6570447 C69.47516,38.7607073 69.319666,38.8470929 69.1123407,38.8816471 C68.9050154,38.9334784 68.6458588,38.9507555 68.3348708,38.9680326 L68.3348708,39.5209001 L78.2692085,39.5209001 L78.493811,36.4282976 L77.9236664,36.4282976 C77.8372808,36.8775024 77.716341,37.274876 77.5608471,37.5685868 L77.5608471,37.5685868 Z M91.486197,39.4863459 L86.0439076,39.4863459 L86.0439076,38.9334784 C86.5103896,38.9162013 86.8386546,38.86437 87.0459799,38.7952615 C87.2533052,38.7261531 87.3569679,38.5706591 87.3396908,38.3633338 C87.3396908,38.2423941 87.3051366,38.069623 87.2360281,37.8795748 C87.1669197,37.6722495 87.0805342,37.4303699 86.9595944,37.1366591 L86.6313293,36.324635 L82.5539316,36.324635 C82.1047267,37.2921531 81.8801243,37.9486832 81.8801243,38.3287796 C81.8801243,38.6052133 81.983787,38.7779844 82.2083894,38.8470929 C82.4329918,38.9162013 82.7439798,38.9507555 83.1759075,38.9507555 L83.1759075,39.503623 L79.2367266,39.503623 L79.2367266,38.9507555 C79.4613291,38.9162013 79.6686544,38.8816471 79.8414255,38.8470929 C80.0141965,38.7952615 80.1524134,38.7434302 80.2906303,38.6570447 C80.4288472,38.5706591 80.5325098,38.4669965 80.6361725,38.3287796 C80.7398351,38.1905627 80.8262207,38.0350688 80.9126062,37.8450206 L84.6962931,28.8782009 L85.7674739,28.8782009 L89.2056186,36.8256711 C89.4129439,37.2921531 89.585715,37.6549724 89.7239318,37.914129 C89.8621487,38.1732856 90.0176427,38.3806109 90.1731367,38.5188278 C90.3286307,38.6570447 90.5186789,38.7607073 90.7260042,38.8125387 C90.9333295,38.86437 91.1924861,38.9162013 91.5207512,38.9334784 L91.486197,39.4863459 Z M86.3030642,35.4953337 L84.6444618,31.3661047 L84.5926305,31.3661047 L82.8821967,35.4953337 L86.3030642,35.4953337 Z M17.8511581,38.86437 C15.7433508,38.86437 14.2056881,36.5492374 14.2056881,34.1822734 C14.2056881,32.4027312 15.2423147,29.3965142 17.8511581,29.3965142 C21.3065799,29.3965142 21.9112788,33.0592613 21.9112788,33.0592613 L22.4641463,33.0592613 L22.4641463,29.0336949 L21.9112788,29.0336949 C21.9112788,29.0336949 21.8076161,29.6038395 21.3411342,30.001213 C20.3390618,29.0682491 19.0778329,28.5499359 17.7820497,28.5499359 C14.4821219,28.5499359 11.80417,31.0896709 11.80417,34.1995505 C11.80417,37.3094302 14.4821219,39.8491652 17.7820497,39.8491652 C19.6479775,39.8491652 22.5159776,38.9853097 22.5159776,36.0827554 L21.6866763,36.0827554 C21.6866763,37.0502735 20.8573751,38.86437 17.8511581,38.86437 L17.8511581,38.86437 Z" id="Shape-Copy-5" fill="#4B4B4B" fill-rule="nonzero"></path>
            </g>
        </g>
    </g>
</svg>