<?xml version="1.0" encoding="UTF-8"?>
<svg width="105px" height="49px" viewBox="0 0 105 49" version="1.1" xmlns="http://www.w3.org/2000/svg" xmlns:xlink="http://www.w3.org/1999/xlink">
    <!-- Generator: Sketch 53.2 (72643) - https://sketchapp.com -->
    <title>Group 16</title>
    <desc>Created with Sketch.</desc>
    <g id="Page-1" stroke="none" stroke-width="1" fill="none" fill-rule="evenodd">
        <g id="02-About" transform="translate(-774.000000, -3010.000000)">
            <g id="Group-16" transform="translate(774.000000, 3010.500000)">
                <rect id="Rectangle-Copy-84" fill="#FFFFFF" x="0" y="0" width="105" height="48"></rect>
                <g id="CHS_Inc._logo-Copy" transform="translate(20.018715, 8.065953)">
                    <path d="M13.0892233,11.1429685 C5.96719464,14.3069357 1.93903839,18.2827434 3.07295558,22.2452413 C4.83061651,28.3992716 18.1891897,30.8614149 33.7384049,28.2510991 C49.2885079,25.6452198 59.2107272,20.286174 58.7067635,13.7240064 C58.5186617,11.2902532 56.6571965,8.69502019 52.9475657,7.39518665 C52.9475657,7.39518665 52.8544077,7.35791338 52.869473,7.30557487 C52.8873299,7.23993167 52.9768411,7.26208939 52.9768411,7.26208939 C57.8026453,8.66484695 59.6827471,10.9601861 60.3189103,13.7515036 C61.912428,20.7351182 53.4861292,28.8899181 34.0542669,32.1488215 C14.6374874,35.4050615 2.65505233,31.6315481 0.513210141,24.1359844 C-0.762669912,19.6739568 3.96464683,14.6387608 12.941936,10.9113863 C12.941936,10.9113863 13.1220398,10.8457179 13.164645,10.9548718 C13.2098911,11.0649059 13.0892182,11.1429735 13.0892182,11.1429735" id="path68" fill="#00309B"></path>
                    <path d="M16.3396962,0.282916477 C16.7229921,0.282916477 18.0423476,0.37164798 19.0307532,0.580149409 C21.4485332,1.02466457 21.4769258,1.14622019 21.4769258,3.66869739 C21.4769258,3.93487429 21.4769258,4.02448859 21.2852778,4.02448859 C20.434396,4.02448859 20.0502148,1.17283712 16.3929326,1.17283712 C12.9317349,1.17283712 9.90085738,4.70767841 9.90085738,10.2610331 C9.90085738,14.3583964 11.8315322,18.514318 16.1746651,18.514318 C18.5640551,18.514318 19.6367506,17.3262766 20.2968723,16.4354682 C20.9277135,15.5774888 21.1761466,15.0433594 21.4485332,15.0433594 C21.5869373,15.0433594 21.7794831,15.1595806 21.7794831,15.2811337 C21.7794831,16.8231906 21.3970725,17.7175478 21.2577731,18.0413977 C21.0918542,18.4868032 18.86661,19.4104383 16.3663131,19.4104383 C11.2281957,19.4104383 6.61001264,15.9607747 6.61001264,10.0534044 C6.61001264,5.21251741 9.71719474,0.282906416 16.3396962,0.282906416" id="path72" fill="#4B4B4B" fill-rule="nonzero"></path>
                    <path d="M27.8316533,8.27419443 C27.8316533,9.01860597 27.9514207,9.25816594 28.5760648,9.25816594 L35.1444421,9.25816594 C36.7246526,9.25816594 36.902103,9.19604383 36.902103,8.84026521 L36.902103,3.17600364 C36.902103,2.07136684 36.902103,1.92319428 35.3520607,1.6534661 C34.9350503,1.59579566 34.5774835,1.53633951 34.5774835,1.20717531 C34.5774835,0.699662797 35.0237768,0.699662797 35.4425628,0.699662797 C36.3963661,0.699662797 37.2303895,0.819430207 38.2729192,0.819430207 C39.2870564,0.819430207 40.5380902,0.699662797 41.2851626,0.699662797 C41.5832834,0.699662797 42.1493542,0.699662797 42.1493542,1.11844884 C42.1493542,1.56385433 41.7021756,1.53634957 40.4209736,1.6534661 C39.8832929,1.68540743 39.4671703,2.04208645 39.4671703,2.87610977 L39.4671703,16.9782067 C39.4671703,17.8095691 39.9720194,18.0784069 40.7776501,18.1094629 C41.4936691,18.1369777 42.119186,18.1680137 42.119186,18.6471411 C42.119186,19.0348737 41.5832834,19.0641515 41.2541091,19.0641515 C40.8681522,19.0641515 40.1210798,18.944359 37.917128,18.944359 C35.5605672,18.944359 34.9350503,19.0641515 34.6076517,19.0641515 C34.3396991,19.0641515 34.0114127,19.0029348 34.0114127,18.6764215 C34.0114127,18.2265795 34.6972635,18.1369677 35.3520607,18.1094629 C36.6048726,18.0189709 36.902103,17.6019504 36.902103,15.6961169 L36.902103,11.0158244 C36.902103,10.3601418 36.6936041,10.2989201 35.4425628,10.2696397 L30.3346111,10.2696397 C28.1874445,10.2696397 27.8316533,10.4461973 27.8316533,10.9847708 L27.8316533,16.9782067 C27.8316533,17.7190669 28.4882262,17.9009565 29.5893142,18.1094629 C29.9176007,18.1680137 30.5732832,18.2265895 30.5732832,18.6764215 C30.5732832,19.0029323 30.1562728,19.0641515 29.9176007,19.0641515 C29.3222495,19.0641515 28.3959509,18.944359 26.75807,18.944359 C24.0457179,18.944359 23.4494815,19.0641515 23.1806411,19.0641515 C22.9721422,19.0641515 22.4060639,19.0641515 22.4060639,18.7349798 C22.4060639,18.2585208 23.1806411,18.2265795 23.7174315,18.1094629 C24.5523426,17.9293591 25.2674738,17.8095691 25.2674738,16.797205 L25.2674738,3.1138941 C25.2674738,1.95424779 25.1485867,1.92319428 23.5089276,1.6534661 C23.1504729,1.59579566 22.7929086,1.53633951 22.7929086,1.08828314 C22.7929086,0.759996699 23.121195,0.699662797 23.4494815,0.699662797 C24.3429509,0.699662797 25.2071399,0.819430207 26.1023849,0.819430207 C27.2061364,0.819430207 28.3089976,0.699662797 29.4109735,0.699662797 C30.0968267,0.699662797 30.2760528,0.790154847 30.2760528,1.11844884 C30.2760528,1.62418823 29.559146,1.59579566 28.9052366,1.6534661 C28.2486662,1.71646849 27.8316533,2.04208645 27.8316533,2.9080511 L27.8316533,8.27419443 Z" id="path76" fill="#4B4B4B" fill-rule="nonzero"></path>
                    <path d="M52.940023,4.81388207 C52.940023,4.93455491 52.8512915,5.05165635 52.6711827,5.05165635 C51.6570455,5.05165635 52.6711827,1.29855015 48.6172973,1.29855015 C46.2926778,1.29855015 45.3681549,2.60725935 45.3681549,4.06768735 C45.3681549,8.35935957 54.3108393,7.79861067 54.3108393,13.9348947 C54.3108393,17.7811639 51.5399289,19.4811519 47.9323319,19.4811519 C47.4248193,19.4811519 46.0540056,19.2398062 45.0416415,19.0348611 C43.1925932,18.6471286 42.8651946,18.1094504 42.8651946,16.2896824 C42.8651946,15.484937 42.9539261,13.6971103 43.5483844,13.6971103 C44.3247373,13.6971103 43.668177,14.563075 44.5634094,16.2000681 C44.8606424,16.7386341 45.8756649,18.4670147 48.3795105,18.4670147 C51.2107547,18.4670147 52.3446719,16.7386341 52.3446719,15.2462648 C52.3446719,10.7159204 43.4019875,11.0158143 43.4019875,5.2894432 C43.4019875,2.7855976 45.2483749,0.282639819 49.0343077,0.282639819 C49.4530938,0.282639819 50.0493327,0.314581149 50.6446839,0.43170774 C52.940023,0.880659472 52.940023,1.20717028 52.940023,2.3366509 L52.940023,4.81388207 Z" id="path80" fill="#4B4B4B" fill-rule="nonzero"></path>
                </g>
            </g>
        </g>
    </g>
</svg>