<?xml version="1.0" encoding="UTF-8"?>
<svg width="105px" height="49px" viewBox="0 0 105 49" version="1.1" xmlns="http://www.w3.org/2000/svg" xmlns:xlink="http://www.w3.org/1999/xlink">
    <!-- Generator: Sketch 53.2 (72643) - https://sketchapp.com -->
    <title>Group 17</title>
    <desc>Created with Sketch.</desc>
    <g id="Page-1" stroke="none" stroke-width="1" fill="none" fill-rule="evenodd">
        <g id="02-About" transform="translate(-973.000000, -3009.000000)">
            <g id="Group-17" transform="translate(973.000000, 3009.500000)">
                <rect id="Rectangle-Copy-45" fill="#FFFFFF" x="0" y="0" width="105" height="48"></rect>
                <g id="coach-1-2-copy" transform="translate(2.000000, 9.000000)" fill-rule="nonzero">
                    <g id="coach-1">
                        <path d="M101.536259,6.72642495 L101.536259,23.0257654 C96.0825418,24.0233895 95.7515408,29.7480303 95.7515408,29.7480303 L5.79842914,29.7480303 C5.79842914,29.7480303 5.46742822,24.0233895 0.013133747,23.0257654 L0.013133747,6.72642495 C5.46742822,5.72937854 5.79842914,0.00416009818 5.79842914,0.00416009818 L95.7521185,0.00416009818 C95.7515408,0.00416009818 96.0825418,5.72937854 101.536259,6.72642495 Z" id="Path" fill="#4B4B4B"></path>
                        <path d="M100.956285,7.28675811 L100.956285,22.4700536 C95.7740697,23.4179986 95.1403733,29.0045779 95.1403733,29.0045779 L6.41421795,29.0045779 C6.41421795,29.0045779 5.81287072,23.417421 0.631810868,22.4700536 L0.631810868,7.28675811 C5.81287072,6.33939071 6.41421795,0.7481901 6.41421795,0.7481901 L95.1403733,0.7481901 C95.1403733,0.747612437 95.7740697,6.33939071 100.956285,7.28675811 Z" id="Path" fill="#FFFFFF"></path>
                        <path d="M99.824643,8.12668017 L99.824643,21.5995154 C94.9878703,22.4839175 94.0907596,28.0664532 94.0907596,28.0664532 L7.33270219,28.0664532 C7.33270219,28.0664532 6.66261306,22.4839175 1.82526272,21.5995154 L1.82526272,8.12668017 C6.66261306,7.24227805 7.33270219,1.68573722 7.33270219,1.68573722 L94.0907596,1.68573722 C94.0907596,1.68573722 94.9878703,7.24285571 99.824643,8.12668017 Z" id="Path" fill="#4B4B4B"></path>
                        <path d="M21.8903886,11.0895139 C22.5830066,11.1709644 23.1329418,10.071094 23.7845457,10.8041484 L23.7845457,14.1043374 C22.6032248,14.7559413 22.9238278,13.1685232 22.4195279,12.678665 C21.238207,11.293429 19.6496336,10.7232756 17.8161311,10.763712 C16.3904587,10.926613 14.7250562,11.3101812 14.2311543,12.9230164 C13.8643382,14.3076748 13.6610008,15.8968258 14.4755057,17.1590195 C15.4529116,18.7071565 17.2454,18.8706351 18.956438,18.9520856 C20.4283234,18.9734592 22.2618259,18.2097886 22.8267804,17.0377103 C22.9995016,16.7084424 22.9486673,16.0608821 23.4783843,16.0187127 C23.6002712,16.0603044 23.7637498,16.1417549 23.8041863,16.3040782 C23.7637498,17.3230758 22.9082309,18.2184536 22.0527119,18.6667201 C18.5948209,20.3061278 13.3340436,20.0519561 10.4416847,17.4449628 C9.50471524,16.4681345 9.21934969,15.2042078 9.62660214,13.8599859 C11.0320563,10.5205158 15.0040674,10.1525445 18.4261433,10.3154455 C19.6086196,10.4783464 20.7905181,10.6822615 21.8903886,11.0895139 L21.8903886,11.0895139 Z M70.5024668,11.0895139 C71.1950848,11.1709644 71.7455977,10.071094 72.3966239,10.8041484 L72.3966239,14.1043374 C71.215303,14.7559413 71.5370613,13.1685232 71.0327615,12.678665 C69.8514406,11.293429 68.2617119,10.7232756 66.4282094,10.763712 C65.0031146,10.926613 63.3377121,11.3101812 62.8438102,12.9230164 C62.4769941,14.3076748 62.2730791,15.8968258 63.087584,17.1590195 C64.0655675,18.7071565 65.8586336,18.8706351 67.5690939,18.9520856 C69.041557,18.9734592 70.8750595,18.2097886 71.4400139,17.0377103 C71.6127352,16.7084424 71.5619008,16.0608821 72.0910402,16.0187127 C72.2140824,16.0603044 72.3764057,16.1417549 72.4168421,16.3040782 C72.3764057,17.3230758 71.5208868,18.2184536 70.6659454,18.6667201 C67.2080545,20.3061278 61.9466994,20.0519561 59.0549182,17.4449628 C58.1173711,16.4681345 57.8320056,15.2042078 58.2404134,13.8599859 C59.6452899,10.5205158 63.6178786,10.1525445 67.0393769,10.3154455 C68.2212754,10.4783464 69.4025964,10.6822615 70.5024668,11.0895139 Z M42.3413934,13.5746204 C42.7590437,14.4503575 42.7249616,15.5710238 42.2195065,16.3855287 C40.2641171,19.3593381 36.5127732,19.6452813 33.2160502,19.5638308 C30.2659251,19.3391199 26.7011664,19.0676182 25.434929,15.9782763 C25.1397432,15.1296893 25.2073298,14.0431051 25.6792805,13.3308465 C28.3272879,9.94920708 33.0121352,10.275009 37.0043645,10.5603746 C39.0926164,10.8174346 41.1600724,11.5782169 42.3413934,13.5746204 L42.3413934,13.5746204 Z" id="Shape" fill="#FFFFFF"></path>
                        <path d="M37.5346592,12.3932994 C38.3491641,13.6150568 38.3462757,15.332449 37.9014752,16.7113307 C37.3313218,18.2184536 35.7831848,18.992522 34.2350479,19.0335361 C32.8498119,19.0751279 31.5870405,18.7897623 30.6090569,17.7303283 C29.6316511,16.3855287 29.6553352,14.2123604 30.283255,12.8415659 C30.8938448,11.660245 32.2010963,10.8520944 33.5424299,10.8451625 C35.1304256,10.8041484 36.6381261,11.0484999 37.5346592,12.3932994 L37.5346592,12.3932994 Z" id="Path" fill="#4B4B4B"></path>
                        <path d="M59.0023509,18.9630612 L58.9890647,18.954974 L58.9879093,18.954974 C58.726228,18.840019 57.9654457,19.1086323 57.4963833,18.4223686 L50.8157102,10.4783464 L50.3674437,10.4783464 L43.6451789,17.7297506 C43.6451789,17.7297506 43.0334337,18.3039477 42.4228439,18.625706 C42.0144361,18.8411743 41.6042953,18.836553 41.4257974,18.9948327 C41.4163788,19.0029048 41.4075021,19.0115886 41.3992249,19.0208275 L41.3969143,19.0242935 C41.3561256,19.0698983 41.3335122,19.1288987 41.3333714,19.1900828 C41.3333714,19.3310326 41.4477486,19.4448322 41.5881208,19.4448322 L46.4601309,19.4448322 C46.5606821,19.4447062 46.6517069,19.385315 46.6923242,19.2933324 C46.7329415,19.2013498 46.715515,19.0940691 46.6478714,19.0196722 L46.6472937,19.0162062 L46.6438277,19.0138956 C46.600144,18.968749 46.5412888,18.9413793 46.4786161,18.9370664 C46.0719413,18.8232668 45.2019808,18.8671692 44.7051905,18.25889 C44.3793886,17.4848215 45.2349076,17.1180055 45.64216,16.6703166 L50.9791889,16.6703166 L52.6902268,18.6661424 C52.5105736,18.9965657 51.6556323,18.8198008 51.2674427,18.9405324 C51.1994724,18.9532282 51.1396082,18.9930682 51.1016534,19.050866 C51.075178,19.0876867 51.0612078,19.132027 51.0617947,19.1773742 L51.0600617,19.1895051 C51.0599079,19.2571159 51.0866981,19.3220019 51.1345062,19.36981 C51.1823144,19.4176182 51.2472003,19.4444084 51.3148111,19.4442545 L58.8897066,19.4442545 C58.9837428,19.491594 59.0972305,19.4760605 59.1750872,19.4051933 C59.2529439,19.334326 59.2790525,19.2227954 59.240741,19.1247339 C59.2024294,19.0266724 59.1076285,18.9623798 59.0023509,18.9630612 L59.0023509,18.9630612 Z M89.6918555,11.3096036 C88.9403159,11.3096036 89.0015482,11.8381652 89.0015482,11.8381652 L89.0015482,18.4073494 C89.0015482,18.4073494 88.9408935,18.9364887 89.6918555,18.9364887 L90.3486584,18.9364887 C90.4890336,18.9364887 90.6028301,19.0502853 90.6028301,19.1906605 C90.6028301,19.3310356 90.4890336,19.4448322 90.3486584,19.4448322 L83.3208098,19.4448322 C83.1804346,19.4448322 83.066638,19.3310356 83.066638,19.1906605 C83.066638,19.0502853 83.1804346,18.9364887 83.3208098,18.9364887 L83.9435305,18.9364887 C84.6950702,18.9364887 84.6338379,18.4142813 84.6338379,18.4142813 L84.6338379,16.0707024 C84.6338379,16.0707024 84.6944925,15.541563 83.9435305,15.541563 L80.3510441,15.541563 C79.5995044,15.541563 79.6607367,16.0707024 79.6607367,16.0707024 L79.6607367,18.4142813 C79.6607367,18.4142813 79.6000821,18.9364887 80.3510441,18.9364887 L81.0800548,18.9364887 C81.22043,18.9364887 81.3342266,19.0502853 81.3342266,19.1906605 C81.3342266,19.3310356 81.22043,19.4448322 81.0800548,19.4448322 L74.0522062,19.4448322 C73.911831,19.4448322 73.7980345,19.3310356 73.7980345,19.1906605 C73.7980345,19.0502853 73.911831,18.9364887 74.0522062,18.9364887 L74.5871222,18.9364887 L74.5871222,18.9341781 C75.3386618,18.9341781 75.2774295,18.3859759 75.2774295,18.3859759 L75.2774295,11.8381652 C75.2774295,11.8381652 75.3380842,11.3096036 74.5871222,11.3096036 L74.0522062,11.3096036 C73.911512,11.3096036 73.7974568,11.1955484 73.7974568,11.0548541 C73.7974568,10.9141599 73.911512,10.8001047 74.0522062,10.8001047 L81.0800548,10.8001047 C81.220749,10.8001047 81.3348042,10.9141599 81.3348042,11.0548541 C81.3348042,11.1955484 81.220749,11.3096036 81.0800548,11.3096036 L80.3510441,11.3096036 C79.5995044,11.3096036 79.6607367,11.8381652 79.6607367,11.8381652 L79.6607367,14.1817442 C79.6607367,14.1817442 79.6000821,14.7103059 80.3510441,14.7103059 L83.9435305,14.7103059 C84.6950702,14.7103059 84.6338379,14.1817442 84.6338379,14.1817442 L84.6338379,11.8381652 C84.6338379,11.8381652 84.6944925,11.3096036 83.9435305,11.3096036 L83.3208098,11.3096036 C83.1801156,11.3096036 83.0660604,11.1955484 83.0660604,11.0548541 C83.0660604,10.9141599 83.1801156,10.8001047 83.3208098,10.8001047 L90.3486584,10.8001047 C90.4893526,10.8001047 90.6034078,10.9141599 90.6034078,11.0548541 C90.6034078,11.1955484 90.4893526,11.3096036 90.3486584,11.3096036 L89.6918555,11.3096036 L89.6918555,11.3096036 Z" id="Shape" fill="#FFFFFF"></path>
                        <polygon id="Path" fill="#4B4B4B" points="50.2859932 15.9776986 46.3342003 15.9776986 46.3342003 15.7339248 48.2081393 13.7375213 48.4929271 13.7375213"></polygon>
                    </g>
                </g>
            </g>
        </g>
    </g>
</svg>