<?xml version="1.0" encoding="UTF-8"?>
<svg width="105px" height="48px" viewBox="0 0 105 48" version="1.1" xmlns="http://www.w3.org/2000/svg" xmlns:xlink="http://www.w3.org/1999/xlink">
    <!-- Generator: Sketch 53.2 (72643) - https://sketchapp.com -->
    <title>Group 18</title>
    <desc>Created with Sketch.</desc>
    <g id="Page-1" stroke="none" stroke-width="1" fill="none" fill-rule="evenodd">
        <g id="02-About" transform="translate(-1169.000000, -3009.000000)">
            <g id="Group-18" transform="translate(1169.000000, 3009.000000)">
                <rect id="Rectangle-Copy-80" fill="#FFFFFF" x="0" y="0" width="105" height="48"></rect>
                <g id="Coca-cola-Copy" transform="translate(7.750775, 9.180248)" fill="#4B4B4B" fill-rule="nonzero">
                    <path d="M62.3213015,2.28142025 C62.3213015,2.28142025 60.6574954,2.94376806 58.7224008,5.07655689 C56.7873062,7.20934571 55.6603048,9.60765087 56.4943724,10.2454673 C56.8147236,10.4878952 57.5535517,10.534072 58.8941206,9.3219322 C60.1313,8.24777686 61.102418,6.90125207 61.7311049,5.38824998 C62.596919,3.27710651 62.3213015,2.30739467 62.3213015,2.2843063 L62.3213015,2.28142025 Z M72.9116515,6.1184199 C70.7615464,5.0159499 69.1900937,3.66527984 67.555148,2.8297692 C65.9952395,2.02889113 64.9865661,1.69410966 63.7253635,1.86294342 C63.5494348,1.89430492 63.3758645,1.93769748 63.205875,1.99281554 C63.205875,1.99281554 63.8552356,4.21074275 61.2707804,7.93662959 C58.6531357,11.7144653 56.2779189,11.6884908 55.6025838,10.6509569 C54.8955023,9.55570202 55.8089362,7.32334457 57.3342121,5.33630113 C58.9316392,3.2583472 61.736877,1.53537707 61.736877,1.53537707 C61.736877,1.53537707 60.8422024,0.988471139 58.6459205,2.23380047 C56.5030306,3.44305422 52.8146623,6.32910134 49.3918104,11.1964198 C45.9689586,16.0637383 45.2907375,18.74199 44.8001095,20.8502474 C44.3094815,22.9585049 44.7553757,25.2168367 47.0930739,25.2168367 C49.4307721,25.2168367 52.1523145,21.6511255 52.920003,20.4115683 C54.3471534,18.1027306 55.2779035,14.5615508 53.3355938,15.0478497 C52.3788692,15.2873916 51.6039656,16.3465709 51.1147806,17.3667886 C50.8059413,18.0220614 50.5698015,18.7091895 50.4105851,19.415882 C49.731878,19.6956071 49.0944513,20.0665088 48.5158951,20.518352 C47.8722889,20.9950936 47.2707495,21.5261476 46.7178878,22.1056779 C46.7178878,22.1056779 46.7265459,20.4202264 48.0700009,17.6929119 C49.4134558,14.9655974 51.8795831,13.720268 53.2764299,13.6033831 C54.5347464,13.5023715 56.1725782,14.5702089 54.7843895,18.5096632 C53.3962008,22.4491175 49.3009,27.2385127 44.9992467,27.2976767 C41.0294889,27.3525116 38.4320465,22.2860559 43.9573837,13.4446505 C50.0729176,3.67682403 57.2461877,0.679664097 59.5752277,0.346325655 C61.9042677,0.012987212 62.6618551,1.04041999 62.6618551,1.04041999 C64.0638509,0.465238354 65.5780578,0.215584168 67.0904944,0.310250066 C69.9346939,0.502172199 72.1338618,2.51519007 75.0372252,3.92935316 C74.2825238,4.65086494 73.5624551,5.40845231 72.9130945,6.1184199 L72.9116515,6.1184199 Z M85.6896251,2.8297692 C83.7184549,4.09385784 80.9911404,5.23961855 78.3706096,4.99430454 C77.7068188,5.67974074 76.9968512,6.47340369 76.2854405,7.33921783 C80.8295217,8.23822151 84.8108237,5.42288254 86.9277393,3.02602041 C87.6994776,2.16426063 88.362459,1.21098255 88.9017955,0.187593063 C87.9380348,1.19142719 86.8594007,2.078261 85.6881821,2.8297692 L85.6896251,2.8297692 Z M79.6375843,15.6322742 C79.6720041,15.5723561 79.7000555,15.5089986 79.7212796,15.4432381 C79.6934652,15.2288062 79.5197302,15.0628862 79.3042458,15.0449636 C78.8713388,15.0247613 78.2811421,15.1070137 76.7327779,16.8213256 C75.4482842,18.2370189 74.3428048,19.805336 73.4412411,21.4909499 C72.5552246,23.1100223 72.1959118,24.31639 72.7052991,24.6280831 C72.8707958,24.7138071 73.0626926,24.7334094 73.2421039,24.682918 C73.5869865,24.6006657 73.9780459,24.2774284 74.5725716,23.5891062 C74.8510751,23.2658689 75.1598822,22.8084304 75.5292962,22.3019291 C76.5538429,20.9079684 79.128197,16.5197337 79.6375843,15.6322742 L79.6375843,15.6322742 Z M63.5536437,17.4966607 C63.8119449,16.8213256 64.1409543,15.495187 63.4569611,14.9742555 C62.7224621,14.4215775 60.8494175,15.7188556 60.8393164,17.0493234 C60.8263291,18.4115376 62.1582399,19.0277087 62.4771481,19.1142901 C62.6589691,19.1633529 62.7224621,19.1561378 62.8104865,19.0103924 C63.092976,18.5236417 63.3412934,18.0178457 63.5536437,17.4966607 L63.5536437,17.4966607 Z M62.1365945,19.9743321 C61.6724358,19.7600026 61.2394418,19.483799 60.8494175,19.1532517 C60.4583125,18.8251743 60.1314686,18.4273838 59.8854778,17.9800736 C59.8595034,17.9367829 59.8335289,17.9699724 59.8046685,18.008934 C59.775808,18.0478957 59.6603661,18.1532364 58.6617938,19.6164623 C57.6632215,21.0796882 56.1292874,24.1114807 57.5174761,24.6280831 C58.4063786,24.9585355 59.8854778,23.4015131 60.6921279,22.3697512 C61.2417163,21.6495882 61.739833,20.8915636 62.1827713,20.1013182 C62.224619,20.0132938 62.1827713,19.9930914 62.1380376,19.9743321 L62.1365945,19.9743321 Z M77.8843107,23.4765503 C77.5076815,24.0797342 77.0776605,25.2370391 78.3172177,24.5169703 C79.8338355,23.641055 81.9940418,20.3639485 81.9940418,20.3639485 L82.9738548,20.3639485 C82.0823153,21.7347899 81.0896403,23.0371331 80.0041123,24.2601121 C78.4672922,25.9628799 76.5928046,27.5098012 75.272438,27.3568407 C73.7298458,27.1764627 74.2132587,25.1519007 74.2132587,25.1519007 C74.2132587,25.1519007 72.0068757,27.501143 70.4801568,27.3323093 C68.4180761,27.1043115 69.0472344,24.5559319 69.0472344,24.5559319 C69.0472344,24.5559319 66.7153083,27.4174477 65.1265394,27.3294232 C62.6358807,27.1851209 63.2621529,24.1547714 63.9548042,22.0205395 C64.3256613,20.8791079 64.6691009,19.9829903 64.6691009,19.9829903 C64.6691009,19.9829903 64.4223439,20.0479263 63.8913112,20.1272926 C63.6142507,20.1662543 63.1091924,20.1951147 63.1091924,20.1951147 C63.1091924,20.1951147 62.0716585,22.0248686 61.2419199,23.1244526 C60.4121814,24.2240365 56.8854318,28.0148594 54.8103639,27.255829 C52.8911426,26.5545196 53.5260729,23.6165236 54.6429732,21.2817115 C56.2735898,17.8776189 60.8595187,12.987212 63.5045809,13.6336866 C66.2463256,14.2989205 63.5666309,19.3018832 63.5666309,19.3018832 C63.5666309,19.3018832 63.5666309,19.3206425 63.5954914,19.3336297 C63.6503262,19.353832 63.7931856,19.3697053 64.123638,19.3047692 C64.4660811,19.2349229 64.8016856,19.1349658 65.1265394,19.0060633 C65.1265394,19.0060633 67.8827144,13.2339691 70.9274941,9.45757642 C73.9722738,5.68118376 80.0459599,-0.82252343 82.4298349,0.750372252 C83.0070443,1.13710257 82.7473001,2.46901331 81.9622952,4.0851997 C81.6087243,4.2000491 81.2494045,4.29638149 80.8857997,4.37380441 C81.4110602,3.41996584 81.7588289,2.61620172 81.8627266,2.05486555 C82.2220395,0.103897696 77.6664141,4.21940089 74.4109529,8.64082508 C72.4500341,11.3063114 70.707916,14.1260333 69.2016379,17.0724117 C69.7897312,16.7137458 70.3510912,16.3129811 70.8813173,15.8732592 C72.3334183,14.6692226 73.7134099,13.3807807 75.0141368,12.0146142 C76.266656,10.7323291 77.4414462,9.37635721 78.5322282,7.95394587 C78.8787955,7.93718476 79.2241909,7.90153726 79.5668761,7.84716212 C78.3775699,9.46136153 77.080714,10.9934835 75.6851427,12.433091 C74.3864215,13.7462424 72.9809166,15.1589625 71.7601187,16.1849523 C70.6696854,17.1122395 69.5195252,17.9669059 68.3170644,18.743433 C68.3170644,18.743433 65.469979,24.4852238 67.0183432,24.8531948 C67.9288911,25.0725344 69.7268985,22.3033722 69.7268985,22.3033722 C69.7268985,22.3033722 72.0732548,18.7232307 73.4874179,17.1084873 C75.4167404,14.9150915 77.0776605,13.6452308 78.7371376,13.6221424 C79.7039634,13.6048261 80.2739577,14.6322589 80.2739577,14.6322589 L80.7285101,13.9280634 L83.5279758,13.9280634 C83.5279758,13.9280634 78.2999014,22.7997723 77.8814246,23.4678922 L77.8843107,23.4765503 Z M85.6881821,2.8297692 C83.7170119,4.09385784 80.9896974,5.23961855 78.3691666,4.99430454 C77.7053757,5.67974074 76.9954081,6.47340369 76.2839975,7.33921783 C80.8280787,8.23822151 84.8093807,5.42288254 86.9262963,3.02602041 C87.6985405,2.16434084 88.3620089,1.21105933 88.9017955,0.187593063 C87.9380348,1.19142719 86.8594007,2.078261 85.6881821,2.8297692 L85.6881821,2.8297692 Z M46.3730052,7.18192826 L43.7106267,7.18192826 L42.2055531,9.61342296 L44.8679316,9.61342296 L46.3730052,7.18192826 Z M33.7667513,15.6019707 C34.8995248,14.0492774 38.0251139,8.60763554 38.0251139,8.60763554 C37.9979419,8.39343191 37.8246886,8.22739747 37.6095231,8.20936104 C37.176616,8.18915871 36.4551042,8.33490409 35.0221818,10.1285824 C33.5892594,11.9222607 32.4766883,13.349411 31.665709,14.8342822 C30.7768065,16.4547977 30.3886332,17.5976723 30.8994635,17.9079224 C31.0652307,17.9909736 31.2556636,18.0104789 31.4348253,17.9627573 C31.7667207,17.8790619 32.2010708,17.5457235 32.7970395,16.8602873 C33.0769861,16.5399361 33.3944512,16.108472 33.7667513,15.6019707 L33.7667513,15.6019707 Z M19.4808181,8.24255058 C18.7448761,7.68698651 16.8732745,8.98715074 16.8631733,10.3147324 C16.8516291,11.6783897 18.5471818,12.0954235 18.7665214,12.1055247 C18.8310384,12.1108896 18.8957215,12.0973513 18.9526714,12.066563 C18.9917977,12.0437373 19.0230142,12.0094999 19.0421389,11.9684374 C19.2414888,11.5766978 19.4206581,11.1750118 19.5789437,10.7649558 C19.8372449,10.0896207 20.1648112,8.76348209 19.4808181,8.24255058 L19.4808181,8.24255058 Z M18.371133,12.9367062 C17.8636745,12.7781754 17.3786942,12.5550845 16.9281094,12.2729154 C16.4914701,11.9882559 16.136401,11.594895 15.8977906,11.1314837 C15.8718161,11.088193 15.8429557,11.1213826 15.8169813,11.1603442 C15.7910068,11.1993059 15.6409324,11.3868989 14.639474,12.8558969 C13.6380157,14.3248949 12.1545875,17.3292699 13.5442191,17.8458724 C14.4302356,18.1820969 15.926651,16.6120872 16.7390733,15.5846545 C17.3470319,14.7772443 17.9087861,13.9360584 18.4216388,13.0651353 C18.4548283,12.9771109 18.4216388,12.9569086 18.372576,12.9410353 L18.371133,12.9367062 Z M40.116055,13.841482 L41.0915389,13.841482 C41.0915389,13.841482 36.2040181,20.9122974 33.443514,20.5832881 C31.9023649,20.4029101 32.3598034,18.5010051 32.3598034,18.5010051 C32.3598034,18.5010051 30.195268,21.0349544 28.2067815,20.5212381 C26.4030021,20.0580275 27.5675221,17.0579815 27.5675221,17.0579815 C27.3626128,17.1402339 23.459234,21.5400127 20.7160462,20.4851625 C17.8458724,19.3769204 19.3365157,15.6928812 19.8819786,14.5846391 C20.3451892,13.6510029 20.8574625,12.741898 20.8574625,12.741898 C20.8574625,12.741898 20.4173404,12.8659981 20.1359508,12.9294911 C19.8545612,12.9929841 19.4476285,13.0737935 19.4476285,13.0737935 C19.4476285,13.0737935 18.0897434,15.2801765 17.2600048,16.3812035 C16.4302663,17.4822304 12.9035167,21.2658382 10.8255628,20.5125799 C8.74760883,19.7593216 9.26276824,16.8516291 10.4301743,14.5427914 C12.3234212,10.7981453 16.8155536,6.19634317 19.5212227,6.89476657 C22.2543094,7.59174695 19.9916484,12.0247153 19.9916484,12.0247153 C19.9916484,12.0247153 20.5356683,12.0954235 21.8387186,11.206521 C23.7146492,9.92655908 26.1908776,6.48350486 28.8720154,6.88755146 C30.136104,7.07803057 31.3136113,8.36953665 29.703197,10.8226767 C29.1894806,11.6105676 28.3279955,12.3147631 27.6685338,11.6177827 C27.257272,11.1848756 27.6165849,10.3955417 28.048049,9.85585092 C28.3890679,9.40909558 28.930043,9.16132899 29.4910725,9.19494613 C29.4910725,9.19494613 29.9340807,8.18482964 28.8070793,8.19925987 C27.8950885,8.21657616 25.5862508,10.3421499 24.2832005,12.4893689 C23.088377,14.4605391 21.2773824,17.8184549 23.0955921,18.5500679 C24.7622843,19.2225169 27.9340501,15.4576684 29.4030481,13.4850552 C30.8720461,11.512442 34.2198607,7.04195498 37.0279846,6.86302006 C37.9948104,6.79952702 38.5705768,7.68121441 38.5705768,7.68121441 L38.8952571,7.16749803 L41.7033809,7.16749803 C41.7033809,7.16749803 36.4146996,15.9930301 36.0019948,16.66115 C35.6773145,17.1835246 35.2458505,18.3581457 36.4349019,17.700127 C37.6239533,17.0421083 40.116055,13.841482 40.116055,13.841482 L40.116055,13.841482 Z M38.587893,27.9831129 C36.5202649,26.5518456 34.044408,25.8293409 31.5315078,25.9239183 C30.1520365,25.9615383 28.8731517,26.6545803 28.0884536,27.7897477 C27.0177301,25.9210322 24.9008146,24.7738285 21.6280371,24.7998029 C16.3393558,24.8604099 11.0939651,27.2991197 6.93805728,27.2962337 C2.95531225,27.2962337 0.0505058246,24.7925878 0.144302356,20.3466322 C0.318908207,12.5442038 6.91208286,5.5181221 11.8327932,2.35645747 C14.6697775,0.539690812 17.0421083,-2.0539126e-15 18.5933586,0.174605851 C19.7246891,0.300148901 21.0854603,1.60752825 20.2268613,3.5339647 C18.9656587,6.34930367 17.2239292,6.1184199 17.2888653,4.77207892 C17.3249409,3.89616361 17.9079224,3.34492861 18.3466016,3.04045064 C18.6251051,2.84852851 19.1171761,2.79369361 19.3740343,2.78792152 C19.6236774,2.57724008 19.8069414,1.03609092 17.7867084,1.54259219 C15.7664754,2.04909346 13.3133354,4.04046597 10.9842953,6.61337698 C8.65525532,9.18628799 5.02893711,14.0492774 4.13281948,19.1561378 C3.71434265,21.5241394 3.98851712,25.843109 9.6033218,25.7940462 C14.3652995,25.7550845 21.3841661,22.6193943 27.8344815,22.6843304 C30.3381273,22.7088618 32.5170929,23.3841968 34.2155317,24.4318319 C35.8836669,25.4592647 37.8836975,26.9600092 38.5936651,27.9845559 L38.587893,27.9831129 Z" id="Shape"></path>
                </g>
            </g>
        </g>
    </g>
</svg>