<?xml version="1.0" encoding="UTF-8"?>
<svg width="105px" height="49px" viewBox="0 0 105 49" version="1.1" xmlns="http://www.w3.org/2000/svg" xmlns:xlink="http://www.w3.org/1999/xlink">
    <!-- Generator: Sketch 53.2 (72643) - https://sketchapp.com -->
    <title>Group 25</title>
    <desc>Created with Sketch.</desc>
    <g id="Page-1" stroke="none" stroke-width="1" fill="none" fill-rule="evenodd">
        <g id="02-About" transform="translate(-1343.000000, -3009.000000)">
            <g id="Group-25" transform="translate(1343.000000, 3009.500000)">
                <rect id="Rectangle-Copy-33" fill="#FFFFFF" x="0" y="0" width="105" height="48"></rect>
                <g id="Group-4-Copy" transform="translate(5.714284, 5.401710)" fill-rule="nonzero">
                    <path d="M47.6240254,1.69134745 C47.9751885,1.11775328 48.5580969,0.517745419 49.1854916,0.263895938 C50.2656726,-0.227537749 51.713421,-0.0162282146 52.5945261,0.761446481 C53.4474103,1.53397746 53.8798998,2.59288846 53.6756802,3.77663891 C53.8849045,3.73813053 54.095936,3.6041158 54.3173939,3.52793315 C55.6411369,3.15424892 57.0412016,3.55949056 57.8899152,4.69444519 C58.5274584,5.50465044 58.6940036,6.76347138 58.3112831,7.74216817 C58.1213826,8.23443598 57.7976063,8.67721286 57.3762384,9.05478964 L57.4187784,9.0974686 C58.6502125,9.15738598 59.8605157,10.1137006 60.2340609,11.2863295 C60.6391635,12.4691069 60.2828567,13.7330715 59.4178778,14.5980504 C58.711242,15.296484 57.802611,15.5382388 56.7923568,15.517803 L38.4544428,15.517803 C36.9487233,15.5503335 35.7852697,14.8833183 35.1588481,13.5442831 C34.6674144,12.3948705 34.9101424,10.924879 35.8279487,10.0487786 C36.4066865,9.44362698 37.1315339,9.19589436 37.9132401,9.07105491 C37.0279644,8.24972811 36.6014528,7.12589504 36.8502975,5.92073559 C37.0279644,4.94412409 37.8605517,3.95527888 38.8168664,3.6141252 C39.6594632,3.27908837 40.8006737,3.33789359 41.5722315,3.79276517 L41.5996184,3.75926148 C41.3670388,2.43023573 41.9559252,1.23133216 43.0584883,0.496197407 C44.0413556,-0.16873253 45.6129703,-0.151494121 46.5752628,0.555141645 C47.0077522,0.8202517 47.3641981,1.27512328 47.6240254,1.69134745" id="Path" fill="#FFFFFF"></path>
                    <path d="M52.815845,2.18778584 C53.2098261,2.98269894 52.9783588,4.02437154 52.5671393,4.73809729 L49.3852626,11.8966248 L49.3578757,11.9301285 L48.207768,4.66817052 C48.1154591,3.97071004 48.8604642,3.67320846 49.2992095,3.33817163 C49.2768274,3.23571431 49.1640826,3.24071901 49.0931827,3.19303534 L48.0181455,3.18177477 L47.9856149,3.14924422 C47.9917318,2.24770321 48.4770486,1.41525486 49.2993485,0.977621695 C50.1583496,0.481183308 51.3683747,0.616171176 52.1135189,1.25274115 C52.4160252,1.5228559 52.6708478,1.83634472 52.815845,2.18778584" id="Path" fill="#645FAA"></path>
                    <path d="M46.9538127,1.93894106 C47.213779,2.42022633 47.364059,2.96643367 47.2725843,3.57144623 L45.9751159,11.8863374 C45.9822059,11.8964858 45.9699722,11.9076074 45.9598238,11.9126121 L45.6238138,11.2435116 L42.3720103,3.98155355 C42.069504,3.04650886 42.3496282,2.06878521 43.0309624,1.39871155 C43.7173013,0.702363223 44.8461391,0.513435816 45.7437876,0.891151609 C46.218956,1.09634429 46.6727154,1.47406008 46.9538127,1.93894106" id="Path" fill="#C9234A"></path>
                    <path d="M57.5226259,5.43958934 C57.9601201,6.18570663 57.8616943,7.31468342 57.3752653,8.00713921 C57.0738712,8.49342918 56.5763206,8.7361571 56.1550918,9.05492866 L49.416959,13.6802441 L49.4016668,13.6802441 L49.4768764,13.4590642 L53.0484246,5.3970494 C53.5835103,4.44685159 54.6047471,3.96556632 55.6849281,4.1107026 C56.4250675,4.24569047 57.165346,4.72683672 57.5226259,5.43958934" id="Path" fill="#0089CF"></path>
                    <path d="M42.2157525,5.39691038 L45.932576,13.679271 L45.8726586,13.679271 L38.3792332,8.51469915 C37.6167117,7.87215134 37.304057,6.9095808 37.5629111,5.93700087 C37.7568433,5.20798297 38.3618558,4.52678776 39.0816984,4.25667301 C40.2604442,3.82529571 41.5883578,4.28419885 42.2157525,5.39691038" id="Path" fill="#F36F21"></path>
                    <path d="M59.4779342,11.2863295 C59.8516184,12.0751258 59.7043969,13.1553068 59.1702842,13.8263536 C58.6403421,14.4690404 57.9317601,14.8203425 57.1001459,14.7979604 L49.1101431,14.8031041 L55.8035116,10.1462312 C56.457459,9.72486329 57.451448,9.64854163 58.1650347,9.98983433 C58.7165248,10.2061486 59.2353453,10.746239 59.4779342,11.2863295" id="Path" fill="#0DB14B"></path>
                    <path d="M35.8178002,11.2863295 C35.4452282,12.0751258 35.5914766,13.1553068 36.1264234,13.8263536 C36.6563654,14.4690404 37.3630012,14.8203425 38.1954496,14.7979604 L46.1853133,14.8031041 L39.4919448,10.1462312 C38.8381364,9.72486329 37.8442865,9.64854163 37.1315339,9.98983433 C36.5801828,10.2061486 36.0613623,10.746239 35.8178002,11.2863295" id="Path" fill="#FDB913"></path>
                    <path d="M21.4702999,19.5859286 C17.5880433,19.5859286 14.4327193,22.7433379 14.4327193,26.6257335 C14.4327193,30.507017 17.5880433,33.6663726 21.4702999,33.6663726 C25.3525565,33.6663726 28.5099658,30.507017 28.5099658,26.6257335 C28.5101048,22.7434769 25.3526955,19.5859286 21.4702999,19.5859286 M21.4702999,32.2795147 C18.3525111,32.2795147 15.8154065,29.7425492 15.8154065,26.6257335 C15.8154065,23.509752 18.3525111,20.9727864 21.4702999,20.9727864 C24.5882277,20.9727864 27.1251933,23.509891 27.1251933,26.6257335 C27.1253323,29.7425492 24.5882277,32.2795147 21.4702999,32.2795147" id="Shape" fill="#4B4B4B"></path>
                    <path d="M82.1656272,26.714984 C81.7879115,26.5168813 79.4904763,25.334243 79.1605832,25.162554 C77.9554238,24.5462809 77.5280781,24.0021588 77.5280781,23.080182 C77.5280781,21.7989789 78.5798991,20.9715352 80.2112921,20.9715352 C81.1688579,20.9715352 82.0945883,21.3929031 82.6377372,21.6984678 C82.736302,21.7522684 82.8530783,21.7827136 82.9748594,21.7827136 C83.3545214,21.7827136 83.666342,21.471032 83.666342,21.09137 C83.666342,20.8355742 83.5260714,20.6110579 83.3201836,20.4913621 C82.63593,20.1094757 81.4694179,19.5867627 80.2114311,19.5867627 C77.8145971,19.5867627 76.1423324,21.0222773 76.1423324,23.080182 C76.1423324,24.9269161 77.3565281,25.7980118 78.5444491,26.4051097 C78.8774007,26.5747134 81.2012495,27.7726438 81.5493541,27.9562885 C82.4672994,28.4364616 82.9748594,29.1574164 82.9748594,29.9868063 C82.9748594,31.0984057 82.0328637,32.2802098 80.289699,32.2802098 C78.5942181,32.2802098 77.277426,31.1430309 76.9140292,30.792841 L76.805316,30.6892715 L75.7810209,31.623343 L75.9007166,31.7430388 C76.3554492,32.1940178 78.0185386,33.6659555 80.289699,33.6659555 C82.8358399,33.6659555 84.3578246,31.794893 84.3578246,29.9868063 C84.3575466,28.6369276 83.5595751,27.4438629 82.1656272,26.714984" id="Path" fill="#4B4B4B"></path>
                    <path d="M7.03771966,20.9727864 C8.54941695,20.9727864 9.96963945,21.5616727 11.0356404,22.6265616 C11.2894899,22.8792989 11.7666046,22.8792989 12.0164225,22.6265616 C12.148352,22.4976905 12.2184178,22.3240553 12.2184178,22.1381863 C12.2184178,21.9544026 12.148352,21.7788211 12.0164225,21.649811 L11.9312036,21.5625068 C10.6134384,20.2874206 8.87430536,19.5859286 7.03771966,19.5859286 C3.15740931,19.5859286 -2.84217094e-13,22.744311 -2.84217094e-13,26.6246214 C-2.84217094e-13,30.507017 3.15740931,33.6662336 7.03771966,33.6662336 C9.08630999,33.6662336 10.932071,32.7872137 12.2184178,31.3860369 L11.2387478,30.4052548 C10.2031921,31.5546674 8.70470165,32.2793757 7.03771966,32.2793757 C3.92090402,32.2793757 1.38379941,29.741298 1.38379941,26.6244823 C1.38379941,23.5108642 3.92090402,20.9727864 7.03771966,20.9727864" id="Path" fill="#4B4B4B"></path>
                    <path d="M54.7571124,20.9727864 C56.2667244,20.9727864 57.6890322,21.5616727 58.7550332,22.6265616 C59.0077705,22.8792989 59.4850242,22.8792989 59.7348421,22.6265616 C59.8667715,22.4976905 59.9398958,22.3240553 59.9398958,22.1381863 C59.9398958,21.9544026 59.8669106,21.7788211 59.7348421,21.649811 L59.6505963,21.5625068 C58.3297727,20.2874206 56.5927249,19.5859286 54.7572514,19.5859286 C50.8759679,19.5859286 47.7174464,22.744311 47.7174464,26.6246214 C47.7174464,30.507017 50.8759679,33.6662336 54.7572514,33.6662336 C56.8048686,33.6662336 58.6506296,32.7872137 59.9389226,31.3860369 L58.9581405,30.4052548 C57.9225848,31.5546674 56.4220091,32.2793757 54.7571124,32.2793757 C51.6391846,32.2793757 49.1011068,29.741298 49.1011068,26.6244823 C49.1012459,23.5108642 51.6393236,20.9727864 54.7571124,20.9727864" id="Path" fill="#4B4B4B"></path>
                    <path d="M42.8331378,19.5859286 C42.5731714,19.5859286 42.3681178,19.753447 42.2564852,19.9697612 C42.1427673,20.1859364 38.1142622,30.1505712 38.1132891,30.1505712 C38.1132891,30.1505712 34.084784,20.1857974 33.9720393,19.9697612 C33.8592945,19.753447 33.6543799,19.5859286 33.3944135,19.5859286 C33.0907951,19.5859286 32.8623862,19.8091938 32.782311,20.0905691 C32.7020968,20.3737517 30.42899,32.9149726 30.42899,32.9149726 C30.4207879,32.9557053 30.4167563,32.9983842 30.4167563,33.0418973 C30.4167563,33.3869435 30.6979926,33.6662336 31.0410926,33.6662336 C31.3456842,33.6662336 31.5995337,33.4489462 31.6543073,33.1617321 L33.6228224,22.4316563 C33.6228224,22.4316563 37.4208333,31.8144947 37.5314928,32.03776 C37.6432644,32.260191 37.8502643,32.4338263 38.1142622,32.4338263 C38.3782601,32.4338263 38.5842869,32.260191 38.6949464,32.03776 C38.806718,31.8144947 42.6047288,22.4316563 42.6047288,22.4316563 L44.6503998,33.5890778 L45.9215934,33.5890778 C45.9215934,33.5890778 43.5265667,20.3736127 43.4463525,20.0904301 C43.3651651,19.8093328 43.1366172,19.5859286 42.8331378,19.5859286" id="Path" fill="#4B4B4B"></path>
                    <path d="M67.8608059,19.5869017 C67.5977811,19.5859286 67.3939786,19.7576176 67.2790096,19.9807438 C67.1652917,20.2031748 62.0657809,32.7983353 62.0657809,32.7983353 C62.0351966,32.8722936 62.0179582,32.9545931 62.0179582,33.0418973 C62.0179582,33.3869435 62.2972483,33.6673457 62.6422945,33.6673457 C62.9053192,33.6673457 63.1306697,33.5027467 63.2231177,33.2704452 L65.2027544,28.4004556 L70.5195525,28.4004556 L72.6312576,33.5892168 L73.9804412,33.5892168 C73.9804412,33.5892168 68.5529836,20.2031748 68.441351,19.9808828 C68.3308306,19.7576176 68.1248038,19.5859286 67.8608059,19.5869017 L67.8608059,19.5869017 Z M65.7674513,27.0144318 L67.8609449,21.8672374 L69.9563848,27.0144318 L65.7674513,27.0144318 Z" id="Shape" fill="#4B4B4B"></path>
                    <path d="M94.569775,19.6609991 L86.7321375,19.6609991 C86.3503901,19.6609991 86.0406549,19.9717075 86.0406549,20.354428 C86.0406549,20.7350632 86.3503901,21.0457716 86.7321375,21.0457716 L90.0174447,21.0457716 L90.0174447,33.5881046 L91.2865531,33.5881046 L91.2865531,21.0457716 L94.569775,21.0457716 C94.9515223,21.0457716 95.264177,20.7352022 95.264177,20.354428 C95.264177,19.9718465 94.9515223,19.6609991 94.569775,19.6609991" id="Path" fill="#4B4B4B"></path>
                </g>
            </g>
        </g>
    </g>
</svg>