<?xml version="1.0" encoding="UTF-8"?>
<svg width="105px" height="48px" viewBox="0 0 105 48" version="1.1" xmlns="http://www.w3.org/2000/svg" xmlns:xlink="http://www.w3.org/1999/xlink">
    <!-- Generator: Sketch 53.2 (72643) - https://sketchapp.com -->
    <title>Group 38</title>
    <desc>Created with Sketch.</desc>
    <g id="Page-1" stroke="none" stroke-width="1" fill="none" fill-rule="evenodd">
        <g id="02-About" transform="translate(-772.000000, -3136.000000)">
            <g id="Group-38" transform="translate(772.000000, 3136.000000)">
                <rect id="Rectangle-Copy-79" fill="#FFFFFF" x="0" y="0" width="105" height="48"></rect>
                <path d="M28.9448286,15.7403621 C25.6255434,18.1349691 21.2635362,19.0034358 17.0476787,17.7143202 L7.4280288,14.7735254 L7.4280288,9.16268751 L28.9448286,15.7403621 Z" id="path4708-copy" fill="#4B4B4B" fill-rule="nonzero" transform="translate(18.186429, 13.736361) scale(1, -1) translate(-18.186429, -13.736361) "></path>
                <path d="M33.6612489,21.1990206 C32.971722,23.0034076 31.9289999,24.5848226 30.6380106,25.8861172 L7.42830985,18.7903607 L7.42830985,13.1785859 L33.6612489,21.1990206 Z" id="path4712-copy" fill="#4B4B4B" fill-rule="nonzero" transform="translate(20.544779, 19.532352) scale(1, -1) translate(-20.544779, -19.532352) "></path>
                <path d="M34.3249185,27.8839653 C34.6678083,29.6855417 34.6481343,31.5789301 34.210622,33.4610763 L7.4286846,25.2720073 L7.4286846,19.6611694 L34.3249185,27.8839653 Z" id="path4716-copy" fill="#4B4B4B" fill-rule="nonzero" transform="translate(20.995633, 26.561123) scale(1, -1) translate(-20.995633, -26.561123) "></path>
                <path d="M24.9709613,32.7472848 C29.1868188,34.0364003 32.3177956,37.1954829 33.7296395,41.0365975 L7.42830985,32.995552 L7.42830985,27.3837772 L24.9709613,32.7472848 Z" id="path4720-copy" fill="#4B4B4B" fill-rule="nonzero" transform="translate(20.578975, 34.210187) scale(1, -1) translate(-20.578975, -34.210187) "></path>
                <path d="M44.5598026,15.81256 C46.072827,15.81256 46.9178722,16.7765861 46.9178722,18.3036633 C46.9178722,19.8466672 46.072827,20.8106933 44.5598026,20.8106933 L43.5807868,20.8106933 L43.5807868,15.81256 L44.5598026,15.81256 Z M41.2377069,22.8577263 L44.6778466,22.8577263 C47.5408823,22.8577263 49.2759419,21.0776976 49.2759419,18.3036633 C49.2759419,15.530566 47.5408823,13.7505372 44.6778466,13.7505372 L41.2377069,13.7505372 L41.2377069,22.8577263 Z" id="path4724-copy" fill="#4B4B4B" fill-rule="nonzero" transform="translate(45.256824, 18.304132) scale(1, -1) translate(-45.256824, -18.304132) "></path>
                <path d="M53.3370305,21.0932494 C52.6240822,21.0932494 52.2240442,20.4402599 52.2240442,19.521203 C52.2240442,18.602146 52.6240822,17.9641463 53.3370305,17.9641463 C54.0630949,17.9641463 54.4631329,18.602146 54.4631329,19.521203 C54.4631329,20.4402599 54.0630949,21.0932494 53.3370305,21.0932494 M53.3370305,16.0351573 C51.3190401,16.0351573 49.9249965,17.4601171 49.9249965,19.521203 C49.9249965,21.5832257 51.3190401,23.0063118 53.3370305,23.0063118 C55.3690739,23.0063118 56.7481277,21.5832257 56.7481277,19.521203 C56.7481277,17.4601171 55.3690739,16.0351573 53.3370305,16.0351573" id="path4728-copy" fill="#4B4B4B" fill-rule="nonzero" transform="translate(53.336562, 19.520735) scale(1, -1) translate(-53.336562, -19.520735) "></path>
                <path d="M65.6022716,22.858101 C66.9963151,22.858101 67.8563501,21.9090647 67.8563501,20.4100931 L67.8563501,16.0349699 L65.5282599,16.0349699 L65.5282599,19.8470419 C65.5282599,20.4100931 65.291235,20.811068 64.7712792,20.811068 C64.3712412,20.811068 64.0292883,20.5590534 63.9112443,20.0990565 L63.9112443,16.0349699 L61.597207,16.0349699 L61.597207,19.8470419 C61.597207,20.4100931 61.3601821,20.811068 60.8411632,20.811068 C60.4411252,20.811068 60.0851194,20.5590534 59.9801914,20.0990565 L59.9801914,16.0349699 L57.6521012,16.0349699 L57.6521012,22.7091407 L59.9801914,22.7091407 L59.9801914,22.1610793 C60.3221443,22.576107 60.9610809,22.858101 61.7011981,22.858101 C62.5462433,22.858101 63.1411477,22.5320747 63.5402488,22.0570881 C63.9421606,22.4721159 64.6223189,22.858101 65.6022716,22.858101" id="path4732-copy" fill="#4B4B4B" fill-rule="nonzero" transform="translate(62.754226, 19.446535) scale(1, -1) translate(-62.754226, -19.446535) "></path>
                <polygon id="path4734-copy" fill="#4B4B4B" fill-rule="nonzero" transform="translate(70.284590, 19.520641) scale(1, -1) translate(-70.284590, -19.520641) " points="71.4486354 16.1835554 69.1205452 16.1835554 69.1205452 22.8577263 71.4486354 22.8577263"></polygon>
                <path d="M72.7091768,22.7086723 L75.0382038,22.7086723 L75.0382038,22.1306314 C75.4082624,22.5456591 76.0612519,22.8576326 76.8322854,22.8576326 C78.3162672,22.8576326 79.1912919,21.8936065 79.1912919,20.4096247 L79.1912919,16.0345015 L76.8763177,16.0345015 L76.8763177,19.8465735 C76.8763177,20.3955718 76.5952605,20.7956099 76.0012931,20.7956099 C75.5412962,20.7956099 75.1571847,20.5286055 75.0382038,20.0686087 L75.0382038,16.0345015 L72.7091768,16.0345015 L72.7091768,22.7086723 Z" id="path4738-copy" fill="#4B4B4B" fill-rule="nonzero" transform="translate(75.950234, 19.446067) scale(1, -1) translate(-75.950234, -19.446067) "></path>
                <polygon id="path4740-copy" fill="#4B4B4B" fill-rule="nonzero" transform="translate(81.612131, 19.520641) scale(1, -1) translate(-81.612131, -19.520641) " points="82.776176 16.1835554 80.4480858 16.1835554 80.4480858 22.8577263 82.776176 22.8577263"></polygon>
                <path d="M87.0925583,21.0932494 C86.3805468,21.0932494 85.9805088,20.4402599 85.9805088,19.521203 C85.9805088,18.602146 86.3805468,17.9641463 87.0925583,17.9641463 C87.8195595,17.9641463 88.2195975,18.602146 88.2195975,19.521203 C88.2195975,20.4402599 87.8195595,21.0932494 87.0925583,21.0932494 M87.0925583,16.0351573 C85.0755047,16.0351573 83.6805243,17.4601171 83.6805243,19.521203 C83.6805243,21.5832257 85.0755047,23.0063118 87.0925583,23.0063118 C89.1246016,23.0063118 90.5036555,21.5832257 90.5036555,19.521203 C90.5036555,17.4601171 89.1246016,16.0351573 87.0925583,16.0351573" id="path4744-copy" fill="#4B4B4B" fill-rule="nonzero" transform="translate(87.092090, 19.520735) scale(1, -1) translate(-87.092090, -19.520735) "></path>
                <path d="M91.4085658,22.7086723 L93.7385297,22.7086723 L93.7385297,22.1306314 C94.1076515,22.5456591 94.7597041,22.8576326 95.5316745,22.8576326 C97.0147194,22.8576326 97.8897441,21.8936065 97.8897441,20.4096247 L97.8897441,16.0345015 L95.5757068,16.0345015 L95.5757068,19.8465735 C95.5757068,20.3955718 95.2937127,20.7956099 94.701619,20.7956099 C94.2406852,20.7956099 93.8556369,20.5286055 93.7385297,20.0686087 L93.7385297,16.0345015 L91.4085658,16.0345015 L91.4085658,22.7086723 Z" id="path4748-copy" fill="#4B4B4B" fill-rule="nonzero" transform="translate(94.649155, 19.446067) scale(1, -1) translate(-94.649155, -19.446067) "></path>
                <polygon id="path4750-copy" fill="#4B4B4B" fill-rule="nonzero" transform="translate(81.612131, 14.580593) scale(1, -1) translate(-81.612131, -14.580593) " points="82.776176 13.7505372 80.4480858 13.7505372 80.4480858 15.4106482 82.776176 15.4106482"></polygon>
                <polygon id="path4752-copy" fill="#4B4B4B" fill-rule="nonzero" transform="translate(70.284590, 14.580593) scale(1, -1) translate(-70.284590, -14.580593) " points="71.4486354 13.7505372 69.1205452 13.7505372 69.1205452 15.4106482 71.4486354 15.4106482"></polygon>
                <path d="M48.9478545,33.6135967 L51.2768815,33.6135967 L51.2768815,33.0355558 C51.647877,33.4505835 52.2989927,33.762557 53.0709631,33.762557 C54.5549449,33.762557 55.4290327,32.7985309 55.4290327,31.314549 L55.4290327,26.9403627 L53.1159322,26.9403627 L53.1159322,30.7514979 C53.1159322,31.3004962 52.8339382,31.7005342 52.2409076,31.7005342 C51.7809107,31.7005342 51.3958624,31.4335299 51.2768815,30.9744699 L51.2768815,26.9403627 L48.9478545,26.9403627 L48.9478545,33.6135967 Z" id="path4756-copy" fill="#4B4B4B" fill-rule="nonzero" transform="translate(52.188444, 30.351460) scale(1, -1) translate(-52.188444, -30.351460) "></path>
                <path d="M68.4847002,31.5695616 C68.1652319,31.7063427 67.921649,31.7672384 67.5618958,31.7672384 C67.0035289,31.7672384 66.4226775,31.4562019 66.333676,30.8556764 L66.333676,26.94055 L64.004649,26.94055 L64.004649,33.613784 L66.333676,33.613784 L66.333676,33.0207534 C66.6597023,33.4657606 67.1787212,33.7627443 67.8467004,33.7627443 C68.1427473,33.7627443 68.3797722,33.7027855 68.4847002,33.6437635 L68.4847002,31.5695616 Z" id="path4760-copy" fill="#4B4B4B" fill-rule="nonzero" transform="translate(66.244675, 30.351647) scale(1, -1) translate(-66.244675, -30.351647) "></path>
                <polygon id="path4764-copy" fill="#4B4B4B" fill-rule="nonzero" transform="translate(80.171994, 31.697724) scale(1, -1) translate(-80.171994, -31.697724) " points="77.9909904 27.0715227 79.0365231 29.8127669 76.5454197 36.3239246 78.9634482 36.3239246 80.2385109 32.5268423 81.484531 36.3239246 83.7985683 36.3239246 80.2891012 27.0715227"></polygon>
                <path d="M72.4806773,31.6263351 C71.5625572,31.6263351 71.1662666,32.3233569 71.1662666,33.169339 C71.1662666,34.015321 71.5316409,34.6804897 72.397297,34.6804897 C72.8423042,34.6804897 73.3275962,34.3404105 73.5055991,34.0434268 L73.5055991,32.2783877 C73.3275962,31.981404 72.9388005,31.6263351 72.4806773,31.6263351 L72.4806773,31.6263351 Z M75.8046467,36.2984421 L73.5055991,36.2984421 L73.5055991,35.7944129 C73.2086154,36.1504186 72.659617,36.4474024 71.9335527,36.4474024 C70.0495328,36.4474024 68.9815156,35.0083897 68.9815156,33.169339 C68.9815156,31.3302882 70.0495328,29.8762858 71.9335527,29.8762858 C72.5884159,29.8762858 73.0990031,30.1292373 73.4091028,30.4299685 C73.4091028,30.4299685 73.454072,30.4749376 73.4690617,30.491801 L73.4709354,29.9849613 C73.4353348,29.0986943 72.6811647,28.6911615 71.8117612,28.6911615 C70.8927043,28.6911615 70.1657031,28.9291232 69.4846079,29.5071641 L69.4846079,27.4854262 C70.1254183,27.0460402 70.9526632,26.922375 71.8876467,26.922375 C74.0227443,26.922375 75.7971519,27.985708 75.7971519,30.4477687 L75.8046467,36.2984421 Z" id="path4768-copy" fill="#4B4B4B" fill-rule="nonzero" transform="translate(72.393081, 31.684889) scale(1, -1) translate(-72.393081, -31.684889) "></path>
                <polygon id="path4772-copy" fill="#4B4B4B" fill-rule="nonzero" transform="translate(44.492536, 29.209712) scale(1, -1) translate(-44.492536, -29.209712) " points="43.5809742 28.2892497 47.1185471 28.2892497 47.1185471 30.2913136 43.5809742 30.2913136 43.5809742 31.7162734 47.7481151 31.7162734 47.7481151 33.7633064 41.2369574 33.7633064 41.2369574 24.6561174 47.7481151 24.6561174 47.7481151 26.7181401 43.5809742 26.7181401"></polygon>
                <path d="M58.5793088,31.1355156 C58.663626,31.9159177 59.2294877,32.2700497 59.7344538,32.2700497 C60.2384829,32.2700497 60.8408821,31.9215388 60.9364416,31.1355156 L58.5793088,31.1355156 Z M59.7213378,33.9488979 C57.7323899,33.9488979 56.3280409,32.392778 56.3280409,30.4300621 C56.3280409,27.9998545 57.7782959,26.9018578 60.0042686,26.9018578 C60.9964004,26.9018578 61.7955396,27.1079664 62.4119917,27.4021396 L62.4119917,29.0500715 C61.6475162,28.639728 60.9429996,28.5319894 60.4043067,28.5319894 C59.3503423,28.5319894 58.6392677,29.013534 58.5952354,29.8623267 L63.1033923,29.8623267 C63.1146346,30.0234661 63.1146346,30.1190255 63.1146346,30.2689227 C63.1146346,32.2447546 62.0466174,33.9488979 59.7213378,33.9488979 L59.7213378,33.9488979 Z" id="path4776-copy" fill="#4B4B4B" fill-rule="nonzero" transform="translate(59.721338, 30.425378) scale(1, -1) translate(-59.721338, -30.425378) "></path>
            </g>
        </g>
    </g>
</svg>