<?xml version="1.0" encoding="UTF-8"?>
<svg width="106px" height="48px" viewBox="0 0 106 48" version="1.1" xmlns="http://www.w3.org/2000/svg" xmlns:xlink="http://www.w3.org/1999/xlink">
    <!-- Generator: Sketch 53.2 (72643) - https://sketchapp.com -->
    <title>Group 40</title>
    <desc>Created with Sketch.</desc>
    <g id="Page-1" stroke="none" stroke-width="1" fill="none" fill-rule="evenodd">
        <g id="02-About" transform="translate(-1166.000000, -3137.000000)">
            <g id="Group-40" transform="translate(1166.500000, 3137.000000)">
                <rect id="Rectangle-Copy-82" fill="#FFFFFF" x="0" y="0" width="105" height="48"></rect>
                <g id="EY_logo_2019-Copy" transform="translate(34.641452, 5.238201)">
                    <path d="M6.96043895,32.5156608 L16.9474374,32.5156608 L16.9474374,37.0693181 L0.969389785,37.0693181 L0.969389785,17.2793073 L12.2960374,17.2793073 L14.946588,21.8329647 L6.96618852,21.8329647 L6.96618852,25.0987189 L14.1876451,25.0987189 L14.1876451,29.2499065 L6.96618852,29.2499065 L6.96043895,32.5156608 Z M27.5783874,17.2793073 L24.1861427,23.7360715 L20.8053971,17.2793073 L14.1818955,17.2793073 L21.1561207,29.2499065 L21.1561207,37.0693181 L27.1356708,37.0693181 L27.1356708,29.2499065 L34.1098959,17.2793073 L27.5783874,17.2793073 Z" id="Shape" fill="#4B4B4B"></path>
                    <polygon id="Path" fill="#FFE600" points="40.0664477 8.02825348 40.0664477 0.663057713 0.584168773 14.9392334"></polygon>
                </g>
            </g>
        </g>
    </g>
</svg>