<?xml version="1.0" encoding="UTF-8"?>
<svg width="106px" height="48px" viewBox="0 0 106 48" version="1.1" xmlns="http://www.w3.org/2000/svg" xmlns:xlink="http://www.w3.org/1999/xlink">
    <!-- Generator: Sketch 53.2 (72643) - https://sketchapp.com -->
    <title>Group 41</title>
    <desc>Created with Sketch.</desc>
    <g id="Page-1" stroke="none" stroke-width="1" fill="none" fill-rule="evenodd">
        <g id="02-About" transform="translate(-1342.000000, -3136.000000)">
            <g id="Group-41" transform="translate(1342.500000, 3136.000000)">
                <rect id="Rectangle-Copy-40" fill="#FFFFFF" x="0" y="0" width="105" height="48"></rect>
                <g id="H&amp;M-Logo-Copy" transform="translate(23.897155, 6.790276)" fill="#4B4B4B" fill-rule="nonzero">
                    <path d="M37.8880563,1.2058455 C39.8462835,0.244077513 40.8167243,0.370289591 40.8385584,1.34514286 C40.864729,2.61152396 40.677503,4.29556891 40.5425421,5.51409745 C39.8157765,12.1369983 38.6016605,17.5488261 38.5102918,24.3488347 C41.7088056,16.0683638 44.3894619,10.3131995 47.8447362,3.2250866 C48.9414652,0.966506624 49.6420601,1.38865902 50.5428142,0.988264703 C54.0503536,-0.573980641 54.1809781,0.38337487 53.7239063,2.29382557 C52.0224397,9.36976613 47.6662591,31.6488226 47.0005836,35.0793719 C46.8090212,36.0719511 45.7298661,35.6511681 45.4512714,35.2630222 C44.202388,33.5353851 42.7924492,33.5083776 42.9490161,32.3595358 C43.7323831,26.6399757 46.5522606,12.2897613 47.287775,8.90843398 C43.5408207,16.5901012 39.6547972,26.1930982 37.6573142,31.6380196 C37.2351618,32.794241 36.4648801,32.7094149 35.9862784,31.8634364 C35.3117019,30.6750344 34.0018807,30.0683187 33.7842238,28.6640097 C33.1010505,24.1991908 34.5675908,15.6888907 34.7720102,10.3049071 C32.7311632,16.1862834 29.3063197,27.6047868 27.8049361,32.763734 C27.1870371,34.8983081 25.1242798,34.5501028 25.6725682,32.4696195 C27.9528302,23.8118057 32.8660481,8.49936686 34.9896671,2.99442052 C35.4903311,1.69753246 36.8000763,1.74104862 37.8880563,1.2058455" id="path45125"></path>
                    <path d="M25.4508032,0.143959915 C24.789388,-0.0170194446 22.8702645,1.01869558 21.6909157,1.2231911 C21.3166919,1.28846534 20.9598138,1.68444718 20.8336017,1.96737829 C18.9449091,6.30606113 17.2521153,10.4419221 15.785575,14.2096456 C13.9099677,14.5299306 11.716738,14.9516265 9.26233535,15.502958 C11.0204034,10.9932536 12.7959692,6.54532393 14.5279428,2.26757893 C15.3808443,0.161305517 13.1354257,-0.0388536016 12.2650264,2.09351429 C11.1335302,4.86561538 9.01424759,10.059406 6.6686353,16.1130972 C4.94533452,16.5356299 3.11765581,17.0186441 1.20720512,17.5705081 C-0.181051668,17.9712828 -0.237577029,18.3411702 0.362976404,19.173683 C0.693684002,19.6372214 1.37693335,19.59051 1.69021927,19.9208372 C2.4996807,20.7768579 2.99144374,21.8007809 4.4404862,21.9557502 C3.14801062,25.4131547 1.85553503,28.9785889 0.684935123,32.4116487 C-0.0505031889,34.5666115 2.04268495,35.0074028 2.84780998,32.7270648 C4.14462196,29.0511665 5.51104459,25.3308392 6.91664698,21.621467 C8.08724688,21.3494149 10.9202097,20.7392757 13.5355918,20.1718159 C11.4598253,25.8612495 10.0933266,30.1821302 9.57554519,32.2853605 C9.47984007,32.6900152 9.64081943,32.9145951 9.72785175,33.0795305 C10.4284467,34.0991171 11.0942744,34.1408835 11.9951045,35.4015588 C12.2388559,35.7453517 13.0569901,35.9307518 13.3354327,35.0843169 C15.2588926,29.274301 17.2389539,23.822913 19.0840543,18.9358657 C19.8499235,18.7683437 21.2294314,18.4354298 22.0736601,17.1755914 C23.5749676,14.9396063 24.0057928,15.3931025 24.3670834,14.7133527 C24.8196667,13.8599948 24.5193139,13.0588257 22.9179649,13.2567786 C22.9179649,13.2567786 22.313075,13.2998383 21.1946641,13.4273437 C22.9701538,8.85586463 24.5237264,4.97843787 25.6421373,2.02367542 C26.0252621,1.02303198 26.0731147,0.291930073 25.4508032,0.143959915" id="path45127"></path>
                    <path d="M22.8310847,29.7940604 C23.2444882,30.8389047 24.5369638,30.5224996 24.0452008,29.2614439 C23.5446889,27.9767282 22.3001419,24.1093436 21.9736947,22.8634273 C21.5298603,21.1845556 23.4533202,21.6436815 22.478543,22.7412473 C21.6430631,23.6850611 21.0859498,24.0632409 19.5411261,25.8579021 C18.0484914,27.5903321 18.4532221,29.8384895 20.0503108,30.3350454 C21.8518951,30.8955061 23.440311,28.9102716 24.4237609,27.4537735 C25.3767801,26.0433783 24.4541918,25.2161148 23.4924999,26.0499209 C22.8745248,26.586037 22.1608446,27.4093444 21.4384155,27.8532549 C20.8509473,28.2105135 20.3896152,27.826704 21.1729821,26.7483857 C22.0824851,25.4998827 23.1007784,24.4537451 23.8579748,23.2739399 C25.4028745,20.869596 22.3479184,19.4836215 21.0336847,21.0454104 C20.3286773,21.8779232 20.5071544,22.6952206 20.6986407,23.3966524 C21.0076663,24.5202366 22.1565082,28.1069724 22.8310847,29.7940604" id="path45129"></path>
                </g>
            </g>
        </g>
    </g>
</svg>