<?xml version="1.0" encoding="UTF-8"?>
<svg width="105px" height="49px" viewBox="0 0 105 49" version="1.1" xmlns="http://www.w3.org/2000/svg" xmlns:xlink="http://www.w3.org/1999/xlink">
    <!-- Generator: Sketch 53.2 (72643) - https://sketchapp.com -->
    <title>Group 42</title>
    <desc>Created with Sketch.</desc>
    <defs>
        <polygon id="path-1" points="0 37.2748344 55.2235269 37.2748344 55.2235269 0.85767611 0 0.85767611"></polygon>
    </defs>
    <g id="Page-1" stroke="none" stroke-width="1" fill="none" fill-rule="evenodd">
        <g id="02-About" transform="translate(-583.000000, -3247.000000)">
            <g id="Group-42" transform="translate(583.000000, 3247.500000)">
                <rect id="Rectangle-Copy-30" fill="#FFFFFF" x="0" y="0" width="105" height="48"></rect>
                <g id="Group-13-Copy" transform="translate(22.695029, 5.510649)">
                    <path d="M54.9787387,11.2023788 C52.3901359,-1.43410462 27.8534973,-2.23588426 12.0371668,7.39201651 L12.0371668,8.45560175 C27.8349527,0.331992291 50.2444208,0.382171697 52.2854136,12.022703 C52.9693808,15.873427 50.8007577,19.8866886 46.9249441,22.1960321 L46.9249441,25.2166141 C51.5872654,23.5072418 56.3684901,17.9765986 54.9787387,11.2023788 M26.2313935,33.321679 C15.3195544,34.3274489 3.94628301,32.743525 2.35254145,24.2152077 C1.5736698,20.0110462 3.49139579,15.5516242 6.03200092,12.7819392 L6.03200092,11.3016467 C1.45476643,15.3170901 -1.02475073,20.3939369 0.403180617,26.3947393 C2.22818379,34.0896421 11.9869874,38.4465236 26.8869983,36.9989568 C32.7852602,36.4273479 40.4976167,34.5314391 45.8635406,31.5839444 L45.8635406,27.4005091 C40.9939565,30.3021878 32.9401618,32.6987999 26.2313935,33.321679" id="Fill-1" fill="#4B4B4B"></path>
                    <path d="M44.9808194,9.36199453 L42.1205932,9.36199453 L42.1205932,22.1053819 C42.1205932,23.5987646 42.8416495,24.8968841 44.9808194,25.1052377 L44.9808194,9.36199453 Z" id="Fill-3" fill="#4B4B4B"></path>
                    <path d="M10.9132572,14.0135164 L8.04648589,14.0135164 L8.04539503,22.341116 C8.04539503,23.8388622 8.76972385,25.1358907 10.9132572,25.3387901 L10.9132572,14.0135164 Z" id="Fill-5" fill="#4B4B4B"></path>
                    <mask id="mask-2" fill="white">
                        <use xlink:href="#path-1"></use>
                    </mask>
                    <g id="Clip-8"></g>
                    <polygon id="Fill-7" fill="#4B4B4B" mask="url(#mask-2)" points="8.04724949 12.4611183 10.904203 12.4611183 10.904203 9.74924864 8.04724949 9.74924864"></polygon>
                    <path d="M28.0485425,25.2076691 C25.7315629,25.2076691 24.7519737,23.5986556 24.7519737,22.0114591 L24.7519737,10.9578087 L27.588201,10.9578087 L27.588201,14.0132982 L29.7240983,14.0132982 L29.7240983,16.305188 L27.588201,16.305188 L27.588201,21.8369221 C27.588201,22.4838001 27.8958225,22.8437828 28.5688811,22.8437828 L29.7240983,22.8437828 L29.7240983,25.2076691 L28.0485425,25.2076691" id="Fill-9" fill="#4B4B4B" mask="url(#mask-2)"></path>
                    <path d="M35.5723989,16.1707945 C34.6026274,16.1707945 33.8553906,16.6704068 33.540133,17.3456471 C33.3546874,17.749264 33.2881451,18.0656125 33.2674188,18.564134 L37.6384814,18.564134 C37.5828477,17.3456471 37.0297834,16.1707945 35.5723989,16.1707945 M33.2674188,20.4982228 C33.2674188,21.950153 34.1750116,23.0159199 35.7807526,23.0159199 C37.0385103,23.0159199 37.6592077,22.6679367 38.3857182,21.950153 L40.1387249,23.6191637 C39.0140517,24.7285649 37.8370173,25.4038051 35.7600263,25.4038051 C33.0459749,25.4038051 30.4453727,23.9235127 30.4453727,19.6037203 C30.4453727,15.9122614 32.7176271,13.8254527 35.6967566,13.8254527 C38.7249746,13.8254527 40.4659819,16.2689716 40.4659819,19.4749993 L40.4659819,20.4982228 L33.2674188,20.4982228" id="Fill-10" fill="#4B4B4B" mask="url(#mask-2)"></path>
                    <path d="M18.6167777,16.3054062 C19.4480105,16.3054062 19.793812,16.7166591 19.793812,17.3831726 L19.793812,25.2242501 L22.6311302,25.2242501 L22.6311302,17.3668097 C22.6311302,15.7752499 21.7824437,14.0178798 19.2909271,14.0178798 L13.4319361,14.0135164 L13.4319361,25.2242501 L16.2692542,25.2242501 L16.2692542,16.3054062 L18.6167777,16.3054062 Z" id="Fill-11" fill="#4B4B4B" mask="url(#mask-2)"></path>
                </g>
            </g>
        </g>
    </g>
</svg>