<?xml version="1.0" encoding="UTF-8"?>
<svg width="106px" height="49px" viewBox="0 0 106 49" version="1.1" xmlns="http://www.w3.org/2000/svg" xmlns:xlink="http://www.w3.org/1999/xlink">
    <!-- Generator: Sketch 53.2 (72643) - https://sketchapp.com -->
    <title>Group 44</title>
    <desc>Created with Sketch.</desc>
    <g id="Page-1" stroke="none" stroke-width="1" fill="none" fill-rule="evenodd">
        <g id="02-About" transform="translate(-973.000000, -3244.000000)">
            <g id="Group-44" transform="translate(973.500000, 3244.500000)">
                <rect id="Rectangle-Copy-39" fill="#FFFFFF" x="0" y="0" width="105" height="48"></rect>
                <g id="Untitled-1-Copy-3" transform="translate(4.472084, 11.851001)">
                    <path d="M16.0798498,6.80266329 C15.8295368,6.59396073 15.4953526,6.34364769 15.1618186,6.26042673 L14.619582,16.8606965 L17.2904547,9.51579661 C17.5407678,8.38841267 16.9146601,7.47038146 16.0798498,6.80266329" id="Fill-1" fill="#4B4B4B" fill-rule="nonzero"></path>
                    <path d="M11.6977462,6.13494512 L13.2418851,16.6936044 L14.7444135,6.13494512 C13.8679927,5.80076096 12.6996485,5.75915048 11.6977462,6.13494512" id="Fill-2" fill="#4B4B4B" fill-rule="nonzero"></path>
                    <path d="M10.4039203,6.80266329 C9.56911004,7.51199194 8.94300235,8.43002315 9.19396556,9.51514645 L11.8648382,16.8600463 L11.3226017,6.25977656 C10.9884175,6.34364769 10.6548835,6.55235025 10.4039203,6.80266329" id="Fill-3" fill="#4B4B4B" fill-rule="nonzero"></path>
                    <path d="M5.06217494,7.80391547 C6.8150164,10.8921933 8.65107883,14.1891736 10.4039203,17.1519698 C9.7778126,14.5643181 9.15170491,10.2660856 8.2336737,9.05548068 C7.19081105,7.5952129 5.06217494,7.80391547 5.06217494,7.80391547" id="Fill-4" fill="#4B4B4B" fill-rule="nonzero"></path>
                    <path d="M1.93228666,9.34805437 L9.19396556,17.6948566 L4.68703046,7.84617611 C3.51803604,7.88778659 2.51678387,8.47163363 1.93228666,9.34805437" id="Fill-5" fill="#4B4B4B" fill-rule="nonzero"></path>
                    <path d="M17.0817521,11.6021721 L15.8717974,17.3197121 C17.4159363,14.6488394 18.9600752,12.0195772 20.4626036,9.34870453 C19.0432962,9.43192549 17.5823782,9.97416206 17.0817521,11.6021721" id="Fill-6" fill="#4B4B4B" fill-rule="nonzero"></path>
                    <path d="M20.8793586,9.34805437 L17.0401417,17.819688 L23.759584,10.5163986 C23.0079947,9.72384901 22.0060924,9.34805437 20.8793586,9.34805437" id="Fill-7" fill="#4B4B4B" fill-rule="nonzero"></path>
                    <path d="M0.972644967,13.1047005 C3.35159412,14.8991524 5.68828263,16.7774755 8.06723178,18.5719275 L1.68197362,9.59901757 C1.09747641,10.6418802 0.930384323,11.8108746 0.972644967,13.1047005" id="Fill-8" fill="#4B4B4B" fill-rule="nonzero"></path>
                    <path d="M24.5937441,11.5599114 C24.4682625,11.2679879 24.3018206,11.0176749 24.0515075,10.8089723 L18.2500964,18.6967589 C20.5451744,16.9855279 22.7570315,15.2326864 24.9695387,13.5214555 C25.0111492,12.8121268 24.9272781,12.1444086 24.5937441,11.5599114" id="Fill-9" fill="#4B4B4B" fill-rule="nonzero"></path>
                    <path d="M0.972644967,16.7768253 L7.14920057,19.6147901 C5.10443558,17.5700251 3.01740995,15.6084811 0.972644967,13.6053266 L0.972644967,16.7768253" id="Fill-10" fill="#4B4B4B" fill-rule="nonzero"></path>
                    <path d="M25.0111492,16.9855279 L25.0111492,14.1059527 L19.1681276,19.7402717 C21.1712821,18.7799799 23.0079947,17.9035591 25.0111492,16.9855279" id="Fill-11" fill="#4B4B4B" fill-rule="nonzero"></path>
                    <path d="M0.972644967,19.5731796 C2.85096803,19.9905848 4.85412254,20.4912108 6.52309288,20.8670055 L0.972644967,17.1942305 L0.972644967,19.5731796" id="Fill-12" fill="#4B4B4B" fill-rule="nonzero"></path>
                    <path d="M25.0111492,19.7402717 L25.0111492,17.5284146 C23.2583078,18.6135379 21.4638558,19.7818822 19.8364959,20.908616 L25.0111492,19.7402717" id="Fill-13" fill="#4B4B4B" fill-rule="nonzero"></path>
                    <polyline id="Fill-14" fill="#4B4B4B" fill-rule="nonzero" points="0.972644967 22.3272733 6.39761128 22.3272733 0.971994803 20.0321952 0.971994803 22.3272733"></polyline>
                    <path d="M25.0111492,22.3272733 L25.0111492,20.2408978 C23.2166973,20.9918369 21.6725584,21.6179446 20.0029379,22.3272733 L25.0111492,22.3272733" id="Fill-15" fill="#4B4B4B" fill-rule="nonzero"></path>
                    <path d="M23.1328261,6.51073977 C23.1744366,3.25536989 18.4171885,3.25536989 18.5004094,6.46912929 C18.458799,9.47353597 23.2583078,9.64062805 23.1328261,6.51073977" id="Fill-16" fill="#4B4B4B" fill-rule="nonzero"></path>
                    <g id="Fill-17" transform="translate(0.325082, 0.000000)"></g>
                    <path d="M7.60821618,4.84111927 C7.77530826,1.58574938 2.68387595,1.71123098 2.89257851,4.84111927 C2.72548643,8.09648915 7.9001397,8.13809963 7.60821618,4.84111927" id="Fill-18" fill="#4B4B4B" fill-rule="nonzero"></path>
                    <path d="M13.2418851,5.46722696 C15.1202081,5.50883744 15.8711472,4.13179062 15.9127577,2.83796476 C15.9966289,0.834810252 14.7444135,0 13.2418851,0 C11.7393566,0 10.5294019,0.876420732 10.6126229,2.83796476 C10.6548835,3.96469853 11.1138991,5.42561648 13.2418851,5.46722696" id="Fill-19" fill="#4B4B4B" fill-rule="nonzero"></path>
                    <path d="M50.1802882,19.999687 L48.7622811,14.1137546 L46.2741044,14.1137546 L46.2741044,22.2473031 L47.6654548,22.2473031 L47.6654548,15.3172077 L49.4579563,22.246653 L50.8759634,22.246653 C50.9026201,22.246653 52.6684649,15.3172077 52.6684649,15.3172077 L52.6684649,22.246653 L54.0598153,22.246653 L54.0598153,14.1131045 L51.6249521,14.1131045 L50.1802882,19.999687" id="Fill-22" fill="#4B4B4B" fill-rule="nonzero"></path>
                    <path d="M57.6181615,14.1137546 L54.7821472,22.2739598 L56.1734976,22.2739598 L56.9224863,19.9197169 L59.9457477,19.9197169 L60.7486999,22.2739598 L62.2200205,22.2739598 L59.3840062,14.1137546 L57.6181615,14.1137546 L57.6181615,14.1137546 Z M57.2969806,18.7689271 L58.3938068,15.397828 L58.4204636,15.397828 L59.5712534,18.7689271 L57.2969806,18.7689271 L57.2969806,18.7689271 Z" id="Fill-23" fill="#4B4B4B" fill-rule="nonzero"></path>
                    <polyline id="Fill-24" fill="#4B4B4B" fill-rule="nonzero" points="67.9726693 20.4008381 64.7081972 14.1131045 62.8350754 14.1131045 62.8350754 22.246653 64.1731124 22.246653 64.1731124 16.1195098 67.383621 22.246653 69.3100562 22.246653 69.3100562 14.1131045 67.9453625 14.1131045 67.9453625 20.4008381"></polyline>
                    <path d="M94.8088282,21.0698566 L91.4377292,21.0698566 L91.4377292,18.7689271 L93.9259058,18.7689271 L93.9259058,17.5914805 L91.4377292,17.5914805 L91.4377292,15.290551 C91.7589101,15.290551 94.514304,15.290551 94.514304,15.290551 L94.514304,14.1131045 C93.6846951,14.1131045 90.0190719,14.1131045 90.0190719,14.1131045 L90.0190719,22.2733097 L94.7815213,22.2733097 L94.8088282,21.0698566" id="Fill-25" fill="#4B4B4B" fill-rule="nonzero"></path>
                    <path d="M81.8855234,14.0864478 L81.8855234,14.0864478 L81.6176559,14.0864478 L81.6176559,20.4541515 L78.3531837,14.1131045 L76.480062,14.1131045 L76.480062,21.0698566 L72.172077,21.0698566 L72.172077,18.7689271 L74.6602537,18.7689271 L74.6602537,17.5914805 L72.172077,17.5914805 L72.172077,15.290551 C72.4932579,15.290551 75.249302,15.290551 75.249302,15.290551 L75.249302,14.1131045 C74.4196931,14.1131045 70.7813767,14.1131045 70.7813767,14.1131045 L70.7813767,22.2733097 L77.710822,22.2733097 L77.818099,22.2733097 L77.818099,16.0395397 L81.0286076,22.246653 L82.9550428,22.246653 L82.9550428,15.3445146 L85.4432194,15.3445146 L85.4432194,22.2739598 L86.8612265,22.2739598 L86.8612265,15.3445146 L89.2960898,15.3445146 L89.2960898,14.1137546 L81.8848732,14.1137546" id="Fill-26" fill="#4B4B4B" fill-rule="nonzero"></path>
                    <path d="M44.2403922,18.1538722 C44.6955068,17.7793778 45.0160376,17.1636728 45.0160376,16.4146841 C45.0160376,15.6656955 44.6948567,15.0766471 44.2403922,14.7021528 C43.7319642,14.2743451 43.036289,14.1137546 41.8588424,14.1137546 L39.4779428,14.1137546 L39.4779428,17.565474 L39.4779428,17.565474 L39.4779428,21.0971635 L35.1433011,21.0971635 L35.1433011,18.7962339 L37.6314777,18.7962339 L37.6314777,17.6187874 L35.1433011,17.6187874 L35.1433011,15.3178579 C35.464482,15.3178579 38.2205261,15.3178579 38.2205261,15.3178579 L38.2205261,14.1404114 C37.3909171,14.1404114 33.7252939,14.1404114 33.7252939,14.1404114 L33.7252939,22.3006166 L40.8959499,22.3006166 L40.8959499,18.7955838 L41.5916251,18.7955838 C42.2339869,19.8124399 43.6253373,22.2739598 43.6253373,22.2739598 L45.3112119,22.2739598 L43.1175594,18.6889569 C43.5980304,18.5816799 43.945868,18.3944328 44.2403922,18.1538722 L44.2403922,18.1538722 Z M40.9226066,17.5914805 L40.9226066,15.290551 L42.1267099,15.290551 C43.1968794,15.290551 43.6253373,15.7183588 43.6253373,16.414034 C43.6253373,17.1896793 43.1975296,17.5648238 42.1267099,17.5648238 L40.9226066,17.5648238 L40.9226066,17.5914805 Z" id="Fill-27" fill="#4B4B4B" fill-rule="nonzero"></path>
                    <path d="M32.1200396,14.7288095 C31.6116116,14.3010018 30.9159364,14.1131045 29.7384898,14.1131045 L27.35694,14.1131045 L27.35694,22.2733097 L28.7749472,22.2733097 L28.7749472,18.9022106 L29.7378397,18.9022106 C30.9152862,18.9022106 31.6109614,18.6883068 32.0920826,18.2598489 C32.5471972,17.8853545 32.8677279,17.2429928 32.8677279,16.4940041 C32.8677279,15.7450155 32.5484975,15.1033039 32.1200396,14.7288095 L32.1200396,14.7288095 Z M29.9797006,17.6987575 L28.7755973,17.6987575 L28.7755973,15.290551 L29.9797006,15.290551 C31.0498701,15.290551 31.478328,15.7723224 31.478328,16.4679976 C31.4776779,17.2169862 30.9965567,17.6987575 29.9797006,17.6987575 L29.9797006,17.6987575 Z" id="Fill-29" fill="#4B4B4B" fill-rule="nonzero"></path>
                    <polygon id="Fill-20" fill="#4B4B4B" fill-rule="nonzero" points="39.9330574 4.45167118 41.3510645 4.45167118 41.3510645 12.5852197 39.9330574 12.5852197"></polygon>
                    <path d="M34.9293972,4.45167118 L32.5211907,11.3544597 L30.1669477,8.41116841 L33.2974862,4.45102102 L31.6655752,4.45102102 L28.7762475,8.30389139 L28.7762475,4.45167118 L27.3582403,4.45167118 L27.3582403,12.5852197 L28.7762475,12.5852197 L28.7762475,8.57175885 L31.7728522,12.5852197 L32.0940331,12.5852197 L32.0940331,12.5852197 L33.4853835,12.5852197 L34.2343721,10.2309767 L37.2309769,10.2309767 L38.0066222,12.5852197 L39.4779428,12.5852197 L36.6419285,4.45167118 L34.9293972,4.45167118 L34.9293972,4.45167118 Z M34.5815596,9.10684362 L35.6783858,5.73574458 L35.7050425,5.73574458 L36.8285255,9.10684362 L34.5815596,9.10684362 L34.5815596,9.10684362 Z" id="Fill-21" fill="#4B4B4B" fill-rule="nonzero"></path>
                    <path d="M59.0095119,8.49178871 C59.4646265,8.11729439 59.7851573,7.50158932 59.7851573,6.75260069 C59.7851573,6.00361205 59.4639764,5.41456369 59.0095119,5.04006937 C58.5277406,4.61226163 57.8054087,4.45167118 56.6279621,4.45167118 L54.2464123,4.45167118 L54.2464123,7.90339052 L54.2464123,7.90339052 L54.2464123,11.43508 L49.9117706,11.43508 L49.9117706,9.13415049 L52.3999473,9.13415049 L52.3999473,7.95670395 L49.9117706,7.95670395 L49.9117706,5.65512428 C50.2329515,5.65512428 52.9889956,5.65512428 52.9889956,5.65512428 L52.9889956,4.4783279 C52.1593867,4.4783279 48.4937635,4.4783279 48.4937635,4.4783279 L48.4937635,12.6385331 L55.6644194,12.6385331 L55.6644194,9.13350033 L56.3600946,9.13350033 C57.0024564,10.1503564 58.3938068,12.6118764 58.3938068,12.6118764 L60.0796814,12.6118764 L57.886029,9.02687347 C58.394457,8.91959646 58.7422946,8.7323493 59.0095119,8.49178871 L59.0095119,8.49178871 Z M55.6917263,7.92939707 L55.6917263,5.62846757 L56.8958296,5.62846757 C57.9659991,5.62846757 58.394457,6.05627531 58.394457,6.75195052 C58.394457,7.52759587 57.9666493,7.90274035 56.8958296,7.90274035 L55.6917263,7.90274035 L55.6917263,7.92939707 Z" id="Fill-28" fill="#4B4B4B" fill-rule="nonzero"></path>
                    <path d="M45.4978089,7.84942693 C44.374326,7.4482759 43.8658979,7.127095 43.8658979,6.48473322 C43.8658979,6.00296188 44.374326,5.44122041 45.3372185,5.44122041 C46.0595504,5.44122041 46.7552256,5.68178099 47.1030632,5.86902815 L47.1030632,4.69223177 C46.7285689,4.50498461 46.0595504,4.31773745 45.3638752,4.31773745 C43.5980304,4.31773745 42.3939272,5.30793684 42.3939272,6.61866695 C42.3939272,7.7961135 43.3035063,8.51844542 44.6682,8.97290988 C45.7383695,9.3474042 46.1934841,9.72189852 46.1934841,10.3642603 C46.1934841,11.0599355 45.6050859,11.5417069 44.6148865,11.5417069 C43.8392412,11.5417069 42.8756985,11.2738394 42.3672705,10.9533087 L42.3672705,12.2107253 C42.8490418,12.4785928 43.7053075,12.6924967 44.5076095,12.6924967 C46.6212919,12.6924967 47.638148,11.5690137 47.638148,10.2576334 C47.6654548,9.05353019 46.915816,8.35785498 45.4978089,7.84942693" id="Fill-30" fill="#4B4B4B" fill-rule="nonzero"></path>
                </g>
            </g>
        </g>
    </g>
</svg>