<?xml version="1.0" encoding="UTF-8"?>
<svg width="105px" height="49px" viewBox="0 0 105 49" version="1.1" xmlns="http://www.w3.org/2000/svg" xmlns:xlink="http://www.w3.org/1999/xlink">
    <!-- Generator: Sketch 53.2 (72643) - https://sketchapp.com -->
    <title>Group 45</title>
    <desc>Created with Sketch.</desc>
    <g id="Page-1" stroke="none" stroke-width="1" fill="none" fill-rule="evenodd">
        <g id="02-About" transform="translate(-1167.000000, -3242.000000)">
            <g id="Group-45" transform="translate(1167.000000, 3242.500000)">
                <rect id="Rectangle-Copy-36" fill="#FFFFFF" x="0" y="0" width="105" height="48"></rect>
                <g id="kudo-logo-copy" transform="translate(11.648521, 11.895365)" fill-rule="nonzero">
                    <path d="M69.747401,0.32884206 C63.0701639,0.32884206 57.6571938,5.7418122 57.6571938,12.4190492 C57.6571938,19.0962863 63.0701639,24.5092564 69.747401,24.5092564 C72.9541244,24.5095181 76.0296032,23.2358581 78.2972225,20.9684855 C80.5648417,18.7011129 81.8388363,15.6257727 81.8389235,12.4190492 C81.8389235,9.21229902 80.564957,6.13690816 78.2973188,3.86951667 C76.0296806,1.60212519 72.9541512,0.328493178 69.747401,0.32884206 Z M69.747401,19.153077 C66.0281185,19.153077 63.0130444,16.1380028 63.0130444,12.4187204 C63.0130444,10.6326882 63.7225654,8.9198121 64.9855117,7.65692748 C66.248458,6.39404286 67.9613688,5.68460548 69.747401,5.68469269 C71.5333762,5.68469269 73.2462025,6.39416858 74.5090776,7.65704375 C75.7719528,8.91991892 76.4814287,10.6327452 76.4814287,12.4187204 C76.4814287,16.1378744 73.466555,19.1528953 69.747401,19.153077 L69.747401,19.153077 Z" id="Path_1561" fill="#D77B2E"></path>
                    <path d="M33.3350485,0.32884206 L33.3350485,15.9208883 C33.3350485,17.5020238 32.053285,18.7837873 30.4721495,18.7837873 C29.7128348,18.7838746 28.9845945,18.4822766 28.4476779,17.94536 C27.9107613,17.4084433 27.6091633,16.6802031 27.6092505,15.9208883 L27.6092505,0.32884206 L21.8850968,0.32884206 L21.8850968,15.9208883 C21.8850967,20.663471 25.7292381,24.5083485 30.4718207,24.5092564 C35.2150986,24.5092564 39.060336,20.6641663 39.0605176,15.9208883 L39.0605176,0.32884206 L33.3350485,0.32884206 Z" id="Path_1562" fill="#A62830"></path>
                    <path d="M47.9698355,0.32884206 L40.9138714,0.32884206 L40.9138714,24.5092564 L47.9698355,24.5092564 C54.6470726,24.5092564 60.0600427,19.0962863 60.0600427,12.4190492 C60.0600427,9.21252693 58.7862567,6.13733543 56.518903,3.86998176 C54.2515494,1.60262809 51.1763578,0.32884206 47.9698355,0.32884206 L47.9698355,0.32884206 Z M47.9698355,18.7834585 L46.638354,18.7834585 L46.638354,6.05464001 L47.9685202,6.05464001 C49.6565234,6.0545528 51.2754203,6.72504834 52.4690497,7.91861605 C53.6626791,9.11218376 54.3332582,10.731046 54.3332582,12.4190492 C54.3332583,15.9336302 51.4844164,18.7829137 47.9698355,18.7834585 Z" id="Path_1563" fill="#4B7F4E"></path>
                    <polygon id="Path_1564" fill="#1B697D" points="30.4718207 24.5092564 9.46900712 11.674222 20.8140582 0.329170902 12.7163225 0.329170902 6.05431117 6.99085336 6.05431117 0.32884206 0.32719785 0.32884206 0.32719785 24.5092564 6.05431117 24.5092564 6.05431117 16.298399 19.4911266 24.5092564"></polygon>
                    <polygon id="Path_1565" fill="#009D90" points="13.9093615 7.2335388 20.8150447 0.327855534 13.9093615 0.327855534"></polygon>
                    <polygon id="Path_1566" fill="#458CBE" points="0.32719785 11.6738931 0.32719785 24.5092564 6.05431117 24.5092564 6.05431117 16.298399 19.4911266 24.5092564 30.4718207 24.5092564 9.46900712 11.674222 0.32719785 11.674222"></polygon>
                    <polygon id="Path_1567" fill="#32547D" points="0.32719785 8.811323 0.32719785 14.537121 14.1523757 14.537121 9.4680206 11.676195 12.3312484 8.81296721"></polygon>
                    <rect id="Rectangle_1030" fill="#3B6447" x="40.9135426" y="8.81099416" width="5.72579795" height="5.72579795"></rect>
                    <g id="Group_1318" transform="translate(33.334720, 8.810994)" fill="#DA3236">
                        <g id="Group_1317">
                            <rect id="Rectangle_1031" x="0" y="0" width="5.72579795" height="5.72579795"></rect>
                        </g>
                    </g>
                    <polygon id="Path_1568" fill="#D77B2E" points="21.8834526 0.32884206 27.6092505 14.5367921 27.6092505 0.32884206"></polygon>
                    <polygon id="Rectangle_1032" fill="#A62830" transform="translate(43.776442, 24.001524) rotate(-90.000000) translate(-43.776442, -24.001524) " points="43.2687094 21.1386253 44.2841737 21.1386253 44.2841737 26.8644233 43.2687094 26.8644233"></polygon>
                    <polygon id="Rectangle_1033" fill="#F8C73E" transform="translate(43.776442, 21.138954) rotate(-90.000000) translate(-43.776442, -21.138954) " points="41.4212747 18.2760552 46.1316084 18.2760552 46.1316084 24.0018531 41.4212747 24.0018531"></polygon>
                    <g id="Group_1321" transform="translate(52.960343, 5.839248)" fill="#009D90">
                        <g id="Group_1320">
                            <g id="Group_1319">
                                <path d="M1.37357329,6.57980078 C1.37519836,8.01266251 0.8909852,9.40374654 5.68434189e-14,10.5259055 L5.36012558,12.829773 C6.50155333,10.9447547 7.10340504,8.78247932 7.10002892,6.57881426 C7.10336166,4.37525854 6.50151093,2.2131004 5.36012558,0.328184376 L5.68434189e-14,2.63205185 C0.89133656,3.75465213 1.37557048,5.14637542 1.37357329,6.57980078 Z" id="Path_1569"></path>
                            </g>
                        </g>
                    </g>
                    <path d="M58.8587827,17.6782203 C59.6518914,16.038491 60.0626215,14.2401833 60.0600427,12.4187204 C60.0625832,10.5973672 59.6518537,8.79917494 58.8587827,7.15954934 C58.0656197,8.79915579 57.6547787,10.5973443 57.6571938,12.4187204 C57.6547289,14.2402075 58.0655712,16.0385139 58.8587827,17.6782203 L58.8587827,17.6782203 Z" id="Path_1570" fill="#F8C73E"></path>
                    <circle id="Ellipse_181" fill="#FFFFFF" cx="30.4721495" cy="21.6463575" r="1"></circle>
                    <circle id="Ellipse_182" fill="#FFFFFE" cx="65.2481839" cy="3.95366809" r="1"></circle>
                    <path d="M30.4721495,24.5092564 L22.8305177,19.8396992 C24.3000048,22.7065444 27.2506291,24.5095767 30.4721495,24.5092564 L30.4721495,24.5092564 Z" id="Path_1571" fill="#DA3236"></path>
                    <path d="M81.2897573,8.81099416 L75.4320937,8.81099416 C76.1188982,9.88883184 76.4830028,11.1406625 76.4814287,12.4187204 C76.4815428,13.1384729 76.3661882,13.853583 76.1397618,14.5367921 L81.6488528,14.5367921 C81.7734453,13.8376322 81.8364955,13.1288945 81.8372793,12.4187204 C81.8384745,11.1953607 81.6538621,9.9789146 81.2897573,8.81099416 L81.2897573,8.81099416 Z" id="Path_1572" fill="#DA3236"></path>
                    <path d="M76.1397618,14.5361344 C75.4779445,16.5258431 73.9289916,18.0949674 71.948012,18.782472 L71.948012,24.3027436 C76.8994933,23.3841326 80.7637183,19.4937094 81.6488528,14.5361344 L76.1397618,14.5361344 Z" id="Path_1573" fill="#F8C73E"></path>
                    <path d="M71.9483409,6.05464001 L71.9483409,0.532066453 C71.6142373,0.470572988 71.2761877,0.420588995 70.9332054,0.387047105 L70.9332054,5.79090868 C71.2779887,5.85200613 71.6174187,5.94018976 71.9483409,6.05464001 L71.9483409,6.05464001 Z" id="Path_1574" fill="#A62830"></path>
                    <path d="M69.747401,19.1534058 C68.0667674,19.1557788 66.4464631,18.5272317 65.2070786,17.3921277 L65.2070786,23.6256578 C66.6491843,24.2110268 68.1910191,24.5115321 69.747401,24.5105718 C70.1472729,24.5105718 70.5425411,24.4898548 70.9312324,24.4520379 L70.9312324,19.0481763 C70.5404719,19.1179055 70.144334,19.1531178 69.747401,19.1534058 Z" id="Path_1575" fill="#1B697D"></path>
                    <path d="M71.9483409,18.7834585 C71.617393,18.8976622 71.2779652,18.9856253 70.9332054,19.0465321 L70.9332054,24.4503937 C71.2761877,24.4175095 71.6145662,24.3668678 71.9483409,24.3053744 L71.9483409,18.7834585 Z" id="Path_1576" fill="#A62830"></path>
                </g>
            </g>
        </g>
    </g>
</svg>