<?xml version="1.0" encoding="UTF-8"?>
<svg width="105px" height="49px" viewBox="0 0 105 49" version="1.1" xmlns="http://www.w3.org/2000/svg" xmlns:xlink="http://www.w3.org/1999/xlink">
    <!-- Generator: Sketch 53.2 (72643) - https://sketchapp.com -->
    <title>Group 46</title>
    <desc>Created with Sketch.</desc>
    <defs>
        <polygon id="path-1" points="0.182196979 0.370516451 10.983121 0.370516451 10.983121 13.7191221 0.182196979 13.7191221"></polygon>
        <polygon id="path-3" points="0.667478376 0.299174829 9.68903294 0.299174829 9.68903294 9.50042183 0.667478376 9.50042183"></polygon>
    </defs>
    <g id="Page-1" stroke="none" stroke-width="1" fill="none" fill-rule="evenodd">
        <g id="02-About" transform="translate(-1341.000000, -3242.000000)">
            <g id="Group-46" transform="translate(1341.000000, 3242.500000)">
                <rect id="Rectangle-Copy-42" fill="#FFFFFF" x="0" y="0" width="105" height="48"></rect>
                <g id="Group-27-Copy" transform="translate(28.778752, 16.366931)">
                    <g id="Group-3" transform="translate(58.058133, 0.685192)">
                        <mask id="mask-2" fill="white">
                            <use xlink:href="#path-1"></use>
                        </mask>
                        <g id="Clip-2"></g>
                        <path d="M2.96582057,0.891561809 C3.85991583,0.309924872 5.01685609,0.253977944 6.0249564,0.532656984 C6.03340122,1.13118356 6.0249564,1.73076574 6.02917881,2.33140352 C5.54993531,2.12028303 4.98624362,1.98199911 4.48166566,2.18889719 C4.08159234,2.34829316 3.84408179,2.7589225 3.78180125,3.16849624 C3.70685348,3.68890824 3.75541119,4.21670945 3.74274396,4.73923265 C4.76562271,4.74239946 5.78955706,4.74028825 6.81349142,4.74134385 C6.82088063,4.07631433 6.8050466,3.4112848 6.82193623,2.74731087 C7.51863384,2.54991322 8.20688662,2.32718111 8.89830621,2.11922743 C8.90463982,2.99326624 8.89091699,3.87047185 8.90675102,4.74556626 C9.59817061,4.73606584 10.2906458,4.74345506 10.983121,4.74134385 L10.983121,6.44614177 C10.2885346,6.4165849 9.5928926,6.43875255 8.89830621,6.43558575 C8.90147301,7.4151848 8.89830621,8.39583945 8.89936181,9.3754385 C8.91097343,9.91801815 8.86980494,10.4637646 8.93314109,11.0052886 C8.97219838,11.3240806 9.08831464,11.6777074 9.38810573,11.8423814 C9.88846128,12.122116 10.5228783,11.9996661 10.983121,11.6924858 L10.983121,13.4131178 C10.3824832,13.6738516 9.71323128,13.7530218 9.06403579,13.7065753 C8.44861957,13.66224 7.81103571,13.4373966 7.40990679,12.9475971 C6.94544172,12.395517 6.82615864,11.6460393 6.81665822,10.9461749 C6.81138021,9.44194145 6.81771382,7.937708 6.81454702,6.43347454 C5.79061266,6.43241894 4.76562271,6.43136334 3.74274396,6.43347454 C3.74168836,8.79380157 3.74168836,11.1541286 3.74168836,13.5144556 L1.64315074,13.5144556 C1.64315074,11.1551842 1.63998393,8.79591277 1.64420634,6.43664135 C1.15757362,6.42714093 0.670940902,6.43875255 0.184308183,6.42925213 C0.185363786,5.86872724 0.187474991,5.30820236 0.182196979,4.74662187 C0.666718492,4.73606584 1.15124001,4.74028825 1.63787272,4.74451066 C1.6727076,3.99925535 1.55975814,3.23288799 1.78143465,2.50663352 C1.97038749,1.85216002 2.38840605,1.26102266 2.96582057,0.891561809" id="Fill-1" fill="#4B4B4B" mask="url(#mask-2)"></path>
                    </g>
                    <path d="M16.0859031,1.69920322 C16.5102553,1.63481148 16.9673311,1.77942901 17.2481214,2.11088817 C17.5764137,2.4740154 17.6365831,3.05037433 17.3937945,3.4736709 C17.1246159,3.9518588 16.5218669,4.17353531 15.9961769,4.05847465 C15.4514861,3.96135922 14.997577,3.45467006 15.0218559,2.88992276 C15.0060218,2.29561859 15.5032106,1.76570618 16.0859031,1.69920322" id="Fill-4" fill="#4B4B4B"></path>
                    <path d="M0.00084448194,1.95835362 L3.05259109,1.95835362 C4.00368888,4.37146076 4.96006468,6.7824567 5.91116246,9.19345264 C6.15500662,9.79725723 6.38196114,10.4073954 6.63636133,11.005922 C7.85874894,7.99112148 9.09908179,4.98582138 10.311969,1.96679844 C11.2905124,1.9499088 12.2701115,1.96257603 13.2486549,1.95940922 C13.2475993,6.0393126 13.2475993,10.119216 13.2486549,14.1980637 C12.5424569,14.1970081 11.8362589,14.2043974 11.1300609,14.1938413 C11.1374501,11.1832632 11.1290053,8.1737407 11.1332277,5.16316258 C11.1342833,5.02698987 11.1300609,4.89187276 11.121616,4.75675565 C11.0783363,4.8200918 11.0424459,4.88553915 11.0107778,4.9530977 C9.79789059,8.03334558 8.56072455,11.1072598 7.35522658,14.1906745 C6.85275983,14.210731 6.35029307,14.1927857 5.84677071,14.2012305 C4.59588184,11.1199271 3.3597714,8.03123437 2.11416054,4.94676409 C2.08249246,4.88237234 2.04765758,4.8211474 2.0096559,4.75992246 C1.98326584,6.07942549 2.00543349,7.39892852 1.99804427,8.71843155 C1.99909987,10.5446237 1.99698867,12.3718715 1.99909987,14.1980637 C1.33301474,14.2012305 0.666929612,14.1980637 0.00084448194,14.2001749 C-0.000211120485,10.119216 -0.000211120485,6.0393126 0.00084448194,1.95835362" id="Fill-6" fill="#4B4B4B"></path>
                    <path d="M21.8625818,5.41819613 C22.8749046,5.12896106 23.9674531,5.14162829 24.9797758,5.42769655 C25.1877295,5.48575468 25.3904051,5.56703607 25.5783024,5.67681872 C25.5677463,6.34501506 25.5783024,7.014267 25.5719688,7.68351893 C24.8953276,7.16627375 24.0360672,6.83903699 23.1757513,6.94776404 C22.4927765,7.00898898 21.8414698,7.3636714 21.4340072,7.91575147 C20.9083172,8.60083744 20.786923,9.50865553 20.8766492,10.3457483 C20.9442077,11.0012774 21.2165531,11.6557509 21.7253535,12.0896035 C22.2542103,12.5604021 22.9962988,12.7271873 23.688774,12.6744072 C24.3728044,12.595237 25.0188331,12.306002 25.5719688,11.9017062 C25.5783024,12.5350677 25.5698576,13.1684291 25.5761912,13.8017906 C24.719042,14.3127022 23.6898296,14.4446525 22.7070638,14.3960948 C21.7031859,14.3433146 20.7014192,13.9622422 19.9741091,13.2560441 C19.1834629,12.4949548 18.7538327,11.4076843 18.7031638,10.3204138 C18.6524949,9.18880799 18.8826162,8.00758888 19.5339229,7.06388031 C20.0796693,6.25634446 20.9325961,5.68631915 21.8625818,5.41819613" id="Fill-8" fill="#4B4B4B"></path>
                    <g id="Group-12" transform="translate(31.668073, 4.907601)">
                        <mask id="mask-4" fill="white">
                            <use xlink:href="#path-3"></use>
                        </mask>
                        <g id="Clip-11"></g>
                        <path d="M4.41474046,0.359960427 C5.42178518,0.231176931 6.48372122,0.288179462 7.41898497,0.714642842 C8.23074323,1.07988128 8.88732794,1.75757804 9.25151078,2.5672251 C9.64102807,3.42965228 9.73603229,4.39869531 9.66952934,5.33395906 C9.60513759,6.24705515 9.31801373,7.16226246 8.74693282,7.88851693 C8.16212907,8.6591067 7.28070105,9.18057429 6.33699248,9.37480514 C5.53051223,9.54264593 4.68708589,9.54264593 3.87955003,9.37269394 C2.91472942,9.16579586 2.02063416,8.60527097 1.45588687,7.7914015 C0.790857337,6.84663733 0.601904503,5.64641737 0.686352697,4.51586718 C0.743355228,3.55526897 1.04103511,2.58728154 1.65539572,1.83463702 C2.32675887,0.991210677 3.35702683,0.494021935 4.41474046,0.359960427" id="Fill-10" fill="#4B4B4B" mask="url(#mask-4)"></path>
                    </g>
                    <path d="M44.7897387,5.28529578 C45.7598373,5.11428819 46.7753269,5.23884928 47.6947566,5.58719808 C47.6958122,6.23111556 47.6947566,6.87397743 47.6947566,7.51683931 C47.0529503,7.0755975 46.2696933,6.83808695 45.4906587,6.86553261 C45.0979746,6.88031105 44.6662332,7.04604063 44.4878364,7.41972389 C44.3463857,7.78918474 44.4445567,8.27265065 44.7918499,8.49432716 C45.3872097,8.89228927 46.0976301,9.06118566 46.7141019,9.41692368 C47.199679,9.69032471 47.6704777,10.0471183 47.9164331,10.5611967 C48.378787,11.5239061 48.1835005,12.795907 47.3706866,13.5147723 C46.5937633,14.2399712 45.4769359,14.4405356 44.4498347,14.4014783 C43.7193579,14.3539762 42.9867698,14.2104143 42.3154066,13.9116788 C42.3185734,13.2350376 42.3111842,12.5594521 42.3185734,11.8828109 C42.8833207,12.2913291 43.5346274,12.5858422 44.2239358,12.7051252 C44.7031793,12.7821842 45.2246469,12.7864066 45.6711667,12.5721193 C46.0997413,12.3599432 46.1768003,11.7508606 45.9224001,11.3792886 C45.6848896,11.0932203 45.3354852,10.93488 45.0061372,10.7797064 C44.3875542,10.502083 43.7373031,10.2698504 43.1947234,9.85288748 C42.8125954,9.55415199 42.5244159,9.13507783 42.4104108,8.66111234 C42.2425701,7.96441474 42.2953502,7.17799093 42.7007015,6.56785273 C43.164111,5.8574323 43.9695356,5.43096892 44.7897387,5.28529578" id="Fill-13" fill="#4B4B4B"></path>
                    <path d="M52.8115782,5.26460598 C53.8587358,5.13582248 54.9713408,5.20549224 55.926661,5.68790255 C56.7605869,6.10486551 57.4066156,6.85751004 57.7296299,7.72838204 C57.9819189,8.39446717 58.0705895,9.11333242 58.0568667,9.82269725 C58.0579223,10.8825221 57.771854,11.9708482 57.1068245,12.8111077 C56.4840191,13.6249772 55.5318657,14.153834 54.5258766,14.3195636 C53.5420551,14.4789595 52.5043979,14.4377911 51.5691342,14.0693858 C50.6233144,13.6967582 49.835835,12.9367244 49.4378729,12.0004051 C49.0219655,11.0471961 48.9786858,9.9736484 49.1074693,8.95288085 C49.243642,7.93422451 49.7049403,6.93773582 50.4924197,6.26003906 C51.1373928,5.69423616 51.9660407,5.37333303 52.8115782,5.26460598" id="Fill-15" fill="#4B4B4B"></path>
                    <path d="M30.2720386,5.56154694 C30.8515643,5.21425374 31.5883748,5.18469687 32.219625,5.39687296 C32.2164582,6.09568177 32.219625,6.79660178 32.2185694,7.49752179 C31.8037177,7.22939877 31.2885837,7.11433811 30.7998398,7.16395142 C30.2034244,7.23150998 29.7315701,7.68858583 29.4866704,8.21322023 C29.2217141,8.76846711 29.1710452,9.39760615 29.1879349,10.0045775 C29.1879349,11.4021952 29.1879349,12.8008684 29.1879349,14.2005972 L27.1178985,14.2005972 C27.1168429,11.2765785 27.1210653,8.35361535 27.1168429,5.43065224 C27.8072069,5.42220742 28.4986265,5.42537423 29.1889905,5.42959664 C29.1858237,5.93100779 29.1889905,6.43347454 29.1879349,6.93488569 C29.4117226,6.38913924 29.7463485,5.85817122 30.2720386,5.56154694" id="Fill-17" fill="#4B4B4B"></path>
                    <path d="M15.2122866,5.42938551 C15.9089842,5.42621871 16.6046262,5.41988509 17.3013238,5.43360792 C17.2928789,8.35445984 17.3002682,11.277423 17.2971013,14.2003861 L15.2133422,14.2003861 C15.211231,11.2763673 15.2133422,8.35340423 15.2122866,5.42938551" id="Fill-19" fill="#4B4B4B"></path>
                    <path d="M36.7084688,6.93361897 C37.339719,6.89245048 38.0100266,7.06979168 38.4639356,7.52897874 C38.9484571,8.00611104 39.1363544,8.69753062 39.1891345,9.35728214 C39.2260806,10.0793142 39.1965237,10.8319587 38.8935658,11.5012107 C38.6930013,11.9530085 38.3256517,12.3330254 37.8622422,12.5135334 C37.3196626,12.7214871 36.71058,12.7341543 36.1511107,12.5895368 C35.582141,12.4396412 35.0986751,12.0279563 34.8358301,11.5043775 C34.4969817,10.8298475 34.4473684,10.0487017 34.5170381,9.30872443 C34.5803743,8.63525008 34.814718,7.94277489 35.3277408,7.47830982 C35.7003685,7.13101662 36.2070576,6.96212024 36.7084688,6.93361897" id="Fill-21" fill="#FEFEFE"></path>
                    <path d="M53.3780145,6.93509681 C53.9702074,6.89392832 54.6035689,7.03115664 55.0595891,7.43122995 C55.4797189,7.77957875 55.7119514,8.30210196 55.8196229,8.82779196 C55.938906,9.44426378 55.9378504,10.0829032 55.8365125,10.7025419 C55.7562867,11.1638401 55.5958352,11.6240828 55.2939329,11.9893212 C54.9888638,12.3566709 54.5349547,12.5804586 54.0673229,12.6501283 C53.5659117,12.7240205 53.0359993,12.6891856 52.5652006,12.48651 C52.0585115,12.2722227 51.666883,11.8330921 51.4589293,11.3274585 C51.2098071,10.7257651 51.1601938,10.0607356 51.2098071,9.41681812 C51.2583648,8.79401269 51.4346504,8.15431762 51.8463354,7.6697961 C52.2210742,7.21799826 52.7974332,6.96676489 53.3780145,6.93509681" id="Fill-23" fill="#FEFEFE"></path>
                    <path d="M66.9565452,7.12067172 C67.6511316,7.12383853 68.3467736,7.10167088 69.04136,7.13122775 L69.04136,12.3775718 C68.5811173,12.6847521 67.9467002,12.807202 67.4463447,12.5274673 C67.1465536,12.3627934 67.0304373,12.0091666 66.99138,11.6903746 C66.9280439,11.1488506 66.9692124,10.6031041 66.9576008,10.0605245 C66.9565452,9.08092543 66.959712,8.10027077 66.9565452,7.12067172" id="Fill-25" fill="#FEFEFE"></path>
                </g>
                <g id="Microsoft_logo-Copy" transform="translate(6.729796, 13.672907)" fill-rule="nonzero">
                    <polygon id="Path" fill="#F3F3F3" points="0 0 20.6541865 0 20.6541865 20.6541865 0 20.6541865"></polygon>
                    <polygon id="Path" fill="#F35325" points="0.898008108 0.898008108 9.87808918 0.898008108 9.87808918 9.87808918 0.898008108 9.87808918"></polygon>
                    <polygon id="Path" fill="#81BC06" points="10.7760973 0.898008108 19.7561784 0.898008108 19.7561784 9.87808918 10.7760973 9.87808918"></polygon>
                    <polygon id="Path" fill="#05A6F0" points="0.898008108 10.7760973 9.87808918 10.7760973 9.87808918 19.7561784 0.898008108 19.7561784"></polygon>
                    <polygon id="Path" fill="#FFBA08" points="10.7760973 10.7760973 19.7561784 10.7760973 19.7561784 19.7561784 10.7760973 19.7561784"></polygon>
                </g>
            </g>
        </g>
    </g>
</svg>