<?xml version="1.0" encoding="UTF-8"?>
<svg width="105px" height="48px" viewBox="0 0 105 48" version="1.1" xmlns="http://www.w3.org/2000/svg" xmlns:xlink="http://www.w3.org/1999/xlink">
    <!-- Generator: Sketch 53.2 (72643) - https://sketchapp.com -->
    <title>Group 47</title>
    <desc>Created with Sketch.</desc>
    <defs>
        <path d="M10.8872761,5.59597122 L9.51591411,6.99798561 C8.72988957,6.24690647 7.55921472,5.82964029 6.53905521,5.82964029 C4.03046626,5.82964029 2.50858896,7.7323741 2.50858896,10.1358273 C2.50858896,12.0552518 3.62909202,14.0414388 6.53905521,14.0414388 C7.45887117,14.0414388 8.26161963,13.8411511 9.18143558,13.1067626 L9.18143558,11.0371223 L6.18785276,11.0371223 L6.18785276,9.0676259 L11.2050307,9.0676259 L11.2050307,13.9913669 C10.0510798,15.3099281 8.59609816,16.0943885 6.53905521,16.0943885 C2.14066258,16.0943885 0.351202454,13.2069065 0.351202454,10.1358273 C0.351202454,6.84776978 2.4082454,3.81007194 6.53905521,3.81007194 C8.11110429,3.81007194 9.68315337,4.41093525 10.8872761,5.59597122 Z" id="path-1"></path>
    </defs>
    <g id="Page-1" stroke="none" stroke-width="1" fill="none" fill-rule="evenodd">
        <g id="02-About" transform="translate(-584.000000, -3354.000000)">
            <g id="Group-47" transform="translate(584.000000, 3354.000000)">
                <rect id="Rectangle-Copy-24" fill="#FFFFFF" x="0" y="0" width="105" height="48"></rect>
                <g id="Group-7" transform="translate(5.064423, 14.759900)">
                    <g transform="translate(0.000000, -0.000000)">
                        <path d="M57.9282209,5.92805755 L57.9282209,13.6115108 L56.0107362,15.5395683 L56.0107362,4.02877698 L57.9282209,5.92805755 Z M71.0046012,4.02877698 C72.604908,4.02877698 73.9457055,4.60431655 75.0702454,5.72661871 C76.2092025,6.84892086 76.7858896,8.20143885 76.7858896,9.78417266 C76.7858896,11.381295 76.2092025,12.7338129 75.0702454,13.8417266 C73.9457055,14.9640288 72.604908,15.5395683 71.0046012,15.5395683 C69.4042945,15.5395683 68.0634969,14.9640288 66.9389571,13.8417266 C65.8144172,12.7194245 65.2377301,11.381295 65.2377301,9.78417266 C65.2377301,8.20143885 65.8144172,6.84892086 66.9389571,5.72661871 C68.0490798,4.60431655 69.4042945,4.02877698 71.0046012,4.02877698 Z M71.0046012,5.95683453 C69.9521472,5.95683453 69.043865,6.31654676 68.2797546,7.07913669 C67.5300613,7.82733813 67.1696319,8.73381295 67.1696319,9.78417266 C67.1696319,10.8345324 67.5300613,11.7553957 68.2797546,12.5035971 C69.0294479,13.2517986 69.9521472,13.6115108 71.0046012,13.6115108 C72.0570552,13.6115108 72.9653374,13.2517986 73.7150307,12.5035971 C74.4791411,11.7410072 74.8395706,10.8345324 74.8395706,9.78417266 C74.8395706,8.73381295 74.4647239,7.82733813 73.7150307,7.07913669 C72.9653374,6.33093525 72.0570552,5.95683453 71.0046012,5.95683453 Z M90.5831288,10.7482014 L87.7141104,10.7482014 C86.7769939,10.7482014 85.9840491,10.4172662 85.3352761,9.76978417 C84.6865031,9.10791367 84.354908,8.31654676 84.354908,7.38129496 C84.354908,6.46043165 84.6865031,5.68345324 85.3352761,5.02158273 C85.9840491,4.35971223 86.7769939,4.02877698 87.7141104,4.02877698 L87.7141104,5.95683453 C87.5122699,5.95683453 87.3248466,5.98561151 87.1518405,6.05755396 C86.9644172,6.1294964 86.8202454,6.23021583 86.6760736,6.37410072 C86.546319,6.50359712 86.4453988,6.6618705 86.3733129,6.83453237 C86.301227,7.00719424 86.2723926,7.1942446 86.2723926,7.38129496 C86.2723926,7.78417266 86.4021472,8.11510791 86.6760736,8.4028777 C86.9644172,8.69064748 87.2960123,8.83453237 87.7141104,8.83453237 L90.5831288,8.83453237 C91.5202454,8.83453237 92.3131902,9.16546763 92.9619632,9.81294964 C93.6251534,10.4748201 93.9567485,11.2661871 93.9567485,12.1870504 C93.9567485,13.1079137 93.6251534,13.8992806 92.9619632,14.5611511 C92.3131902,15.2086331 91.5202454,15.5395683 90.5831288,15.5395683 L90.5831288,13.6115108 C90.7849693,13.6115108 90.9723926,13.5827338 91.1453988,13.5107914 C91.3328221,13.4388489 91.491411,13.3381295 91.6211656,13.2086331 C91.7509202,13.0791367 91.8518405,12.9352518 91.9239264,12.7482014 C91.9960123,12.5755396 92.0392638,12.3884892 92.0392638,12.1870504 C92.0392638,11.7985612 91.8806748,11.4676259 91.6067485,11.1798561 C91.3184049,10.8920863 90.9868098,10.7482014 90.5831288,10.7482014 Z" id="IOS" fill="#4B4B4B" fill-rule="nonzero"></path>
                        <path d="M22.447546,11.7122302 L21.4960123,13.6115108 L20.5156442,15.5395683 L18.3819018,15.5395683 L24.148773,4.02877698 L27.9981595,11.7122302 L25.8355828,11.7122302 L24.148773,8.33093525 L22.447546,11.7122302 Z M28.9496933,13.6258993 L29.9156442,15.5395683 L27.7674847,15.5395683 L26.8159509,13.6258993 L28.9496933,13.6258993 Z" id="A" fill="#4B4B4B" fill-rule="nonzero"></path>
                        <g id="G" transform="translate(36.835890, 0.000000)" fill-rule="nonzero">
                            <g>
                                <use fill="#000000" xlink:href="#path-1"></use>
                                <use fill="#4B4B4B" xlink:href="#path-1"></use>
                            </g>
                        </g>
                        <polygon id="N" fill="#4B4B4B" fill-rule="nonzero" points="7.57536196 11.3876259 7.57536196 4.12719424 9.78292025 4.12719424 9.78292025 15.8273381 8.41155828 15.8273381 8.41155828 15.8440288 2.25715337 7.94935252 2.25715337 15.8273381 0.049595092 15.8273381 0.049595092 4.14388489 1.83905521 4.14388489"></polygon>
                    </g>
                </g>
            </g>
        </g>
    </g>
</svg>