<?xml version="1.0" encoding="UTF-8"?>
<svg width="106px" height="49px" viewBox="0 0 106 49" version="1.1" xmlns="http://www.w3.org/2000/svg" xmlns:xlink="http://www.w3.org/1999/xlink">
    <!-- Generator: Sketch 53.2 (72643) - https://sketchapp.com -->
    <title>Group 48</title>
    <desc>Created with Sketch.</desc>
    <g id="Page-1" stroke="none" stroke-width="1" fill="none" fill-rule="evenodd">
        <g id="02-About" transform="translate(-767.000000, -3354.000000)">
            <g id="Group-48" transform="translate(767.500000, 3354.500000)">
                <rect id="Rectangle-Copy-35" fill="#FFFFFF" x="0" y="0" width="105" height="48"></rect>
                <g id="PointClickCare-Logo-Copy-2" transform="translate(4.707517, 17.999089)" fill="#4B4B4B" fill-rule="nonzero">
                    <g id="Group" transform="translate(0.000000, 0.378272)">
                        <path d="M2.4695185,5.36203631 C2.68205832,5.41127066 2.94365912,5.42739317 3.30355525,5.42739317 C4.6280285,5.42739317 5.44576937,4.75683525 5.44576937,3.62843259 C5.44576937,2.61444777 4.74244634,2.00942008 3.4997992,2.00942008 C2.99272011,2.00942008 2.64911985,2.05848106 2.4695185,2.10771541 L2.4695185,5.36203631 Z M0,0.357642448 C0.76850653,0.226928727 1.84802157,0.128806757 3.36891211,0.128806757 C4.90609854,0.128806757 6.00190945,0.422999308 6.73782423,1.01190449 C7.4409739,1.56769785 7.91528788,2.48373405 7.91528788,3.56290237 C7.91528788,4.64241741 7.55539174,5.55828026 6.90130306,6.17960383 C6.05079707,6.98104883 4.79168069,7.34094496 3.31967777,7.34094496 C2.99272011,7.34094496 2.69835419,7.32447573 2.4695185,7.29188398 L2.4695185,11.2330587 L0,11.2330587 L0,0.357642448 L0,0.357642448 Z" id="Fill-3"></path>
                    </g>
                    <path d="M9.90979896,7.60445273 C9.90979896,8.97833368 10.4822349,10.0086144 11.5454541,10.0086144 C12.5103779,10.0086144 13.1317015,9.04369054 13.1317015,7.60445273 C13.1317015,6.41103993 12.6736834,5.20046445 11.5454541,5.20046445 C10.3515212,5.20046445 9.90979896,6.42698908 9.90979896,7.60445273 Z M15.6991686,7.52314672 C15.6991686,10.4499899 13.6223113,11.7912791 11.4799239,11.7912791 C9.14129243,11.7912791 7.34215849,10.2539193 7.34215849,7.67015631 C7.34215849,5.0860466 9.04317046,3.43444234 11.6108109,3.43444234 C14.0640336,3.43444234 15.6991686,5.11881171 15.6991686,7.52314672 L15.6991686,7.52314672 Z" id="Fill-5"></path>
                    <path d="M16.5813995,11.6111577 L19.0673873,11.6111577 L19.0673873,3.61421704 L16.5813995,3.61421704 L16.5813995,11.6111577 Z M19.1488666,1.39017683 C19.1488666,2.07703062 18.6258384,2.63299733 17.8080975,2.63299733 C17.0229484,2.63299733 16.4999202,2.07703062 16.5158693,1.39017683 C16.4999202,0.67055792 17.0229484,0.130887081 17.8245668,0.130887081 C18.6258384,0.130887081 19.1330908,0.67055792 19.1488666,1.39017683 L19.1488666,1.39017683 Z" id="Fill-6"></path>
                    <path d="M20.407983,6.16538828 C20.407983,5.16804606 20.3753913,4.31754007 20.3426262,3.61421704 L22.5011362,3.61421704 L22.6157274,4.70985459 L22.6647884,4.70985459 C22.9915727,4.20277551 23.8093135,3.43444234 25.1341335,3.43444234 C26.7696152,3.43444234 27.9959665,4.51361065 27.9959665,6.86853795 L27.9959665,11.611331 L25.5104989,11.611331 L25.5104989,7.17919974 C25.5104989,6.1490924 25.1509494,5.44594273 24.2512091,5.44594273 C23.564182,5.44594273 23.1552248,5.92008335 22.9915727,6.37827482 C22.9263892,6.54158029 22.8937974,6.77058934 22.8937974,6.99977175 L22.8937974,11.611331 L20.407983,11.611331 L20.407983,6.16538828" id="Fill-7"></path>
                    <path d="M32.0186206,1.43923781 L32.0186206,3.61421704 L33.8012853,3.61421704 L33.8012853,5.44594273 L32.0186206,5.44594273 L32.0186206,8.34036751 C32.0186206,9.30563806 32.247803,9.74684021 32.9998403,9.74684021 C33.3430938,9.74684021 33.4904502,9.7307177 33.7357551,9.68148335 L33.7523977,11.56227 C33.4249199,11.6929837 32.8363615,11.7912791 32.1330384,11.7912791 C31.3315934,11.7912791 30.6612089,11.4965664 30.2688944,11.0883028 C29.8108763,10.6138154 29.5820406,9.8453089 29.5820406,8.71673288 L29.5820406,5.44594273 L28.5189948,5.44594273 L28.5189948,3.61421704 L29.5820406,3.61421704 L29.5820406,2.10962237 L32.0186206,1.43923781" id="Fill-8"></path>
                    <path d="M42.7622829,11.3006692 C42.3044382,11.5295049 41.2745042,11.7912791 39.9330417,11.7912791 C36.1227541,11.7912791 34.1601413,9.40341331 34.1601413,6.26385697 C34.1601413,2.50211025 36.842373,0.408783758 40.1786933,0.408783758 C41.4709215,0.408783758 42.4516212,0.67055792 42.8935168,0.899393611 L42.3864377,2.87830226 C41.8793586,2.66576244 41.1760355,2.4695185 40.2931112,2.4695185 C38.3142025,2.4695185 36.7771895,3.66327803 36.7771895,6.11632729 C36.7771895,8.324245 38.0853668,9.7140751 40.309407,9.7140751 C41.0616177,9.7140751 41.8960012,9.55094299 42.3864377,9.35435233 L42.7622829,11.3006692" id="Fill-9"></path>
                    <polygon id="Fill-10" points="43.6120955 11.611331 46.0979099 11.611331 46.0979099 0 43.6120955 0"></polygon>
                    <path d="M47.4549749,11.6111577 L49.9404425,11.6111577 L49.9404425,3.61421704 L47.4549749,3.61421704 L47.4549749,11.6111577 Z M50.022442,1.39017683 C50.022442,2.07703062 49.4988937,2.63299733 48.6814995,2.63299733 C47.8968705,2.63299733 47.3733221,2.07703062 47.3897914,1.39017683 C47.3733221,0.67055792 47.8968705,0.130887081 48.6979687,0.130887081 C49.4988937,0.130887081 50.0059727,0.67055792 50.022442,1.39017683 L50.022442,1.39017683 Z" id="Fill-11"></path>
                    <path d="M57.2832945,11.4149137 C56.8412255,11.611331 56.0078822,11.7912791 55.0585608,11.7912791 C52.4751445,11.7912791 50.8230202,10.2048583 50.8230202,7.68645219 C50.8230202,5.34782076 52.4257368,3.43444234 55.4023344,3.43444234 C56.0560764,3.43444234 56.776042,3.54886018 57.2992436,3.74527748 L56.9071024,5.59312569 C56.6123898,5.46241197 56.1708409,5.34782076 55.5167523,5.34782076 C54.2084015,5.34782076 53.3582423,6.27997949 53.3743648,7.58815685 C53.3743648,9.06015978 54.3555845,9.82849295 55.5658132,9.82849295 C56.1545451,9.82849295 56.6123898,9.7307177 56.9882351,9.56723886 L57.2832945,11.4149137" id="Fill-12"></path>
                    <path d="M60.4876876,6.9829558 L60.5204527,6.9829558 C60.7007475,6.65599813 60.8964713,6.32904047 61.0923686,6.01820532 L62.7120745,3.61421704 L65.7042745,3.61421704 L62.8426149,6.85224207 L66.1135784,11.611331 L63.0555014,11.611331 L61.1260005,8.324245 L60.4876876,9.10939412 L60.4876876,11.611331 L58.0020466,11.611331 L58.0020466,0 L60.4876876,0 L60.4876876,6.9829558" id="Fill-13"></path>
                    <path d="M74.3877222,11.3006692 C73.9298775,11.5295049 72.9001169,11.7912791 71.5584809,11.7912791 C67.7478466,11.7912791 65.7855805,9.40341331 65.7855805,6.26385697 C65.7855805,2.50211025 68.4676389,0.408783758 71.8037859,0.408783758 C73.0961874,0.408783758 74.0768871,0.67055792 74.518956,0.899393611 L74.0118769,2.87830226 C73.5047978,2.66576244 72.8013015,2.4695185 71.9185504,2.4695185 C69.9396418,2.4695185 68.4026287,3.66327803 68.4026287,6.11632729 C68.4026287,8.324245 69.7108061,9.7140751 71.9344996,9.7140751 C72.6872303,9.7140751 73.5214404,9.55094299 74.0118769,9.35435233 L74.3877222,11.3006692" id="Fill-14"></path>
                    <path d="M79.3749534,7.8338085 C78.066776,7.81699255 77.0524445,8.12800105 77.0524445,9.09275153 C77.0524445,9.7307177 77.4776975,10.0417262 78.0338376,10.0417262 C78.6556812,10.0417262 79.1617202,9.63242236 79.3257191,9.12569 C79.3581375,8.99497628 79.3749534,8.8474466 79.3749534,8.70026364 L79.3749534,7.8338085 Z M81.7957576,9.66536084 C81.7957576,10.433694 81.8283494,11.1701289 81.9100021,11.611331 L79.6687992,11.611331 L79.521963,10.8100594 L79.4727287,10.8100594 C78.9498738,11.4476788 78.1317862,11.7912791 77.1829849,11.7912791 C75.5641457,11.7912791 74.5992219,10.6138154 74.5992219,9.33822981 C74.5992219,7.26119919 76.4637127,6.26385697 79.292954,6.27997949 L79.292954,6.16538828 C79.292954,5.74030865 79.0641183,5.13510759 77.837767,5.13510759 C77.0200261,5.13510759 76.1530509,5.41335098 75.6300226,5.74030865 L75.1714845,4.13759201 C75.7277979,3.82675686 76.8236088,3.43444234 78.2789691,3.43444234 C80.9445582,3.43444234 81.7957576,5.00439387 81.7957576,6.88518055 L81.7957576,9.66536084 L81.7957576,9.66536084 Z" id="Fill-15"></path>
                    <path d="M83.1022014,6.24721438 C83.1022014,5.06975073 83.0699564,4.30107084 83.0371913,3.61421704 L85.1795788,3.61421704 L85.2615782,5.0860466 L85.3267617,5.0860466 C85.7353721,3.92487883 86.7169385,3.43444234 87.4852717,3.43444234 C87.7141074,3.43444234 87.8286986,3.43444234 88.0091668,3.46703409 L88.0091668,5.82196138 C87.8286986,5.7729004 87.6165055,5.74030865 87.3382621,5.74030865 C86.4225726,5.74030865 85.8010757,6.23074514 85.6375969,6.99977175 C85.6048317,7.16290386 85.5883625,7.35932116 85.5883625,7.55573847 L85.5883625,11.611331 L83.1022014,11.611331 L83.1022014,6.24721438" id="Fill-16"></path>
                    <path d="M93.3727633,6.70488576 C93.3727633,6.10020478 93.1104691,5.0860466 91.9659439,5.0860466 C90.9195407,5.0860466 90.4941143,6.03467456 90.4285841,6.70488576 L93.3727633,6.70488576 Z M90.4450533,8.40589773 C90.5267061,9.43617842 91.5408643,9.927135 92.7018587,9.927135 C93.552538,9.927135 94.2388717,9.81271715 94.9097764,9.59965725 L95.2363873,11.2845467 C94.4193399,11.611331 93.4213042,11.7912791 92.3421359,11.7912791 C89.6271391,11.7912791 88.0736568,10.2048583 88.0736568,7.70274806 C88.0736568,5.67495179 89.3329466,3.43444234 92.1131268,3.43444234 C94.6967165,3.43444234 95.6784563,5.44594273 95.6784563,7.42450466 C95.6784563,7.84975766 95.6288752,8.22612302 95.5962834,8.40589773 L90.4450533,8.40589773 L90.4450533,8.40589773 Z" id="Fill-17"></path>
                </g>
            </g>
        </g>
    </g>
</svg>