<?xml version="1.0" encoding="UTF-8"?>
<svg width="105px" height="49px" viewBox="0 0 105 49" version="1.1" xmlns="http://www.w3.org/2000/svg" xmlns:xlink="http://www.w3.org/1999/xlink">
    <!-- Generator: Sketch 53.2 (72643) - https://sketchapp.com -->
    <title>Group 49</title>
    <desc>Created with Sketch.</desc>
    <g id="Page-1" stroke="none" stroke-width="1" fill="none" fill-rule="evenodd">
        <g id="02-About" transform="translate(-970.000000, -3355.000000)">
            <g id="Group-49" transform="translate(970.000000, 3355.500000)">
                <rect id="Rectangle-Copy-34" fill="#FFFFFF" x="0" y="0" width="105" height="48"></rect>
                <g id="Group-6" transform="translate(9.812294, 13.068920)" fill="#4B4B4B">
                    <polygon id="Fill-1-Copy" points="56.3453493 18.6588009 59.5703222 18.6588009 59.5703222 0.78189804 56.3453493 0.78189804"></polygon>
                    <polygon id="Fill-2-Copy" points="66.1170375 18.6588009 69.3501594 18.6588009 69.3501594 5.38201731 66.1170375 5.38201731"></polygon>
                    <path d="M80.4670464,15.0575472 C79.4015626,17.1273971 78.5601768,18.7093248 78.5123013,18.7093248 L75.1589814,18.7093248 L78.5785121,11.9639772 L74.5956807,5.41216867 L78.0936457,5.41216867 L80.1471976,8.82966206 L81.8696957,5.41216867 L85.3646048,5.41216867 C85.3646048,5.41216867 83.7215595,8.70538957 82.0387878,12.0037036 L86.0654201,18.7093248 L82.7080257,18.7093248 L80.4670464,15.0575472 Z" id="Fill-3-Copy"></path>
                    <path d="M19.177282,12.918838 L19.1721888,5.38303594 L22.2290883,5.38303594 C22.2942804,7.83894549 22.1913991,10.6248902 22.227051,12.9483782 C22.227051,14.5415108 23.502372,15.9237875 25.1016163,15.9237875 C26.6967861,15.9237875 27.9782188,14.7330126 27.9782188,13.1358056 L27.9690511,5.38303594 L31.0707701,5.38303594 C31.0666956,9.30576829 31.0310437,10.0870552 31.0728074,13.0278311 C31.0728074,16.3179962 28.348999,18.980687 25.0618898,18.980687 C21.7727434,18.980687 19.177282,16.2079844 19.177282,12.918838" id="Fill-5-Copy"></path>
                    <path d="M43.6099659,15.8106181 C45.660462,15.8106181 47.3289729,14.1441444 47.3289729,12.0895739 C47.3289729,10.0350033 45.660462,8.37056689 43.6099659,8.37056689 C41.5553954,8.37056689 39.8868845,10.0350033 39.8868845,12.0895739 C39.8868845,14.1441444 41.5553954,15.8106181 43.6099659,15.8106181 M43.6323757,5.04474993 C47.5204748,5.04474993 50.6721065,8.19434443 50.6721065,12.0814248 C50.6721065,15.9685053 47.5204748,19.1170811 43.6323757,19.1170811 C39.7473326,19.1170811 36.556993,15.7515377 36.556993,11.8654759 L36.5641234,0.773647162 L39.7901149,0.773647162 L39.7677051,6.35776006 C40.8912506,5.59990161 42.1787951,5.04474993 43.6323757,5.04474993" id="Fill-7-Copy"></path>
                    <path d="M7.02445139,11.0109498 C9.07087292,11.0109498 10.7302162,9.35262513 10.7302162,7.3062036 C10.7302162,5.26385658 9.07087292,3.6045133 7.02445139,3.6045133 C4.98210437,3.6045133 3.32377971,5.26385658 3.32377971,7.3062036 C3.32377971,9.35262513 4.98210437,11.0109498 7.02445139,11.0109498 M7.03158178,0.263416927 C10.9145877,0.263416927 14.0662194,3.41606731 14.0662194,7.30111047 C14.0662194,11.1861536 10.9145877,14.3377854 7.03158178,14.3377854 C5.63911875,14.3377854 4.33018313,13.9812659 3.23719642,13.2814692 L3.23006603,18.6781548 L0.00101862694,18.6781548 L4.24549285e-13,7.16868896 C4.24549285e-13,3.28058993 3.14552,0.263416927 7.03158178,0.263416927" id="Fill-9-Copy"></path>
                    <path d="M67.8808919,3.98996173 C68.9830463,3.98996173 69.8753635,3.0966259 69.8753635,1.99447155 C69.8753635,0.892317201 68.9830463,2.7533531e-14 67.8808919,2.7533531e-14 C66.777719,2.7533531e-14 65.8813273,0.892317201 65.8813273,1.99447155 C65.8813273,3.0966259 66.777719,3.98996173 67.8808919,3.98996173" id="Fill-11-Copy"></path>
                </g>
            </g>
        </g>
    </g>
</svg>