<?xml version="1.0" encoding="UTF-8"?>
<svg width="105px" height="48px" viewBox="0 0 105 48" version="1.1" xmlns="http://www.w3.org/2000/svg" xmlns:xlink="http://www.w3.org/1999/xlink">
    <!-- Generator: Sketch 53.2 (72643) - https://sketchapp.com -->
    <title>Group 51</title>
    <desc>Created with Sketch.</desc>
    <g id="Page-1" stroke="none" stroke-width="1" fill="none" fill-rule="evenodd">
        <g id="02-About" transform="translate(-1341.000000, -3354.000000)">
            <g id="Group-51" transform="translate(1341.000000, 3354.000000)">
                <rect id="Rectangle-Copy-85" fill="#FFFFFF" x="0" y="0" width="105" height="48"></rect>
                <g id="usda-symbol-copy" transform="translate(28.460220, 7.710312)" fill-rule="nonzero">
                    <path d="M10.8899958,1.33553471 L10.8279538,9.61650302 C10.8279538,13.0614642 8.78383467,14.3937335 6.03766183,14.3937335 C3.67027144,14.3937335 0.65307321,13.3422857 0.65307321,9.75691376 L0.65307321,1.33553471 C0.634509698,0.929493814 0.378575391,0.572465455 0,0.424497586 L3.88252023,0.424497586 C3.51090214,0.576405738 3.26469804,0.934171078 3.25556995,1.33553471 L3.25556995,9.82548644 C3.25556995,11.2426553 3.74210949,13.2475901 6.37399453,13.2475901 C8.78383467,13.2475901 9.63936058,11.6671529 9.63936058,9.65568741 L9.61323765,1.33553471 C9.62607137,0.951136903 9.41277695,0.594794724 9.06792152,0.424497586 L11.4157197,0.424497586 C11.0784777,0.600366895 10.8735171,0.955546999 10.8899958,1.33553471 L10.8899958,1.33553471 Z" id="path3724" fill="#4B4B4B"></path>
                    <path d="M16.3725454,14.3937335 C15.0181877,14.3779509 13.6867349,14.0422905 12.4867598,13.4141237 L12.3855334,9.99202011 C12.7708466,11.4287812 13.9855628,13.3324896 16.0917239,13.3324896 C18.0966586,13.3324896 18.7040167,11.8957285 18.7040167,10.9030572 C18.7040167,8.94383761 16.9439844,8.69566979 15.1121141,7.70299851 C13.2802437,6.71032723 12.4410446,5.57724521 12.4410446,4.0392578 C12.4247178,1.30614642 14.9978263,0.202452695 16.8394927,0.202452695 C17.9040044,0.198886635 18.9532509,0.455593328 19.8958753,0.95022152 L19.9971017,3.94782755 C19.7130148,2.87352212 18.5603406,1.25390056 16.6174478,1.25390056 C15.0794604,1.25390056 14.4721023,2.32820599 14.4721023,3.21312019 C14.4721023,4.44742856 15.3439551,4.9143759 17.2443981,5.78296327 C19.1448411,6.65155064 21.0909993,7.32748142 21.0909993,10.142227 C21.0909993,12.6728856 18.8640197,14.3937335 16.3725454,14.3937335 Z" id="path3726" fill="#4B4B4B"></path>
                    <path d="M27.6282621,14.1912809 L22.426534,14.1912809 C22.7592662,14.0107434 22.9624383,13.6586626 22.952258,13.2802437 L22.952258,1.33553471 C22.9687366,0.955546999 22.7637761,0.600366895 22.426534,0.424497586 L27.8111226,0.424497586 C34.4724694,0.424497586 35.8080041,5.14295153 35.8080041,7.10543652 C35.8080041,10.6287665 33.0944849,14.1912809 27.6282621,14.1912809 L27.6282621,14.1912809 Z M27.3866251,1.43676106 C26.9000855,1.43676106 25.8290455,1.43676106 25.5253664,1.47594545 L25.5253664,13.139833 L27.1580494,13.139833 C31.7295619,13.139833 33.0095854,10.0638582 33.0095854,7.10543652 C32.9932586,4.67600418 31.5760897,1.43676106 27.3866251,1.43676106 Z" id="path3728" fill="#4B4B4B"></path>
                    <path d="M43.6775363,14.1912809 C44.2032602,13.907194 44.3044866,13.6231072 44.1640758,13.211671 C44.1020339,13.0092183 43.5763099,11.77491 43.0114016,10.3969255 L38.0382491,10.3969255 C37.6136166,11.3089202 37.2354384,12.2418326 36.9051671,13.1920788 C36.7223066,13.6786184 36.8235329,13.9627052 37.3721144,14.2043423 L34.5769611,14.2043423 C34.9817091,13.9764887 35.3117592,13.6362309 35.5271826,13.2247325 C35.9255573,12.4312486 41.2481039,0 41.2481039,0 C41.2481039,0 46.6326926,12.4312486 46.9984136,13.1986096 C47.1870635,13.6502518 47.5530939,14.0044748 48.010677,14.1782194 L43.6775363,14.1912809 Z M40.4774776,4.37232514 C40.4774776,4.37232514 39.0994931,7.81402096 38.4529506,9.33241617 L42.5444543,9.33241617 C41.5942327,7.08584433 40.4807429,4.37232514 40.4807429,4.37232514 L40.4774776,4.37232514 Z" id="path3730" fill="#4B4B4B"></path>
                    <path d="M47.4033189,16.137439 C47.4033189,16.137439 17.9399211,15.405997 0.486539541,24.7057595 C0.486539541,24.7057595 18.9783075,17.3913396 47.3967882,18.1227816 L47.4033189,16.137439 Z" id="path3732" fill="#339350"></path>
                    <path d="M0.486539541,16.137439 C0.486539541,16.137439 10.409987,16.2419307 16.5749981,18.5407484 C16.5749981,18.5407484 3.93476609,17.4958313 0.486539541,18.0182899 L0.486539541,16.137439 Z" id="path3734" fill="#339350"></path>
                    <path d="M0.486539541,19.3766821 C0.486539541,19.3766821 7.59197607,19.0501455 11.872871,19.4811739 C11.872871,19.4811739 1.53145668,20.7350744 0.486539541,21.257533 L0.486539541,19.3766821 Z" id="path3736" fill="#339350"></path>
                    <path d="M42.5215967,19.696688 L42.3713899,19.696688 C33.7932732,19.8632217 15.83376,20.8983427 0.486539541,26.315585 L0.486539541,32.8463171 L47.3967882,32.8463171 L47.3967882,19.696688 C47.3967882,19.696688 45.5877754,19.6411768 42.5215967,19.696688 Z" id="path3738" fill="#339350"></path>
                </g>
            </g>
        </g>
    </g>
</svg>