<?xml version="1.0" encoding="UTF-8"?>
<svg width="105px" height="48px" viewBox="0 0 105 48" version="1.1" xmlns="http://www.w3.org/2000/svg" xmlns:xlink="http://www.w3.org/1999/xlink">
    <!-- Generator: Sketch 53.2 (72643) - https://sketchapp.com -->
    <title>Group 20</title>
    <desc>Created with Sketch.</desc>
    <g id="Page-1" stroke="none" stroke-width="1" fill="none" fill-rule="evenodd">
        <g id="02-About" transform="translate(-786.000000, -2948.000000)">
            <g id="Group-20" transform="translate(786.000000, 2948.000000)">
                <rect id="Rectangle-Copy-67" fill="#FFFFFF" x="0" y="0" width="105" height="48"></rect>
                <path d="M84.9507246,14.3193482 C81.6506322,14.3193482 79.7860297,14.9565068 78.7154676,16.4497215 C77.5970694,18.0093908 77.3724208,20.4714329 77.3724208,23.9389533 C77.3724208,30.7455151 78.4254227,33.5909801 84.9507246,33.5909801 C85.7346731,33.5909801 88.413702,33.5760782 89.9777641,33.3851722 C90.5863132,33.2842821 90.858798,32.8182944 90.858798,32.4012414 L90.858798,31.649499 C90.858798,31.0642958 90.4167671,30.6230775 89.8302186,30.6230775 L84.9507246,30.6230775 C81.2689518,30.6230775 80.6048967,29.7551402 80.510637,24.8211884 L80.510637,23.2240629 C80.5419223,18.1749231 81.2057757,17.2872508 84.9507246,17.2872508 C88.4040138,17.2872508 89.0662523,18.0750399 89.1810997,22.5202483 L83.6940655,22.5202483 L83.6940655,25.5209754 L90.9108728,25.5209754 C92.3324354,25.5209754 92.3324354,24.5269758 92.3324354,24.2003413 L92.3324354,23.2423883 C92.2294968,16.3206385 90.5735973,14.3193482 84.9507246,14.3193482" id="Fill-9-Copy" fill="#272727" fill-rule="nonzero"></path>
                <path d="M75.4478514,14.5839583 L75.3695372,14.5632164 C74.6974084,14.4218494 72.860458,14.3193482 71.9499556,14.3193482 C68.72737,14.3193482 67.0240381,15.6685779 67.0240381,18.22124 L67.0240381,32.4336632 C67.0240381,33.0188664 67.4335723,33.4274615 68.0201208,33.4274615 L69.166373,33.4274615 C69.7529215,33.4274615 70.162456,33.0188664 70.162456,32.4336632 L70.162456,18.4822253 C70.162456,17.8523163 70.32191,17.2872508 72.2448444,17.2872508 L75.0922085,17.2846329 C75.3709503,17.3180616 75.636976,17.240934 75.8416424,17.0675479 C76.0652816,16.8788571 76.1882024,16.6037753 76.1882024,16.2934525 L76.1882024,15.5745346 C76.1882024,15.1025056 75.9183417,14.7414356 75.4478514,14.5839583" id="Fill-7-Copy" fill="#272727" fill-rule="nonzero"></path>
                <path d="M61.685054,14.5482541 L60.5388016,14.5482541 C59.952253,14.5482541 59.5427188,14.9568492 59.5427188,15.541851 L59.5427188,30.6232185 L54.775246,30.6232185 C51.8261544,30.6232185 50.6298458,30.435736 50.6298458,25.7357849 L50.6298458,15.541851 C50.6298458,14.9568492 50.2201096,14.5482541 49.6337628,14.5482541 L48.520007,14.5482541 C47.9334585,14.5482541 47.4914276,14.9753759 47.4914276,15.541851 L47.4914276,25.7357849 C47.4914276,32.4154788 49.9141192,33.5909197 55.0043351,33.5909197 C56.8356339,33.5909197 59.3435023,33.5909197 61.7353122,33.2542164 L61.7904145,33.2431406 C62.3812018,33.0955309 62.680935,32.7572166 62.680935,32.2378638 L62.680935,15.541851 C62.680935,14.9568492 62.2711988,14.5482541 61.685054,14.5482541" id="Fill-4-Copy" fill="#272727" fill-rule="nonzero"></path>
                <path d="M43.955606,15.0150272 L43.955606,15.0148258 C43.8084642,14.7020864 43.4929875,14.5154094 43.111509,14.5154094 L41.6380733,14.5154094 C41.2101714,14.5154094 40.8900523,14.6877886 40.7215156,14.9981114 L38.5378031,18.188939 L40.4496364,20.8036254 L43.7874728,16.0154709 C44.1538132,15.5704265 44.0270576,15.16747 43.955606,15.0150272" id="Fill-12-Copy" fill="#74BB11" fill-rule="nonzero"></path>
                <path d="M32.4424217,14.9620246 L32.4404033,14.9590039 C32.1075683,14.5153691 31.6645284,14.5153691 31.5187995,14.5153691 L30.0776583,14.5153691 C29.708492,14.5153691 29.406135,14.684929 29.2480938,14.9803499 C29.0856122,15.282819 29.1199251,15.6465069 29.3447754,15.9832102 L34.6838605,23.3846414 L28.5444778,31.9478197 C28.3299214,32.2698224 28.2998472,32.6278717 28.4619251,32.9301395 C28.6207736,33.2255604 28.9233325,33.3947175 29.2918932,33.3947175 L30.7653289,33.3947175 C31.1441835,33.3947175 31.4772204,33.198173 31.6439406,32.8882529 L38.5158024,23.4186742 L32.4424217,14.9620246 Z" id="Fill-14-Copy" fill="#009CD9" fill-rule="nonzero"></path>
                <path d="M44.6884687,32.0225912 L40.4050095,26.1439772 L38.5208283,28.7415465 L41.9085194,33.2626743 L41.9965217,33.3011374 C42.1426544,33.3641686 42.2823279,33.3945766 42.4238182,33.3945766 L43.8645557,33.3945766 C44.2125286,33.3945766 44.5080231,33.2399186 44.6753489,32.9698713 C44.8467117,32.6931785 44.8515558,32.3480173 44.6884687,32.0225912" id="Fill-16-Copy" fill="#EB2084" fill-rule="nonzero"></path>
                <path d="M22.8779671,25.3899189 L22.8779671,30.3822702 C21.419064,30.6060007 19.195589,30.655741 18.4378797,30.655741 C15.0853089,30.655741 14.718161,29.7396744 14.718161,27.7943671 C14.718161,25.9741152 15.3993727,25.3899189 17.5209183,25.3899189 L22.8779671,25.3899189 Z M18.274187,14.3193885 C17.2383416,14.3193885 15.8256599,14.3461717 14.0682346,14.5578195 L13.9887094,14.575138 C13.4766401,14.7209354 13.217275,15.0572359 13.217275,15.5745749 L13.217275,16.2934928 C13.217275,16.9062847 13.5989554,17.2872911 14.2133579,17.2872911 L18.274187,17.2872911 C21.5442051,17.2872911 22.8779671,18.1729496 22.8779671,20.3448067 L22.8779671,22.4550422 L17.5209183,22.4550422 C13.3339388,22.4550422 11.5472467,24.051765 11.5472467,27.7943671 C11.5472467,31.965702 13.3965094,33.5910204 18.1431926,33.5910204 C20.0657234,33.5910204 23.6049966,33.4415982 24.9131249,33.0426693 C26.0161833,32.7365754 26.0161833,31.8940116 26.0161833,31.6171175 L26.0161833,20.1490677 C26.0161833,16.2262327 23.4836905,14.3193885 18.274187,14.3193885 L18.274187,14.3193885 Z" id="Fill-1-Copy" fill="#272727" fill-rule="nonzero"></path>
            </g>
        </g>
    </g>
</svg>