<?xml version="1.0" encoding="UTF-8"?>
<svg width="105px" height="49px" viewBox="0 0 105 49" version="1.1" xmlns="http://www.w3.org/2000/svg" xmlns:xlink="http://www.w3.org/1999/xlink">
    <!-- Generator: Sketch 53.2 (72643) - https://sketchapp.com -->
    <title>Group 21</title>
    <desc>Created with Sketch.</desc>
    <g id="Page-1" stroke="none" stroke-width="1" fill="none" fill-rule="evenodd">
        <g id="02-About" transform="translate(-969.000000, -2947.000000)">
            <g id="Group-21" transform="translate(969.000000, 2947.000000)">
                <rect id="Rectangle-Copy-65" fill="#FFFFFF" x="0" y="0.5" width="105" height="48"></rect>
                <g id="Group-5-Copy" transform="translate(2.500000, 0.000000)">
                    <g id="microsoft-excel-logo@logotyp.us">
                        <path d="M30.9259044,3.09259044 L14.4319388,3.09259044 C13.3010628,3.09259044 12.3701368,4.02351639 12.3701368,5.15416746 L12.3701368,13.916657 L30.9259044,24.7407235 L40.2036757,28.6553807 L49.481447,24.7407235 L49.481447,13.916657 L30.9259044,3.09259044 Z" id="Path" fill="#21A366" fill-rule="nonzero"></path>
                        <polygon id="Path" fill="#107C41" points="12.3701368 13.916657 30.9259044 13.916657 30.9259044 24.7407235 12.3701368 24.7407235"></polygon>
                        <path d="M47.41987,3.09259044 L30.9259044,3.09259044 L30.9259044,13.916657 L49.481447,13.916657 L49.481447,5.15416746 C49.481447,4.02351639 48.5505211,3.09259044 47.41987,3.09259044 Z" id="Path" fill="#33C481" fill-rule="nonzero"></path>
                        <path d="M30.9259044,24.7407235 L12.3701368,24.7407235 L12.3701368,44.3272796 C12.3701368,45.4579307 13.3010628,46.3888566 14.4319388,46.3888566 L47.41987,46.3888566 C48.5505211,46.3888566 49.481447,45.4579307 49.481447,44.3272796 L49.481447,35.5647901 L30.9259044,24.7407235 Z" id="Path" fill="#185C37" fill-rule="nonzero"></path>
                        <polygon id="Path" fill="#107C41" points="30.9259044 24.7407235 49.481447 24.7407235 49.481447 35.5647901 30.9259044 35.5647901"></polygon>
                        <g id="Group" transform="translate(0.000000, 10.795952)">
                            <path d="M25.7717369,0.0281144585 L12.3703618,0.0281144585 L12.3703618,29.4077236 L25.7717369,29.4077236 C26.9012634,29.4045748 27.8301651,28.4756731 27.833314,27.3461466 L27.833314,2.08969148 C27.8301651,0.960164988 26.9012634,0.0312632779 25.7717369,0.0281144585 Z" id="Path" fill-opacity="0.094118" fill="#000000"></path>
                            <g transform="translate(12.370362, 1.574410)" fill="#000000" fill-opacity="0.2" id="Path">
                                <path d="M11.85508,0 L0,0 L0,29.3796092 L11.85508,29.3796092 C12.9846065,29.3764604 13.9135082,28.4475587 13.916657,27.3180322 L13.916657,2.06157702 C13.9135082,0.93205053 12.9846065,0.00314881936 11.85508,0 Z"></path>
                                <path d="M11.85508,0 L0,0 L0,26.2870187 L11.85508,26.2870187 C12.9846065,26.2838699 13.9135082,25.3549682 13.916657,24.2254417 L13.916657,2.06157702 C13.9135082,0.93205053 12.9846065,0.00314881936 11.85508,0 Z"></path>
                                <path d="M10.3087847,0 L0,0 L0,26.2870187 L10.3087847,26.2870187 C11.4383112,26.2838699 12.3672129,25.3549682 12.3703618,24.2254417 L12.3703618,2.06157702 C12.3672129,0.93205053 11.4383112,0.00314881936 10.3087847,0 Z"></path>
                            </g>
                            <path d="M2.06157702,1.57440968 L22.6791465,1.57440968 C23.8097976,1.57440968 24.7407235,2.50533563 24.7407235,3.6359867 L24.7407235,24.2535562 C24.7407235,25.3842073 23.8100225,26.3151332 22.6791465,26.3151332 L2.06157702,26.3151332 C0.930925951,26.3151332 0,25.3842073 0,24.2535562 L0,3.6359867 C0,2.50533563 0.930925951,1.57440968 2.06157702,1.57440968 Z" id="Path" fill="#107C41"></path>
                            <path d="M5.46365142,21.6762475 L10.4671254,13.9231795 L5.88424372,6.21329534 L9.57218593,6.21329534 L12.0739229,11.1409727 C12.3037867,11.6085724 12.4619024,11.9574166 12.5482701,12.1872804 L12.5806579,12.1872804 C12.745746,11.8136955 12.9184812,11.4504567 13.0984138,11.0980138 L15.7724362,6.21329534 L19.1585415,6.21329534 L14.4569044,13.8799957 L19.2770721,21.6762475 L15.6752726,21.6762475 L12.7853312,16.2632022 C12.6492572,16.0331134 12.5338755,15.7911042 12.4403105,15.540773 L12.3973516,15.540773 C12.3127834,15.786156 12.2007753,16.0211929 12.062902,16.2413853 L9.08681792,21.6762475 L5.46365142,21.6762475 Z" id="Path" fill="#FFFFFF"></path>
                        </g>
                        <polygon id="Path" points="0 0 49.481447 0 49.481447 49.481447 0 49.481447"></polygon>
                    </g>
                    <text id="Excel" font-family="HelveticaNeue-Bold, Helvetica Neue" font-size="18" font-weight="bold" letter-spacing="-0.473684281" fill="#017D3F">
                        <tspan x="52.8652107" y="31">Excel</tspan>
                    </text>
                </g>
            </g>
        </g>
    </g>
</svg>