<?xml version="1.0" encoding="UTF-8"?>
<svg width="105px" height="48px" viewBox="0 0 105 48" version="1.1" xmlns="http://www.w3.org/2000/svg" xmlns:xlink="http://www.w3.org/1999/xlink">
    <!-- Generator: Sketch 53.2 (72643) - https://sketchapp.com -->
    <title>Group 23</title>
    <desc>Created with Sketch.</desc>
    <g id="Page-1" stroke="none" stroke-width="1" fill="none" fill-rule="evenodd">
        <g id="02-About" transform="translate(-1340.000000, -2952.000000)">
            <g id="Group-23" transform="translate(1340.000000, 2952.000000)">
                <rect id="Rectangle-Copy-66" fill="#FFFFFF" x="0" y="0" width="105" height="48"></rect>
                <path d="M24.4670158,22.071965 C25.6670446,21.482515 26.9954088,21.2027811 28.3312127,21.2581327 C30.9150317,21.3474095 32.3343838,22.6576207 32.3906281,25.228197 C32.4534939,27.9212312 32.4336298,30.5910535 32.4236606,33.2807399 C32.4236606,34.3759429 32.1358173,34.627257 31.0540059,34.627257 L29.5552718,34.627257 C28.5991174,34.627257 28.3013793,34.3361403 28.2815153,33.373439 L28.2815153,26.1644873 C28.2815153,25.049569 27.7554518,24.5896448 26.6273652,24.6359943 C26.4309563,24.6393422 26.2352169,24.6580903 26.0417095,24.6922387 C24.5629139,24.9933246 24.4768362,25.0991176 24.4768362,26.6077465 L24.4768362,33.0326248 C24.4768362,34.4056274 24.2419639,34.6371519 22.8888254,34.6371519 L21.3902401,34.6371519 C20.6855487,34.6371519 20.3745679,34.3063814 20.3282183,33.5785524 L20.3282183,16.6031666 C20.3282183,15.3625169 20.592924,15.1012335 21.8137097,15.1012335 L23.1370148,15.1012335 C24.1626563,15.1012335 24.4769106,15.3890023 24.4968491,16.4245387 C24.526608,17.9761692 24.4968491,19.5277254 24.4968491,21.0760824 C24.4670158,21.3607266 24.4670158,21.6683595 24.4670158,22.071965 Z" id="Path-Copy" fill="#000000" fill-rule="nonzero"></path>
                <path d="M46.5538695,28.3612914 C46.4645183,29.0758033 46.4115474,29.9921551 46.2229502,30.8855181 C45.924617,32.8979657 44.3623476,34.4884316 42.3554054,34.82255 C40.9838908,35.117089 39.5636459,35.0990848 38.2000918,34.7695047 C36.4722884,34.4365767 35.0956404,33.1295645 34.6733612,31.421402 C34.0485725,29.2667812 34.0485725,26.9792123 34.6733612,24.8245171 C35.335051,22.5615738 37.0652351,21.3474095 39.5995798,21.2612574 C40.5139229,21.2125271 41.4307955,21.2691435 42.3322679,21.4299905 C44.7242162,21.9097788 46.0806281,23.5308965 46.3884099,26.1775068 C46.4645183,26.8493146 46.4875815,27.4976873 46.5538695,28.3612914 Z M42.3786174,28.4141879 C42.3322679,27.6763152 42.3058568,27.1734637 42.2594329,26.6771592 C42.2304179,26.4169918 42.1771495,26.1601722 42.100669,25.909602 C41.9488241,25.0747897 41.189897,24.4903243 40.3439994,24.5565379 C39.5189331,24.4941186 38.7803165,25.0657132 38.6334562,25.8798431 C38.2582705,27.3673432 38.2582705,28.9248511 38.6334562,30.4123512 C38.7878307,31.2406165 39.5565038,31.8085657 40.3935481,31.7125188 C41.1865491,31.7672752 41.896002,31.2223892 42.0476981,30.4422589 C42.194484,29.7714926 42.3048897,29.093361 42.3786174,28.41084 L42.3786174,28.41084 L42.3786174,28.4141879 L42.3786174,28.4141879 Z" id="Shape-Copy" fill="#000000" fill-rule="nonzero"></path>
                <path d="M73.0176665,26.356358 C73.1996424,24.9734605 72.891935,24.5467175 71.558735,24.6095088 C70.4721621,24.7012407 69.3925826,24.8614182 68.3263946,25.0891484 C67.4231367,25.2513345 66.7615213,25.0230092 66.6358642,24.32174 C66.4306764,23.1638945 66.5101328,22.1712854 67.4397273,21.8934114 C69.5874292,21.18686 71.8857856,21.0725114 74.092931,21.5624921 C76.09779,22.0421317 77.0703862,23.3687847 77.0703862,25.5325564 L77.0703862,33.1946622 C77.0703862,33.7736966 77.0703862,34.3692471 76.3823598,34.5942246 C75.6162162,34.8735866 74.7571503,34.6372263 74.2418,34.0052954 L74.0300653,33.6976625 C72.8568195,34.6362591 71.3780239,35.1076405 69.8779507,35.0209677 C66.6192736,34.9019319 64.7466186,31.795323 66.1626229,28.8410053 C66.8243126,27.4349703 68.1477666,26.9915623 69.5142222,26.7732805 C70.6918574,26.5977773 71.8597466,26.4886364 73.0176665,26.356358 Z M73.0806066,28.6126055 C72.2898375,28.7317157 71.5951153,28.7977805 70.9202572,28.9435248 C70.2163841,29.0348847 69.6849641,29.6267154 69.6695638,30.3363171 C69.5208436,31.0492666 69.898038,31.7677216 70.5694738,32.049985 C71.2311636,32.3080693 72.6371986,32.049985 72.9614221,31.6001788 C73.0236927,31.5129851 73.058213,31.4092753 73.0605938,31.3023663 C73.0806066,30.4322152 73.0806066,29.5653376 73.0806066,28.6027107 L73.0806066,28.6027107 L73.0806066,28.6126055 L73.0806066,28.6126055 Z" id="Shape-Copy-2" fill="#000000" fill-rule="nonzero"></path>
                <path d="M49.3890771,21.721256 L49.3890771,20.0108616 C49.3288896,19.4865836 49.6674718,18.9991324 50.1798462,18.8727313 C50.8544811,18.6465635 51.5402756,18.4543952 52.2343282,18.2970449 C52.7353942,18.1306181 53.2766347,18.4020195 53.4431359,18.9030855 C53.4876255,19.0370006 53.5019098,19.1792483 53.4849472,19.3193385 C53.5080848,20.0571367 53.4849472,20.7883136 53.4849472,21.6087673 L55.4468046,21.6087673 C56.402959,21.6319792 56.730456,21.9394634 56.7702586,22.9320724 C56.8231551,24.9435528 56.7140142,25.0561904 54.7256714,25.0561904 L53.5709505,25.0561904 C53.54015,25.2356367 53.51917,25.4168686 53.5080848,25.5986212 L53.5080848,29.8434348 C53.5080848,31.16674 53.9051433,31.5703455 55.1920682,31.6629701 C56.3202292,31.7457 56.6280109,31.9938894 56.6280109,32.9135891 C56.6676646,34.379142 56.3697778,34.8754465 55.1920682,34.9449336 C54.257861,35.0152391 53.3186692,34.967476 52.39644,34.8027603 C50.4809321,34.4155967 49.4487437,33.1715246 49.3858036,31.1469503 C49.3295592,29.3802371 49.362666,27.610176 49.356119,25.8534321 L49.356119,25.0593894 L48.1981991,25.0593894 C47.6530899,25.1032095 47.1752359,24.6978929 47.1296304,24.1529325 C47.1296304,24.1219832 47.1296304,24.0922987 47.1296304,24.0635813 C46.9707177,22.7104428 47.2122858,22.349839 48.4992851,21.9858129 L49.3890771,21.721256 Z" id="Path-Copy-2" fill="#000000" fill-rule="nonzero"></path>
                <path d="M63.7773703,29.9493766 C63.7773703,32.2418557 63.820372,34.5346324 63.7773703,36.8272602 C63.7662107,39.4711923 61.6137474,41.605577 58.9699642,41.5942686 C58.7185012,41.5931527 58.4674103,41.5723958 58.2192208,41.5318493 C57.2962476,41.4160871 56.9686018,41.0522098 56.9554335,40.0960554 L56.9554335,39.245694 C56.9951617,38.4451044 57.2433511,38.167156 58.0373193,38.0215604 C59.2613785,37.7934583 59.6617849,37.3333852 59.664984,36.0532305 L59.664984,23.0148766 C59.664984,21.9097788 59.9463546,21.6153142 61.0546515,21.5790827 L62.5598581,21.5790827 C63.4498733,21.6186621 63.7839173,21.94296 63.7904642,22.8393734 L63.7904642,29.9061518 L63.7773703,29.9493766 Z" id="Path-Copy-3" fill="#000000" fill-rule="nonzero"></path>
                <path d="M82.2579627,22.5152242 C83.3417829,21.7376234 84.633246,21.3009111 85.9667436,21.2613318 C87.2900487,21.2613318 87.5944826,21.5392802 87.5911347,22.849417 L87.5911347,23.4383462 C87.5911347,24.2853597 87.2405001,24.5863713 86.4133507,24.6723746 C85.6347827,24.76738 84.8617946,24.9032295 84.0975109,25.0793279 C83.5847645,25.1886176 83.3894715,25.499524 83.3994408,26.0718626 C83.4390202,28.4638109 83.3994408,30.8358951 83.3994408,33.2147495 C83.3994408,34.3825642 83.1445556,34.6273314 81.9634981,34.6505434 L80.259725,34.6505434 C79.769893,34.6905692 79.3403229,34.3259479 79.3002971,33.8359671 C79.2955357,33.7768212 79.2965029,33.7171546 79.303645,33.6581575 L79.303645,22.6541984 C79.2657024,22.1642177 79.632258,21.7361355 80.1222388,21.6981928 C80.1229083,21.698044 80.1235035,21.698044 80.1240987,21.698044 L80.1637525,21.698044 C80.987554,21.5591442 81.8542828,21.4301393 82.2579627,22.5152242 Z" id="Path-Copy-4" fill="#000000" fill-rule="nonzero"></path>
                <path d="M63.3340367,19.2499258 C64.0818042,16.5635129 63.813825,15.2103744 62.5002659,14.9489422 C62.7021058,15.8620949 62.9270089,16.7983852 61.9677299,17.4302417 C61.4647296,17.7610866 61.0678199,17.6353551 60.1778047,16.9505277 C59.7675035,17.7941934 59.9065521,18.6345111 60.0950749,19.5343467 C58.8181192,19.3127171 57.8122674,18.7833058 57.345945,17.5493518 C56.8647432,16.4282585 57.1282585,15.1263798 58.0075604,14.280631 C58.314747,13.9687575 58.6467822,13.682179 59.0000207,13.4237227 C60.4359634,12.3451847 60.713763,11.2997535 59.9561751,9.6786359 C59.9223243,9.58578804 59.8947229,9.49078266 59.873594,9.39414054 C61.4700862,9.63675021 62.9799054,10.2773112 64.2637056,11.2568263 C67.0627561,13.5461807 66.7253642,17.6584927 63.635197,19.1705438 C63.5306688,19.1785787 63.4285957,19.2053618 63.3340367,19.2499258 Z" id="Path-Copy-5" fill="#EE4854" fill-rule="nonzero"></path>
            </g>
        </g>
    </g>
</svg>