<?xml version="1.0" encoding="UTF-8"?>
<svg width="105px" height="48px" viewBox="0 0 105 48" version="1.1" xmlns="http://www.w3.org/2000/svg" xmlns:xlink="http://www.w3.org/1999/xlink">
    <!-- Generator: Sketch 53.2 (72643) - https://sketchapp.com -->
    <title>Group 24</title>
    <desc>Created with Sketch.</desc>
    <defs>
        <linearGradient x1="50%" y1="100.001238%" x2="50%" y2="0.00123760845%" id="linearGradient-1">
            <stop stop-color="#D1D3D4" stop-opacity="0" offset="38.7%"></stop>
            <stop stop-color="#D1D3D4" offset="100%"></stop>
        </linearGradient>
        <linearGradient x1="49.9990423%" y1="100.001191%" x2="49.9990423%" y2="0.00119063211%" id="linearGradient-2">
            <stop stop-color="#D1D3D4" stop-opacity="0" offset="38.7%"></stop>
            <stop stop-color="#D1D3D4" offset="100%"></stop>
        </linearGradient>
        <linearGradient x1="5.85818348e-14%" y1="50.0006558%" x2="99.9994847%" y2="50.0006558%" id="linearGradient-3">
            <stop stop-color="#E8E7E5" offset="0%"></stop>
            <stop stop-color="#FFFFFF" offset="100%"></stop>
        </linearGradient>
        <linearGradient x1="1.34896956e-14%" y1="50%" x2="99.9995254%" y2="50%" id="linearGradient-4">
            <stop stop-color="#E8E7E5" offset="0%"></stop>
            <stop stop-color="#FFFFFF" offset="100%"></stop>
        </linearGradient>
    </defs>
    <g id="Page-1" stroke="none" stroke-width="1" fill="none" fill-rule="evenodd">
        <g id="02-About" transform="translate(-591.000000, -3054.000000)">
            <g id="Group-24" transform="translate(591.000000, 3053.320157)">
                <rect id="Rectangle-Copy-71" fill="#FFFFFF" x="0" y="0.679842919" width="105" height="48"></rect>
                <g id="html-5-copy" transform="translate(15.914491, 3.357312)" fill-rule="nonzero">
                    <polygon id="Path" fill="#E44D26" points="30.7190068 8.50643202 27.9253207 39.8030242 15.367497 43.2844034 2.84429238 39.8078324 0.0534912564 8.50643202"></polygon>
                    <polygon id="Path" fill="#F16529" points="15.386249 40.6233036 25.5336005 37.8101443 27.9208732 11.0657182 15.386249 11.0657182"></polygon>
                    <path d="M9.95538394,18.7438171 L15.386249,18.7438171 L15.386249,14.9048277 L5.75986636,14.9048277 L5.85170304,15.9347448 L6.79531284,26.513993 L15.386249,26.513993 L15.386249,22.6750037 L10.3062625,22.6750037 L9.95538394,18.7438171 L9.95538394,18.7438171 Z M10.82062,28.4335478 L6.96684548,28.4335478 L7.50464296,34.4613512 L15.3685789,36.6442753 L15.386249,36.6394671 L15.386249,32.645293 L15.3694203,32.6497406 L11.0939664,31.4952911 L10.82062,28.4335478 L10.82062,28.4335478 Z" id="Shape" fill="#EBEBEB"></path>
                    <path d="M2.9065586,0 L4.8574869,0 L4.8574869,1.92748831 L6.64217158,1.92748831 L6.64217158,0 L8.59322008,0 L8.59322008,5.83691781 L6.64229179,5.83691781 L6.64229179,3.88238337 L4.8576071,3.88238337 L4.8576071,5.83691781 L2.90667881,5.83691781 L2.90667881,0 L2.9065586,0 Z M11.1586367,1.93566225 L9.44138706,1.93566225 L9.44138706,0 L14.8282571,0 L14.8282571,1.93566225 L13.1099256,1.93566225 L13.1099256,5.83691781 L11.1589973,5.83691781 L11.1589973,1.93566225 L11.1588771,1.93566225 L11.1586367,1.93566225 Z M15.6831555,0 L17.717386,0 L18.9687207,2.05093891 L20.2188535,0 L22.2539253,0 L22.2539253,5.83691781 L20.3109306,5.83691781 L20.3109306,2.94382218 L18.9687207,5.01916272 L18.9350633,5.01916272 L17.5920121,2.94382218 L17.5920121,5.83691781 L15.6831555,5.83691781 L15.6831555,0 Z M23.2248217,0 L25.176351,0 L25.176351,3.90762643 L27.9199115,3.90762643 L27.9199115,5.83691781 L23.2247015,5.83691781 L23.2247015,0 L23.2248217,0 Z" id="Shape" fill="#000000"></path>
                    <path d="M15.3730265,26.513993 L20.1003313,26.513993 L19.6546109,31.492887 L15.3729063,32.6485386 L15.3729063,36.6424723 L23.2430928,34.4613512 L23.3007913,33.8127247 L24.2030505,23.7058824 L24.2966903,22.6750037 L15.3730265,22.6750037 L15.3730265,26.513993 Z M15.3730265,18.7344411 L15.3730265,18.7438171 L24.6460062,18.7438171 L24.7229375,17.8809851 L24.897956,15.9347448 L24.9896725,14.9048277 L15.3730265,14.9048277 L15.3730265,18.7345613 L15.3730265,18.7344411 Z" id="Shape" fill="#FFFFFF"></path>
                </g>
                <g id="css3-copy" transform="translate(48.964031, 0.000000)">
                    <polygon id="Path" points="0 0 47.6651623 0 47.6651623 49.7374683 0 49.7374683"></polygon>
                    <polygon id="Path" fill="#2062AF" fill-rule="nonzero" points="35.8871101 43.1687939 23.8324041 46.5557767 11.7775212 43.1687939 8.99576127 11.7217348 38.669224 11.7217348"></polygon>
                    <polygon id="Path" fill="#3C9CD7" fill-rule="nonzero" points="23.8323156 14.2688981 23.8323156 43.854391 23.8595739 43.8621483 33.6149383 41.1210526 35.8666664 14.2688981"></polygon>
                    <path d="M16.990843,7.10152674 L16.990843,5.22980222 L19.6079028,5.22980222 L19.6079028,3.18169158 L15.0280703,3.18169158 L15.0280703,8.9704808 L19.6079028,8.9704808 L19.6079028,7.10152674 L16.990843,7.10152674 Z M24.3157075,5.22980222 L26.1453749,5.22980222 L26.1453749,3.18169158 L21.5650999,3.18169158 L21.5650999,5.22980222 C22.17788,5.86922498 22.4974567,6.17526875 23.3837046,7.10004916 C22.8656204,7.10004916 21.5650999,7.10198848 21.5650999,7.10189613 L21.5650999,8.9704808 L26.1453749,8.9704808 L26.1453749,7.10152674 L24.3157075,5.22980222 Z M30.8074246,5.22980222 L32.6370035,5.22980222 L32.6370035,3.18169158 L28.0565515,3.18169158 L28.0565515,5.22980222 C28.6693317,5.86922498 28.9890854,6.17526875 29.8753333,7.10004916 C29.3574261,7.10004916 28.0565515,7.10198848 28.0565515,7.10189613 L28.0565515,8.9704808 L32.637092,8.9704808 L32.637092,7.10152674 L30.8074246,5.22980222 L30.8074246,5.22980222 Z" id="Shape" fill="#000000" fill-rule="nonzero"></path>
                    <polygon id="Path" fill="#FFFFFF" fill-rule="nonzero" points="23.821607 22.1319327 15.1936555 25.8814767 15.4797788 29.5938043 23.821607 25.8720572 32.6951486 21.9132508 33.0630468 18.1156854"></polygon>
                    <polygon id="Path" fill="url(#linearGradient-1)" fill-rule="nonzero" points="15.193567 25.8814767 15.4796903 29.5938043 23.8215185 25.8720572 23.8215185 22.1319327 15.193567 25.8814767"></polygon>
                    <polygon id="Path" fill="url(#linearGradient-2)" fill-rule="nonzero" points="33.0630468 18.1157778 23.821607 22.1319327 23.821607 25.8720572 32.6951486 21.9132508"></polygon>
                    <polygon id="Path" fill="url(#linearGradient-3)" fill-rule="nonzero" points="15.2068421 25.8814767 15.493054 29.5938043 28.2924949 29.636377 28.0061945 34.5860855 23.7944373 35.8233741 19.7456986 34.7566536 19.5003742 31.6843953 15.7383784 31.6843953 16.2291158 37.615494 23.8353247 39.9622605 31.4002921 37.6580667 32.3817669 25.8814767 15.2068421 25.8814767"></polygon>
                    <path d="M23.821607,25.8814767 L15.1936555,25.8814767 L15.4797788,29.5938043 L23.821607,29.6216012 L23.821607,25.8814767 Z M23.821607,35.8115534 L23.7807196,35.8234664 L19.732512,34.756746 L19.4871875,31.6844877 L15.7252803,31.6844877 L16.2159292,37.6155863 L23.821607,39.9623528 L23.821607,35.8115534 Z" id="Shape" fill="#000000" fill-rule="nonzero" opacity="0.05"></path>
                    <polygon id="Path" fill="url(#linearGradient-4)" fill-rule="nonzero" points="14.4166177 18.1157778 33.0630468 18.1157778 32.6951486 21.9133432 14.8663792 21.9133432 14.4166177 18.1157778"></polygon>
                    <polygon id="Path" fill="#000000" fill-rule="nonzero" opacity="0.05" points="23.821607 18.1157778 14.4166177 18.1157778 14.8663792 21.9133432 23.821607 21.9133432 23.821607 18.1157778"></polygon>
                </g>
            </g>
        </g>
    </g>
</svg>