<?xml version="1.0" encoding="UTF-8"?>
<svg width="105px" height="48px" viewBox="0 0 105 48" version="1.1" xmlns="http://www.w3.org/2000/svg" xmlns:xlink="http://www.w3.org/1999/xlink">
    <!-- Generator: Sketch 53.2 (72643) - https://sketchapp.com -->
    <title>Group 26</title>
    <desc>Created with Sketch.</desc>
    <g id="Page-1" stroke="none" stroke-width="1" fill="none" fill-rule="evenodd">
        <g id="02-About" transform="translate(-787.000000, -3052.000000)">
            <g id="Group-26" transform="translate(787.000000, 3052.000000)">
                <rect id="Rectangle-Copy-75" fill="#FFFFFF" x="0" y="0" width="105" height="48"></rect>
                <g id="Group-Copy-5" transform="translate(3.544159, 7.390180)">
                    <g id="Group" transform="translate(0.307721, 0.741268)" fill="#FF3366" fill-rule="nonzero">
                        <path d="M29.0162991,0.000951666091 L2.88830659,0.000951666091 C1.29426588,0.000951666091 1.86347248e-20,1.29426588 1.86347248e-20,2.88925825 L1.86347248e-20,29.0029758 C-0.00202152256,29.7707587 0.301236939,30.5078569 0.842981864,31.0519223 C1.38472679,31.5959877 2.12052201,31.9023939 2.88830659,31.903654 L29.0020241,31.903654 C30.5970165,31.903654 31.8903307,30.6093881 31.8903307,29.0153474 L31.8903307,2.88830659 C31.9027024,1.29426588 30.6093881,0 29.0143958,0 L29.0162991,0.000951666091 Z" id="Path"></path>
                        <path d="M44.7977779,24.7623517 L47.855481,24.7623517 L47.855481,11.4456881 L44.7977779,11.4456881 L44.7977779,24.7623517 Z M55.9513045,16.8949281 C54.3924754,16.3876901 52.9421363,15.988942 52.9421363,15.0220492 L52.9421363,14.9744659 C52.9421363,14.1893414 53.6083026,13.6421334 54.8150152,13.6421334 C55.3860148,13.6421334 56.0360028,13.7753667 56.7126374,14.0037665 C56.7126374,14.0037665 56.725009,14.0037665 56.736429,14.0161382 L56.9058256,14.0760931 C57.3892719,14.2331181 58.6949578,14.4377263 59.7941322,12.722824 C58.3685363,11.8044662 56.5556124,11.2239499 54.8873418,11.2239499 C52.2417101,11.2239499 50.1290113,12.7589873 50.1290113,15.2847091 L50.1290113,15.3322924 C50.1290113,17.8827575 52.3178433,18.6916737 54.2973088,19.2474467 C55.8561379,19.7308931 57.2703137,20.0811062 57.2703137,21.1089056 L57.2703137,21.1564889 C57.2703137,22.0386833 56.5089808,22.583988 55.2051983,22.583988 C54.3353755,22.583988 53.3808544,22.3555881 52.4263333,21.9178217 C52.1484468,21.7969601 50.7133343,21.3135138 49.514235,23.0541111 C51.170134,24.3483769 53.2609444,25.0240599 55.1338233,25.0240599 C57.9126883,25.0240599 60.076777,23.6346274 60.076777,20.8310191 L60.076777,20.7948558 C60.076777,18.3899955 57.8898483,17.5078011 55.9436912,16.8930248 L55.9513045,16.8949281 Z M36.4706996,21.2345255 L32.8829184,11.4456881 L29.6091871,11.4456881 L35.0831704,24.8717933 L37.8382438,24.8717933 L43.2884355,11.4456881 L40.0841757,11.4456881 L36.4706996,21.2345255 Z M74.2708767,11.1678016 C70.1863259,11.1678016 67.1524144,14.321623 67.1524144,18.1530307 C67.1524144,21.959695 70.1501626,25.0659332 74.2232934,25.0659332 C78.3316359,25.0659332 81.3655474,21.9121117 81.3655474,18.1054474 C81.3655474,14.2749914 78.3563793,11.1582849 74.2718284,11.1582849 L74.2708767,11.1678016 Z M74.2708767,22.4183981 C71.8917115,22.4183981 70.2101175,20.4731926 70.2101175,18.1044957 C70.2101175,15.7595905 71.7689466,13.8381766 74.2223418,13.8381766 C76.6148303,13.8381766 78.3068926,15.7833821 78.3068926,18.152079 C78.3068926,20.5084043 76.7366436,22.4183981 74.2718284,22.4183981 L74.2708767,22.4183981 Z M90.4177953,11.1678016 C88.3526799,11.1678016 87.1059973,12.2555559 86.2494978,13.5127068 L86.2494978,11.4475914 L83.1917947,11.4475914 L83.1917947,24.7766267 L86.2494978,24.7766267 L86.2494978,17.2584646 C86.2494978,15.1933491 87.4819054,13.9466666 89.258666,13.9466666 C91.0715899,13.9466666 92.1108093,15.1305392 92.1108093,17.1975579 L92.1108093,24.7633033 L95.1666091,24.7633033 L95.1666091,16.2782485 C95.1666091,13.1853337 93.4250601,11.1678016 90.4082786,11.1678016 L90.4177953,11.1678016 Z M62.1028741,24.7623517 L65.1596256,24.7623517 L65.1596256,11.4456881 L62.1019224,11.4456881 L62.1028741,24.7623517 Z" id="Shape"></path>
                    </g>
                    <path d="M10.9663809,10.786104 C12.0293919,10.786104 12.9115864,9.95244451 12.9115864,8.8637385 C12.9115864,7.77503249 12.0170203,6.941373 10.9663809,6.941373 C9.90336988,6.941373 9.02117542,7.77503249 9.02117542,8.8637385 C9.02117542,9.95244451 9.91574154,10.786104 10.9663809,10.786104 Z M6.93131668,21.0688561 C6.82282675,21.5523025 6.76192012,22.0842838 6.76192012,22.4963553 C6.76192012,24.1884176 7.6802779,25.3132869 9.61691839,25.3132869 C11.2366541,25.3132869 12.5413883,24.3587658 13.4835377,22.8008884 L12.9125381,25.1086787 L16.1272661,25.1086787 L17.9639817,17.7494448 C18.4236364,15.8879859 19.2963142,14.9229965 20.6591,14.9229965 C21.7221111,14.9229965 22.374954,15.5872594 22.374954,16.6740621 C22.3830324,17.0222535 22.3341711,17.3694259 22.2303008,17.7018615 L21.2786347,21.0859861 C21.1410914,21.5528795 21.0718536,22.0372236 21.0730748,22.5239536 C21.0730748,24.1417859 22.0247409,25.3028186 23.9975447,25.3028186 C25.689607,25.3028186 27.0305045,24.2150642 27.7804174,21.6046441 L26.5242182,21.1211978 C25.8961185,22.8722634 25.3517655,23.1863132 24.9063858,23.1863132 C24.4610061,23.1863132 24.2421229,22.896055 24.2421229,22.3279104 C24.2421229,22.0738155 24.3020778,21.7854607 24.3867761,21.4333442 L25.3051339,18.1339179 C25.5335338,17.3602134 25.6191837,16.6712071 25.6191837,16.0431075 C25.6191837,13.5687757 24.1326813,12.2963981 22.3197574,12.2963981 C20.6276951,12.2963981 18.9127928,13.8190638 18.0534383,15.4368962 L18.6815379,12.5609613 L13.7833125,12.5609613 L13.0943063,15.0990547 L15.3906766,15.0990547 L13.9765008,20.7548063 C12.8649548,23.2291381 10.8340993,23.2576881 10.5809561,23.2082015 C10.1584164,23.1111315 9.89194989,22.9541066 9.89194989,22.4107053 C9.89194989,22.0966555 9.95190486,21.6493724 10.0975098,21.0935994 L12.2482751,12.5619129 L6.79808343,12.5619129 L6.10907718,15.1000064 L8.36833248,15.1000064 L6.93131668,21.0688561 Z" id="Shape" fill="#FFFFFF"></path>
                </g>
            </g>
        </g>
    </g>
</svg>