<?xml version="1.0" encoding="UTF-8"?>
<svg width="105px" height="48px" viewBox="0 0 105 48" version="1.1" xmlns="http://www.w3.org/2000/svg" xmlns:xlink="http://www.w3.org/1999/xlink">
    <!-- Generator: Sketch 53.2 (72643) - https://sketchapp.com -->
    <title>Group 32</title>
    <desc>Created with Sketch.</desc>
    <g id="Page-1" stroke="none" stroke-width="1" fill="none" fill-rule="evenodd">
        <g id="02-About" transform="translate(-1339.000000, -3053.000000)">
            <g id="Group-32" transform="translate(1339.000000, 3053.000000)">
                <rect id="Rectangle-Copy-70" fill="#FFFFFF" x="0" y="0" width="105" height="48"></rect>
                <g id="a-link-copy-2" transform="translate(38.500000, 17.000000)" fill="#000000" fill-rule="nonzero">
                    <path d="M1.95392876,10.8542113 L1.93640675,10.6237295 L0,10.6237295 L0.0107827754,10.8829654 C0.129842587,13.7673578 2.08871345,15.6786047 5.57199919,15.6786047 C8.89444187,15.6786047 11.1538826,13.9645927 11.1538826,11.3699874 C11.1538826,9.96732802 10.6637156,8.97441412 9.72965768,8.2968964 C9.01080599,7.77527964 8.15222749,7.48099972 6.72755329,7.17458919 L6.41440352,7.10809541 L6.10394945,7.04339875 C3.51608335,6.50560783 2.69569385,6.03700638 2.69569385,4.64423123 C2.69569385,3.20338286 3.88179915,2.28594839 5.87211978,2.28594839 C7.80852653,2.28594839 9.03192225,3.45992306 9.08898111,5.30827048 L9.09661891,5.54953508 L11.0190979,5.54953508 L11.0132572,5.29524129 C10.9463142,2.41399385 8.99957393,0.4748914 5.85280064,0.4748914 C2.76847759,0.4748914 0.731880881,2.31784743 0.731880881,4.70353649 C0.731880881,6.1026016 1.2215986,7.07664565 2.15700436,7.72720643 C2.86956611,8.2232141 3.69534699,8.48649353 5.15192023,8.77852703 C5.30066547,8.80847028 5.44952884,8.83782362 5.59850685,8.86658636 C6.97645569,9.13705431 7.58433465,9.30418733 8.13919831,9.62452562 C8.82794809,10.0221405 9.16940264,10.5900333 9.16940264,11.4697281 C9.16940264,12.9972879 7.87636816,13.8675477 5.61198532,13.8675477 C3.44464746,13.8675477 2.09949623,12.7883716 1.95392876,10.8542113 L1.95392876,10.8542113 Z M15.2005684,0.248902399 L15.2005684,0 L13.2897707,0 L13.2897707,15.4409344 L15.2005684,15.4409344 L15.2005684,12.5273386 L17.2124545,10.5666706 L20.8049159,15.341643 L20.8794967,15.4404851 L23.2566494,15.4404851 L22.9533839,15.0410731 L18.5661421,9.25746197 L22.6123786,5.22739966 L23.0391968,4.80148003 L20.442345,4.80148003 L20.369112,4.87516233 L15.2005684,10.0845907 L15.2005684,0.248902399 L15.2005684,0.248902399 Z M33.189832,10.7562678 L33.4257052,10.7562678 L33.4405315,10.5217424 C33.4484097,10.3951411 33.4544008,10.2684294 33.4585028,10.1416496 C33.4602999,10.0769529 33.4611985,10.0180969 33.4611985,9.96598017 C33.4611985,6.8263954 31.3742822,4.51349007 28.2904084,4.51349007 C25.2123753,4.51349007 23.0194284,6.97555713 23.0194284,10.0859385 C23.0194284,13.2866257 25.1130839,15.6786047 28.3106261,15.6786047 C30.7282142,15.6786047 32.5963301,14.2489884 33.269355,12.080752 L33.3699942,11.7568195 L31.3661951,11.7568195 L31.3068898,11.9230539 C30.8845645,13.1100578 29.7402424,13.8976497 28.3303945,13.8976497 C26.4883371,13.8976497 25.2033897,12.6365142 24.9720093,10.7562678 L33.1902813,10.7562678 L33.189832,10.7562678 Z M24.9176461,9.26465049 C25.2402308,7.55108776 26.4708151,6.41395424 28.1461888,6.41395424 C29.8727807,6.41395424 31.0647267,7.51379733 31.3253104,9.26465049 L24.9180954,9.26465049 L24.9176461,9.26465049 Z M39.6199604,6.47370879 L39.8684135,6.47370879 L39.8684135,4.78350874 L37.5397833,4.78350874 L37.5397833,1.90046417 L35.6289857,1.90046417 L35.6289857,4.78350874 L33.6984196,4.78350874 L33.6984196,6.47370879 L35.6289857,6.47370879 L35.6289857,12.4284965 C35.6289857,14.381976 36.6434651,15.4409344 38.505291,15.4409344 C38.8301221,15.4409344 39.1104743,15.4216152 39.3454489,15.3888176 C39.4910164,15.3685999 39.5912063,15.3474837 39.6464681,15.3322081 L39.8288767,15.2818885 L39.8288767,13.5121654 L39.526959,13.5773114 C39.4384293,13.5952407 39.3494402,13.6108213 39.2600853,13.6240367 C39.0695519,13.6529529 38.8772536,13.6687151 38.6845546,13.6712114 C37.868658,13.6712114 37.5397833,13.2884228 37.5397833,12.3292051 L37.5397833,6.47370879 L39.6199604,6.47370879 L39.6199604,6.47370879 Z M45.5468926,15.6786047 C48.1711506,15.6786047 50.0239908,13.9960425 50.4894473,11.6152955 L50.547854,11.3165228 L48.6352592,11.3165228 L48.5867367,11.5025257 C48.1882233,13.0215492 47.1063515,13.8972004 45.5468926,13.8972004 C43.6015002,13.8972004 42.2590447,12.3426836 42.2590447,10.1061563 C42.2590447,7.85210691 43.5988045,6.29444515 45.5468926,6.29444515 C47.1063515,6.29444515 48.1882233,7.17054565 48.5867367,8.68956913 L48.6352592,8.87557201 L50.547854,8.87557201 L50.4894473,8.57679927 C50.0239908,6.19560304 48.1711506,4.51349007 45.5468926,4.51349007 C42.4985122,4.51349007 40.3433049,6.99307914 40.3433049,10.1061563 C40.3433049,13.2017114 42.5016571,15.6786047 45.5468926,15.6786047 L45.5468926,15.6786047 Z M54.1156048,0.248453117 L54.1156048,0 L52.2088507,0 L52.2088507,15.4409344 L54.1156048,15.4409344 L54.1156048,9.19456245 C54.1156048,7.36778058 55.2244335,6.29579299 56.9065465,6.29579299 C58.51318,6.29579299 59.3200911,7.22895235 59.3200911,8.99553039 L59.3200911,15.4409344 L61.2268452,15.4409344 L61.2268452,8.71607679 C61.2268452,6.22031357 59.6862562,4.56201256 57.1451154,4.56201256 C55.8377039,4.56201256 54.7868326,5.04274463 54.1156048,5.7319437 L54.1156048,0.248902399 L54.1156048,0.248453117 Z" id="a"></path>
                </g>
                <g id="Group-31" transform="translate(3.741148, 9.440716)" fill-rule="nonzero">
                    <g id="b-link-copy-2" fill="#FDB300">
                        <polygon id="b" points="7.22996324 0.978329113 16.5688564 0 25.908403 0.978329113 33.1390198 10.596278 16.5695099 29.7165017 0 10.596278"></polygon>
                    </g>
                    <g id="c-link-copy-2" transform="translate(0.000000, 10.711952)" fill="#EA6C00">
                        <polygon id="c" points="6.71171676 0 16.5695099 19.0045495 0 0"></polygon>
                    </g>
                    <g id="d-link-copy-2" transform="translate(24.640327, 20.711952) scale(-1, 1) translate(-24.640327, -20.711952) translate(16.140327, 10.711952)" fill="#EA6C00">
                        <polygon id="d" points="6.71106323 0 16.5695099 19.0045495 0 0"></polygon>
                    </g>
                    <g id="e-link-copy-2" transform="translate(6.561406, 10.711952)" fill="#FDAD00">
                        <polygon id="e" points="0 0 19.6763747 0 9.83818735 19.0045495"></polygon>
                    </g>
                    <g id="f-link-copy-2" transform="translate(6.561406, 0.000000)" fill="#FDD231">
                        <polygon id="f" points="9.66565637 0 0.508443587 0.988785536 0 10.7119522"></polygon>
                    </g>
                    <g id="g-link-copy-2" transform="translate(21.232552, 5.500000) scale(-1, 1) translate(-21.232552, -5.500000) translate(16.232552, 0.000000)" fill="#FDD231">
                        <polygon id="g" points="9.66565637 0 0.508443587 0.988785536 0 10.7119522"></polygon>
                    </g>
                    <g id="h-link-copy-2" transform="translate(29.140327, 6.036493) scale(-1, 1) translate(-29.140327, -6.036493) translate(25.140327, 1.036493)" fill="#FDAD00">
                        <polygon id="h" points="0 9.67545926 7.24956904 0 6.72936197 9.67545926"></polygon>
                    </g>
                    <g id="Group-Copy-3" transform="translate(6.535265, 0.000000)" fill="#FEEEB7">
                        <g id="j-link" transform="translate(0.026141, 0.000000)">
                            <polygon id="j" points="9.83818735 0 0 10.7119522 19.6763747 10.7119522"></polygon>
                        </g>
                    </g>
                </g>
            </g>
        </g>
    </g>
</svg>