<?xml version="1.0" encoding="UTF-8"?>
<svg width="106px" height="48px" viewBox="0 0 106 48" version="1.1" xmlns="http://www.w3.org/2000/svg" xmlns:xlink="http://www.w3.org/1999/xlink">
    <!-- Generator: Sketch 53.2 (72643) - https://sketchapp.com -->
    <title>Group 33</title>
    <desc>Created with Sketch.</desc>
    <g id="Page-1" stroke="none" stroke-width="1" fill="none" fill-rule="evenodd">
        <g id="02-About" transform="translate(-590.000000, -3142.000000)">
            <g id="Group-33" transform="translate(590.000000, 3142.000000)">
                <rect id="Rectangle-Copy-63" fill="#FFFFFF" x="0" y="0" width="105" height="48"></rect>
                <path d="M1.43689502,40.1600687 L2.55933849,38.8257916 C3.57724064,39.7061394 4.59239172,40.201335 5.91291344,40.201335 C7.06561885,40.201335 7.79465689,39.6703753 7.79465689,38.8670579 L7.79465689,38.8367959 C7.79465689,38.0774959 7.36823841,37.667584 5.3957091,37.2136547 C3.13431565,36.6634373 1.86056241,36.0004253 1.86056241,34.0416514 L1.86056241,34.0113895 C1.86056241,32.1901699 3.37916239,30.9301721 5.48649496,30.9301721 C6.88825554,30.9021313 8.25400836,31.3752671 9.33801665,32.2644493 L8.33662101,33.6757569 C7.38199385,32.9632254 6.4246156,32.5753221 5.45348192,32.5753221 C4.35304715,32.5753221 3.72304825,33.1255395 3.72304825,33.8353199 L3.72304825,33.8655819 C3.72304825,34.690908 4.20999064,35.0485493 6.24304387,35.5354916 C8.49343296,36.0912112 9.67640034,36.8972797 9.67640034,38.6579753 L9.67640034,38.6882372 C9.67640034,40.674522 8.11378297,41.8602405 5.88265148,41.8602405 C4.23987326,41.8715657 2.65291366,41.2646715 1.43689502,40.1600687 Z" id="_Compound_Path_-Copy" fill="#00BF6F" fill-rule="nonzero"></path>
                <path d="M10.8896297,38.7927785 L10.8896297,33.6950145 L12.7246046,33.6950145 L12.7246046,38.2480633 C12.7246046,39.4915546 13.3463503,40.2040861 14.4385318,40.2040861 C15.5307133,40.2040861 16.2432448,39.4612927 16.2432448,38.2178014 L16.2432448,33.6950145 L18.0782198,33.6950145 L18.0782198,41.7061796 L16.2459959,41.7061796 L16.2459959,40.8808535 C15.6015567,41.568963 14.6834063,41.9331962 13.7425068,41.8739959 C11.9350427,41.8739959 10.8896297,40.6607666 10.8896297,38.7927785 Z" id="_Compound_Path_2-Copy" fill="#00BF6F" fill-rule="nonzero"></path>
                <path d="M20.0452469,33.6950145 L21.8802219,33.6950145 L21.8802219,35.0292916 C22.3809197,33.8298177 23.3052849,33.4804297 24.7165925,33.5409536 L24.7165925,35.1695971 L24.6093001,35.1695971 C22.9999143,35.1695971 21.8774708,36.2452721 21.8774708,38.6552242 L21.8774708,41.7061796 L20.0452469,41.7061796 L20.0452469,33.6950145 Z" id="_Compound_Path_3-Copy" fill="#00BF6F" fill-rule="nonzero"></path>
                <polygon id="_Compound_Path_4-Copy" fill="#00BF6F" fill-rule="nonzero" points="25.3741023 33.6950145 27.3466316 33.6950145 29.5007327 39.2714677 31.6850957 33.6950145 33.6108565 33.6950145 30.3095522 41.7667035 28.6589001 41.7667035"></polygon>
                <path d="M33.6108565,37.730859 L33.6108565,37.700597 C33.6108565,35.4089416 35.2339978,33.5271982 37.5256532,33.5271982 C40.0759108,33.5271982 41.3771749,35.5299895 41.3771749,37.8354003 C41.3771749,38.0032166 41.3606683,38.1682818 41.3469129,38.3526046 L35.4595869,38.3526046 C35.6576652,39.6566198 36.5820304,40.3856579 37.7649977,40.3856579 C38.591659,40.3892546 39.3808541,40.0411686 39.9356053,39.4282796 L41.0140314,40.3856579 C40.2168981,41.3712634 39.0044885,41.9270784 37.7374869,41.8877513 C35.4018141,41.8877513 33.6108565,40.2040861 33.6108565,37.730859 Z M39.544951,37.1393753 C39.4239032,35.9564079 38.7196249,35.0292916 37.5118978,35.0292916 C36.3894543,35.0292916 35.5861369,35.8931329 35.432076,37.1393753 L39.544951,37.1393753 Z" id="_Compound_Path_5-Copy" fill="#00BF6F" fill-rule="nonzero"></path>
                <polygon id="_Compound_Path_6-Copy" fill="#00BF6F" fill-rule="nonzero" points="51.099516 31.084233 53.0858008 31.084233 56.3183279 36.5038742 59.550855 31.084233 61.5398909 31.084233 61.5398909 41.7061796 59.6746539 41.7061796 59.6746539 34.091171 56.321079 39.4943057 56.2605551 39.4943057 52.934491 34.1186819 52.934491 41.7061796 51.099516 41.7061796"></polygon>
                <path d="M62.8549104,37.7473655 L62.8549104,37.7171036 C62.904936,35.3998582 64.7934467,33.5451171 67.1112174,33.536906 C69.4289881,33.5286949 71.3305926,35.3700089 71.3970353,37.6868416 L71.3970353,37.7171036 C71.3929474,38.8438222 70.9352398,39.9214112 70.1272177,40.7066576 C69.3191956,41.4919039 68.2289637,41.9186225 67.1025886,41.8905024 C65.9857609,41.9186917 64.90488,41.4946603 64.1051319,40.7145951 C63.3053838,39.9345299 62.8545547,38.8645489 62.8549104,37.7473655 Z M69.5620603,37.7473655 L69.5620603,37.7171036 C69.5620603,36.305796 68.5441582,35.136584 67.1025886,35.136584 C65.6610191,35.136584 64.6981387,36.2920405 64.6981387,37.6868416 L64.6981387,37.7171036 C64.6981387,39.1146557 65.7160408,40.2976231 67.1411038,40.2976231 C68.6211886,40.294872 69.5620603,39.1284111 69.5620603,37.7473655 Z" id="_Compound_Path_7-Copy" fill="#00BF6F" fill-rule="nonzero"></path>
                <polygon id="_Compound_Path_8-Copy" fill="#00BF6F" fill-rule="nonzero" points="81.6668428 30.6303037 83.5018177 30.6303037 83.5018177 37.2466677 86.8251307 33.6950145 89.0562622 33.6950145 85.8815079 36.9578036 89.1828122 41.7089307 87.0589731 41.7089307 84.6462699 38.2480633 83.5238264 39.4172753 83.5238264 41.7089307 81.6888514 41.7089307"></polygon>
                <path d="M89.0149959,37.730859 L89.0149959,37.700597 C89.0149959,35.4089416 90.6381372,33.5271982 92.9297926,33.5271982 C95.4800502,33.5271982 96.7813143,35.5299895 96.7813143,37.8354003 C96.7813143,38.0032166 96.7648077,38.1682818 96.7510523,38.3526046 L90.8637263,38.3526046 C91.0618046,39.6566198 91.9861698,40.3856579 93.1691371,40.3856579 C93.9958712,40.3896041 94.7852025,40.0414579 95.3397447,39.4282796 L96.4181708,40.3856579 C95.6210375,41.3712634 94.4086279,41.9270784 93.1416263,41.8877513 C90.8059535,41.8877513 89.0149959,40.2040861 89.0149959,37.730859 Z M94.9600947,37.1393753 C94.8390469,35.9564079 94.1347687,35.0292916 92.9270415,35.0292916 C91.804598,35.0292916 91.0150361,35.8931329 90.8472198,37.1393753 L94.9600947,37.1393753 Z" id="_Compound_Path_9-Copy" fill="#00BF6F" fill-rule="nonzero"></path>
                <polygon id="_Path_-Copy" fill="#00BF6F" fill-rule="nonzero" points="47.8147183 33.6922634 45.5973422 39.1586731 43.3937216 33.6922634 41.4817162 33.6922634 44.6372129 41.5218568 42.9893118 45.5824611 44.9013172 45.5824611 49.7267237 33.6922634"></polygon>
                <polygon id="_Path_2-Copy" fill="#00BF6F" fill-rule="nonzero" points="103.218858 33.6922634 101.001482 39.1586731 98.797861 33.6922634 96.8858556 33.6922634 100.044103 41.5218568 98.3962023 45.5824611 100.308208 45.5824611 105.130863 33.6922634"></polygon>
                <path d="M79.7961036,36.6084155 L79.7961036,41.7061796 L77.9611287,41.7061796 L77.9611287,37.1558818 C77.9611287,35.9123905 77.339383,35.199859 76.2472015,35.199859 C75.15502,35.199859 74.4424885,35.9426525 74.4424885,37.1861438 L74.4424885,41.7089307 L72.6075135,41.7089307 L72.6075135,33.6950145 L74.4424885,33.6950145 L74.4424885,34.5203406 C75.0869277,33.8322311 76.0050781,33.4679978 76.9459776,33.5271982 C78.7479395,33.5409536 79.7961036,34.7404275 79.7961036,36.6084155 Z" id="_Compound_Path_12-Copy" fill="#00BF6F" fill-rule="nonzero"></path>
                <path d="M67.3711603,17.9293943 C66.9762317,17.9311987 66.5829447,17.9803595 66.1997237,18.0758238 C64.7402012,12.343781 60.0686675,7.99148363 54.2478164,6.94066821 C53.9874972,6.89511234 53.7532099,6.85931845 53.4863826,6.82677854 L53.4863826,6.82677854 C53.5286845,5.40153068 53.5970183,3.75175748 55.6958422,2.27119179 L55.3704432,1.43491622 C55.3704432,1.43491622 51.283431,2.70397253 50.8148564,6.20526635 C50.609855,5.25184712 48.7030165,4.06088658 47.7593593,3.83636124 L47.2907847,4.59454103 C48.1258589,5.1090088 48.6878236,5.96925624 48.8234142,6.94066821 L48.8234142,6.94066821 C43.0004349,7.99083921 38.3271688,12.3448375 36.868253,18.0790778 C34.8147297,17.5703638 32.6666927,18.4378229 31.5423143,20.2298947 C30.4179359,22.0219665 30.5714427,24.333456 31.9229259,25.9611049 C33.2744091,27.5887539 35.5182928,28.164544 37.4865112,27.3887448 C37.9044423,28.4322182 38.4381845,29.4254807 39.0777125,30.3498761 L43.1419467,27.6100161 L43.1061528,27.5644602 C42.0323359,26.1815143 41.3717759,24.1477702 41.2643942,22.1237881 C41.1439965,19.8915506 41.6874129,17.672329 43.1126608,16.3674788 C46.0412523,13.8651601 49.2529409,15.0040568 51.2476371,17.4055018 L51.7877996,17.4055018 C53.7922577,15.0073108 56.9941844,13.8651601 59.9227759,16.3674788 C61.3480238,17.669075 61.8946942,19.8915506 61.7710426,22.1237881 C61.6604069,24.1477702 61.0031008,26.1815143 59.9292839,27.5644602 L59.89349,27.6100161 L63.9577242,30.3498761 C64.5972523,29.4254807 65.1309944,28.4322182 65.5489256,27.3887448 C67.3779904,28.1024052 69.4564723,27.6547054 70.8295297,26.2513156 C72.2025872,24.8479258 72.6047714,22.7601591 71.8513214,20.9471222 C71.0978714,19.1340853 69.3344494,17.946287 67.3711603,17.9293943 Z M35.6122126,24.2714218 C34.8142872,24.2714218 34.1674409,23.6245754 34.1674409,22.82665 C34.1674409,22.0287246 34.8142872,21.3818783 35.6122126,21.3818782 C35.9011567,21.3832526 36.183175,21.4704631 36.4224562,21.6324355 C36.4338988,22.3938384 36.4849469,23.1541305 36.5753938,23.9102289 C36.3095197,24.1447175 35.966713,24.27327 35.6122126,24.2714218 Z M67.46878,24.2714218 C67.108511,24.2738104 66.7603483,24.1415086 66.4925828,23.9004669 C66.5830297,23.1443685 66.6340779,22.3840765 66.6455204,21.6226735 C67.0879863,21.3201984 67.6617383,21.288183 68.135109,21.5395544 C68.6084796,21.7909258 68.9033027,22.2841759 68.9005358,22.820142 C68.9031336,23.202459 68.7537457,23.5701482 68.4852375,23.8423179 C68.2167293,24.1144876 67.851097,24.2688415 67.46878,24.2714218 Z" id="_Compound_Path_13-Copy" fill="#00BF6F" fill-rule="nonzero"></path>
            </g>
        </g>
    </g>
</svg>