<?xml version="1.0" encoding="UTF-8"?>
<svg width="105px" height="48px" viewBox="0 0 105 48" version="1.1" xmlns="http://www.w3.org/2000/svg" xmlns:xlink="http://www.w3.org/1999/xlink">
    <!-- Generator: Sketch 53.2 (72643) - https://sketchapp.com -->
    <title>Group 35</title>
    <desc>Created with Sketch.</desc>
    <defs>
        <linearGradient x1="50.002%" y1="0.002%" x2="50.002%" y2="99.998%" id="linearGradient-1">
            <stop stop-color="#77C150" offset="0%"></stop>
            <stop stop-color="#4C8B3F" offset="100%"></stop>
        </linearGradient>
    </defs>
    <g id="Page-1" stroke="none" stroke-width="1" fill="none" fill-rule="evenodd">
        <g id="02-About" transform="translate(-970.000000, -3142.000000)">
            <g id="Group-35" transform="translate(970.000000, 3142.000000)">
                <rect id="Rectangle-Copy-68" fill="#FFFFFF" x="0" y="0" width="105" height="48"></rect>
                <path d="M45.6230927,29.1405695 C45.6230927,31.4083917 43.7965264,33.1907116 41.5729505,33.1907116 L37.2052408,33.1907116 L38.6345963,37.9994761 L31.4433716,33.1907116 L4.93684232,33.1907116 C2.7132664,33.1907116 0.886700153,31.3641454 0.886700153,29.1405695 L0.886700153,15.6667774 C0.886700153,13.4432015 2.7132664,11.6166353 4.93684232,11.6166353 L41.5289054,11.6166353 C43.7965264,11.6166353 45.5790475,13.4432015 45.5790475,15.6667774 L45.5790475,29.1317202 L45.6230927,29.1317202 L45.6230927,29.1405695 Z" id="Path-Copy-6" fill="url(#linearGradient-1)" fill-rule="nonzero"></path>
                <path d="M4.82200315,17.0961329 C4.82200315,16.1784251 5.42214339,15.6667774 6.21616272,15.6667774 C7.01038317,15.6667774 7.61032229,16.1872744 7.61032229,17.0961329 L7.61032229,23.5289364 C7.61032229,25.2406635 8.68691436,26.5907779 10.4692343,26.5907779 C12.1369163,26.5907779 13.2929505,25.1612213 13.2929505,23.5289364 L13.2929505,17.0961329 C13.2929505,16.1784251 13.8928896,15.6667774 14.6871101,15.6667774 C15.4811294,15.6667774 16.0812696,16.1872744 16.0812696,17.0961329 L16.0812696,23.6878207 C16.0812696,26.7848581 13.5399251,29.1321225 10.4780836,29.1321225 C7.38084508,29.1321225 4.87489755,26.8289033 4.87489755,23.6878207 L4.87489755,17.0961329 L4.82200315,17.0961329 Z M23.2990421,21.9845407 C22.778344,21.9845407 21.7902445,21.1903202 20.9165819,21.1903202 C20.4401301,21.1903202 19.9988741,21.4286467 19.9988741,21.9491436 C19.9988741,23.18462 24.6049103,23.0257357 24.6049103,26.0435321 C24.6049103,27.8347013 23.0961127,29.1846146 20.8282905,29.1846146 C19.3194929,29.1846146 17.131314,28.3465501 17.131314,27.119923 C17.131314,26.7229134 17.5283236,25.9286929 18.2871471,25.9286929 C19.3194929,25.9286929 19.7959447,26.8464007 21.0312199,26.8464007 C21.8256415,26.8464007 22.0637669,26.564029 22.0637669,26.0875772 C22.0637669,24.852302 17.4577307,25.0552314 17.4577307,21.9933899 C17.4577307,20.1668237 18.9665283,18.8961514 21.0754662,18.8961514 C22.3901836,18.8961514 24.4108301,19.4962916 24.4108301,20.8021598 C24.4108301,21.3934508 23.9341771,21.9845407 23.2990421,21.9845407 L23.2990421,21.9845407 Z M28.1786006,24.8874978 C28.3815301,26.2022153 29.4490718,26.7935063 30.6845482,26.7935063 C32.0344615,26.7935063 32.9873651,25.7169142 33.7021434,25.7169142 C34.2580374,25.7169142 34.7787355,26.2728082 34.7787355,26.8729484 C34.7787355,28.0287815 32.3962752,29.1405695 30.4462217,29.1405695 C27.4638223,29.1405695 25.4431759,26.9523906 25.4431759,24.0140364 C25.4431759,21.3140086 27.3932294,18.8521062 30.2080963,18.8521062 C33.1110535,18.8521062 34.9728157,21.4726918 34.9728157,23.6962677 C34.9728157,24.4904882 34.6110019,24.8874978 33.8169826,24.8874978 L28.1786006,24.8874978 L28.1786006,24.8874978 Z M32.3522301,23.1403738 C32.1933458,21.9845407 31.4785675,21.1110792 30.2432922,21.1110792 C29.0520621,21.1110792 28.2580428,22.0285858 28.1343544,23.1403738 L32.3522301,23.1403738 L32.3522301,23.1403738 Z M36.3669752,20.3168587 C36.3669752,19.4433972 37.0817535,19.0021413 37.7170897,19.0021413 C38.4316668,19.0021413 39.0318071,19.2845129 39.0318071,20.1139293 L39.0760533,20.1139293 C39.5965503,19.3551058 40.108198,19.0021413 40.9464636,19.0021413 C41.5820009,19.0021413 42.261181,19.4785931 42.261181,20.4314968 C42.261181,21.3051594 41.4671617,21.3492045 40.6729413,21.7462142 C39.8789219,22.1082291 39.0847015,22.4609925 39.0847015,23.5375845 L39.0847015,27.6317719 C39.0847015,28.5052333 38.5288075,29.1053736 37.7699841,29.1053736 C36.9757636,29.1053736 36.4552666,28.5052333 36.4552666,27.6317719 L36.4552666,20.3168587 L36.3669752,20.3168587 L36.3669752,20.3168587 Z" id="Shape-Copy-3" fill="#FFFFFF" fill-rule="nonzero"></path>
                <g id="Group-Copy-2" transform="translate(47.295469, 14.985856)" fill="#206FA5" fill-rule="nonzero">
                    <path d="M3.33951893,3.34555251 L1.31022434,3.34555251 C0.436561735,3.34555251 0.039350951,2.7104175 0.039350951,2.07508136 C0.039350951,1.43954411 0.516003892,0.804409089 1.31002322,0.804409089 L8.10443939,0.804409089 C8.89845872,0.804409089 9.37491054,1.43974522 9.37491054,2.07508136 C9.37491054,2.7104175 9.01309676,3.34555251 8.10443939,3.34555251 L6.07494368,3.34555251 L6.07494368,12.6016699 C6.07494368,13.5193777 5.47480343,14.0312265 4.6807841,14.0312265 C3.88656366,14.0312265 3.28662453,13.5105284 3.28662453,12.6016699 L3.28662453,3.34555251 L3.33951893,3.34555251 L3.33951893,3.34555251 Z M10.4515026,9.90164221 C10.6544321,11.2163596 11.7221749,11.8076506 12.9574501,11.8076506 C14.3073634,11.8076506 15.2602671,10.7310585 15.9750454,10.7310585 C16.5309394,10.7310585 17.0516374,11.2869525 17.0516374,11.8870928 C17.0516374,13.0429259 14.6691772,14.1547138 12.7191237,14.1547138 C9.73672431,14.1547138 7.71607785,11.9665349 7.71607785,9.02818072 C7.71607785,6.32815298 9.66613141,3.8662506 12.4809983,3.8662506 C15.3839555,3.8662506 17.2457176,6.48683618 17.2457176,8.71041209 C17.2457176,9.50463254 16.8839039,9.90164221 16.0898845,9.90164221 L10.4515026,9.90164221 L10.4515026,9.90164221 Z M14.6162828,8.15451811 C14.4573985,6.99868501 13.7426202,6.12522352 12.5073449,6.12522352 C11.3161148,6.12522352 10.5220955,7.04273016 10.3986082,8.15451811 L14.6160817,8.15451811 L14.6162828,8.15451811 Z M24.2782592,6.99868501 C23.7577622,6.99868501 22.7694615,6.20446456 21.8957989,6.20446456 C21.4193471,6.20446456 20.9780912,6.44279103 20.9780912,6.963288 C20.9780912,8.19876438 25.5841273,8.03988006 25.5841273,11.0576764 C25.5841273,12.8488457 24.0753297,14.198759 21.8077086,14.198759 C20.2987099,14.198759 18.110531,13.3606945 18.110531,12.1340674 C18.110531,11.7370577 18.5075407,10.9428373 19.2663641,10.9428373 C20.2987099,10.9428373 20.7751617,11.860545 22.0106381,11.860545 C22.8046574,11.860545 23.0429839,11.5781734 23.0429839,11.1017216 C23.0429839,9.86644631 18.4369478,10.0693758 18.4369478,7.00753426 C18.4369478,5.18096801 19.9457454,3.91029574 22.0546832,3.91029574 C23.3694007,3.91029574 25.3900471,4.51043599 25.3900471,5.81630415 C25.3900471,6.40759514 24.9133942,6.99868501 24.2782592,6.99868501 Z M27.6930652,6.44279103 L27.0931261,6.44279103 C26.3783478,6.44279103 25.9370918,6.0015351 25.9370918,5.28695793 C25.9370918,4.60737553 26.4577899,4.13092371 27.0931261,4.13092371 L27.6930652,4.13092371 L27.6930652,2.54268393 C27.6930652,1.66922244 28.2489592,1.0690822 29.0077826,1.0690822 C29.8020031,1.0690822 30.3225,1.66922244 30.3225,2.54268393 L30.3225,4.13092371 L31.0813235,4.13092371 C31.7607047,4.13092371 32.3519957,4.44869234 32.3519957,5.28695793 C32.3519957,6.12522352 31.7520566,6.44279103 31.0813235,6.44279103 L30.3225,6.44279103 L30.3225,12.5576248 C30.3225,13.4312874 29.766606,14.0312265 29.0077826,14.0312265 C28.2135622,14.0312265 27.6930652,13.4312874 27.6930652,12.5576248 L27.6930652,6.44279103 Z M36.0314749,1.47494112 C36.0314749,2.31320671 35.3520936,3.027985 34.5226772,3.027985 C33.7284568,3.027985 33.0136785,2.31320671 33.0136785,1.47494112 C33.0136785,0.71611768 33.7284568,0.00154050669 34.5226772,0.00154050669 C35.3166966,0.0101886402 36.0314749,0.680921787 36.0314749,1.47494112 Z M33.2168091,5.49008851 C33.2168091,4.6164259 33.7727031,4.01648678 34.5315265,4.01648678 C35.3255458,4.01648678 35.8462439,4.6164259 35.8462439,5.49008851 L35.8462439,12.6016699 C35.8462439,13.4753325 35.2903499,14.0752717 34.5315265,14.0752717 C33.7373061,14.0752717 33.2168091,13.4753325 33.2168091,12.6016699 L33.2168091,5.49008851 Z M37.222705,5.48988739 C37.222705,4.61622478 37.778599,4.01628566 38.5374224,4.01628566 C39.2168037,4.01628566 39.6492104,4.37809943 39.7726977,5.01343557 C40.2933957,4.29865727 41.0874151,3.9368435 42.3580873,3.9368435 C44.4670252,3.9368435 46.0112198,5.25156092 46.0112198,7.51053384 L46.0112198,12.6016699 C46.0112198,13.4753325 45.4553259,14.0752717 44.6965024,14.0752717 C43.902282,14.0752717 43.3815839,13.4753325 43.3815839,12.6016699 L43.3815839,7.91639276 C43.3815839,6.6811175 42.5875646,6.08982651 41.6346609,6.08982651 C40.5580689,6.08982651 39.9227327,6.88404696 39.9227327,7.91639276 L39.9227327,12.566474 C39.9227327,13.4399355 39.3668387,14.0400758 38.6080153,14.0400758 C37.8137949,14.0400758 37.2932979,13.4399355 37.2932979,12.566474 L37.2932979,5.48988739 L37.222705,5.48988739 L37.222705,5.48988739 Z M56.4937633,13.1575639 C56.4937633,16.3342446 54.3848254,17.9665295 51.3672302,17.9665295 C50.2906381,17.9665295 47.1582037,17.4460326 47.1582037,15.9812801 C47.1582037,15.460582 47.7140977,14.8252459 48.2347958,14.8252459 C49.0730614,14.8252459 50.025965,15.6635114 51.5701596,15.6635114 C52.884877,15.6635114 53.8377807,14.904688 53.8377807,13.5547747 L53.8377807,12.9192374 L53.7935344,12.9192374 C53.2378416,13.713659 52.3201338,14.1901108 51.1289037,14.1901108 C48.3494338,14.1901108 47.0347164,11.7282085 47.0347164,9.10762288 C47.0347164,6.44279103 48.7464435,3.94569275 51.4024261,3.94569275 C52.3201338,3.94569275 53.3524796,4.34270242 53.8289314,5.18096801 C53.9878158,4.46618972 54.4290717,4.06918006 55.1436489,4.06918006 C55.9378693,4.06918006 56.4585674,4.66911918 56.4585674,5.54278179 L56.4585674,13.1752624 L56.4937633,13.1752624 L56.4937633,13.1575639 L56.4937633,13.1575639 Z M51.7288428,6.32815298 C50.3348844,6.32815298 49.6641512,7.75750845 49.6641512,8.99298483 C49.6641512,10.4223403 50.3435325,11.6930126 51.7288428,11.6930126 C53.1583994,11.6930126 53.8377807,10.378094 53.8377807,9.07242698 C53.8377807,7.79290546 53.2024446,6.32815298 51.7288428,6.32815298 L51.7288428,6.32815298 Z" id="Shape"></path>
                </g>
            </g>
        </g>
    </g>
</svg>