<?xml version="1.0" encoding="UTF-8"?>
<svg width="105px" height="48px" viewBox="0 0 105 48" version="1.1" xmlns="http://www.w3.org/2000/svg" xmlns:xlink="http://www.w3.org/1999/xlink">
    <!-- Generator: Sketch 53.2 (72643) - https://sketchapp.com -->
    <title>Group 37</title>
    <desc>Created with Sketch.</desc>
    <g id="Page-1" stroke="none" stroke-width="1" fill="none" fill-rule="evenodd">
        <g id="02-About" transform="translate(-1342.000000, -3142.000000)">
            <g id="Group-37" transform="translate(1342.000000, 3142.000000)">
                <rect id="Rectangle-Copy-73" fill="#FFFFFF" x="0" y="0" width="105" height="48"></rect>
                <polygon id="Path" fill="#F89920" points="4.93015332 30.0439255 0.466851632 25.0527506 14.1289092 20.0800615 16.25478 25.9339086"></polygon>
                <polygon id="Path" fill="#FFBE22" points="4.89728962 29.9514964 4.6775136 36.6474759 18.3395712 31.6747868 16.2137004 25.8209397"></polygon>
                <path d="M42.8641097,16.2452781 C44.8133381,21.8937271 38.5322628,29.3147621 28.7614731,32.8825279 C18.9906833,36.4502937 9.40783288,34.7927306 7.27066518,29.212063 L42.8641097,16.2452781 Z" id="Path" fill="#F0670A"></path>
                <path d="M42.8651367,16.2452781 C40.7413199,10.6512597 31.1492265,8.99677761 21.3681669,12.5563275 C11.5871072,16.1158773 5.30192396,23.5502632 7.27066518,29.1915232 L42.8651367,16.2452781 Z" id="Path" fill="#FFD00E"></path>
                <path d="M42.8641097,16.2452781 C44.0790398,20.024604 37.2598213,25.898991 27.5188143,29.4544329 C17.7778073,33.0098747 8.77007164,32.874312 7.27271917,29.1997392 L42.8641097,16.2452781 Z" id="Path" fill="#F89920"></path>
                <path d="M42.8641097,16.2452781 C41.3883241,12.5522195 32.3682645,12.4207647 22.6118526,15.9720986 C12.8554407,19.5234325 6.0290334,25.4204133 7.27271917,29.1997392 L42.8641097,16.2452781 Z" id="Path" fill="#FFBE22"></path>
                <g id="Group" transform="translate(13.817731, 6.156121)" fill="#F0670A" fill-rule="nonzero">
                    <path d="M12.626851,4.96447316 C11.7076943,1.7499922 10.6396239,-0.0328637032 9.43804476,0.00102699072 C7.11293776,0.0667543971 6.33139782,7.43952081 7.08418202,16.8868085 C7.84415516,26.4347413 9.81597735,33.6062175 12.2766471,33.5415171 C13.7431899,33.5035184 14.5688904,31.1568446 14.8595288,27.0714755 C14.8656907,26.9893163 14.7722346,27.0458007 14.7773695,26.9605605 C14.7773695,26.9605605 14.7650457,26.8116469 14.7106151,26.8085659 L14.39841,26.7880261 C14.1416623,30.7419404 13.3693653,33.0218598 12.2622693,33.0526695 C10.2411515,33.104019 8.28781515,26.0105941 7.55865174,16.8385399 C6.83975823,7.81642641 7.61410923,0.5093874 9.45036865,0.468307771 C10.3192028,0.443659993 11.293817,2.08581816 12.1554622,5.04663242 L12.627878,4.94393335 L12.626851,4.96447316 Z" id="Path"></path>
                    <path d="M1.10401503,2.67017588 C-0.87807707,3.89024087 2.13305974,10.6652987 7.50832919,18.4714552 C12.95138,26.3587439 18.2352473,31.5840728 20.3323624,30.2982804 C21.5031318,29.5793869 21.1744948,27.3980586 19.6648184,24.1055263 C19.6309277,24.023367 19.5559574,23.9689365 19.4594203,23.9586666 C19.3628831,23.9483967 19.2868858,23.9894763 19.2375903,24.0613657 C19.1882947,24.133255 19.1811058,24.2256842 19.2211584,24.3047625 C20.6240277,27.3651949 20.925963,29.3678268 20.0715067,29.891592 C18.3461623,30.9493925 13.1105636,25.7795212 7.89139673,18.2003296 C2.75849709,10.7464309 -0.219776015,4.04223549 1.34433086,3.0778912 C2.16592344,2.56644982 4.15006952,3.80089267 6.76170693,6.46696059 C6.8347038,6.54314291 6.91257704,6.61449813 6.99483383,6.68057467 C7.07699309,6.70522244 7.03591346,6.53371499 7.09958688,6.47004157 C7.14522342,6.42585054 7.17113642,6.36514008 7.17147623,6.30161509 C7.17147623,6.23794166 7.14785545,6.1783762 7.10266785,6.13216162 C4.31336104,3.28328935 2.22035395,1.97490316 1.09271813,2.66914889 L1.10401503,2.67017588 Z" id="Path"></path>
                </g>
                <g id="Group" transform="translate(45.771132, 17.769863)" fill="#574751">
                    <path d="M14.4671584,7.67091431 L19.3053557,7.67091431 L19.3053557,10.0833723 L11.661004,10.0833723 L11.661004,0.0275113177 L19.3053557,0.0275113177 L19.3053557,2.44091795 L14.4671584,2.44091795 L14.4671584,3.64856993 L17.4839167,3.64856993 L17.4839167,6.06292522 L14.4671584,6.06292522 L14.4671584,7.67091431 Z M36.3936786,7.67091431 L40.8192061,7.67091431 L40.8192061,10.0833723 L33.5780376,10.0833723 L33.5780376,0.0275113177 L36.395576,0.0275113177 L36.3936786,7.67091431 Z M43.6357959,0.0265626516 L46.4533343,0.0265626516 L46.4533343,10.0824236 L43.6357959,10.0824236 L43.6357959,0.0265626516 Z M49.6693124,0.0265626516 L49.6693124,10.0824236 L52.284785,10.0824236 L52.284785,4.4587308 L55.9058436,10.0919103 L58.5213161,10.0919103 L58.5213161,0.0360493128 L55.9058436,0.0360493128 L55.9058436,5.7527114 L52.284785,0.0607146322 L49.6693124,0.0265626516 Z" id="Shape"></path>
                    <path d="M24.9366378,4.65320736 L26.942118,4.65320736 C27.6090303,4.65320736 28.14977,4.11246766 28.14977,3.44650404 C28.14977,2.78054042 27.6090303,2.23885206 26.942118,2.23885206 L24.9262025,2.23885206 L24.9262025,4.65320736 L24.9366378,4.65320736 Z M27.3538391,0.0265626516 C28.2607639,0.0265626516 29.1297421,0.38705578 29.7710404,1.02835408 C30.4123387,1.66965238 30.7718832,2.53957922 30.7718832,3.44745271 C30.7718056,4.35454364 30.4118609,5.22455207 29.7710404,5.86655133 C29.1306908,6.5087983 28.2607639,6.86834276 27.3538391,6.86834276 L25.2193403,6.86834276 L25.2193403,10.0938076 L22.322114,10.0938076 L22.322114,0.0256139854 L27.3528905,0.0256139854 L27.3538391,0.0265626516 Z" id="Shape"></path>
                    <polygon id="Path" points="8.44312853 2.43996928 8.44312853 0.0284599838 0.195425222 0.0284599838 0.195425222 2.44186661 4.82206993 2.44186661 0.195425222 7.67281164 0.195425222 10.0871669 8.44312853 10.0871669 8.44312853 7.67281164 4.01760105 7.67281164"></polygon>
                </g>
            </g>
        </g>
    </g>
</svg>