<?xml version="1.0" encoding="UTF-8"?>
<svg width="1042px" height="207px" viewBox="0 0 1042 207" version="1.1" xmlns="http://www.w3.org/2000/svg" xmlns:xlink="http://www.w3.org/1999/xlink">
    <!-- Generator: Sketch 53.2 (72643) - https://sketchapp.com -->
    <title>Artboard</title>
    <desc>Created with Sketch.</desc>
    <g id="Artboard" stroke="none" stroke-width="1" fill="none" fill-rule="evenodd">
        <g id="home_logo_boxed_for_svg" fill="#FFFFFF" fill-rule="nonzero">
            <path d="M141.363704,0 L141.363704,158.272494 C141.363704,173.722264 141.926255,189.987324 142.480653,199.249033 L104.594068,199.249033 L102.629216,179.046116 L102.066665,179.046116 C93.3675071,194.471426 76.8170943,202.330834 59.1252738,202.330834 C26.5706934,202.330834 0.473219869,174.545708 0.473219869,131.897822 C0.187867925,85.5811245 29.0980963,58.9292529 61.9298757,58.9292529 C78.7737934,58.9292529 91.9570532,64.8238088 98.1288081,74.3545637 L98.6913591,74.3545637 L98.6913591,0 L141.363704,0 Z M98.699512,120.10871 C98.699512,117.866659 98.4223129,114.784858 98.136961,112.518348 C95.6095581,101.022741 86.3560022,91.4756804 73.1564365,91.4756804 C53.7932689,91.4756804 43.69181,108.890302 43.69181,130.487368 C43.69181,153.796545 55.1955699,168.373953 72.8873904,168.373953 C85.2309002,168.373953 95.05516,159.9683 97.5825629,147.901989 C98.4304659,144.820188 98.699512,141.730234 98.699512,138.077729 L98.699512,120.10871 Z M222.72162,199.249033 L220.194217,185.49507 L219.346314,185.49507 C210.361804,196.444431 196.330641,202.338987 180.049275,202.338987 C152.272301,202.338987 135.705583,182.13607 135.705583,160.245499 C135.705583,124.592812 167.697612,107.479848 216.25636,107.781506 L216.25636,105.816654 C216.25636,98.5034911 212.326656,88.1329862 191.275836,88.1329862 C177.244673,88.1329862 162.365607,92.910593 153.38925,98.511644 L145.529842,71.0200225 C155.06875,65.6717117 173.87752,58.9537117 198.858044,58.9537117 C244.604037,58.9537117 259.197751,85.8990881 259.197751,118.160164 L259.197751,165.871009 C259.197751,179.054269 259.760302,191.691283 261.162603,199.257186 L222.72162,199.257186 L222.72162,199.249033 Z M217.666814,134.417072 C195.213692,134.139873 177.815377,139.463724 177.815377,156.038596 C177.815377,166.987958 185.104081,172.31181 194.642989,172.31181 C205.315151,172.31181 214.006156,165.300305 216.818911,156.592994 C217.381462,154.350943 217.666814,151.839846 217.666814,149.30429 L217.666814,134.417072 L217.666814,134.417072 Z M251.705224,105.800348 C251.705224,88.6629255 251.142673,74.0855176 250.588275,62.0192068 L287.635111,62.0192068 L289.599963,80.8279764 L290.447866,80.8279764 C296.057069,72.1206657 310.088232,58.9374058 332.826706,58.9374058 C360.889031,58.9374058 381.931699,77.4445177 381.931699,117.874812 L381.931699,199.249033 L339.27566,199.249033 L339.27566,123.190511 C339.27566,105.506843 333.095752,93.4405324 317.654135,93.4405324 C305.873176,93.4405324 298.861671,101.577139 296.048917,109.436547 C294.931968,111.972103 294.369417,116.179006 294.369417,120.10871 L294.369417,199.24088 L251.705224,199.24088 L251.705224,105.800348 L251.705224,105.800348 Z M504.404753,155.190693 C504.404753,173.15156 504.967304,187.753426 505.521702,199.249033 L468.474867,199.249033 L466.510015,179.894019 L465.662112,179.894019 C460.330107,188.299672 447.415894,202.330834 422.720721,202.330834 C394.935595,202.330834 374.447325,184.940671 374.447325,142.553678 L374.447325,62.0192068 L417.388716,62.0192068 L417.388716,135.827525 C417.388716,155.753244 423.845823,167.819555 438.724889,167.819555 C450.514,167.819555 457.248306,159.682948 460.061061,152.940489 C461.17801,150.404933 461.463362,147.045933 461.463362,143.686933 L461.463362,62.0192068 L504.404753,62.0192068 L504.404753,155.190693 Z M534.431931,62.0192068 L547.900543,84.7332216 C551.822094,91.7691853 555.474598,98.7888431 559.11895,105.229644 L559.681501,105.229644 C563.334006,97.9409402 566.693006,90.9212823 570.353664,84.1869765 L582.419975,62.0192068 L628.728519,62.0192068 L583.536924,127.397414 L629.282917,199.24088 L581.009521,199.24088 L567.255557,174.537555 C563.334006,167.819555 559.966853,160.799897 556.591547,153.788392 L555.751797,153.788392 C552.392797,161.077096 548.740293,167.819555 545.37314,174.537555 L532.458926,199.24088 L485.587831,199.24088 L532.173574,129.362266 L486.712933,62.0192068 L534.431931,62.0192068 Z M642.759682,176.51056 C642.759682,161.362448 653.146492,150.413086 668.025558,150.413086 C682.904624,150.413086 693.006083,161.085249 693.006083,176.51056 C693.006083,191.389625 682.904624,202.330834 667.740206,202.330834 C653.146492,202.330834 642.759682,191.381473 642.759682,176.51056 Z M710.021211,105.800348 C710.021211,88.6629255 709.45866,74.0855176 708.904262,62.0192068 L744.825996,62.0192068 L746.790848,80.5263187 L747.638751,80.5263187 C753.525154,71.8434666 765.599617,58.9292529 789.169688,58.9292529 C806.845203,58.9292529 820.884518,67.9137627 826.770921,82.2139716 L827.333472,82.2139716 C832.396431,75.2024667 838.568186,69.5769569 845.01714,65.647253 C852.591196,61.1713039 861.013154,58.9292529 871.114613,58.9292529 C897.505592,58.9292529 917.415004,77.4363647 917.415004,118.412904 L917.415004,199.24088 L875.89222,199.24088 L875.89222,124.584659 C875.89222,104.65894 869.42696,93.1633333 855.689302,93.1633333 C845.865043,93.1633333 838.845385,99.9057921 836.040783,108.042399 C834.923834,111.1242 834.35313,115.608302 834.35313,118.991761 L834.35313,199.249033 L792.822193,199.249033 L792.822193,122.350761 C792.822193,104.960598 786.650438,93.1714862 773.181826,93.1714862 C762.232464,93.1714862 755.78351,101.577139 753.256107,108.596797 C751.853806,111.980256 751.576607,115.90996 751.576607,119.26896 L751.576607,199.249033 L710.029364,199.249033 L710.029364,105.800348 L710.021211,105.800348 Z M947.809063,144.241331 C949.203211,161.924999 966.617833,170.338805 986.543551,170.338805 C1001.14542,170.338805 1012.91822,168.373953 1024.43014,164.737754 L1030.03119,193.647982 C1016.00002,199.249033 998.887061,202.053635 980.371796,202.053635 C933.7779,202.053635 907.109723,175.108259 907.109723,132.175021 C907.109723,97.3702363 928.731247,58.9374058 976.442092,58.9374058 C1020.77763,58.9374058 1037.6134,93.4405324 1037.6134,127.405567 C1037.6134,134.718729 1036.76549,141.15953 1036.21925,144.249484 L947.809063,144.249484 L947.809063,144.241331 Z M998.039158,115.062057 C998.039158,104.667093 993.563209,87.2769304 973.906536,87.2769304 C955.94567,87.2769304 948.656966,103.550144 947.531864,115.062057 L998.039158,115.062057 Z" id="Shape"></path>
        </g>
    </g>
</svg>