<?xml version="1.0" encoding="UTF-8"?>
<svg width="82px" height="82px" viewBox="0 0 82 82" version="1.1" xmlns="http://www.w3.org/2000/svg" xmlns:xlink="http://www.w3.org/1999/xlink">
    <!-- Generator: Sketch 53.2 (72643) - https://sketchapp.com -->
    <title>Group 2</title>
    <desc>Created with Sketch.</desc>
    <defs>
        <polygon id="path-1" points="22.2511851 0.000174683544 44.5020779 0.000174683544 44.5020779 45.9704785 22.2511851 45.9704785 0.000292207792 45.9704785 0.000292207792 0.000174683544 22.2511851 0.000174683544"></polygon>
    </defs>
    <g id="Main" stroke="none" stroke-width="1" fill="none" fill-rule="evenodd">
        <g id="Client-Page---Organ-Donor" transform="translate(-471.000000, -2537.000000)">
            <g id="Group-2" transform="translate(471.000000, 2537.000000)">
                <circle id="Oval-2-Copy" fill="#FFFFFF" cx="41" cy="41" r="41"></circle>
                <g id="Page-1" transform="translate(17.000000, 19.000000)">
                    <mask id="mask-2" fill="white">
                        <use xlink:href="#path-1"></use>
                    </mask>
                    <g id="Clip-2"></g>
                    <path d="M23.3652273,6.85999747 L23.3652273,16.2434152 L29.2158117,16.2434152 C30.5149675,16.2434152 31.5786039,15.1842506 31.5786039,13.8892633 L31.5786039,10.7554405 C30.2280195,10.2535165 29.2666558,8.95736456 29.2666558,7.43645316 C29.2666558,5.48116203 30.8574351,3.89561772 32.8210714,3.89561772 C34.7841234,3.89561772 36.375487,5.48116203 36.375487,7.43645316 C36.375487,8.95736456 35.413539,10.2535165 34.063539,10.7554405 L34.063539,13.8892633 C34.063539,16.5392127 31.875487,18.7192633 29.2158117,18.7192633 L23.3652273,18.7192633 L23.3652273,23.2785038 L37.6167857,23.2785038 C38.1199675,21.9334405 39.421461,20.9750101 40.9479545,20.9750101 C42.9104221,20.9750101 44.5023701,22.5605544 44.5023701,24.5158456 C44.5023701,26.471719 42.9104221,28.0578456 40.9479545,28.0578456 C39.4220455,28.0578456 38.1205519,27.0999975 37.6167857,25.7543519 L23.3652273,25.7543519 L23.3652273,30.3374658 L30.6376948,30.3374658 C33.2991234,30.3374658 35.4848377,32.5169342 35.4848377,35.1674658 L35.4848377,36.8840228 C36.8354221,37.3865291 37.7967857,38.6832633 37.7967857,40.2041747 C37.7967857,42.1594658 36.2060065,43.7450101 34.2423701,43.7450101 C32.2799026,43.7450101 30.6879545,42.1594658 30.6879545,40.2041747 C30.6879545,38.6832633 31.6499026,37.3871114 32.9999026,36.8846051 L32.9999026,35.1674658 C32.9999026,33.8753899 31.9333442,32.8133139 30.6376948,32.8133139 L23.3652273,32.8133139 L23.3652273,44.7325544 C23.3652273,45.4161494 22.8088636,45.9704785 22.1227597,45.9704785 C21.4366558,45.9704785 20.8802922,45.4161494 20.8802922,44.7325544 L20.8802922,38.9062759 L15.2126299,38.9062759 C14.7082792,40.2513392 13.4073701,41.2097696 11.881461,41.2097696 C9.91782468,41.2097696 8.32704545,39.623643 8.32704545,37.6683519 C8.32704545,35.7124785 9.91782468,34.1269342 11.881461,34.1269342 C13.4073701,34.1269342 14.7082792,35.0853646 15.2126299,36.4304278 L20.8802922,36.4304278 L20.8802922,29.3440987 L6.88587662,29.3440987 C6.38152597,30.6897443 5.08061688,31.6475924 3.55470779,31.6475924 C1.59107143,31.6475924 0.000292207792,30.0620481 0.000292207792,28.1055924 C0.000292207792,26.1503013 1.59107143,24.5641747 3.55470779,24.5641747 C5.08061688,24.5641747 6.38152597,25.5231873 6.88587662,26.8682506 L20.8802922,26.8682506 L20.8802922,22.260681 L14.3529545,22.260681 C11.6891883,22.260681 9.50522727,20.0841241 9.50522727,17.4312633 L9.50522727,13.2347823 C8.15522727,12.7328582 7.19327922,11.4361241 7.19327922,9.91579494 C7.19327922,7.9605038 8.78522727,6.37437722 10.7482792,6.37437722 C12.7113312,6.37437722 14.3026948,7.9605038 14.3026948,9.91579494 C14.3026948,11.4361241 13.3407468,12.7334405 11.9901623,13.2347823 L11.9901623,17.4312633 C11.9901623,18.7221747 13.0549675,19.7848329 14.3529545,19.7848329 L20.8802922,19.7848329 L20.8802922,6.85999747 C19.5302922,6.35807342 18.5683442,5.06192152 18.5683442,3.54159241 C18.5683442,1.58513671 20.1597078,0.000174683544 22.1227597,0.000174683544 C24.0852273,0.000174683544 25.6771753,1.58513671 25.6771753,3.54159241 C25.6771753,5.06133924 24.7158117,6.35807342 23.3652273,6.85999747" id="Fill-1" fill="#98D8E7" mask="url(#mask-2)"></path>
                </g>
            </g>
        </g>
    </g>
</svg>